<svg width="10" height="10" viewBox="0 0 10 10" fill="none" xmlns="http://www.w3.org/2000/svg">
<g id="&#229;&#155;&#190;&#229;&#177;&#130;_x0020_1">
<path id="Vector" d="M5 10C7.76142 10 10 7.76142 10 5C10 2.23858 7.76142 0 5 0C2.23858 0 0 2.23858 0 5C0 7.76142 2.23858 10 5 10Z" fill="#5FB868"/>
<path id="Vector_2" fill-rule="evenodd" clip-rule="evenodd" d="M3.43883 7.43852L1.61017 5.48132C1.35981 5.21337 1.37418 4.78943 1.64213 4.53908C1.91009 4.28872 2.33402 4.30313 2.58438 4.57104L3.99493 6.08073L6.22765 3.99463C6.24772 3.97585 6.26871 3.95864 6.2904 3.94282L7.34036 2.96183C7.60832 2.71148 8.03229 2.72589 8.28261 2.99384C8.53296 3.26175 8.51855 3.68573 8.25064 3.93608L5.04379 6.93234L5.04036 6.92868L3.93107 7.96514L3.43883 7.43829V7.43852Z" fill="white"/>
</g>
</svg>
