<svg width="22" height="27" viewBox="0 0 22 27" fill="none" xmlns="http://www.w3.org/2000/svg">
<g id="Group">
<path id="Vector" fill-rule="evenodd" clip-rule="evenodd" d="M6.927 5.24313C6.9269 4.50782 7.15593 3.78898 7.58513 3.17753C8.01434 2.56607 8.62444 2.08945 9.3383 1.80793C10.0522 1.52641 10.8377 1.45265 11.5956 1.59595C12.3535 1.73926 13.0498 2.0932 13.5963 2.61303C14.1428 3.13286 14.5151 3.79523 14.6661 4.51638C14.817 5.23753 14.7398 5.98508 14.4443 6.6645C14.1488 7.34392 13.6482 7.9247 13.0058 8.3334C12.3634 8.74209 11.6081 8.96036 10.8354 8.96059C9.79946 8.95955 8.80625 8.56762 8.07357 7.87073C7.34089 7.17384 6.92856 6.2289 6.927 5.24313Z" fill="#00733C"/>
<path id="Vector_2" d="M10.8349 1.5272H10.8348C9.80217 1.5277 8.81099 1.9181 8.07916 2.61412C7.34716 3.31031 6.93444 4.25555 6.93336 5.24261V5.24272C6.93333 5.97867 7.16264 6.69768 7.59166 7.30879C8.02064 7.91985 8.62985 8.39542 9.34171 8.67613C10.0536 8.95683 10.8366 9.03032 11.5921 8.88748C12.3475 8.74464 13.0422 8.39174 13.588 7.87268C14.1338 7.35358 14.5062 6.69151 14.6573 5.9699C14.8084 5.24824 14.7312 4.50021 14.4357 3.82061C14.1402 3.14107 13.64 2.56097 12.999 2.15307C12.3581 1.74519 11.605 1.52756 10.8349 1.5272ZM1.60919 17.8368V17.8369V23.8208C1.60917 23.9115 1.62793 24.0012 1.66427 24.0847L1.75597 24.0448L1.66427 24.0847C1.7006 24.1682 1.75371 24.2438 1.82033 24.3072C1.88694 24.3706 1.96576 24.4207 2.05216 24.4548C2.13856 24.4888 2.231 24.5063 2.32426 24.5063H4.92085H5.02085V24.4063V18.8135C5.02085 18.626 5.09908 18.4451 5.24008 18.3109C5.38125 18.1766 5.57374 18.1003 5.77542 18.1003C5.9771 18.1003 6.16958 18.1766 6.31075 18.3109C6.45176 18.4451 6.52999 18.626 6.52999 18.8135V24.4063V24.5063H6.62999H15.0372H15.1372V24.4063L15.1372 18.8135L15.1372 18.8127C15.1364 18.7192 15.1551 18.6265 15.1922 18.5397C15.2294 18.4528 15.2844 18.3735 15.3543 18.3065C15.4242 18.2394 15.5077 18.1859 15.6 18.1493C15.6923 18.1127 15.7915 18.0938 15.8918 18.0938C15.9921 18.0938 16.0912 18.1127 16.1835 18.1493C16.2759 18.1859 16.3593 18.2394 16.4293 18.3065C16.4992 18.3735 16.5542 18.4528 16.5913 18.5397C16.6285 18.6265 16.6472 18.7192 16.6464 18.8127V18.8135V24.4063V24.5063H16.7464H19.3429C19.5311 24.5064 19.7127 24.4354 19.8475 24.3077C19.9824 24.1797 20.0596 24.005 20.0603 23.8215V23.8211V17.8369V17.8368C20.0586 16.5089 19.5033 15.237 18.5181 14.2997C17.5331 13.3626 16.1987 12.8363 14.8079 12.8349H14.8078H6.85938H6.85927C5.46867 12.8363 4.13453 13.3627 3.14991 14.2999C2.16512 15.2372 1.61038 16.5092 1.60919 17.8368ZM13.8418 9.51718C12.9523 10.083 11.9058 10.3854 10.8349 10.3856C9.39884 10.3846 8.02283 9.84133 7.00871 8.87649C5.99475 7.91181 5.4255 6.60477 5.42417 5.24262C5.42421 4.22669 5.74078 3.23314 6.33451 2.38757C6.92831 1.54191 7.77282 0.882054 8.76181 0.492194C9.75084 0.102321 10.8394 0.000202012 11.8897 0.198933C12.9399 0.39766 13.904 0.88816 14.6603 1.6077C15.4166 2.32718 15.931 3.24328 16.1395 4.23986C16.3479 5.23639 16.2412 6.26942 15.8326 7.20855C15.4239 8.14775 14.7314 8.95136 13.8418 9.51718ZM20.9184 25.3125C20.5012 25.7092 19.9347 25.933 19.3429 25.9334H2.32436C1.73289 25.9329 1.16675 25.709 0.750033 25.3123C0.333499 24.9158 0.100339 24.3793 0.1 23.8208C0.1 23.8208 0.1 23.8208 0.1 23.8208L0.1 17.8367C0.1 14.2961 3.12604 11.4075 6.85938 11.4075H14.8077C16.602 11.4093 18.3214 12.0884 19.5888 13.2944C20.856 14.5002 21.5678 16.134 21.5698 17.8371V23.8206C21.569 24.3793 21.3353 24.916 20.9184 25.3125Z" fill="#222222" stroke="white" stroke-width="0.2"/>
</g>
</svg>
