<svg width="28" height="26" viewBox="0 0 28 26" fill="none" xmlns="http://www.w3.org/2000/svg">
<g id="Group 2">
<g id="Group">
<path id="Vector" d="M19.2145 8.91909H17.3399V6.24336C17.3399 2.80073 14.3967 0 10.7789 0C7.16106 0 4.21782 2.80073 4.21782 6.24336V8.91909H2.34323C1.05127 8.91909 0 9.91945 0 11.1489V12.4956C0 12.7419 0.209626 12.9416 0.468647 12.9416C0.727668 12.9416 0.937293 12.7419 0.937293 12.4956V11.1489C0.937293 10.4111 1.56795 9.811 2.34323 9.811H19.2145C19.9898 9.811 20.6204 10.4111 20.6204 11.1489V12.9327C20.6204 13.1789 20.8301 13.3786 21.0891 13.3786C21.3481 13.3786 21.5577 13.1789 21.5577 12.9327V11.1489C21.5577 9.91945 20.5065 8.91909 19.2145 8.91909ZM5.15511 6.24336C5.15511 3.29262 7.67774 0.891909 10.7789 0.891909C13.88 0.891909 16.4026 3.29262 16.4026 6.24336V8.91909H14.528V6.24336C14.528 4.27621 12.8461 2.67573 10.7789 2.67573C8.71162 2.67573 7.0297 4.27621 7.0297 6.24336V8.91909H5.15511V6.24336ZM13.5908 8.91909H7.96699V6.24336C7.96699 4.76788 9.22831 3.56764 10.7789 3.56764C12.3294 3.56764 13.5908 4.76788 13.5908 6.24336V8.91909Z" fill="#32938C"/>
<path id="Vector_2" d="M0.478435 15.273C0.742866 15.273 0.95687 15.0733 0.95687 14.827V14.0059C0.95687 13.7596 0.742866 13.5599 0.478435 13.5599C0.214004 13.5599 0 13.7596 0 14.0059V14.827C0 15.0733 0.214004 15.273 0.478435 15.273Z" fill="#32938C"/>
<path id="Vector_3" d="M21.0891 23.1896C20.8301 23.1896 20.6204 23.3893 20.6204 23.6356C20.6204 24.3733 19.9898 24.9734 19.2145 24.9734H2.34323C1.56795 24.9734 0.937293 24.3733 0.937293 23.6356V16.5225C0.937293 16.2762 0.727668 16.0765 0.468647 16.0765C0.209626 16.0765 0 16.2762 0 16.5225V23.6356C0 24.865 1.05127 25.8653 2.34323 25.8653H19.2145C20.5065 25.8653 21.5577 24.865 21.5577 23.6356C21.5577 23.3893 21.3481 23.1896 21.0891 23.1896Z" fill="#32938C"/>
</g>
<g id="Group_2">
<path id="Vector_4" d="M25.3069 14.2706H6.09236C5.05848 14.2706 4.21777 15.0709 4.21777 16.0545V20.514C4.21777 21.4976 5.05848 22.2978 6.09236 22.2978H15.5353C15.7943 22.2978 16.004 22.0981 16.004 21.8519C16.004 21.6056 15.7943 21.4059 15.5353 21.4059H6.09236C5.57568 21.4059 5.15507 21.0059 5.15507 20.514V16.0545C5.15507 15.5626 5.57568 15.1625 6.09236 15.1625H25.3069C25.8236 15.1625 26.2442 15.5626 26.2442 16.0545V20.514C26.2442 21.0059 25.8236 21.4059 25.3069 21.4059H18.1847C17.9257 21.4059 17.7161 21.6056 17.7161 21.8519C17.7161 22.0981 17.9257 22.2978 18.1847 22.2978H25.3069C26.3408 22.2978 27.1815 21.4976 27.1815 20.514V16.0545C27.1815 15.0709 26.3408 14.2706 25.3069 14.2706Z" fill="#222222"/>
<path id="Vector_5" d="M10.2933 17.3924C10.1633 17.1787 9.87635 17.1058 9.65299 17.229L9.13855 17.5117V16.9464C9.13855 16.7002 8.92893 16.5005 8.66991 16.5005C8.41089 16.5005 8.20126 16.7002 8.20126 16.9464V17.5117L7.68683 17.229C7.46258 17.1058 7.1761 17.1787 7.04656 17.3924C6.91703 17.6055 6.99393 17.8784 7.21818 18.0016L7.73257 18.2843L7.21818 18.5669C6.99393 18.6902 6.91703 18.963 7.04656 19.1762C7.1335 19.3192 7.29096 19.3992 7.45297 19.3992C7.5326 19.3992 7.61316 19.38 7.68683 19.3395L8.20126 19.0568V19.6221C8.20126 19.8683 8.41089 20.068 8.66991 20.068C8.92893 20.068 9.13855 19.8683 9.13855 19.6221V19.0568L9.65299 19.3395C9.72666 19.38 9.80722 19.3992 9.88684 19.3992C10.0489 19.3992 10.2063 19.3192 10.2933 19.1762C10.4228 18.963 10.3459 18.6902 10.1216 18.5669L9.60725 18.2843L10.1216 18.0016C10.3459 17.8784 10.4228 17.6055 10.2933 17.3924Z" fill="#222222"/>
<path id="Vector_6" d="M14.9798 17.3924C14.8498 17.1787 14.5629 17.1058 14.3395 17.229L13.8251 17.5117V16.9464C13.8251 16.7002 13.6155 16.5005 13.3564 16.5005C13.0974 16.5005 12.8878 16.7002 12.8878 16.9464V17.5117L12.3734 17.229C12.1491 17.1058 11.8626 17.1787 11.7331 17.3924C11.6036 17.6055 11.6805 17.8784 11.9047 18.0016L12.4191 18.2843L11.9047 18.5669C11.6805 18.6902 11.6036 18.963 11.7331 19.1762C11.82 19.3192 11.9775 19.3992 12.1395 19.3992C12.2191 19.3992 12.2997 19.38 12.3734 19.3395L12.8878 19.0568V19.6221C12.8878 19.8683 13.0974 20.068 13.3564 20.068C13.6155 20.068 13.8251 19.8683 13.8251 19.6221V19.0568L14.3395 19.3395C14.4132 19.38 14.4937 19.3992 14.5734 19.3992C14.7354 19.3992 14.8928 19.3192 14.9798 19.1762C15.1093 18.963 15.0324 18.6902 14.8082 18.5669L14.2938 18.2843L14.8082 18.0016C15.0324 17.8784 15.1093 17.6055 14.9798 17.3924Z" fill="#222222"/>
<path id="Vector_7" d="M18.5116 19.6221V19.0568L19.026 19.3395C19.0997 19.38 19.1803 19.3992 19.2599 19.3992C19.4219 19.3992 19.5793 19.3192 19.6663 19.1762C19.7958 18.963 19.7189 18.6902 19.4947 18.5669L18.9803 18.2843L19.4947 18.0016C19.7189 17.8784 19.7958 17.6055 19.6663 17.3924C19.5368 17.1787 19.2494 17.1058 19.026 17.229L18.5116 17.5117V16.9464C18.5116 16.7002 18.302 16.5005 18.043 16.5005C17.7839 16.5005 17.5743 16.7002 17.5743 16.9464V17.5117L17.0599 17.229C16.8356 17.1058 16.5491 17.1787 16.4196 17.3924C16.2901 17.6055 16.367 17.8784 16.5912 18.0016L17.1056 18.2843L16.5912 18.5669C16.367 18.6902 16.2901 18.963 16.4196 19.1762C16.5065 19.3192 16.664 19.3992 16.826 19.3992C16.9056 19.3992 16.9862 19.38 17.0599 19.3395L17.5743 19.0568V19.6221C17.5743 19.8683 17.7839 20.068 18.043 20.068C18.302 20.068 18.5116 19.8683 18.5116 19.6221Z" fill="#222222"/>
<path id="Vector_8" d="M21.1059 19.1762C21.1928 19.3192 21.3503 19.3992 21.5123 19.3992C21.5919 19.3992 21.6725 19.38 21.7462 19.3395L22.2606 19.0568V19.6221C22.2606 19.8683 22.4702 20.068 22.7292 20.068C22.9883 20.068 23.1979 19.8683 23.1979 19.6221V19.0568L23.7123 19.3395C23.786 19.38 23.8665 19.3992 23.9462 19.3992C24.1082 19.3992 24.2656 19.3192 24.3526 19.1762C24.4821 18.963 24.4052 18.6902 24.181 18.5669L23.6666 18.2843L24.181 18.0016C24.4052 17.8784 24.4821 17.6055 24.3526 17.3924C24.2226 17.1787 23.9357 17.1058 23.7123 17.229L23.1979 17.5117V16.9464C23.1979 16.7002 22.9883 16.5005 22.7292 16.5005C22.4702 16.5005 22.2606 16.7002 22.2606 16.9464V17.5117L21.7462 17.229C21.5219 17.1058 21.2354 17.1787 21.1059 17.3924C20.9764 17.6055 21.0533 17.8784 21.2775 18.0016L21.7919 18.2843L21.2775 18.5669C21.0533 18.6902 20.9764 18.963 21.1059 19.1762Z" fill="#222222"/>
</g>
</g>
</svg>
