<svg width="28" height="26" viewBox="0 0 28 26" fill="none" xmlns="http://www.w3.org/2000/svg">
<g id="Group 2">
<g id="Group">
<path id="Vector" d="M19.2145 8.91909H17.3399V6.24336C17.3399 2.80073 14.3967 0 10.7789 0C7.16106 0 4.21782 2.80073 4.21782 6.24336V8.91909H2.34323C1.05127 8.91909 0 9.91945 0 11.1489V12.4956C0 12.7419 0.209626 12.9416 0.468647 12.9416C0.727668 12.9416 0.937293 12.7419 0.937293 12.4956V11.1489C0.937293 10.4111 1.56795 9.811 2.34323 9.811H19.2145C19.9898 9.811 20.6204 10.4111 20.6204 11.1489V12.9327C20.6204 13.1789 20.8301 13.3786 21.0891 13.3786C21.3481 13.3786 21.5577 13.1789 21.5577 12.9327V11.1489C21.5577 9.91945 20.5065 8.91909 19.2145 8.91909ZM5.15511 6.24336C5.15511 3.29262 7.67774 0.891909 10.7789 0.891909C13.88 0.891909 16.4026 3.29262 16.4026 6.24336V8.91909H14.528V6.24336C14.528 4.27621 12.8461 2.67573 10.7789 2.67573C8.71162 2.67573 7.0297 4.27621 7.0297 6.24336V8.91909H5.15511V6.24336ZM13.5908 8.91909H7.96699V6.24336C7.96699 4.76788 9.22831 3.56764 10.7789 3.56764C12.3294 3.56764 13.5908 4.76788 13.5908 6.24336V8.91909Z" fill="#222222"/>
<path id="Vector_2" d="M0.478435 15.2729C0.742866 15.2729 0.95687 15.0732 0.95687 14.827V14.0058C0.95687 13.7596 0.742866 13.5599 0.478435 13.5599C0.214004 13.5599 0 13.7596 0 14.0058V14.827C0 15.0732 0.214004 15.2729 0.478435 15.2729Z" fill="#222222"/>
<path id="Vector_3" d="M21.0891 23.1897C20.8301 23.1897 20.6204 23.3894 20.6204 23.6356C20.6204 24.3734 19.9898 24.9735 19.2145 24.9735H2.34323C1.56795 24.9735 0.937293 24.3734 0.937293 23.6356V16.5226C0.937293 16.2763 0.727668 16.0766 0.468647 16.0766C0.209626 16.0766 0 16.2763 0 16.5226V23.6356C0 24.865 1.05127 25.8654 2.34323 25.8654H19.2145C20.5065 25.8654 21.5577 24.865 21.5577 23.6356C21.5577 23.3894 21.3481 23.1897 21.0891 23.1897Z" fill="#222222"/>
</g>
<g id="Group_2">
<path id="Vector_4" d="M25.3069 14.2706H6.09236C5.05848 14.2706 4.21777 15.0708 4.21777 16.0544V20.514C4.21777 21.4976 5.05848 22.2978 6.09236 22.2978H15.5353C15.7943 22.2978 16.004 22.0981 16.004 21.8518C16.004 21.6056 15.7943 21.4059 15.5353 21.4059H6.09236C5.57568 21.4059 5.15507 21.0058 5.15507 20.514V16.0544C5.15507 15.5625 5.57568 15.1625 6.09236 15.1625H25.3069C25.8236 15.1625 26.2442 15.5625 26.2442 16.0544V20.514C26.2442 21.0058 25.8236 21.4059 25.3069 21.4059H18.1847C17.9257 21.4059 17.7161 21.6056 17.7161 21.8518C17.7161 22.0981 17.9257 22.2978 18.1847 22.2978H25.3069C26.3408 22.2978 27.1815 21.4976 27.1815 20.514V16.0544C27.1815 15.0708 26.3408 14.2706 25.3069 14.2706Z" fill="#00733C"/>
<path id="Vector_5" d="M10.2933 17.3923C10.1633 17.1787 9.87635 17.1057 9.65299 17.229L9.13855 17.5116V16.9464C9.13855 16.7001 8.92893 16.5004 8.66991 16.5004C8.41089 16.5004 8.20126 16.7001 8.20126 16.9464V17.5116L7.68683 17.229C7.46258 17.1057 7.1761 17.1787 7.04656 17.3923C6.91703 17.6054 6.99393 17.8783 7.21818 18.0015L7.73257 18.2842L7.21818 18.5668C6.99393 18.6901 6.91703 18.9629 7.04656 19.1761C7.1335 19.3192 7.29096 19.3991 7.45297 19.3991C7.5326 19.3991 7.61316 19.3799 7.68683 19.3394L8.20126 19.0567V19.622C8.20126 19.8683 8.41089 20.068 8.66991 20.068C8.92893 20.068 9.13855 19.8683 9.13855 19.622V19.0567L9.65299 19.3394C9.72666 19.3799 9.80722 19.3991 9.88684 19.3991C10.0489 19.3991 10.2063 19.3192 10.2933 19.1761C10.4228 18.9629 10.3459 18.6901 10.1216 18.5668L9.60725 18.2842L10.1216 18.0015C10.3459 17.8783 10.4228 17.6054 10.2933 17.3923Z" fill="#00733C"/>
<path id="Vector_6" d="M14.9798 17.3923C14.8498 17.1787 14.5629 17.1057 14.3395 17.229L13.8251 17.5116V16.9464C13.8251 16.7001 13.6155 16.5004 13.3564 16.5004C13.0974 16.5004 12.8878 16.7001 12.8878 16.9464V17.5116L12.3734 17.229C12.1491 17.1057 11.8626 17.1787 11.7331 17.3923C11.6036 17.6054 11.6805 17.8783 11.9047 18.0015L12.4191 18.2842L11.9047 18.5668C11.6805 18.6901 11.6036 18.9629 11.7331 19.1761C11.82 19.3192 11.9775 19.3991 12.1395 19.3991C12.2191 19.3991 12.2997 19.3799 12.3734 19.3394L12.8878 19.0567V19.622C12.8878 19.8683 13.0974 20.068 13.3564 20.068C13.6155 20.068 13.8251 19.8683 13.8251 19.622V19.0567L14.3395 19.3394C14.4132 19.3799 14.4937 19.3991 14.5734 19.3991C14.7354 19.3991 14.8928 19.3192 14.9798 19.1761C15.1093 18.9629 15.0324 18.6901 14.8082 18.5668L14.2938 18.2842L14.8082 18.0015C15.0324 17.8783 15.1093 17.6054 14.9798 17.3923Z" fill="#00733C"/>
<path id="Vector_7" d="M18.5116 19.622V19.0567L19.026 19.3394C19.0997 19.3799 19.1803 19.3991 19.2599 19.3991C19.4219 19.3991 19.5793 19.3192 19.6663 19.1761C19.7958 18.963 19.7189 18.6901 19.4947 18.5669L18.9803 18.2842L19.4947 18.0016C19.7189 17.8783 19.7958 17.6055 19.6663 17.3923C19.5368 17.1787 19.2494 17.1057 19.026 17.229L18.5116 17.5117V16.9464C18.5116 16.7001 18.302 16.5004 18.043 16.5004C17.7839 16.5004 17.5743 16.7001 17.5743 16.9464V17.5117L17.0599 17.229C16.8356 17.1057 16.5491 17.1787 16.4196 17.3923C16.2901 17.6055 16.367 17.8783 16.5912 18.0016L17.1056 18.2842L16.5912 18.5669C16.367 18.6901 16.2901 18.963 16.4196 19.1761C16.5065 19.3192 16.664 19.3991 16.826 19.3991C16.9056 19.3991 16.9862 19.3799 17.0599 19.3394L17.5743 19.0567V19.622C17.5743 19.8683 17.7839 20.068 18.043 20.068C18.302 20.068 18.5116 19.8683 18.5116 19.622Z" fill="#00733C"/>
<path id="Vector_8" d="M21.1059 19.1761C21.1928 19.3192 21.3503 19.3991 21.5123 19.3991C21.5919 19.3991 21.6725 19.3799 21.7462 19.3394L22.2606 19.0567V19.622C22.2606 19.8683 22.4702 20.068 22.7292 20.068C22.9883 20.068 23.1979 19.8683 23.1979 19.622V19.0567L23.7123 19.3394C23.786 19.3799 23.8665 19.3991 23.9462 19.3991C24.1082 19.3991 24.2656 19.3192 24.3526 19.1761C24.4821 18.9629 24.4052 18.6901 24.181 18.5668L23.6666 18.2842L24.181 18.0015C24.4052 17.8783 24.4821 17.6054 24.3526 17.3923C24.2226 17.1787 23.9357 17.1057 23.7123 17.229L23.1979 17.5116V16.9464C23.1979 16.7001 22.9883 16.5004 22.7292 16.5004C22.4702 16.5004 22.2606 16.7001 22.2606 16.9464V17.5116L21.7462 17.229C21.5219 17.1057 21.2354 17.1787 21.1059 17.3923C20.9764 17.6054 21.0533 17.8783 21.2775 18.0015L21.7919 18.2842L21.2775 18.5668C21.0533 18.6901 20.9764 18.9629 21.1059 19.1761Z" fill="#00733C"/>
</g>
</g>
</svg>
