<svg xmlns="http://www.w3.org/2000/svg" width="28" height="26" viewBox="0 0 28 26" fill="none">
  <path d="M20.0329 9.06338H18.1583V6.38765C18.1583 2.94501 15.215 0.144287 11.5972 0.144287C7.97942 0.144287 5.03618 2.94501 5.03618 6.38765V9.06338H3.16159C1.86963 9.06338 0.818359 10.0637 0.818359 11.2931V12.6399C0.818359 12.8862 1.02799 13.0859 1.28701 13.0859C1.54603 13.0859 1.75565 12.8862 1.75565 12.6399V11.2931C1.75565 10.5554 2.38631 9.95528 3.16159 9.95528H20.0329C20.8082 9.95528 21.4388 10.5554 21.4388 11.2931V13.077C21.4388 13.3232 21.6484 13.5229 21.9075 13.5229C22.1665 13.5229 22.3761 13.3232 22.3761 13.077V11.2931C22.3761 10.0637 21.3248 9.06338 20.0329 9.06338ZM5.97347 6.38765C5.97347 3.4369 8.4961 1.0362 11.5972 1.0362C14.6984 1.0362 17.221 3.4369 17.221 6.38765V9.06338H15.3464V6.38765C15.3464 4.4205 13.6645 2.82001 11.5972 2.82001C9.52998 2.82001 7.84806 4.4205 7.84806 6.38765V9.06338H5.97347V6.38765ZM14.4091 9.06338H8.78535V6.38765C8.78535 4.91216 10.0467 3.71192 11.5972 3.71192C13.1478 3.71192 14.4091 4.91216 14.4091 6.38765V9.06338Z" fill="#222222"/>
  <path d="M1.29679 15.4171C1.56123 15.4171 1.77523 15.2174 1.77523 14.9712V14.1501C1.77523 13.9038 1.56123 13.7041 1.29679 13.7041C1.03236 13.7041 0.818359 13.9038 0.818359 14.1501V14.9712C0.818359 15.2174 1.03236 15.4171 1.29679 15.4171Z" fill="#222222"/>
  <path d="M21.9075 23.334C21.6484 23.334 21.4388 23.5337 21.4388 23.78C21.4388 24.5177 20.8082 25.1178 20.0329 25.1178H3.16159C2.38631 25.1178 1.75565 24.5177 1.75565 23.78V16.6669C1.75565 16.4206 1.54603 16.2209 1.28701 16.2209C1.02799 16.2209 0.818359 16.4206 0.818359 16.6669V23.78C0.818359 25.0094 1.86963 26.0098 3.16159 26.0098H20.0329C21.3248 26.0098 22.3761 25.0094 22.3761 23.78C22.3761 23.5337 22.1665 23.334 21.9075 23.334Z" fill="#222222"/>
  <path d="M26.1253 14.4148H6.91078C5.8769 14.4148 5.03619 15.215 5.03619 16.1986V20.6582C5.03619 21.6418 5.8769 22.442 6.91078 22.442H16.3537C16.6128 22.442 16.8224 22.2423 16.8224 21.996C16.8224 21.7498 16.6128 21.5501 16.3537 21.5501H6.91078C6.3941 21.5501 5.97349 21.1501 5.97349 20.6582V16.1986C5.97349 15.7067 6.3941 15.3067 6.91078 15.3067H26.1253C26.642 15.3067 27.0626 15.7067 27.0626 16.1986V20.6582C27.0626 21.1501 26.642 21.5501 26.1253 21.5501H19.0031C18.7441 21.5501 18.5345 21.7498 18.5345 21.996C18.5345 22.2423 18.7441 22.442 19.0031 22.442H26.1253C27.1592 22.442 27.9999 21.6418 27.9999 20.6582V16.1986C27.9999 15.215 27.1592 14.4148 26.1253 14.4148Z" fill="#3D51FE"/>
  <path d="M11.1117 17.5364C10.9817 17.3228 10.6948 17.2498 10.4714 17.3731L9.95698 17.6558V17.0905C9.95698 16.8442 9.74735 16.6445 9.48833 16.6445C9.22931 16.6445 9.01968 16.8442 9.01968 17.0905V17.6558L8.50525 17.3731C8.281 17.2498 7.99452 17.3228 7.86498 17.5364C7.73545 17.7496 7.81235 18.0224 8.0366 18.1457L8.55099 18.4283L8.0366 18.711C7.81235 18.8342 7.73545 19.1071 7.86498 19.3202C7.95192 19.4633 8.10938 19.5432 8.27139 19.5432C8.35102 19.5432 8.43158 19.524 8.50525 19.4835L9.01968 19.2008V19.7661C9.01968 20.0124 9.22931 20.2121 9.48833 20.2121C9.74735 20.2121 9.95698 20.0124 9.95698 19.7661V19.2008L10.4714 19.4835C10.5451 19.524 10.6256 19.5432 10.7053 19.5432C10.8673 19.5432 11.0247 19.4633 11.1117 19.3202C11.2412 19.1071 11.1643 18.8342 10.9401 18.711L10.4257 18.4283L10.9401 18.1457C11.1643 18.0224 11.2412 17.7496 11.1117 17.5364Z" fill="#3D51FE"/>
  <path d="M15.7981 17.5364C15.6682 17.3228 15.3812 17.2498 15.1579 17.3731L14.6434 17.6558V17.0905C14.6434 16.8442 14.4338 16.6445 14.1748 16.6445C13.9158 16.6445 13.7061 16.8442 13.7061 17.0905V17.6558L13.1917 17.3731C12.9675 17.2498 12.681 17.3228 12.5514 17.5364C12.4219 17.7496 12.4988 18.0224 12.7231 18.1457L13.2375 18.4283L12.7231 18.711C12.4988 18.8342 12.4219 19.1071 12.5514 19.3202C12.6384 19.4633 12.7958 19.5432 12.9579 19.5432C13.0375 19.5432 13.118 19.524 13.1917 19.4835L13.7061 19.2008V19.7661C13.7061 20.0124 13.9158 20.2121 14.1748 20.2121C14.4338 20.2121 14.6434 20.0124 14.6434 19.7661V19.2008L15.1579 19.4835C15.2315 19.524 15.3121 19.5432 15.3917 19.5432C15.5537 19.5432 15.7112 19.4633 15.7981 19.3202C15.9277 19.1071 15.8508 18.8342 15.6265 18.711L15.1121 18.4283L15.6265 18.1457C15.8508 18.0224 15.9277 17.7496 15.7981 17.5364Z" fill="#3D51FE"/>
  <path d="M19.3299 19.7664V19.2011L19.8443 19.4838C19.918 19.5243 19.9986 19.5434 20.0782 19.5434C20.2402 19.5434 20.3976 19.4635 20.4846 19.3205C20.6141 19.1073 20.5372 18.8345 20.313 18.7112L19.7986 18.4286L20.313 18.1459C20.5372 18.0226 20.6141 17.7498 20.4846 17.5366C20.3551 17.323 20.0677 17.2501 19.8443 17.3733L19.3299 17.656V17.0907C19.3299 16.8445 19.1203 16.6448 18.8613 16.6448C18.6022 16.6448 18.3926 16.8445 18.3926 17.0907V17.656L17.8782 17.3733C17.6539 17.2501 17.3674 17.323 17.2379 17.5366C17.1084 17.7498 17.1853 18.0226 17.4095 18.1459L17.9239 18.4286L17.4095 18.7112C17.1853 18.8345 17.1084 19.1073 17.2379 19.3205C17.3248 19.4635 17.4823 19.5434 17.6443 19.5434C17.7239 19.5434 17.8045 19.5243 17.8782 19.4838L18.3926 19.2011V19.7664C18.3926 20.0126 18.6022 20.2123 18.8613 20.2123C19.1203 20.2123 19.3299 20.0126 19.3299 19.7664Z" fill="#3D51FE"/>
  <path d="M21.9244 19.3202C22.0114 19.4633 22.1688 19.5432 22.3308 19.5432C22.4105 19.5432 22.491 19.524 22.5647 19.4835L23.0791 19.2008V19.7661C23.0791 20.0124 23.2888 20.2121 23.5478 20.2121C23.8068 20.2121 24.0164 20.0124 24.0164 19.7661V19.2008L24.5309 19.4835C24.6045 19.524 24.6851 19.5432 24.7647 19.5432C24.9267 19.5432 25.0841 19.4633 25.1711 19.3202C25.3007 19.1071 25.2238 18.8342 24.9995 18.711L24.4851 18.4283L24.9995 18.1457C25.2238 18.0224 25.3007 17.7496 25.1711 17.5364C25.0412 17.3228 24.7542 17.2498 24.5309 17.3731L24.0164 17.6558V17.0905C24.0164 16.8442 23.8068 16.6445 23.5478 16.6445C23.2888 16.6445 23.0791 16.8442 23.0791 17.0905V17.6558L22.5647 17.3731C22.3404 17.2498 22.054 17.3228 21.9244 17.5364C21.7949 17.7496 21.8718 18.0224 22.0961 18.1457L22.6104 18.4283L22.0961 18.711C21.8718 18.8342 21.7949 19.1071 21.9244 19.3202Z" fill="#3D51FE"/>
</svg>