<svg xmlns="http://www.w3.org/2000/svg" width="26" height="31" viewBox="0 0 26 31" fill="none">
<path fill-rule="evenodd" clip-rule="evenodd" d="M8.34674 6.0486C8.34662 5.20031 8.61084 4.37102 9.10599 3.66562C9.60114 2.96021 10.305 2.41036 11.1285 2.08559C11.9521 1.76082 12.8583 1.67571 13.7327 1.84104C14.6071 2.00636 15.4103 2.41469 16.0408 3.01439C16.6713 3.61409 17.1008 4.37823 17.2749 5.21019C17.449 6.04214 17.36 6.90455 17.0191 7.68836C16.6781 8.47217 16.1006 9.14218 15.3596 9.61368C14.6185 10.0852 13.7471 10.337 12.8556 10.3372C11.6605 10.336 10.5147 9.88389 9.66947 9.07992C8.82422 8.27596 8.34854 7.18583 8.34674 6.0486Z" fill="#3D51FE"/>
<path fill-rule="evenodd" clip-rule="evenodd" d="M12.855 1.87722C13.7219 1.87763 14.5691 2.12261 15.2897 2.58121C16.0103 3.0398 16.5718 3.69141 16.9032 4.45364C17.2347 5.21588 17.3212 6.05451 17.1518 6.86352C16.9824 7.67253 16.5647 8.41557 15.9516 8.99871C15.3384 9.58186 14.5573 9.97891 13.7071 10.1397C12.8568 10.3004 11.9756 10.2177 11.1747 9.90189C10.3739 9.58609 9.68942 9.05142 9.20788 8.36549C8.72634 7.67956 8.46934 6.87317 8.46937 6.04826C8.47058 4.942 8.9331 3.88141 9.75536 3.09937C10.5776 2.31734 11.6924 1.87778 12.855 1.87722ZM12.855 12.0967C14.112 12.0965 15.3408 11.7416 16.3859 11.0768C17.431 10.4121 18.2455 9.46737 18.7263 8.36216C19.2072 7.25695 19.3329 6.04087 19.0875 4.86768C18.8421 3.6945 18.2367 2.6169 17.3477 1.77114C16.4588 0.925374 15.3262 0.349436 14.0933 0.116145C12.8604 -0.117146 11.5824 0.00268661 10.4211 0.460492C9.25973 0.918297 8.26711 1.69351 7.56873 2.68812C6.87036 3.68273 6.49759 4.85206 6.49756 6.04826C6.49913 7.65215 7.16947 9.18991 8.36141 10.3239C9.55335 11.458 11.1695 12.0956 12.855 12.0967ZM2.32716 20.5776C2.32849 19.0783 2.95485 17.6408 4.06877 16.5806C5.18269 15.5204 6.69315 14.924 8.26866 14.9223H17.4383C19.0141 14.9239 20.5249 15.5202 21.6392 16.5804C22.7536 17.6406 23.3805 19.0781 23.3826 20.5776V27.4812C23.3818 27.6605 23.3065 27.8322 23.173 27.9588C23.0395 28.0853 22.8587 28.1564 22.6703 28.1563H19.6748V21.7042C19.6758 21.5803 19.6511 21.4575 19.602 21.3429C19.5529 21.2282 19.4804 21.1239 19.3888 21.036C19.2971 20.9481 19.1881 20.8783 19.068 20.8307C18.9479 20.7831 18.819 20.7585 18.6889 20.7585C18.5588 20.7585 18.4299 20.7831 18.3098 20.8307C18.1897 20.8783 18.0806 20.9481 17.989 21.036C17.8973 21.1239 17.8249 21.2282 17.7758 21.3429C17.7267 21.4575 17.702 21.5803 17.703 21.7042V28.1563H8.00402V21.7042C8.00402 21.4554 7.90015 21.2167 7.71527 21.0408C7.53038 20.8649 7.27962 20.766 7.01815 20.766C6.75668 20.766 6.50592 20.8649 6.32103 21.0408C6.13614 21.2167 6.03227 21.4554 6.03227 21.7042V28.1563H3.03674C2.94354 28.1563 2.85125 28.1388 2.76514 28.1049C2.67904 28.0709 2.60081 28.0212 2.53492 27.9584C2.46902 27.8957 2.41676 27.8212 2.38111 27.7393C2.34547 27.6573 2.32713 27.5695 2.32716 27.4808V20.5776ZM3.03674 30.0334H22.6704C23.3818 30.0329 24.064 29.7639 24.5673 29.2853C25.0705 28.8068 25.3537 28.1578 25.3547 27.4808V20.5776C25.3524 18.5804 24.5176 16.6657 23.0335 15.2535C21.5493 13.8413 19.5371 13.047 17.4383 13.0449H8.26866C3.9034 13.0449 0.355347 16.4237 0.355347 20.5773V27.4809C0.355738 28.1576 0.638334 28.8065 1.14108 29.2851C1.64382 29.7636 2.32562 30.0328 3.03674 30.0334Z" fill="#222222"/>
</svg>