<svg width="232" height="87" viewBox="0 0 232 87" fill="none" xmlns="http://www.w3.org/2000/svg">
<g id="Group 690">
<g id="Group">
<path id="Vector" d="M70.5304 0.717773H58.3047V40.0702H70.5304V0.717773Z" fill="#00733C"/>
<path id="Vector_2" d="M116.243 0.717773H104.018V40.0702H116.243V0.717773Z" fill="#00733C"/>
<path id="Vector_3" d="M165.565 0.717773L166.44 12.4802L160.798 1.33055L160.753 0.717773H151.232V40.0777H163.533L162.748 28.9804L168.495 40.0777H178.045V0.717773H165.565Z" fill="#00733C"/>
<path id="Vector_4" d="M0.771484 0.717773H24.2663V10.3205H12.5189V14.7295H20.5747V26.0734H12.5189V29.2195H24.2663V40.0777H0.771484V0.717773Z" fill="#00733C"/>
<path id="Vector_5" d="M182.863 0.717773H206.351V10.3205H194.611V14.7295H202.667V26.0734H194.611V29.2195H206.351V40.0777H182.863V0.717773Z" fill="#00733C"/>
<path id="Vector_6" d="M39.1085 0.717943H26.8828V40.0704H39.1085C39.1085 40.0704 54.8689 40.5935 54.8689 20.3942C54.8689 0.194838 39.1085 0.717943 39.1085 0.717943ZM39.1085 25.3113V15.4919C40.3266 15.604 43.5624 16.2915 43.5624 20.4016C43.5624 24.5117 40.3266 25.1992 39.1085 25.3113Z" fill="#00733C"/>
<path id="Vector_7" d="M133.519 0C125.852 0 119.635 9.02729 119.635 20.1545C119.635 31.2817 125.852 40.3089 133.519 40.3089C141.187 40.3089 147.404 31.2817 147.404 20.1545C147.404 9.02729 141.187 0 133.519 0ZM133.519 25.1912C131.599 25.1912 130.045 22.9344 130.045 20.1545C130.045 17.3745 131.599 15.1177 133.519 15.1177C135.44 15.1177 136.994 17.3745 136.994 20.1545C136.994 22.9344 135.44 25.1912 133.519 25.1912Z" fill="#00733C"/>
<path id="Vector_8" d="M91.8447 23.8013C90.776 23.8013 88.1979 23.039 88.1829 20.1545C88.1755 17.2849 90.1483 16.5301 92.1361 16.5301C92.7713 16.5301 94.6096 17.0383 95.4092 18.1218L101.298 3.08632C98.6375 1.14336 95.5064 0 92.1361 0C80.7399 0 74.8438 9.02729 74.8438 20.1545C74.8438 31.2817 80.3513 40.3089 92.1361 40.3089C95.596 40.3089 98.8169 39.1133 101.522 37.0657L95.5288 21.7761C94.7367 22.9344 93.2047 23.8013 91.8372 23.8013H91.8447Z" fill="#00733C"/>
<path id="Vector_9" d="M208.616 24.7724V38.0667C208.616 38.0667 212.218 40.3086 218.907 40.3086C225.595 40.3086 231.603 35.4736 231.603 29.7344C231.603 23.9952 229.877 19.5189 224.384 15.7451C224.384 15.7451 219.646 13.6751 219.646 10.925C219.646 8.17499 222.546 8.07037 223.794 9.31835L229.122 14.6465L229.922 2.75712C229.922 2.75712 226.798 0.0743408 220.11 0.0743408C213.429 0.0743408 208.138 3.10087 208.168 12.7185C208.198 22.5753 213.466 24.0176 216.657 26.3417C217.322 26.8274 218.369 28.2024 217.412 29.5476C215.925 31.64 208.616 24.7724 208.616 24.7724Z" fill="#00733C"/>
</g>
<g id="Group_2">
<path id="Vector_10" d="M39.6372 52.0565H28.9883V86.3199H39.6372V52.0565Z" fill="#00733C"/>
<path id="Vector_11" d="M14.49 52.0565V64.9174H10.6415V52.0565H0V86.3199H10.6415V73.459H14.49V86.3199H25.1389V52.0565H14.49Z" fill="#00733C"/>
<path id="Vector_12" d="M156.545 52.0565H145.896V86.3199H156.545V52.0565Z" fill="#00733C"/>
<path id="Vector_13" d="M132.585 52.0565L133.347 62.2944L128.43 52.5871L128.393 52.0565H120.105V86.3199H130.814L130.134 76.6574L135.141 86.3199H143.451V52.0565H132.585Z" fill="#00733C"/>
<path id="Vector_14" d="M87.9707 60.792C87.5073 57.4441 86.0875 54.7688 84.0025 53.319C82.9862 52.6166 81.8429 52.3401 80.707 52.3401H64.9316V86.9995H76.1335V75.1624C78.2484 75.3417 86.3341 75.4314 87.9856 66.7628C88.292 65.1487 88.2023 62.4285 87.9781 60.792H87.9707ZM76.1261 66.7927V61.3225C77.0527 61.3524 78.8985 61.7111 78.8985 64.0875C78.8985 66.4639 77.0527 66.7853 76.1261 66.7927Z" fill="#00733C"/>
<path id="Vector_15" d="M201.112 86.3199H211.238L202.936 52.0565H189.096L181.66 86.3199H191.861L192.989 80.7451H199.969L201.12 86.3199H201.112ZM194.656 72.495L196.442 63.6694L198.258 72.495H194.656Z" fill="#00733C"/>
<path id="Vector_16" d="M173.426 72.2857C172.521 72.2857 170.324 71.6356 170.317 69.1845C170.309 66.7333 171.983 66.1056 173.68 66.1056C174.218 66.1056 175.787 66.539 176.46 67.4582L181.466 54.6795C179.21 53.028 176.542 52.0565 173.68 52.0565C163.995 52.0565 158.98 59.7237 158.98 69.1919C158.98 78.6601 163.659 86.3273 173.68 86.3273C176.624 86.3273 179.359 85.311 181.661 83.5698L176.572 70.5744C175.899 71.5534 174.599 72.2932 173.433 72.2932L173.426 72.2857Z" fill="#00733C"/>
<path id="Vector_17" d="M211.628 72.8164V84.3695C211.628 84.3695 214.759 86.3199 220.573 86.3199C226.387 86.3199 231.603 82.1201 231.603 77.1357C231.603 72.1513 230.101 68.2579 225.333 64.9773C225.333 64.9773 221.215 63.1763 221.215 60.785C221.215 58.3936 223.734 58.3039 224.817 59.3875C225.901 60.4711 229.451 64.0207 229.451 64.0207L230.146 53.6857C230.146 53.6857 227.433 51.3541 221.626 51.3541C215.82 51.3541 211.224 53.9846 211.254 62.3393C211.276 70.9033 215.857 72.1587 218.63 74.1764C219.205 74.5949 220.117 75.7906 219.287 76.9638C217.995 78.7872 211.643 72.8164 211.643 72.8164H211.628Z" fill="#00733C"/>
<path id="Vector_18" d="M42.491 72.8164V84.3695C42.491 84.3695 45.6221 86.3199 51.4361 86.3199C57.25 86.3199 62.4661 82.1201 62.4661 77.1357C62.4661 72.1513 60.964 68.2579 56.1963 64.9773C56.1963 64.9773 52.0787 63.1763 52.0787 60.785C52.0787 58.3936 54.5971 58.3039 55.6807 59.3875C56.7643 60.4711 60.3139 64.0207 60.3139 64.0207L61.0089 53.6857C61.0089 53.6857 58.2962 51.3541 52.4898 51.3541C46.6833 51.3541 42.0874 53.9846 42.1173 62.3393C42.1398 70.9033 46.7207 72.1587 49.4931 74.1764C50.0685 74.5949 50.9802 75.7906 50.1507 76.9638C48.8579 78.7872 42.5059 72.8164 42.5059 72.8164H42.491Z" fill="#00733C"/>
<g id="Group_3">
<path id="Vector_19" d="M107.63 86.3196H117.756L109.453 52.0563H95.6136L88.1855 86.3196H98.3861L99.5145 80.7448H106.494L107.645 86.3196H107.63ZM101.181 72.4947L102.967 63.6692L104.783 72.4947H101.181Z" fill="#00733C"/>
<path id="Vector_20" d="M99.2383 51.2039H102.384L108.789 44.0598H101.226L99.2383 51.2039Z" fill="#00733C"/>
</g>
</g>
</g>
</svg>
