<svg width="28" height="30" viewBox="0 0 28 30" fill="none" xmlns="http://www.w3.org/2000/svg">
<path d="M18.3533 28.1419C18.3533 28.8175 17.8061 29.3653 17.1299 29.3653H6.11795C2.74439 29.3653 0 26.6209 0 23.2473V6.11795C0 2.74439 2.74439 0 6.11795 0H11.6423C13.929 0 16.0803 0.890708 17.6989 2.50809L21.962 6.77351C22.2935 7.10501 22.6021 7.46864 22.8774 7.85406C23.2702 8.40351 23.1429 9.16804 22.5935 9.56091C22.044 9.95264 21.2783 9.82646 20.8866 9.27586C20.6899 9.00056 20.4696 8.74018 20.2333 8.50502L15.9691 4.23961C15.5802 3.85075 15.1483 3.52154 14.6832 3.25484V8.56525C14.6832 9.23916 15.2315 9.78861 15.9066 9.78861H19.5772C20.254 9.78861 20.8006 10.3369 20.8006 11.012C20.8006 11.687 20.2534 12.2353 19.5772 12.2353H15.9066C13.8825 12.2353 12.2359 10.5887 12.2359 8.56467V2.4754C12.0403 2.45705 11.8419 2.4473 11.6423 2.4473H6.11795C4.09393 2.4473 2.4473 4.09393 2.4473 6.11795V23.2479C2.4473 25.2719 4.09393 26.9185 6.11795 26.9185H17.1299C17.8067 26.9185 18.3533 27.4668 18.3533 28.1419ZM7.95328 18.3533H14.6826C15.3594 18.3533 15.906 17.805 15.906 17.1299C15.906 16.4549 15.3588 15.9066 14.6826 15.9066H7.95328C6.26707 15.9066 4.89459 17.2796 4.89459 18.9653V21.4125C4.89459 23.0988 6.26765 24.4712 7.95328 24.4712H14.6826C15.3594 24.4712 15.906 23.9229 15.906 23.2479C15.906 22.5728 15.3588 22.0245 14.6826 22.0245H7.95328C7.61547 22.0245 7.34131 21.7504 7.34131 21.4125V18.9653C7.34131 18.6274 7.61547 18.3533 7.95328 18.3533ZM6.11795 13.4593H8.56525C9.24088 13.4593 9.78861 12.911 9.78861 12.2359C9.78861 11.5608 9.2403 11.0125 8.56525 11.0125H6.11795C5.44232 11.0125 4.89459 11.5608 4.89459 12.2359C4.89459 12.911 5.44289 13.4593 6.11795 13.4593ZM6.11795 8.56467H8.56525C9.24088 8.56467 9.78861 8.01637 9.78861 7.34131C9.78861 6.66626 9.2403 6.11795 8.56525 6.11795H6.11795C5.44232 6.11795 4.89459 6.66626 4.89459 7.34131C4.89459 8.01637 5.44289 8.56467 6.11795 8.56467Z" fill="#222222"/>
<path d="M25.1659 19.2927L21.4454 18.6722C20.9888 18.5965 20.6573 18.2047 20.6573 17.7425C20.6573 17.0686 21.2056 16.5191 21.8807 16.5191H24.6555C25.0908 16.5191 25.4974 16.7543 25.7165 17.1311C26.0532 17.7161 26.7994 17.9151 27.3878 17.5779C27.9728 17.2389 28.1736 16.4916 27.8334 15.9066C27.1802 14.775 25.9614 14.0712 24.6549 14.0712H24.3268V12.8479C24.3268 12.1722 23.7797 11.6245 23.1035 11.6245C22.4273 11.6245 21.8801 12.1728 21.8801 12.8479V14.0712C19.8561 14.0712 18.2094 15.7179 18.2094 17.7419C18.2094 19.4057 19.4013 20.8132 21.0422 21.0856L24.7627 21.7062C25.2193 21.7819 25.5508 22.1736 25.5508 22.6359C25.5508 23.3098 25.0025 23.8593 24.3274 23.8593H21.5526C21.1173 23.8593 20.7107 23.6241 20.4916 23.2473C20.1549 22.6611 19.4076 22.4616 18.8203 22.8005C18.2353 23.1395 18.0345 23.8868 18.3746 24.4718C19.0279 25.6034 20.2467 26.306 21.5532 26.306H21.8812V27.5294C21.8812 28.205 22.4284 28.7527 23.1046 28.7527C23.7808 28.7527 24.328 28.2044 24.328 27.5294V26.306C26.352 26.306 27.9986 24.6594 27.9986 22.6353C27.9986 20.9715 26.8068 19.564 25.1659 19.2916V19.2927Z" fill="#00733C"/>
</svg>
