<svg width="14" height="14" viewBox="0 0 14 14" fill="none" xmlns="http://www.w3.org/2000/svg">
<g id="Layer_2_00000083055177244496480650000003284364547531288721_">
<g id="Layer_1_copy_10">
<g id="_80">
<path id="Vector" d="M12.4125 7.94818H11.5368C11.1975 7.94818 10.9239 8.22183 10.9239 8.56115V10.3015C10.9239 10.9172 10.4258 11.4153 9.81015 11.4153H3.21532C2.59962 11.4153 2.10159 10.9172 2.10159 10.3015V3.70122C2.10159 3.08552 2.59962 2.58749 3.21532 2.58749H4.79699C5.1363 2.58749 5.40995 2.31385 5.40995 1.97453V1.09886C5.40995 0.759545 5.1363 0.485901 4.79699 0.485901H3.21532C1.43937 0.488637 0 1.92801 0 3.70122V10.2988C0 12.0747 1.43937 13.5141 3.21532 13.5141H9.81289C11.5861 13.5141 13.0255 12.0747 13.0255 10.3015V8.56115C13.0255 8.22183 12.7518 7.94818 12.4125 7.94818Z" fill="white"/>
<path id="Vector_2" d="M8.77077 7.6964C8.46429 7.6964 8.16876 7.57599 7.95258 7.35708L5.98507 5.38958C5.52809 4.94354 5.51714 4.21017 5.96592 3.75318C6.4147 3.2962 7.14533 3.28525 7.60231 3.73403L7.62147 3.75318L8.77077 4.90249L12.0354 1.63791C12.4923 1.19187 13.2257 1.20008 13.6717 1.65707C14.1096 2.10584 14.1096 2.82553 13.6717 3.27431L9.59171 7.35708C9.37279 7.57326 9.07999 7.6964 8.77077 7.6964Z" fill="#5FB868"/>
</g>
</g>
</g>
</svg>
