<svg width="12" height="12" viewBox="0 0 12 12" fill="none" xmlns="http://www.w3.org/2000/svg">
<g id="Group">
<path id="Vector" d="M6 0C2.69158 0 0 2.69158 0 6C0 9.30842 2.69158 12 6 12C9.30842 12 12 9.30842 12 6C12 2.69158 9.30842 0 6 0Z" fill="white"/>
<path id="Vector_2" d="M8.56769 7.79614C8.78076 8.00908 8.78076 8.35451 8.56769 8.56745C8.46129 8.67398 8.3216 8.72725 8.18204 8.72725C8.04248 8.72725 7.90279 8.67398 7.79639 8.56745L6.00022 6.77128L4.20406 8.56745C4.09766 8.67398 3.95796 8.72725 3.8184 8.72725C3.67884 8.72725 3.53915 8.67398 3.43275 8.56745C3.21968 8.35451 3.21968 8.00908 3.43275 7.79614L5.22892 5.99998L3.43275 4.20381C3.21968 3.99088 3.21968 3.64544 3.43275 3.43251C3.64555 3.21944 3.99126 3.21944 4.20406 3.43251L6.00022 5.22867L7.79639 3.43251C8.00919 3.21944 8.35489 3.21944 8.56769 3.43251C8.78076 3.64544 8.78076 3.99088 8.56769 4.20381L6.77153 5.99998L8.56769 7.79614Z" fill="black"/>
</g>
</svg>
