<svg width="22" height="16" viewBox="0 0 22 16" fill="none" xmlns="http://www.w3.org/2000/svg">
<g id="Icon">
<path id="_33" d="M18.0845 0H6.80781C5.90069 0 5.04101 0.415019 4.47777 1.13241L0.63587 6.00593C-0.211957 7.08498 -0.211957 8.59684 0.63587 9.67589L4.47777 14.5494C5.04101 15.2609 5.90069 15.6818 6.80781 15.6818H18.0845C19.7208 15.6818 21.0489 14.3538 21.0489 12.7174V2.96443C21.0489 1.32806 19.7208 0 18.0845 0ZM17.5094 10.0435C18.0904 10.6245 18.0904 11.5613 17.5094 12.1423C16.9284 12.7233 15.9916 12.7233 15.4106 12.1423L13.205 9.93676L10.9995 12.1423C10.4185 12.7233 9.48172 12.7233 8.90069 12.1423C8.31966 11.5613 8.31966 10.6245 8.90069 10.0435L11.1062 7.83794L8.90069 5.63241C8.31966 5.05138 8.31966 4.11462 8.90069 3.5336C9.48172 2.95257 10.4185 2.95257 10.9995 3.5336L13.205 5.73913L15.4106 3.5336C15.9916 2.95257 16.9284 2.95257 17.5094 3.5336C18.0904 4.11462 18.0904 5.05138 17.5094 5.63241L15.3039 7.83794L17.5094 10.0435Z" fill="black"/>
</g>
</svg>
