<svg width="10" height="10" viewBox="0 0 10 10" fill="none" xmlns="http://www.w3.org/2000/svg">
<path id="Vector" d="M7.16466 4.98835C7.16466 4.98835 9.53862 2.61425 9.54046 2.61241C10.1576 1.99524 10.1257 0.959026 9.47637 0.378366C8.86938 -0.16454 7.92364 -0.117696 7.32305 0.483501L4.99151 2.81519L2.65996 0.483497C2.05877 -0.117693 1.11335 -0.164543 0.506662 0.378347C-0.14201 0.958804 -0.172623 1.99739 0.442559 2.61225L2.81835 4.98804C2.81835 4.98804 0.446087 7.36046 0.442562 7.36399C-0.159079 7.96567 -0.133041 9.01277 0.491996 9.58475C1.08922 10.1316 2.06762 10.0852 2.67217 9.48069L4.99151 7.16135L7.31085 9.48069C7.90686 10.0773 8.91973 10.1434 9.53707 9.54083C10.1385 8.95381 10.1306 7.95408 9.54046 7.36399L7.16466 4.98835Z" fill="#484848"/>
</svg>
