<svg width="18" height="14" viewBox="0 0 18 14" fill="none" xmlns="http://www.w3.org/2000/svg">
<g id="Group 577">
<path id="Vector" d="M3.08398 12.4628C3.03217 12.4119 2.97107 12.3728 2.90067 12.3441C2.83027 12.3154 2.7519 12.3023 2.66821 12.3023C2.62305 12.3023 2.57656 12.3062 2.52874 12.314C2.48092 12.3219 2.4331 12.3349 2.38794 12.3545C2.34145 12.3741 2.29762 12.4002 2.25644 12.4341C2.21526 12.468 2.17807 12.5097 2.14752 12.5619C2.09837 12.481 2.03063 12.4184 1.94561 12.3728C1.8606 12.3271 1.76363 12.3036 1.65471 12.3036C1.61752 12.3036 1.58033 12.3075 1.54048 12.314C1.50196 12.3206 1.46211 12.3323 1.42359 12.348C1.38507 12.3636 1.34787 12.3858 1.31334 12.4132C1.27747 12.4406 1.24559 12.4758 1.2177 12.5176V12.3414H0.908203V13.7869H1.22036V12.9859C1.22036 12.9246 1.22965 12.8698 1.24958 12.8215C1.2695 12.7733 1.29607 12.7341 1.32928 12.7015C1.36249 12.6689 1.40101 12.6454 1.44617 12.6285C1.49133 12.6115 1.53782 12.6037 1.58963 12.6037C1.69456 12.6037 1.77692 12.6363 1.83404 12.7015C1.89248 12.7667 1.9217 12.8607 1.9217 12.982V13.7869H2.23386V12.9859C2.23386 12.9246 2.24316 12.8698 2.26308 12.8215C2.283 12.7733 2.30957 12.7341 2.34278 12.7015C2.37599 12.6689 2.41451 12.6454 2.45967 12.6285C2.50483 12.6115 2.55132 12.6037 2.60313 12.6037C2.70806 12.6037 2.79042 12.6363 2.84754 12.7015C2.90598 12.7667 2.9352 12.8607 2.9352 12.982V13.7869H3.24736V12.8776C3.24736 12.7928 3.23275 12.7159 3.20485 12.6454C3.17696 12.575 3.13711 12.515 3.0853 12.4641L3.08398 12.4628Z" fill="#9E9E9E"/>
<path id="Vector_2" d="M4.73071 12.5153C4.67891 12.4514 4.61648 12.3992 4.54077 12.36C4.46505 12.3209 4.37473 12.3013 4.26846 12.3013C4.1622 12.3013 4.06922 12.3196 3.97889 12.3574C3.88989 12.3953 3.81152 12.4474 3.74511 12.5153C3.67869 12.5831 3.62689 12.6627 3.58837 12.7566C3.54985 12.8493 3.53125 12.951 3.53125 13.0619C3.53125 13.1728 3.54985 13.2746 3.58837 13.3672C3.62689 13.4598 3.67869 13.5407 3.74511 13.6085C3.81152 13.6764 3.88989 13.7286 3.97889 13.7664C4.06789 13.8042 4.16485 13.8225 4.26846 13.8225C4.37207 13.8225 4.46505 13.8029 4.54077 13.7651C4.61648 13.7273 4.68024 13.6751 4.73071 13.6112V13.7847H5.05217V12.3392H4.73071V12.514V12.5153ZM4.71876 13.2472C4.69751 13.3033 4.66696 13.3528 4.62843 13.3933C4.58991 13.435 4.54342 13.4676 4.48896 13.4911C4.4345 13.5146 4.37473 13.5264 4.30698 13.5264C4.23924 13.5264 4.17548 13.5146 4.11969 13.4898C4.06523 13.465 4.01874 13.4324 3.98022 13.3907C3.9417 13.3489 3.91248 13.2994 3.89255 13.2433C3.87263 13.1872 3.862 13.1271 3.862 13.0632C3.862 12.9993 3.87263 12.9406 3.89255 12.8832C3.91248 12.8271 3.9417 12.7775 3.98022 12.7358C4.01874 12.694 4.0639 12.6614 4.11969 12.6366C4.17415 12.6118 4.23658 12.6001 4.30698 12.6001C4.37738 12.6001 4.4345 12.6118 4.48896 12.6353C4.54342 12.6588 4.58991 12.6914 4.62843 12.7332C4.66696 12.7749 4.69751 12.8232 4.71876 12.8793C4.74001 12.9354 4.75064 12.9967 4.75064 13.0632C4.75064 13.1298 4.74001 13.1911 4.71876 13.2472Z" fill="#9E9E9E"/>
<path id="Vector_3" d="M6.53087 13.0605C6.44054 12.9913 6.31568 12.9457 6.15495 12.9222L6.0022 12.9C5.96899 12.8948 5.93711 12.8896 5.90656 12.8831C5.87734 12.8765 5.85077 12.8674 5.82952 12.857C5.80827 12.8465 5.791 12.8322 5.77771 12.8152C5.76443 12.7983 5.75912 12.7774 5.75912 12.7513C5.75912 12.7004 5.78303 12.6587 5.83218 12.6274C5.88132 12.596 5.94907 12.5804 6.03673 12.5804C6.08323 12.5804 6.12839 12.5843 6.17222 12.5921C6.21738 12.6 6.25856 12.6104 6.29841 12.6221C6.33826 12.6339 6.37413 12.6469 6.40733 12.6626C6.44054 12.6769 6.46844 12.6913 6.48969 12.7043L6.62783 12.4578C6.55079 12.4095 6.46179 12.3716 6.35951 12.3456C6.25723 12.3195 6.14831 12.3051 6.03275 12.3051C5.93844 12.3051 5.85343 12.3156 5.77904 12.3377C5.70466 12.3599 5.6409 12.3899 5.58777 12.4304C5.53463 12.4695 5.49478 12.5191 5.46689 12.5765C5.439 12.6339 5.42438 12.6978 5.42438 12.7696C5.42438 12.8857 5.46689 12.9809 5.55057 13.0527C5.63558 13.1244 5.75912 13.1714 5.92383 13.1936L6.07791 13.2131C6.16558 13.2249 6.23067 13.2444 6.27185 13.2718C6.31302 13.2979 6.33295 13.3318 6.33295 13.3736C6.33295 13.4284 6.30505 13.4714 6.24794 13.5027C6.19215 13.5341 6.10846 13.5497 5.99689 13.5497C5.93578 13.5497 5.88265 13.5458 5.83483 13.538C5.78701 13.5301 5.74318 13.5197 5.70466 13.5054C5.66481 13.4923 5.63027 13.4767 5.59839 13.4584C5.56651 13.4401 5.53862 13.4219 5.51205 13.4023L5.36328 13.6397C5.41641 13.6789 5.4722 13.7102 5.53065 13.735C5.58909 13.7598 5.64621 13.778 5.70333 13.7911C5.75912 13.8041 5.81358 13.8132 5.86273 13.8185C5.9132 13.8224 5.95704 13.825 5.99556 13.825C6.10049 13.825 6.19613 13.8132 6.27849 13.7898C6.36217 13.7663 6.43257 13.7337 6.48969 13.6919C6.54681 13.6502 6.59064 13.6006 6.61986 13.5419C6.64909 13.4832 6.66503 13.4206 6.66503 13.3514C6.66503 13.2275 6.61986 13.1309 6.52954 13.0618L6.53087 13.0605Z" fill="#9E9E9E"/>
<path id="Vector_4" d="M9.53736 12.5123C9.47626 12.4458 9.4032 12.3936 9.31819 12.3571C9.23318 12.3206 9.13887 12.3023 9.03659 12.3023C8.92766 12.3023 8.82937 12.3206 8.73905 12.3571C8.64872 12.3936 8.57168 12.4458 8.50792 12.5123C8.44283 12.5789 8.39368 12.6598 8.35782 12.7537C8.32196 12.8476 8.30469 12.9507 8.30469 13.0629C8.30469 13.1751 8.32328 13.2821 8.36048 13.376C8.39767 13.4699 8.44947 13.5495 8.51589 13.616C8.5823 13.6826 8.662 13.7335 8.75366 13.77C8.84531 13.8065 8.94759 13.8248 9.05784 13.8248C9.16809 13.8248 9.27568 13.8091 9.37663 13.7791C9.47758 13.7491 9.57322 13.6956 9.66355 13.6213L9.50415 13.3969C9.44305 13.4451 9.37531 13.483 9.30092 13.5091C9.22653 13.5352 9.15215 13.5495 9.07909 13.5495C9.02729 13.5495 8.97681 13.543 8.92899 13.5286C8.88117 13.5143 8.83734 13.4921 8.79882 13.4634C8.7603 13.4334 8.72709 13.3956 8.6992 13.3499C8.6713 13.3042 8.6527 13.2481 8.64208 13.1829H9.72996C9.73262 13.1647 9.73395 13.1451 9.73395 13.1255C9.73395 13.1059 9.73528 13.0851 9.73528 13.0655C9.73528 12.9533 9.71801 12.8502 9.68347 12.7563C9.64894 12.6637 9.60112 12.5828 9.54002 12.5163L9.53736 12.5123ZM8.63942 12.939C8.64739 12.8868 8.662 12.8385 8.68193 12.7941C8.70185 12.7498 8.72842 12.7133 8.76163 12.6806C8.79351 12.6493 8.83203 12.6245 8.87719 12.6076C8.92235 12.5906 8.97283 12.5815 9.02995 12.5815C9.13223 12.5815 9.21591 12.6128 9.281 12.6754C9.34608 12.738 9.38593 12.8255 9.40453 12.9377H8.64075L8.63942 12.939Z" fill="#9E9E9E"/>
<path id="Vector_5" d="M13.8049 12.5153C13.7531 12.4514 13.6907 12.3992 13.615 12.36C13.5393 12.3209 13.4489 12.3013 13.3427 12.3013C13.2364 12.3013 13.1434 12.3196 13.0531 12.3574C12.9641 12.3953 12.8857 12.4474 12.8193 12.5153C12.7529 12.5831 12.7011 12.6627 12.6626 12.7566C12.6241 12.8493 12.6055 12.951 12.6055 13.0619C12.6055 13.1728 12.6241 13.2746 12.6626 13.3672C12.7011 13.4598 12.7529 13.5407 12.8193 13.6085C12.8857 13.6764 12.9641 13.7286 13.0531 13.7664C13.1421 13.8042 13.2391 13.8225 13.3427 13.8225C13.4463 13.8225 13.5393 13.8029 13.615 13.7651C13.6907 13.7273 13.7545 13.6751 13.8049 13.6112V13.7847H14.1264V12.3392H13.8049V12.514V12.5153ZM13.7917 13.2472C13.7704 13.3033 13.7398 13.3528 13.7013 13.3933C13.6628 13.435 13.6163 13.4676 13.5619 13.4911C13.5074 13.5146 13.4476 13.5264 13.3799 13.5264C13.3121 13.5264 13.2484 13.5146 13.1926 13.4898C13.1368 13.465 13.0916 13.4324 13.0531 13.3907C13.0146 13.3489 12.9854 13.2994 12.9654 13.2433C12.9455 13.1872 12.9349 13.1271 12.9349 13.0632C12.9349 12.9993 12.9455 12.9406 12.9654 12.8832C12.9854 12.8271 13.0146 12.7775 13.0531 12.7358C13.0916 12.694 13.1368 12.6614 13.1926 12.6366C13.247 12.6118 13.3095 12.6001 13.3799 12.6001C13.4503 12.6001 13.5074 12.6118 13.5619 12.6353C13.6163 12.6588 13.6628 12.6914 13.7013 12.7332C13.7398 12.7749 13.7704 12.8232 13.7917 12.8793C13.8129 12.9354 13.8235 12.9967 13.8235 13.0632C13.8235 13.1298 13.8129 13.1911 13.7917 13.2472Z" fill="#9E9E9E"/>
<path id="Vector_6" d="M7.90655 13.4978C7.85474 13.5173 7.80427 13.5265 7.75379 13.5265C7.72058 13.5265 7.69003 13.5213 7.66214 13.5108C7.63424 13.5004 7.609 13.4847 7.58775 13.4639C7.5665 13.4417 7.55056 13.4143 7.53728 13.3804C7.52399 13.3464 7.51868 13.3047 7.51868 13.2564V12.6263H8.03406V12.3393H7.51868V11.9009H7.1959V12.3393H6.90234V12.6263H7.1959V13.2616C7.1959 13.4534 7.24239 13.5956 7.33537 13.6869C7.42835 13.7783 7.55853 13.8239 7.72457 13.8239C7.81755 13.8239 7.90123 13.8096 7.97562 13.7822C8.02477 13.7639 8.06993 13.7417 8.11243 13.7183L8.00218 13.4547C7.97163 13.4717 7.93843 13.486 7.90389 13.4991L7.90655 13.4978Z" fill="#9E9E9E"/>
<path id="Vector_7" d="M10.8059 12.302C10.7156 12.302 10.6345 12.3176 10.5615 12.3503C10.4884 12.3829 10.4273 12.4598 10.3782 12.529V12.3398H10.0859V13.7853H10.3808V12.9895C10.3808 12.9282 10.3901 12.8734 10.4074 12.8251C10.4247 12.7769 10.4486 12.7364 10.4791 12.7025C10.5097 12.6699 10.5469 12.6438 10.5894 12.6268C10.6319 12.6099 10.6797 12.6007 10.7302 12.6007C10.7687 12.6007 10.8112 12.6047 10.8564 12.6138C10.8789 12.619 10.9002 12.6242 10.9214 12.6307L11.0171 12.3294C10.9918 12.3216 10.9653 12.315 10.9387 12.3098C10.8989 12.3033 10.855 12.2994 10.8059 12.2994V12.302Z" fill="#9E9E9E"/>
<path id="Vector_8" d="M15.2727 12.302C15.1824 12.302 15.1013 12.3176 15.0283 12.3503C14.9552 12.3829 14.8941 12.4598 14.845 12.529V12.3398H14.5527V13.7853H14.8476V12.9895C14.8476 12.9282 14.8569 12.8734 14.8742 12.8251C14.8915 12.7769 14.9154 12.7364 14.9459 12.7025C14.9765 12.6699 15.0137 12.6438 15.0562 12.6268C15.0987 12.6099 15.1465 12.6007 15.197 12.6007C15.2355 12.6007 15.278 12.6047 15.3232 12.6138C15.3457 12.619 15.367 12.6242 15.3882 12.6307L15.4839 12.3294C15.4586 12.3216 15.4321 12.315 15.4055 12.3098C15.3657 12.3033 15.3218 12.2994 15.2727 12.2994V12.302Z" fill="#9E9E9E"/>
<path id="Vector_9" d="M16.7717 11.752V12.5152C16.7199 12.4512 16.6575 12.3991 16.5818 12.3599C16.5061 12.3208 16.4157 12.3012 16.3095 12.3012C16.2032 12.3012 16.1102 12.3195 16.0199 12.3573C15.9309 12.3951 15.8525 12.4473 15.7861 12.5152C15.7197 12.583 15.6679 12.6626 15.6294 12.7565C15.5909 12.8492 15.5723 12.9509 15.5723 13.0618C15.5723 13.1727 15.5909 13.2745 15.6294 13.3671C15.6679 13.4597 15.7197 13.5406 15.7861 13.6084C15.8525 13.6763 15.9309 13.7285 16.0199 13.7663C16.1089 13.8041 16.2059 13.8224 16.3095 13.8224C16.4131 13.8224 16.5061 13.8028 16.5818 13.765C16.6575 13.7272 16.7213 13.675 16.7717 13.611V13.7846H17.0932V11.7507H16.7717V11.752ZM16.7598 13.2471C16.7385 13.3032 16.708 13.3527 16.6695 13.3932C16.6309 13.4349 16.5844 13.4675 16.53 13.491C16.4755 13.5145 16.4157 13.5262 16.348 13.5262C16.2803 13.5262 16.2165 13.5145 16.1607 13.4897C16.1062 13.4649 16.0598 13.4323 16.0212 13.3906C15.9827 13.3488 15.9535 13.2992 15.9336 13.2431C15.9136 13.187 15.903 13.127 15.903 13.0631C15.903 12.9992 15.9136 12.9405 15.9336 12.8831C15.9535 12.827 15.9827 12.7774 16.0212 12.7357C16.0598 12.6939 16.1049 12.6613 16.1607 12.6365C16.2152 12.6117 16.2776 12.6 16.348 12.6C16.4184 12.6 16.4755 12.6117 16.53 12.6352C16.5844 12.6587 16.6309 12.6913 16.6695 12.733C16.708 12.7748 16.7385 12.8231 16.7598 12.8792C16.781 12.9353 16.7917 12.9966 16.7917 13.0631C16.7917 13.1296 16.781 13.191 16.7598 13.2471Z" fill="#9E9E9E"/>
<path id="Vector_10" d="M11.5769 12.7292C11.618 12.6888 11.6659 12.6562 11.723 12.634C11.7788 12.6118 11.8399 12.6001 11.9063 12.6001C11.978 12.6001 12.0458 12.6118 12.1069 12.634C12.1666 12.6562 12.2184 12.6862 12.2623 12.7253L12.4164 12.4722C12.3579 12.4266 12.2928 12.39 12.2211 12.36C12.1241 12.3209 12.0192 12.3013 11.905 12.3013C11.7907 12.3013 11.6858 12.3209 11.5888 12.36C11.4918 12.3992 11.4082 12.4527 11.3378 12.5205C11.2674 12.5883 11.2129 12.6692 11.1731 12.7619C11.1332 12.8545 11.1133 12.9549 11.1133 13.0632C11.1133 13.1715 11.1332 13.272 11.1731 13.3646C11.2129 13.4572 11.2687 13.5368 11.3378 13.6059C11.4082 13.6738 11.4918 13.7273 11.5888 13.7664C11.6858 13.8055 11.7907 13.8251 11.905 13.8251C12.0192 13.8251 12.1241 13.8055 12.2211 13.7664C12.2941 13.7377 12.3592 13.6999 12.4164 13.6542L12.2623 13.4011C12.2184 13.4403 12.1666 13.4703 12.1069 13.4924C12.0444 13.5146 11.978 13.5264 11.9063 13.5264C11.8412 13.5264 11.7801 13.5146 11.723 13.4924C11.6672 13.4703 11.618 13.4376 11.5769 13.3972C11.5357 13.3568 11.5038 13.3072 11.4799 13.2511C11.456 13.1937 11.444 13.1311 11.444 13.0632C11.444 12.9954 11.456 12.9328 11.4799 12.8754C11.5038 12.818 11.5357 12.7697 11.5769 12.7292Z" fill="#9E9E9E"/>
<path id="Vector_11" d="M17.7706 13.5748C17.7919 13.5748 17.8118 13.5787 17.8304 13.5865C17.849 13.5943 17.865 13.6048 17.8796 13.6178C17.8929 13.6309 17.9048 13.6465 17.9128 13.6648C17.9207 13.683 17.9247 13.7013 17.9247 13.7222C17.9247 13.7431 17.9207 13.7613 17.9128 13.7796C17.9048 13.7979 17.8942 13.8135 17.8796 13.8266C17.8663 13.8396 17.849 13.85 17.8304 13.8579C17.8118 13.8657 17.7919 13.8696 17.7706 13.8696C17.7494 13.8696 17.7281 13.8657 17.7095 13.8579C17.6909 13.85 17.6737 13.8396 17.6604 13.8266C17.6471 13.8135 17.6352 13.7979 17.6272 13.7796C17.6192 13.7613 17.6152 13.7431 17.6152 13.7222C17.6152 13.7013 17.6192 13.683 17.6272 13.6648C17.6352 13.6465 17.6458 13.6309 17.6604 13.6178C17.6737 13.6048 17.6909 13.5943 17.7095 13.5865C17.7281 13.5787 17.7494 13.5748 17.7706 13.5748ZM17.7706 13.8292C17.7853 13.8292 17.7999 13.8266 17.8132 13.8213C17.8264 13.8161 17.8384 13.8083 17.8477 13.7992C17.857 13.79 17.865 13.7783 17.8703 13.7652C17.8756 13.7522 17.8782 13.7378 17.8782 13.7235C17.8782 13.7091 17.8756 13.6948 17.8703 13.6817C17.865 13.6687 17.857 13.657 17.8477 13.6478C17.8384 13.6387 17.8264 13.6309 17.8132 13.6256C17.7999 13.6204 17.7866 13.6178 17.7706 13.6178C17.7547 13.6178 17.7414 13.6204 17.7281 13.6256C17.7149 13.6309 17.7029 13.6387 17.6936 13.6478C17.6843 13.657 17.6763 13.6687 17.671 13.6817C17.6657 13.6948 17.6631 13.7091 17.6631 13.7235C17.6631 13.7378 17.6657 13.7522 17.671 13.7652C17.6763 13.7783 17.6843 13.79 17.6936 13.7992C17.7029 13.8083 17.7149 13.8161 17.7281 13.8213C17.7414 13.8266 17.756 13.8292 17.7706 13.8292ZM17.7799 13.657C17.7985 13.657 17.8118 13.6609 17.8211 13.6687C17.8304 13.6765 17.8357 13.687 17.8357 13.7013C17.8357 13.7118 17.8317 13.7209 17.8251 13.7274C17.8185 13.7339 17.8078 13.7391 17.7959 13.7405L17.8371 13.7874H17.7919L17.7547 13.7418H17.7507V13.7874H17.7135V13.657H17.7799ZM17.7507 13.6883V13.7118H17.7786C17.7786 13.7118 17.7892 13.7118 17.7919 13.7091C17.7946 13.7078 17.7972 13.7039 17.7972 13.7C17.7972 13.6961 17.7959 13.6922 17.7919 13.6909C17.7892 13.6883 17.7839 13.6883 17.7786 13.6883H17.7507Z" fill="#9E9E9E"/>
<path id="Vector_12" d="M6.8833 5.58108C6.8833 3.84856 7.70686 2.30652 8.99 1.30849C8.04425 0.571389 6.8501 0.130432 5.54968 0.130432C2.48394 0.130432 0 2.57005 0 5.58108C0 8.59212 2.48394 11.0317 5.54968 11.0317C6.8501 11.0317 8.04558 10.5908 8.99133 9.85498C7.70819 8.85695 6.88463 7.3136 6.88463 5.58239L6.8833 5.58108Z" fill="#9E9E9E"/>
<path id="Vector_13" d="M6.88281 5.58094C6.88281 7.31346 7.70637 8.8555 8.98951 9.85353C10.2727 8.8555 11.0962 7.31215 11.0962 5.58094C11.0962 3.84972 10.2727 2.30637 8.98951 1.30835C7.70637 2.30637 6.88281 3.84972 6.88281 5.58094Z" fill="#6B6B6B"/>
<path id="Vector_14" d="M17.6041 8.5281V8.36894H17.5391V8.32458H17.7184V8.36894H17.6533V8.5281H17.6041ZM17.9522 8.5281V8.38721L17.9057 8.50853H17.8539L17.8074 8.38721V8.5281H17.7582V8.32458H17.8273L17.8791 8.45505L17.9296 8.32458H17.9987V8.5281H17.9495H17.9522Z" fill="#9E9E9E"/>
<path id="Vector_15" d="M12.4338 0.130432C11.1334 0.130432 9.93794 0.571389 8.99219 1.30719C10.2753 2.30521 11.0989 3.84856 11.0989 5.57978C11.0989 7.31099 10.2753 8.85434 8.99219 9.85237C9.93794 10.5882 11.1334 11.0291 12.4338 11.0291C15.4983 11.0291 17.9835 8.58951 17.9835 5.57847C17.9835 2.56744 15.4983 0.130432 12.4338 0.130432Z" fill="#9E9E9E"/>
</g>
</svg>
