<svg width="18" height="14" viewBox="0 0 18 14" fill="none" xmlns="http://www.w3.org/2000/svg">
<g id="Group 577">
<path id="Vector" d="M3.08446 12.4627C3.03266 12.4118 2.97156 12.3727 2.90116 12.344C2.83076 12.3153 2.75239 12.3022 2.6687 12.3022C2.62354 12.3022 2.57705 12.3062 2.52923 12.314C2.48141 12.3218 2.43359 12.3349 2.38843 12.3544C2.34194 12.374 2.2981 12.4001 2.25693 12.434C2.21575 12.4679 2.17856 12.5097 2.14801 12.5619C2.09886 12.481 2.03111 12.4184 1.9461 12.3727C1.86109 12.327 1.76412 12.3035 1.6552 12.3035C1.61801 12.3035 1.58082 12.3075 1.54097 12.314C1.50245 12.3205 1.4626 12.3323 1.42408 12.3479C1.38555 12.3636 1.34836 12.3857 1.31383 12.4131C1.27796 12.4405 1.24608 12.4758 1.21819 12.5175V12.3414H0.908691V13.7869H1.22084V12.9859C1.22084 12.9245 1.23014 12.8697 1.25007 12.8215C1.26999 12.7732 1.29656 12.7341 1.32977 12.7015C1.36297 12.6688 1.40149 12.6454 1.44666 12.6284C1.49182 12.6114 1.53831 12.6036 1.59011 12.6036C1.69505 12.6036 1.77741 12.6362 1.83452 12.7015C1.89297 12.7667 1.92219 12.8606 1.92219 12.9819V13.7869H2.23435V12.9859C2.23435 12.9245 2.24364 12.8697 2.26357 12.8215C2.28349 12.7732 2.31006 12.7341 2.34327 12.7015C2.37647 12.6688 2.415 12.6454 2.46016 12.6284C2.50532 12.6114 2.55181 12.6036 2.60362 12.6036C2.70855 12.6036 2.79091 12.6362 2.84802 12.7015C2.90647 12.7667 2.93569 12.8606 2.93569 12.9819V13.7869H3.24785V12.8776C3.24785 12.7928 3.23323 12.7158 3.20534 12.6454C3.17745 12.5749 3.1376 12.5149 3.08579 12.464L3.08446 12.4627Z" fill="white"/>
<path id="Vector_2" d="M4.7312 12.5152C4.6794 12.4513 4.61697 12.3991 4.54125 12.36C4.46554 12.3208 4.37522 12.3013 4.26895 12.3013C4.16269 12.3013 4.0697 12.3195 3.97938 12.3574C3.89038 12.3952 3.81201 12.4474 3.7456 12.5152C3.67918 12.5831 3.62738 12.6626 3.58886 12.7566C3.55033 12.8492 3.53174 12.951 3.53174 13.0619C3.53174 13.1727 3.55033 13.2745 3.58886 13.3671C3.62738 13.4598 3.67918 13.5406 3.7456 13.6085C3.81201 13.6763 3.89038 13.7285 3.97938 13.7663C4.06838 13.8042 4.16534 13.8224 4.26895 13.8224C4.37256 13.8224 4.46554 13.8029 4.54125 13.765C4.61697 13.7272 4.68073 13.675 4.7312 13.6111V13.7846H5.05265V12.3391H4.7312V12.5139V12.5152ZM4.71925 13.2471C4.69799 13.3032 4.66744 13.3528 4.62892 13.3932C4.5904 13.435 4.54391 13.4676 4.48945 13.4911C4.43499 13.5146 4.37522 13.5263 4.30747 13.5263C4.23973 13.5263 4.17597 13.5146 4.12018 13.4898C4.06572 13.465 4.01923 13.4324 3.98071 13.3906C3.94219 13.3489 3.91296 13.2993 3.89304 13.2432C3.87311 13.1871 3.86249 13.1271 3.86249 13.0632C3.86249 12.9992 3.87311 12.9405 3.89304 12.8831C3.91296 12.827 3.94219 12.7775 3.98071 12.7357C4.01923 12.694 4.06439 12.6613 4.12018 12.6366C4.17464 12.6118 4.23707 12.6 4.30747 12.6C4.37787 12.6 4.43499 12.6118 4.48945 12.6352C4.54391 12.6587 4.5904 12.6913 4.62892 12.7331C4.66744 12.7748 4.69799 12.8231 4.71925 12.8792C4.7405 12.9353 4.75113 12.9966 4.75113 13.0632C4.75113 13.1297 4.7405 13.191 4.71925 13.2471Z" fill="white"/>
<path id="Vector_3" d="M6.53056 13.0605C6.44024 12.9914 6.31537 12.9457 6.15465 12.9223L6.00189 12.9001C5.96869 12.8949 5.93681 12.8896 5.90626 12.8831C5.87703 12.8766 5.85047 12.8675 5.82921 12.857C5.80796 12.8466 5.79069 12.8322 5.77741 12.8153C5.76413 12.7983 5.75881 12.7774 5.75881 12.7514C5.75881 12.7005 5.78272 12.6587 5.83187 12.6274C5.88102 12.5961 5.94876 12.5804 6.03643 12.5804C6.08292 12.5804 6.12808 12.5844 6.17192 12.5922C6.21708 12.6 6.25826 12.6105 6.29811 12.6222C6.33796 12.6339 6.37382 12.647 6.40703 12.6626C6.44024 12.677 6.46813 12.6913 6.48938 12.7044L6.62753 12.4578C6.55049 12.4095 6.46149 12.3717 6.35921 12.3456C6.25693 12.3195 6.14801 12.3052 6.03244 12.3052C5.93813 12.3052 5.85312 12.3156 5.77874 12.3378C5.70435 12.36 5.64059 12.39 5.58746 12.4304C5.53433 12.4696 5.49448 12.5191 5.46658 12.5765C5.43869 12.6339 5.42408 12.6979 5.42408 12.7696C5.42408 12.8857 5.46658 12.981 5.55027 13.0527C5.63528 13.1245 5.75881 13.1714 5.92352 13.1936L6.07761 13.2132C6.16528 13.2249 6.23036 13.2445 6.27154 13.2719C6.31272 13.298 6.33264 13.3319 6.33264 13.3736C6.33264 13.4284 6.30475 13.4715 6.24763 13.5028C6.19184 13.5341 6.10816 13.5498 5.99658 13.5498C5.93548 13.5498 5.88235 13.5459 5.83453 13.538C5.78671 13.5302 5.74287 13.5198 5.70435 13.5054C5.6645 13.4924 5.62997 13.4767 5.59809 13.4584C5.56621 13.4402 5.53831 13.4219 5.51175 13.4024L5.36298 13.6398C5.41611 13.6789 5.4719 13.7102 5.53034 13.735C5.58879 13.7598 5.64591 13.7781 5.70302 13.7911C5.75881 13.8042 5.81327 13.8133 5.86242 13.8185C5.9129 13.8224 5.95673 13.825 5.99525 13.825C6.10019 13.825 6.19583 13.8133 6.27818 13.7898C6.36187 13.7663 6.43227 13.7337 6.48938 13.692C6.5465 13.6502 6.59034 13.6007 6.61956 13.5419C6.64878 13.4832 6.66472 13.4206 6.66472 13.3515C6.66472 13.2275 6.61956 13.131 6.52923 13.0618L6.53056 13.0605Z" fill="white"/>
<path id="Vector_4" d="M9.5376 12.5123C9.4765 12.4458 9.40344 12.3936 9.31843 12.357C9.23342 12.3205 9.13911 12.3022 9.03683 12.3022C8.92791 12.3022 8.82961 12.3205 8.73929 12.357C8.64896 12.3936 8.57192 12.4458 8.50816 12.5123C8.44308 12.5788 8.39393 12.6597 8.35806 12.7536C8.3222 12.8476 8.30493 12.9506 8.30493 13.0628C8.30493 13.175 8.32353 13.282 8.36072 13.3759C8.39791 13.4699 8.44972 13.5495 8.51613 13.616C8.58255 13.6825 8.66225 13.7334 8.7539 13.7699C8.84555 13.8065 8.94783 13.8247 9.05808 13.8247C9.16833 13.8247 9.27593 13.8091 9.37688 13.7791C9.47783 13.7491 9.57347 13.6956 9.66379 13.6212L9.5044 13.3968C9.44329 13.4451 9.37555 13.4829 9.30116 13.509C9.22678 13.5351 9.15239 13.5495 9.07934 13.5495C9.02753 13.5495 8.97706 13.5429 8.92924 13.5286C8.88142 13.5142 8.83758 13.492 8.79906 13.4633C8.76054 13.4333 8.72733 13.3955 8.69944 13.3498C8.67154 13.3042 8.65295 13.2481 8.64232 13.1829H9.73021C9.73287 13.1646 9.73419 13.145 9.73419 13.1255C9.73419 13.1059 9.73552 13.085 9.73552 13.0654C9.73552 12.9532 9.71825 12.8502 9.68372 12.7562C9.64918 12.6636 9.60136 12.5827 9.54026 12.5162L9.5376 12.5123ZM8.63967 12.9389C8.64764 12.8867 8.66225 12.8384 8.68217 12.7941C8.7021 12.7497 8.72866 12.7132 8.76187 12.6806C8.79375 12.6493 8.83227 12.6245 8.87743 12.6075C8.9226 12.5906 8.97307 12.5814 9.03019 12.5814C9.13247 12.5814 9.21615 12.6127 9.28124 12.6754C9.34633 12.738 9.38618 12.8254 9.40477 12.9376H8.64099L8.63967 12.9389Z" fill="white"/>
<path id="Vector_5" d="M13.8054 12.5152C13.7536 12.4513 13.6912 12.3991 13.6155 12.36C13.5398 12.3208 13.4494 12.3013 13.3432 12.3013C13.2369 12.3013 13.1439 12.3195 13.0536 12.3574C12.9646 12.3952 12.8862 12.4474 12.8198 12.5152C12.7534 12.5831 12.7016 12.6626 12.6631 12.7566C12.6246 12.8492 12.606 12.951 12.606 13.0619C12.606 13.1727 12.6246 13.2745 12.6631 13.3671C12.7016 13.4598 12.7534 13.5406 12.8198 13.6085C12.8862 13.6763 12.9646 13.7285 13.0536 13.7663C13.1426 13.8042 13.2396 13.8224 13.3432 13.8224C13.4468 13.8224 13.5398 13.8029 13.6155 13.765C13.6912 13.7272 13.7549 13.675 13.8054 13.6111V13.7846H14.1269V12.3391H13.8054V12.5139V12.5152ZM13.7921 13.2471C13.7709 13.3032 13.7403 13.3528 13.7018 13.3932C13.6633 13.435 13.6168 13.4676 13.5623 13.4911C13.5079 13.5146 13.4481 13.5263 13.3804 13.5263C13.3126 13.5263 13.2489 13.5146 13.1931 13.4898C13.1373 13.465 13.0921 13.4324 13.0536 13.3906C13.0151 13.3489 12.9859 13.2993 12.9659 13.2432C12.946 13.1871 12.9354 13.1271 12.9354 13.0632C12.9354 12.9992 12.946 12.9405 12.9659 12.8831C12.9859 12.827 13.0151 12.7775 13.0536 12.7357C13.0921 12.694 13.1373 12.6613 13.1931 12.6366C13.2475 12.6118 13.31 12.6 13.3804 12.6C13.4508 12.6 13.5079 12.6118 13.5623 12.6352C13.6168 12.6587 13.6633 12.6913 13.7018 12.7331C13.7403 12.7748 13.7709 12.8231 13.7921 12.8792C13.8134 12.9353 13.824 12.9966 13.824 13.0632C13.824 13.1297 13.8134 13.191 13.7921 13.2471Z" fill="white"/>
<path id="Vector_6" d="M7.90703 13.4977C7.85523 13.5173 7.80475 13.5264 7.75428 13.5264C7.72107 13.5264 7.69052 13.5212 7.66263 13.5108C7.63473 13.5003 7.60949 13.4847 7.58824 13.4638C7.56699 13.4416 7.55105 13.4142 7.53776 13.3803C7.52448 13.3464 7.51917 13.3046 7.51917 13.2564V12.6262H8.03455V12.3392H7.51917V11.9009H7.19639V12.3392H6.90283V12.6262H7.19639V13.2616C7.19639 13.4534 7.24288 13.5956 7.33586 13.6869C7.42884 13.7782 7.55902 13.8239 7.72506 13.8239C7.81804 13.8239 7.90172 13.8095 7.97611 13.7821C8.02525 13.7639 8.07042 13.7417 8.11292 13.7182L8.00267 13.4547C7.97212 13.4716 7.93891 13.486 7.90438 13.499L7.90703 13.4977Z" fill="white"/>
<path id="Vector_7" d="M10.8069 12.3019C10.7165 12.3019 10.6355 12.3176 10.5624 12.3502C10.4894 12.3828 10.4283 12.4598 10.3791 12.5289V12.3398H10.0869V13.7853H10.3818V12.9895C10.3818 12.9281 10.3911 12.8733 10.4084 12.8251C10.4256 12.7768 10.4495 12.7364 10.4801 12.7024C10.5106 12.6698 10.5478 12.6437 10.5903 12.6268C10.6328 12.6098 10.6807 12.6007 10.7311 12.6007C10.7697 12.6007 10.8122 12.6046 10.8573 12.6137C10.8799 12.6189 10.9012 12.6242 10.9224 12.6307L11.0181 12.3293C10.9928 12.3215 10.9663 12.315 10.9397 12.3098C10.8998 12.3032 10.856 12.2993 10.8069 12.2993V12.3019Z" fill="white"/>
<path id="Vector_8" d="M15.2727 12.3019C15.1824 12.3019 15.1013 12.3176 15.0283 12.3502C14.9552 12.3828 14.8941 12.4598 14.845 12.5289V12.3398H14.5527V13.7853H14.8476V12.9895C14.8476 12.9281 14.8569 12.8733 14.8742 12.8251C14.8915 12.7768 14.9154 12.7364 14.9459 12.7024C14.9765 12.6698 15.0137 12.6437 15.0562 12.6268C15.0987 12.6098 15.1465 12.6007 15.197 12.6007C15.2355 12.6007 15.278 12.6046 15.3232 12.6137C15.3457 12.6189 15.367 12.6242 15.3882 12.6307L15.4839 12.3293C15.4586 12.3215 15.4321 12.315 15.4055 12.3098C15.3657 12.3032 15.3218 12.2993 15.2727 12.2993V12.3019Z" fill="white"/>
<path id="Vector_9" d="M16.7726 11.7518V12.515C16.7208 12.4511 16.6584 12.3989 16.5827 12.3597C16.507 12.3206 16.4167 12.301 16.3104 12.301C16.2041 12.301 16.1111 12.3193 16.0208 12.3571C15.9318 12.395 15.8535 12.4471 15.787 12.515C15.7206 12.5828 15.6688 12.6624 15.6303 12.7563C15.5918 12.849 15.5732 12.9507 15.5732 13.0616C15.5732 13.1725 15.5918 13.2743 15.6303 13.3669C15.6688 13.4595 15.7206 13.5404 15.787 13.6082C15.8535 13.6761 15.9318 13.7283 16.0208 13.7661C16.1098 13.8039 16.2068 13.8222 16.3104 13.8222C16.414 13.8222 16.507 13.8026 16.5827 13.7648C16.6584 13.727 16.7222 13.6748 16.7726 13.6109V13.7844H17.0941V11.7505H16.7726V11.7518ZM16.7607 13.2469C16.7394 13.303 16.7089 13.3525 16.6704 13.393C16.6318 13.4347 16.5854 13.4674 16.5309 13.4908C16.4764 13.5143 16.4167 13.5261 16.3489 13.5261C16.2812 13.5261 16.2174 13.5143 16.1616 13.4895C16.1072 13.4647 16.0607 13.4321 16.0222 13.3904C15.9836 13.3486 15.9544 13.2991 15.9345 13.243C15.9146 13.1869 15.9039 13.1268 15.9039 13.0629C15.9039 12.999 15.9146 12.9403 15.9345 12.8829C15.9544 12.8268 15.9836 12.7772 16.0222 12.7355C16.0607 12.6937 16.1058 12.6611 16.1616 12.6363C16.2161 12.6115 16.2785 12.5998 16.3489 12.5998C16.4193 12.5998 16.4764 12.6115 16.5309 12.635C16.5854 12.6585 16.6318 12.6911 16.6704 12.7329C16.7089 12.7746 16.7394 12.8229 16.7607 12.879C16.7819 12.9351 16.7926 12.9964 16.7926 13.0629C16.7926 13.1295 16.7819 13.1908 16.7607 13.2469Z" fill="white"/>
<path id="Vector_10" d="M11.5764 12.7292C11.6176 12.6887 11.6654 12.6561 11.7225 12.6339C11.7783 12.6118 11.8394 12.6 11.9058 12.6C11.9775 12.6 12.0453 12.6118 12.1064 12.6339C12.1661 12.6561 12.2179 12.6861 12.2618 12.7253L12.4159 12.4722C12.3574 12.4265 12.2923 12.39 12.2206 12.36C12.1236 12.3208 12.0187 12.3013 11.9045 12.3013C11.7902 12.3013 11.6853 12.3208 11.5883 12.36C11.4914 12.3991 11.4077 12.4526 11.3373 12.5204C11.2669 12.5883 11.2124 12.6692 11.1726 12.7618C11.1327 12.8544 11.1128 12.9549 11.1128 13.0632C11.1128 13.1714 11.1327 13.2719 11.1726 13.3645C11.2124 13.4572 11.2682 13.5367 11.3373 13.6059C11.4077 13.6737 11.4914 13.7272 11.5883 13.7663C11.6853 13.8055 11.7902 13.8251 11.9045 13.8251C12.0187 13.8251 12.1236 13.8055 12.2206 13.7663C12.2937 13.7376 12.3587 13.6998 12.4159 13.6541L12.2618 13.4011C12.2179 13.4402 12.1661 13.4702 12.1064 13.4924C12.0439 13.5146 11.9775 13.5263 11.9058 13.5263C11.8407 13.5263 11.7796 13.5146 11.7225 13.4924C11.6667 13.4702 11.6176 13.4376 11.5764 13.3971C11.5352 13.3567 11.5033 13.3071 11.4794 13.251C11.4555 13.1936 11.4435 13.131 11.4435 13.0632C11.4435 12.9953 11.4555 12.9327 11.4794 12.8753C11.5033 12.8179 11.5352 12.7696 11.5764 12.7292Z" fill="white"/>
<path id="Vector_11" d="M17.7706 13.5747C17.7919 13.5747 17.8118 13.5786 17.8304 13.5864C17.849 13.5943 17.865 13.6047 17.8796 13.6178C17.8929 13.6308 17.9048 13.6465 17.9128 13.6647C17.9207 13.683 17.9247 13.7013 17.9247 13.7221C17.9247 13.743 17.9207 13.7613 17.9128 13.7795C17.9048 13.7978 17.8942 13.8135 17.8796 13.8265C17.8663 13.8395 17.849 13.85 17.8304 13.8578C17.8118 13.8656 17.7919 13.8695 17.7706 13.8695C17.7494 13.8695 17.7281 13.8656 17.7095 13.8578C17.6909 13.85 17.6737 13.8395 17.6604 13.8265C17.6471 13.8135 17.6352 13.7978 17.6272 13.7795C17.6192 13.7613 17.6152 13.743 17.6152 13.7221C17.6152 13.7013 17.6192 13.683 17.6272 13.6647C17.6352 13.6465 17.6458 13.6308 17.6604 13.6178C17.6737 13.6047 17.6909 13.5943 17.7095 13.5864C17.7281 13.5786 17.7494 13.5747 17.7706 13.5747ZM17.7706 13.8291C17.7853 13.8291 17.7999 13.8265 17.8132 13.8213C17.8264 13.8161 17.8384 13.8082 17.8477 13.7991C17.857 13.79 17.865 13.7782 17.8703 13.7652C17.8756 13.7521 17.8782 13.7378 17.8782 13.7234C17.8782 13.7091 17.8756 13.6947 17.8703 13.6817C17.865 13.6686 17.857 13.6569 17.8477 13.6478C17.8384 13.6386 17.8264 13.6308 17.8132 13.6256C17.7999 13.6204 17.7866 13.6178 17.7706 13.6178C17.7547 13.6178 17.7414 13.6204 17.7281 13.6256C17.7149 13.6308 17.7029 13.6386 17.6936 13.6478C17.6843 13.6569 17.6763 13.6686 17.671 13.6817C17.6657 13.6947 17.6631 13.7091 17.6631 13.7234C17.6631 13.7378 17.6657 13.7521 17.671 13.7652C17.6763 13.7782 17.6843 13.79 17.6936 13.7991C17.7029 13.8082 17.7149 13.8161 17.7281 13.8213C17.7414 13.8265 17.756 13.8291 17.7706 13.8291ZM17.7799 13.6569C17.7985 13.6569 17.8118 13.6608 17.8211 13.6686C17.8304 13.6765 17.8357 13.6869 17.8357 13.7013C17.8357 13.7117 17.8317 13.7208 17.8251 13.7273C17.8185 13.7339 17.8078 13.7391 17.7959 13.7404L17.8371 13.7874H17.7919L17.7547 13.7417H17.7507V13.7874H17.7135V13.6569H17.7799ZM17.7507 13.6882V13.7117H17.7786C17.7786 13.7117 17.7892 13.7117 17.7919 13.7091C17.7946 13.7078 17.7972 13.7039 17.7972 13.6999C17.7972 13.696 17.7959 13.6921 17.7919 13.6908C17.7892 13.6882 17.7839 13.6882 17.7786 13.6882H17.7507Z" fill="white"/>
<path id="Vector_12" d="M6.8833 5.58102C6.8833 3.8485 7.70686 2.30646 8.99 1.30843C8.04425 0.571328 6.8501 0.130371 5.54968 0.130371C2.48394 0.130371 0 2.56999 0 5.58102C0 8.59205 2.48394 11.0317 5.54968 11.0317C6.8501 11.0317 8.04558 10.5907 8.99133 9.85491C7.70819 8.85689 6.88463 7.31354 6.88463 5.58233L6.8833 5.58102Z" fill="white"/>
<path id="Vector_13" d="M6.88293 5.58069C6.88293 7.31321 7.70649 8.85526 8.98963 9.85328C10.2728 8.85526 11.0963 7.31191 11.0963 5.58069C11.0963 3.84948 10.2728 2.30613 8.98963 1.30811C7.70649 2.30613 6.88293 3.84948 6.88293 5.58069Z" fill="#C1C1C1"/>
<path id="Vector_14" d="M17.6049 8.52823V8.36906H17.5399V8.32471H17.7192V8.36906H17.6541V8.52823H17.6049ZM17.953 8.52823V8.38733L17.9065 8.50866H17.8547L17.8082 8.38733V8.52823H17.759V8.32471H17.8281L17.8799 8.45517L17.9304 8.32471H17.9995V8.52823H17.9503H17.953Z" fill="white"/>
<path id="Vector_15" d="M12.4331 0.130371C11.1327 0.130371 9.93721 0.571328 8.99146 1.30713C10.2746 2.30515 11.0982 3.8485 11.0982 5.57972C11.0982 7.31093 10.2746 8.85428 8.99146 9.85231C9.93721 10.5881 11.1327 11.0291 12.4331 11.0291C15.4975 11.0291 17.9828 8.58945 17.9828 5.57841C17.9828 2.56738 15.4975 0.130371 12.4331 0.130371Z" fill="white"/>
</g>
</svg>
