<svg width="15" height="12" viewBox="0 0 15 12" fill="none" xmlns="http://www.w3.org/2000/svg">
<path id="Vector" d="M11.875 0H3.125C2.29629 0.000318053 1.50161 0.35161 0.915621 0.976662C0.329634 1.60171 0.000298175 2.44938 0 3.33333L0 8.66667C0.000298175 9.55062 0.329634 10.3983 0.915621 11.0233C1.50161 11.6484 2.29629 11.9997 3.125 12H11.875C12.7037 11.9997 13.4984 11.6484 14.0844 11.0233C14.6704 10.3983 14.9997 9.55062 15 8.66667V3.33333C14.9997 2.44938 14.6704 1.60171 14.0844 0.976662C13.4984 0.35161 12.7037 0.000318053 11.875 0ZM3.75 8.66667C3.91576 8.66667 4.07473 8.7369 4.19194 8.86193C4.30915 8.98695 4.375 9.15652 4.375 9.33333C4.375 9.51014 4.30915 9.67971 4.19194 9.80474C4.07473 9.92976 3.91576 10 3.75 10C3.25289 9.99942 2.77629 9.78852 2.42478 9.41357C2.07327 9.03862 1.87555 8.53025 1.875 8V4C1.87555 3.46975 2.07327 2.96138 2.42478 2.58643C2.77629 2.21148 3.25289 2.00058 3.75 2C3.91576 2 4.07473 2.07024 4.19194 2.19526C4.30915 2.32029 4.375 2.48986 4.375 2.66667C4.375 2.84348 4.30915 3.01305 4.19194 3.13807C4.07473 3.2631 3.91576 3.33333 3.75 3.33333C3.58429 3.33349 3.4254 3.40378 3.30822 3.52877C3.19104 3.65376 3.12515 3.82324 3.125 4V8C3.12515 8.17676 3.19104 8.34624 3.30822 8.47123C3.4254 8.59622 3.58429 8.66651 3.75 8.66667ZM7.1875 5.33333H7.8125C8.19998 5.33292 8.57379 5.48609 8.86135 5.76312C9.14892 6.04016 9.32972 6.42128 9.36866 6.8325C9.4076 7.24373 9.30191 7.65572 9.07209 7.98849C8.84227 8.32127 8.50474 8.55109 8.125 8.63333V8.66667C8.125 8.84348 8.05915 9.01305 7.94194 9.13807C7.82473 9.2631 7.66576 9.33333 7.5 9.33333C7.33424 9.33333 7.17527 9.2631 7.05806 9.13807C6.94085 9.01305 6.875 8.84348 6.875 8.66667H6.25C6.08424 8.66667 5.92527 8.59643 5.80806 8.47141C5.69085 8.34638 5.625 8.17681 5.625 8C5.625 7.82319 5.69085 7.65362 5.80806 7.5286C5.92527 7.40357 6.08424 7.33333 6.25 7.33333H7.8125C7.89538 7.33333 7.97487 7.29821 8.03347 7.2357C8.09208 7.17319 8.125 7.08841 8.125 7C8.125 6.91159 8.09208 6.82681 8.03347 6.7643C7.97487 6.70179 7.89538 6.66667 7.8125 6.66667H7.1875C6.80028 6.66668 6.42686 6.51332 6.13962 6.23633C5.85238 5.95934 5.6718 5.57845 5.63288 5.16751C5.59396 4.75658 5.69948 4.34486 5.92898 4.01219C6.15848 3.67952 6.4956 3.4496 6.875 3.367V3.33333C6.875 3.15652 6.94085 2.98695 7.05806 2.86193C7.17527 2.7369 7.33424 2.66667 7.5 2.66667C7.66576 2.66667 7.82473 2.7369 7.94194 2.86193C8.05915 2.98695 8.125 3.15652 8.125 3.33333H8.75C8.91576 3.33333 9.07473 3.40357 9.19194 3.5286C9.30915 3.65362 9.375 3.82319 9.375 4C9.375 4.17681 9.30915 4.34638 9.19194 4.4714C9.07473 4.59643 8.91576 4.66667 8.75 4.66667H7.1875C7.10462 4.66667 7.02513 4.70179 6.96653 4.7643C6.90792 4.82681 6.875 4.91159 6.875 5C6.875 5.08841 6.90792 5.17319 6.96653 5.2357C7.02513 5.29821 7.10462 5.33333 7.1875 5.33333ZM13.125 8C13.1245 8.53025 12.9267 9.03862 12.5752 9.41357C12.2237 9.78852 11.7471 9.99942 11.25 10C11.0842 10 10.9253 9.92976 10.8081 9.80474C10.6908 9.67971 10.625 9.51014 10.625 9.33333C10.625 9.15652 10.6908 8.98695 10.8081 8.86193C10.9253 8.7369 11.0842 8.66667 11.25 8.66667C11.4157 8.66651 11.5746 8.59622 11.6918 8.47123C11.809 8.34624 11.8749 8.17676 11.875 8V4C11.8749 3.82324 11.809 3.65376 11.6918 3.52877C11.5746 3.40378 11.4157 3.33349 11.25 3.33333C11.0842 3.33333 10.9253 3.2631 10.8081 3.13807C10.6908 3.01305 10.625 2.84348 10.625 2.66667C10.625 2.48986 10.6908 2.32029 10.8081 2.19526C10.9253 2.07024 11.0842 2 11.25 2C11.7471 2.00058 12.2237 2.21148 12.5752 2.58643C12.9267 2.96138 13.1245 3.46975 13.125 4V8Z" fill="#6B6B6B"/>
</svg>
