<svg width="21" height="20" viewBox="0 0 21 20" fill="none" xmlns="http://www.w3.org/2000/svg">
<path id="Vector" fill-rule="evenodd" clip-rule="evenodd" d="M11.9855 0.0137281C15.0058 0.0137281 17.4543 2.50008 17.4543 5.56719C17.4543 8.63429 15.0058 11.1206 11.9855 11.1206C8.96518 11.1206 6.51675 8.63429 6.51675 5.56719C6.51675 2.50008 8.96518 0.0137281 11.9855 0.0137281ZM14.0443 17.6022C14.0427 17.6383 14.0418 17.6746 14.0418 17.7112C14.0418 18.9753 15.0509 20 16.2957 20C17.5405 20 18.5496 18.9752 18.5496 17.7112C18.5496 16.4471 17.5405 15.4224 16.2957 15.4224C15.6196 15.4224 15.0131 15.7247 14.6 16.2035H9.6521C9.23901 15.7247 8.63251 15.4224 7.95639 15.4224C7.28028 15.4224 6.67377 15.7247 6.26068 16.2035H5.82681C5.17034 16.2035 4.63073 15.6555 4.63073 14.9889C4.63073 14.3222 5.17034 13.7743 5.82681 13.7743H16.4472C17.5999 13.7743 18.5914 13.0282 18.9309 11.9102L20.9515 5.25775C20.9828 5.17787 21 5.09074 21 4.99953C21 4.61328 20.6917 4.3002 20.3113 4.3002H18.0279C18.1107 4.70938 18.1542 5.13308 18.1542 5.56714C18.1542 5.61121 18.1534 5.65506 18.1526 5.69891H19.3802L18.8188 7.54759H17.8393C17.7593 7.79155 17.6649 8.02883 17.5572 8.25844H18.6029L18.1428 9.77311H16.5568C16.3271 10.0305 16.0765 10.2684 15.8078 10.484H17.9269L17.6182 11.5005C17.4552 12.0371 16.9994 12.3755 16.4472 12.3755H15.5158V10.7042C15.2928 10.8626 15.0591 11.0065 14.8158 11.1342V12.3755H12.3564V11.8198C12.1225 11.8339 11.8904 11.835 11.6564 11.8226V12.3755H9.19701V11.1561C8.95394 11.0307 8.72027 10.8894 8.49701 10.7337V12.3755H6.36664L5.91698 10.484H8.16324C7.89457 10.2683 7.64393 10.0305 7.4142 9.77311H5.74802L5.38796 8.25844H6.41389C6.30614 8.02888 6.21181 7.79155 6.13179 7.54759H5.21895L4.77948 5.69891H5.81837C5.81749 5.65506 5.81675 5.61121 5.81675 5.56714C5.81675 5.13308 5.86028 4.70942 5.94306 4.3002H4.44693L3.69815 1.15037C3.5368 0.471422 2.95016 0 2.26188 0H0.688714C0.308351 0 0 0.313082 0 0.699336C0 1.08559 0.308351 1.39867 0.688714 1.39867H2.26188C2.31355 1.39867 2.35152 1.42644 2.36382 1.47815L4.98839 12.5185C3.95623 12.8818 3.25334 13.8739 3.25334 14.9889C3.25334 16.3798 4.33804 17.534 5.70519 17.5993C5.70344 17.6364 5.70247 17.6736 5.70247 17.7112C5.70247 18.9753 6.71157 20 7.95639 20C9.20121 20 10.2103 18.9752 10.2103 17.7112C10.2103 17.6747 10.2094 17.6383 10.2077 17.6022H14.0443ZM7.95639 18.6431C7.44955 18.6431 7.03869 18.2259 7.03869 17.7112C7.03869 17.1965 7.44955 16.7793 7.95639 16.7793C8.46324 16.7793 8.87409 17.1965 8.87409 17.7112C8.87409 18.2259 8.46324 18.6431 7.95639 18.6431ZM16.2956 16.7793C16.8025 16.7793 17.2133 17.1965 17.2133 17.7112C17.2133 18.2259 16.8025 18.6431 16.2956 18.6431C15.7888 18.6431 15.3779 18.2259 15.3779 17.7112C15.378 17.1965 15.7888 16.7793 16.2956 16.7793ZM11.9855 0.9711C9.48594 0.9711 7.45957 3.0289 7.45957 5.56714C7.45957 8.10543 9.48598 10.1632 11.9855 10.1632C14.4851 10.1632 16.5115 8.10538 16.5115 5.56714C16.5115 3.0289 14.485 0.9711 11.9855 0.9711ZM11.9855 1.68194C9.87243 1.68194 8.15952 3.42137 8.15952 5.56719C8.15952 7.713 9.87238 9.45243 11.9855 9.45243C14.0986 9.45243 15.8115 7.713 15.8115 5.56719C15.8115 3.42137 14.0986 1.68194 11.9855 1.68194ZM13.5376 4.14146C13.3202 3.61579 12.8843 3.26588 12.3355 3.16027V2.88367C12.3355 2.68738 12.1788 2.52824 11.9855 2.52824C11.7922 2.52824 11.6355 2.68738 11.6355 2.88367V3.1656L11.6353 3.16565C10.9503 3.30577 10.4008 3.83882 10.4365 4.58636C10.4771 5.43715 11.2057 5.78044 11.9333 5.90173C12.3378 5.96917 12.9114 6.10663 12.9706 6.60146C12.9741 6.63065 12.976 6.65189 12.9763 6.66553C12.9859 7.07719 12.5176 7.24349 12.1862 7.28431C12.1272 7.2916 12.0756 7.29569 12.0319 7.29676C11.5834 7.30764 11.1021 7.10038 10.9849 6.62314C10.9388 6.43299 10.7497 6.31677 10.5625 6.36351C10.3752 6.41025 10.2608 6.60235 10.3068 6.7925C10.4679 7.44861 10.9992 7.85974 11.6355 7.97348V8.25057C11.6355 8.44685 11.7922 8.60599 11.9855 8.60599C12.1788 8.60599 12.3355 8.44685 12.3355 8.25057V7.98023C13.0283 7.87325 13.692 7.43621 13.6735 6.64887C13.6723 6.59924 13.6696 6.55548 13.6651 6.51816C13.5606 5.64369 12.8009 5.32794 12.0454 5.20199C11.6844 5.14184 11.1554 5.0066 11.1338 4.55304C11.1152 4.16536 11.4306 3.92967 11.7721 3.85983C12.2326 3.76564 12.7035 3.95953 12.8924 4.41633C12.9671 4.59729 13.1722 4.68245 13.3504 4.60653C13.5285 4.53069 13.6124 4.32241 13.5376 4.14146Z" fill="white"/>
</svg>
