<svg width="14" height="14" viewBox="0 0 14 14" fill="none" xmlns="http://www.w3.org/2000/svg">
<g id="Group">
<path id="Vector" d="M4.31449 1.86133H3.16797C2.45184 1.86133 1.86914 2.44402 1.86914 3.16016V4.30668C1.86914 5.02281 2.45184 5.60551 3.16797 5.60551H4.31449C5.03063 5.60551 5.61332 5.02281 5.61332 4.30668V3.16016C5.61332 2.44402 5.03063 1.86133 4.31449 1.86133Z" fill="white"/>
<path id="Vector_2" d="M7.54297 7.7498H10.8338C11.5499 7.7498 12.1326 7.16711 12.1326 6.45098V3.16016C12.1326 2.44402 11.5499 1.86133 10.8338 1.86133H7.54297C6.82684 1.86133 6.24414 2.44402 6.24414 3.16016V6.45098C6.24414 7.16711 6.82684 7.7498 7.54297 7.7498ZM8.38707 4.1634C8.38707 4.01246 8.50957 3.88996 8.66051 3.88996H9.94457C10.0955 3.88996 10.218 4.01246 10.218 4.1634V5.44746C10.218 5.5984 10.0955 5.7209 9.94457 5.7209H8.66051C8.50957 5.7209 8.38707 5.5984 8.38707 5.44746V4.1634Z" fill="white"/>
<path id="Vector_3" d="M4.28656 6.24609H3.16602C2.44988 6.24609 1.86719 6.82879 1.86719 7.54492V10.8398C1.86719 11.556 2.44988 12.1387 3.16602 12.1387H4.28656C5.0027 12.1387 5.58539 11.556 5.58539 10.8398V7.54492C5.58539 6.82879 5.0027 6.24609 4.28656 6.24609Z" fill="white"/>
<path id="Vector_4" d="M12.1326 10.8398V9.73242C12.1326 9.01629 11.5499 8.43359 10.8338 8.43359H7.54297C6.82684 8.43359 6.24414 9.01629 6.24414 9.73242V10.8398C6.24414 11.556 6.82684 12.1387 7.54297 12.1387H10.8338C11.5499 12.1387 12.1326 11.556 12.1326 10.8398Z" fill="white"/>
<path id="Vector_5" d="M0.478516 5.1048C0.74293 5.1048 0.957031 4.8907 0.957031 4.62629V1.8457C0.957031 1.3557 1.3557 0.957031 1.8457 0.957031H4.62629C4.8907 0.957031 5.1048 0.74293 5.1048 0.478516C5.1048 0.214102 4.8907 0 4.62629 0H1.8457C0.827969 0 0 0.827969 0 1.8457V4.62629C0 4.8907 0.214102 5.1048 0.478516 5.1048Z" fill="white"/>
<path id="Vector_6" d="M4.62629 13.0433H1.8457C1.3557 13.0433 0.957031 12.6446 0.957031 12.1546V9.37402C0.957031 9.10961 0.74293 8.89551 0.478516 8.89551C0.214102 8.89551 0 9.10961 0 9.37402V12.1546C0 13.1723 0.827969 14.0003 1.8457 14.0003H4.62629C4.8907 14.0003 5.1048 13.7862 5.1048 13.5218C5.1048 13.2574 4.8907 13.0433 4.62629 13.0433Z" fill="white"/>
<path id="Vector_7" d="M13.5208 8.89551C13.2564 8.89551 13.0423 9.10961 13.0423 9.37402V12.1546C13.0423 12.6446 12.6436 13.0433 12.1536 13.0433H9.37305C9.10863 13.0433 8.89453 13.2574 8.89453 13.5218C8.89453 13.7862 9.10863 14.0003 9.37305 14.0003H12.1536C13.1714 14.0003 13.9993 13.1723 13.9993 12.1546V9.37402C13.9993 9.10961 13.7852 8.89551 13.5208 8.89551Z" fill="white"/>
<path id="Vector_8" d="M12.1536 0H9.37305C9.10863 0 8.89453 0.214102 8.89453 0.478516C8.89453 0.74293 9.10863 0.957031 9.37305 0.957031H12.1536C12.6436 0.957031 13.0423 1.3557 13.0423 1.8457V4.62629C13.0423 4.8907 13.2564 5.1048 13.5208 5.1048C13.7852 5.1048 13.9993 4.8907 13.9993 4.62629V1.8457C13.9993 0.827969 13.1714 0 12.1536 0Z" fill="white"/>
</g>
</svg>
