<svg width="14" height="14" viewBox="0 0 14 14" fill="none" xmlns="http://www.w3.org/2000/svg">
<g id="Group">
<path id="Vector" d="M4.31449 1.86115H3.16797C2.45184 1.86115 1.86914 2.44384 1.86914 3.15997V4.3065C1.86914 5.02263 2.45184 5.60532 3.16797 5.60532H4.31449C5.03063 5.60532 5.61332 5.02263 5.61332 4.3065V3.15997C5.61332 2.44384 5.03063 1.86115 4.31449 1.86115Z" fill="#6B6B6B"/>
<path id="Vector_2" d="M7.54297 7.74962H10.8338C11.5499 7.74962 12.1326 7.16693 12.1326 6.45079V3.15997C12.1326 2.44384 11.5499 1.86115 10.8338 1.86115H7.54297C6.82684 1.86115 6.24414 2.44384 6.24414 3.15997V6.45079C6.24414 7.16693 6.82684 7.74962 7.54297 7.74962ZM8.38707 4.16322C8.38707 4.01228 8.50957 3.88978 8.66051 3.88978H9.94457C10.0955 3.88978 10.218 4.01228 10.218 4.16322V5.44728C10.218 5.59822 10.0955 5.72072 9.94457 5.72072H8.66051C8.50957 5.72072 8.38707 5.59822 8.38707 5.44728V4.16322Z" fill="#6B6B6B"/>
<path id="Vector_3" d="M4.28656 6.24591H3.16602C2.44988 6.24591 1.86719 6.82861 1.86719 7.54474V10.8397C1.86719 11.5558 2.44988 12.1385 3.16602 12.1385H4.28656C5.0027 12.1385 5.58539 11.5558 5.58539 10.8397V7.54474C5.58539 6.82861 5.0027 6.24591 4.28656 6.24591Z" fill="#6B6B6B"/>
<path id="Vector_4" d="M12.1326 10.8397V9.73224C12.1326 9.01611 11.5499 8.43341 10.8338 8.43341H7.54297C6.82684 8.43341 6.24414 9.01611 6.24414 9.73224V10.8397C6.24414 11.5558 6.82684 12.1385 7.54297 12.1385H10.8338C11.5499 12.1385 12.1326 11.5558 12.1326 10.8397Z" fill="#6B6B6B"/>
<path id="Vector_5" d="M0.478516 5.10462C0.74293 5.10462 0.957031 4.89052 0.957031 4.62611V1.84552C0.957031 1.35552 1.3557 0.956848 1.8457 0.956848H4.62629C4.8907 0.956848 5.1048 0.742747 5.1048 0.478332C5.1048 0.213918 4.8907 -0.000183105 4.62629 -0.000183105H1.8457C0.827969 -0.000183105 0 0.827786 0 1.84552V4.62611C0 4.89052 0.214102 5.10462 0.478516 5.10462Z" fill="#6B6B6B"/>
<path id="Vector_6" d="M4.62629 13.0431H1.8457C1.3557 13.0431 0.957031 12.6444 0.957031 12.1544V9.37384C0.957031 9.10943 0.74293 8.89532 0.478516 8.89532C0.214102 8.89532 0 9.10943 0 9.37384V12.1544C0 13.1722 0.827969 14.0001 1.8457 14.0001H4.62629C4.8907 14.0001 5.1048 13.786 5.1048 13.5216C5.1048 13.2572 4.8907 13.0431 4.62629 13.0431Z" fill="#6B6B6B"/>
<path id="Vector_7" d="M13.5208 8.89532C13.2564 8.89532 13.0423 9.10943 13.0423 9.37384V12.1544C13.0423 12.6444 12.6436 13.0431 12.1536 13.0431H9.37305C9.10863 13.0431 8.89453 13.2572 8.89453 13.5216C8.89453 13.786 9.10863 14.0001 9.37305 14.0001H12.1536C13.1714 14.0001 13.9993 13.1722 13.9993 12.1544V9.37384C13.9993 9.10943 13.7852 8.89532 13.5208 8.89532Z" fill="#6B6B6B"/>
<path id="Vector_8" d="M12.1536 -0.000183105H9.37305C9.10863 -0.000183105 8.89453 0.213918 8.89453 0.478332C8.89453 0.742747 9.10863 0.956848 9.37305 0.956848H12.1536C12.6436 0.956848 13.0423 1.35552 13.0423 1.84552V4.62611C13.0423 4.89052 13.2564 5.10462 13.5208 5.10462C13.7852 5.10462 13.9993 4.89052 13.9993 4.62611V1.84552C13.9993 0.827786 13.1714 -0.000183105 12.1536 -0.000183105Z" fill="#6B6B6B"/>
</g>
</svg>
