<svg width="18" height="6" viewBox="0 0 18 6" fill="none" xmlns="http://www.w3.org/2000/svg">
<g id="Group 576">
<g id="Group">
<path id="Vector" d="M7.80284 5.82335H6.33398L7.25191 0.181641H8.72076L7.80284 5.82335Z" fill="white"/>
<path id="Vector_2" d="M5.09838 0.181641L3.69786 4.06174L3.5325 3.22649L3.0381 0.689538C3.0381 0.689538 2.9782 0.181641 2.34122 0.181641H0.0269979L0 0.276977C0 0.276977 0.70785 0.423778 1.53635 0.922395L2.81284 5.82335H4.34328L6.67944 0.181641H5.09838Z" fill="white"/>
<path id="Vector_3" d="M16.6519 5.82335H18.0001L16.824 0.181641H15.6428C15.0978 0.181641 14.9645 0.601795 14.9645 0.601795L12.7743 5.82335H14.3056L14.6118 4.98557H16.4789L16.651 5.82335H16.6519ZM15.0354 3.8272L15.8073 1.7163L16.2418 3.8272H15.0362H15.0354Z" fill="white"/>
<path id="Vector_4" d="M12.89 1.53796L13.0992 0.326434C13.0992 0.326434 12.4521 0.0800781 11.778 0.0800781C11.0491 0.0800781 9.31866 0.39899 9.31866 1.94799C9.31866 3.40588 11.3503 3.4236 11.3503 4.18882C11.3503 4.95404 9.5279 4.81736 8.92719 4.33477L8.70868 5.60114C8.70868 5.60114 9.36422 5.92005 10.3665 5.92005C11.3688 5.92005 12.8807 5.40119 12.8807 3.98886C12.8807 2.57654 10.8305 2.38586 10.8305 1.74804C10.8305 1.11022 12.2606 1.19205 12.8891 1.53881L12.89 1.53796Z" fill="white"/>
</g>
<path id="Vector_5" d="M3.66579 3.12988L3.15274 0.630298C3.15274 0.630298 3.09057 0.129883 2.42956 0.129883H0.0280165L0 0.223815C0 0.223815 1.15481 0.450747 2.26234 1.30195C3.32084 2.11575 3.66666 3.12988 3.66666 3.12988H3.66579Z" fill="#E8BC33"/>
</g>
</svg>
