<svg width="18" height="6" viewBox="0 0 18 6" fill="none" xmlns="http://www.w3.org/2000/svg">
<g id="Group 576">
<g id="Group">
<path id="Vector" d="M7.80284 5.82311H6.33398L7.25191 0.181396H8.72076L7.80284 5.82311Z" fill="#6B6B6B"/>
<path id="Vector_2" d="M5.09838 0.181396L3.69786 4.0615L3.5325 3.22625L3.0381 0.689294C3.0381 0.689294 2.9782 0.181396 2.34122 0.181396H0.0269979L0 0.276733C0 0.276733 0.70785 0.423534 1.53635 0.92215L2.81284 5.82311H4.34328L6.67944 0.181396H5.09838Z" fill="#6B6B6B"/>
<path id="Vector_3" d="M16.651 5.82311H17.9992L16.8231 0.181396H15.642C15.0969 0.181396 14.9636 0.601551 14.9636 0.601551L12.7734 5.82311H14.3047L14.611 4.98533H16.4781L16.6502 5.82311H16.651ZM15.0345 3.82695L15.8065 1.71606L16.241 3.82695H15.0354H15.0345Z" fill="#6B6B6B"/>
<path id="Vector_4" d="M12.8903 1.53802L13.0995 0.326495C13.0995 0.326495 12.4524 0.0801392 11.7783 0.0801392C11.0494 0.0801392 9.31897 0.399051 9.31897 1.94805C9.31897 3.40594 11.3506 3.42366 11.3506 4.18888C11.3506 4.9541 9.5282 4.81742 8.9275 4.33483L8.70898 5.6012C8.70898 5.6012 9.36453 5.92012 10.3668 5.92012C11.3691 5.92012 12.881 5.40125 12.881 3.98892C12.881 2.5766 10.8308 2.38593 10.8308 1.7481C10.8308 1.11028 12.2609 1.19211 12.8894 1.53887L12.8903 1.53802Z" fill="#6B6B6B"/>
</g>
<path id="Vector_5" d="M3.66579 3.13L3.15274 0.63042C3.15274 0.63042 3.09057 0.130005 2.42956 0.130005H0.0280165L0 0.223937C0 0.223937 1.15481 0.450869 2.26234 1.30207C3.32084 2.11587 3.66666 3.13 3.66666 3.13H3.66579Z" fill="#E8BC33"/>
</g>
</svg>
