<svg width="36" height="32" viewBox="0 0 36 32" fill="none" xmlns="http://www.w3.org/2000/svg">
<path id="Vector" d="M31.275 22.3398H31.0802L28.95 17.2561C29.3112 17.418 29.7005 17.5042 30.0948 17.5096C30.2513 17.5096 30.4014 17.446 30.512 17.3328C30.6227 17.2196 30.6849 17.066 30.6849 16.9059V12.0758C30.6849 11.9156 30.6227 11.7621 30.512 11.6488C30.4014 11.5356 30.2513 11.472 30.0948 11.472C29.4803 11.4754 28.8821 11.675 28.3839 12.0431C27.8856 12.4111 27.5121 12.9291 27.3154 13.5248C27.1418 13.2767 26.9202 13.0678 26.6644 12.911C26.4086 12.7542 26.1241 12.6528 25.8284 12.6131C25.4536 12.5636 25.073 12.5882 24.7072 12.6856H24.1938C23.1966 12.6856 22.754 12.0818 22.0577 11.0977L21.7095 10.5965C22.0666 10.5779 22.4126 10.4634 22.7127 10.2645C22.9404 10.0954 23.1332 9.88189 23.28 9.63633C23.4269 9.39077 23.5249 9.11795 23.5683 8.83354C23.7601 8.72048 23.9279 8.56929 24.0616 8.38886C24.1954 8.20843 24.2925 8.00243 24.3473 7.78299C24.3722 7.60991 24.3557 7.43322 24.2992 7.26811C24.2426 7.103 24.1478 6.9544 24.0227 6.83508C23.7818 6.41299 23.6498 5.93511 23.6392 5.44642C23.7915 5.43708 23.9344 5.36772 24.0378 5.25289C24.1412 5.13806 24.1972 4.9867 24.1938 4.83058C24.1939 4.19065 24.0697 3.55709 23.8284 2.9667C23.5871 2.37631 23.2336 1.84087 22.7883 1.39147C22.343 0.942072 21.8149 0.587683 21.2347 0.348889C20.6544 0.110095 20.0336 -0.00834235 19.4082 0.000456654C18.1809 0.0251757 17.0107 0.535 16.1427 1.42307C15.2748 2.31113 14.7765 3.50849 14.7523 4.76416C14.7413 5.40433 14.8557 6.04027 15.0888 6.63446C15.3219 7.22865 15.669 7.76904 16.1096 8.22374C16.2401 8.35651 16.378 8.48149 16.5226 8.59807C14.2449 9.16561 13.047 11.3512 12.4333 13.2471C12.2586 13.067 12.0509 12.9242 11.822 12.8267C11.5931 12.7293 11.3476 12.6793 11.0997 12.6795H4.83287C4.51817 12.679 4.20839 12.7594 3.93204 12.9135C3.65568 13.0675 3.42163 13.2902 3.25142 13.561C3.16612 13.6955 3.13655 13.8592 3.16919 14.016C3.20184 14.1728 3.29403 14.31 3.42549 14.3972C3.55696 14.4845 3.71692 14.5148 3.87019 14.4814C4.02346 14.448 4.15748 14.3536 4.24277 14.2191C4.30636 14.1183 4.39378 14.0356 4.49693 13.9786C4.60009 13.9216 4.71564 13.8922 4.83287 13.8931H5.90094V15.7044C5.90094 15.8645 5.96311 16.0181 6.07377 16.1313C6.18444 16.2445 6.33453 16.3081 6.49103 16.3081H9.4415C9.598 16.3081 9.7481 16.2445 9.85876 16.1313C9.96942 16.0181 10.0316 15.8645 10.0316 15.7044V13.8871H11.0997C11.1919 13.8871 11.2832 13.9056 11.3684 13.9417C11.4536 13.9778 11.531 14.0308 11.5962 14.0975C11.6614 14.1642 11.7131 14.2434 11.7484 14.3306C11.7837 14.4178 11.8019 14.5112 11.8019 14.6055V19.2123C11.8003 19.4018 11.7256 19.583 11.5941 19.7164C11.4626 19.8498 11.2849 19.9247 11.0997 19.9247H4.83287C4.66387 19.9295 4.49904 19.8707 4.36961 19.7594C4.24018 19.6481 4.15516 19.4921 4.13066 19.3209H5.31084C5.46735 19.3209 5.61744 19.2573 5.7281 19.1441C5.83877 19.0309 5.90094 18.8773 5.90094 18.7172C5.90094 18.557 5.83877 18.4035 5.7281 18.2902C5.61744 18.177 5.46735 18.1134 5.31084 18.1134H4.13066V16.9059H4.72075C4.87725 16.9059 5.02735 16.8423 5.13801 16.729C5.24867 16.6158 5.31084 16.4622 5.31084 16.3021C5.31084 16.142 5.24867 15.9884 5.13801 15.8752C5.02735 15.762 4.87725 15.6983 4.72075 15.6983H1.77028C1.61378 15.6983 1.46369 15.762 1.35302 15.8752C1.24236 15.9884 1.18019 16.142 1.18019 16.3021C1.18019 16.4622 1.24236 16.6158 1.35302 16.729C1.46369 16.8423 1.61378 16.9059 1.77028 16.9059H2.95047V18.1134H0.590094C0.433591 18.1134 0.283498 18.177 0.172834 18.2902C0.0621704 18.4035 0 18.557 0 18.7172C0 18.8773 0.0621704 19.0309 0.172834 19.1441C0.283498 19.2573 0.433591 19.3209 0.590094 19.3209H2.95047C2.97757 19.81 3.18637 20.27 3.53412 20.6068C3.88188 20.9435 4.34228 21.1315 4.82107 21.1322H7.77153C7.49847 21.4062 7.26589 21.7194 7.08112 22.062C6.29311 23.6432 5.88833 25.3951 5.90094 27.1699C5.90094 27.33 5.96311 27.4836 6.07377 27.5968C6.18444 27.71 6.33453 27.7736 6.49103 27.7736H8.30262C8.45364 28.934 9.01136 29.9987 9.87209 30.7699C10.7328 31.5411 11.838 31.9662 12.9821 31.9662C14.1261 31.9662 15.2313 31.5411 16.092 30.7699C16.9528 29.9987 17.5105 28.934 17.6615 27.7736H26.5955C26.7091 28.6961 27.0805 29.5654 27.665 30.2772C28.2496 30.989 29.0225 31.513 29.891 31.7864C30.7595 32.0598 31.6867 32.071 32.5612 31.8185C33.4358 31.566 34.2205 31.0606 34.8212 30.3631C35.422 29.6655 35.8131 28.8053 35.9478 27.8859C36.0825 26.9664 35.955 26.0267 35.5806 25.1796C35.2062 24.3325 34.6007 23.6139 33.837 23.1102C33.0733 22.6064 32.1836 22.3389 31.275 22.3398ZM8.85141 15.0946H7.08112V13.8871H8.85141V15.0946ZM29.5047 12.7822V16.1995C29.1589 16.075 28.8594 15.8438 28.6475 15.5377C28.4357 15.2317 28.3219 14.8659 28.3219 14.4908C28.3219 14.1158 28.4357 13.75 28.6475 13.4439C28.8594 13.1378 29.1589 12.9066 29.5047 12.7822ZM25.6573 13.8025C25.8886 13.838 26.1035 13.9458 26.2726 14.1112C26.4416 14.2766 26.5565 14.4914 26.6014 14.7263L26.7549 15.0946C25.9333 15.5267 25.0166 15.7347 24.0935 15.6983C24.0122 15.3397 24.0548 14.9633 24.214 14.6331C24.3732 14.3029 24.6392 14.0393 24.9669 13.8871C25.1894 13.8132 25.4243 13.7865 25.6573 13.8086V13.8025ZM22.7481 7.90978C22.6499 7.96041 22.5675 8.03812 22.5101 8.13413C22.4528 8.23014 22.4228 8.34065 22.4236 8.45317C22.4192 8.60516 22.3839 8.75455 22.3199 8.89178C22.2559 9.02902 22.1646 9.15107 22.0518 9.25014C21.7154 9.47957 21.0899 9.42523 20.2815 9.09919C20.2384 9.09431 20.1948 9.09431 20.1517 9.09919L20.0632 9.02071V6.70828C20.0632 6.37041 20.1944 6.04638 20.4279 5.80747C20.6614 5.56856 20.9781 5.43434 21.3083 5.43434H22.4236C22.4421 6.21589 22.682 6.97514 23.114 7.61997C23.0072 7.73681 22.8839 7.83654 22.7481 7.91582V7.90978ZM15.9325 4.77624C15.962 3.83946 16.3389 2.9493 16.9867 2.28656C17.6344 1.62381 18.5044 1.23818 19.42 1.20799H19.4731C20.3102 1.20743 21.1204 1.51036 21.7599 2.06301C22.3995 2.61567 22.8269 3.38229 22.9664 4.22681H21.3083C20.6655 4.22841 20.0496 4.49036 19.5951 4.95538C19.1406 5.4204 18.8846 6.05065 18.883 6.70828V8.40486C18.0495 8.26081 17.2939 7.81641 16.7528 7.15201C16.2117 6.48761 15.9207 5.64705 15.9325 4.78228V4.77624ZM17.7028 9.6607C19.6324 9.6607 20.3405 10.6931 21.09 11.7799C21.6328 12.5769 22.2701 13.4463 23.3323 13.7542C22.9982 14.3066 22.8471 14.9545 22.9015 15.6017C22.1691 15.438 21.4783 15.1192 20.8736 14.6659C20.2689 14.2125 19.7637 13.6346 19.3905 12.9693C19.3583 12.8895 19.3098 12.8177 19.2483 12.7587C19.1867 12.6997 19.1135 12.6549 19.0335 12.6273C18.9536 12.5997 18.8688 12.59 18.7849 12.5988C18.701 12.6076 18.6199 12.6347 18.547 12.6782C18.4742 12.7218 18.4114 12.7808 18.3627 12.8514C18.3141 12.9219 18.2808 13.0023 18.2651 13.0871C18.2494 13.1719 18.2517 13.2592 18.2718 13.343C18.2918 13.4268 18.3292 13.5053 18.3814 13.5731C18.5953 13.9404 18.8402 14.2879 19.1131 14.6116L19.06 14.6478C18.51 15.2952 18.123 16.0704 17.9329 16.9059H12.9821V16.3021C13.0234 15.9338 13.6961 9.6607 17.7028 9.6607ZM12.9821 19.2062V18.1134H18.2929C18.4109 18.1134 21.2434 18.1496 21.2434 21.1322V24.1511H18.883V22.9435C18.8979 22.543 18.8318 22.1436 18.6888 21.7705C18.5458 21.3973 18.329 21.0584 18.052 20.775C17.775 20.4915 17.4437 20.2697 17.079 20.1234C16.7143 19.9771 16.324 19.9094 15.9325 19.9247H12.8463C12.9365 19.6964 12.9826 19.4524 12.9821 19.2062ZM12.9821 30.7925C12.146 30.7916 11.3372 30.488 10.6989 29.9355C10.0606 29.383 9.63396 28.6171 9.49461 27.7736H10.7043C10.8402 28.2853 11.1368 28.7369 11.5485 29.0589C11.9601 29.3809 12.4639 29.5554 12.9821 29.5554C13.5002 29.5554 14.004 29.3809 14.4156 29.0589C14.8273 28.7369 15.1239 28.2853 15.2598 27.7736H16.4695C16.3302 28.6171 15.9036 29.383 15.2653 29.9355C14.627 30.488 13.8182 30.7916 12.9821 30.7925ZM11.9671 27.7736H13.997C13.8925 27.9538 13.744 28.1031 13.566 28.2068C13.3881 28.3105 13.1868 28.365 12.9821 28.365C12.7773 28.365 12.576 28.3105 12.3981 28.2068C12.2201 28.1031 12.0716 27.9538 11.9671 27.7736ZM7.08112 26.5661C7.15641 25.1764 7.52267 23.8195 8.1551 22.5873C8.38998 22.1405 8.74049 21.7683 9.16826 21.5117C9.59603 21.255 10.0846 21.1238 10.5804 21.1322H15.9325C16.1684 21.1192 16.4042 21.1571 16.6248 21.2435C16.8454 21.3299 17.0457 21.4628 17.2127 21.6337C17.3797 21.8046 17.5097 22.0095 17.5941 22.2352C17.6785 22.4609 17.7156 22.7022 17.7028 22.9435V24.7548C17.7028 25.408 17.9099 26.0436 18.2929 26.5661H7.08112ZM20.6533 26.5661C20.288 26.5651 19.9321 26.4485 19.6341 26.2323C19.3362 26.0161 19.111 25.7109 18.9892 25.3586H21.8335C21.9875 25.3484 22.1419 25.3713 22.2869 25.4257C22.4318 25.4801 22.564 25.5649 22.6751 25.6745C22.7862 25.7842 22.8737 25.9164 22.932 26.0626C22.9903 26.2089 23.0181 26.366 23.0137 26.5239C22.818 26.5505 22.6209 26.5647 22.4236 26.5661H20.6533ZM24.4358 25.8597C24.3505 25.9584 24.2534 26.0456 24.1466 26.1193C24.0818 25.6629 23.882 25.2376 23.5739 24.9009C23.2659 24.5641 22.8644 24.3319 22.4236 24.2356V21.1322C22.4768 20.1471 22.1687 19.1771 21.5597 18.4121C20.9507 17.6472 20.0845 17.1423 19.1308 16.9964C19.2821 16.4549 19.5413 15.9513 19.8921 15.5172C19.9073 15.4961 19.9211 15.4739 19.9334 15.4508C20.8493 16.211 21.9514 16.6996 23.1199 16.8636L24.7839 24.2658C24.8774 24.8233 24.7523 25.396 24.4358 25.8597ZM25.9641 24.0182L24.3414 16.9059C25.3399 16.9153 26.3265 16.6836 27.221 16.2297L30.0063 22.8711L27.4335 26.5661H25.374C25.633 26.2029 25.8186 25.7905 25.9199 25.353C26.0212 24.9155 26.0363 24.4617 25.9641 24.0182ZM31.275 26.5661H30.26C30.3899 26.3359 30.5904 26.156 30.8304 26.0543C31.0705 25.9525 31.3366 25.9347 31.5875 26.0035C31.8385 26.0723 32.0602 26.2239 32.2184 26.4348C32.3765 26.6457 32.4623 26.9041 32.4623 27.1699C32.4623 27.4357 32.3765 27.6941 32.2184 27.905C32.0602 28.1159 31.8385 28.2675 31.5875 28.3363C31.3366 28.4051 31.0705 28.3872 30.8304 28.2855C30.5904 28.1838 30.3899 28.0038 30.26 27.7736H31.275C31.4315 27.7736 31.5816 27.71 31.6922 27.5968C31.8029 27.4836 31.8651 27.33 31.8651 27.1699C31.8651 27.0098 31.8029 26.8562 31.6922 26.743C31.5816 26.6297 31.4315 26.5661 31.275 26.5661ZM28.8792 26.5661L29.0857 26.2703C29.0501 26.3668 29.0205 26.4657 28.9972 26.5661H28.8792ZM31.275 30.7925C30.4389 30.7916 29.6301 30.488 28.9918 29.9355C28.3535 29.383 27.9269 28.6171 27.7875 27.7736H28.9972C29.1264 28.2829 29.4147 28.7351 29.8181 29.0614C30.2216 29.3877 30.7181 29.5702 31.2323 29.5813C31.7464 29.5923 32.25 29.4313 32.6665 29.1226C33.0829 28.8139 33.3895 28.3746 33.5395 27.8713C33.6896 27.368 33.6748 26.8284 33.4976 26.3344C33.3204 25.8405 32.9903 25.4193 32.5577 25.1349C32.125 24.8505 31.6134 24.7184 31.1007 24.7588C30.588 24.7992 30.1021 25.0098 29.7171 25.3586L30.974 23.5473C31.0743 23.5473 31.1747 23.5473 31.275 23.5473C32.214 23.5473 33.1145 23.929 33.7785 24.6083C34.4425 25.2877 34.8155 26.2091 34.8155 27.1699C34.8155 28.1306 34.4425 29.0521 33.7785 29.7314C33.1145 30.4108 32.214 30.7925 31.275 30.7925Z" fill="#222222"/>
</svg>
