<svg width="58" height="43" viewBox="0 0 58 43" fill="none" xmlns="http://www.w3.org/2000/svg">
<path d="M6.68781 14.6424C6.55964 15.071 6.44387 15.4877 6.3405 15.8847C6.21233 16.3843 6.09242 16.8386 5.98699 17.2454C5.88155 17.6444 5.80713 17.9663 5.76578 18.1993C5.68102 18.616 5.39573 18.8787 4.94092 18.9636C4.54813 19.0367 4.12846 19.0071 3.69432 18.8728C3.26638 18.7385 2.87772 18.5074 2.53661 18.1855C2.17897 17.8458 1.99911 17.4192 1.99911 16.9156C1.99911 16.5068 2.10661 15.859 2.32781 14.9387C2.54282 14.04 2.85292 12.9755 3.24984 11.7708C3.6447 10.576 4.12226 9.26062 4.6701 7.86037C5.14145 6.65762 5.67069 5.44498 6.24334 4.2521C6.43146 3.86106 6.82012 3.59247 7.26667 3.54112C8.27966 3.42854 9.16034 3.45619 9.90458 3.62406C10.3532 3.72479 10.5951 4.19088 10.4069 4.59377C9.92732 5.61878 9.48284 6.64182 9.08799 7.63917C8.76755 8.44496 8.45952 9.24285 8.17009 10.019C8.14115 10.096 8.22384 10.1671 8.30033 10.1336C8.68692 9.96371 9.06731 9.76424 9.4415 9.53514C10.0534 9.1599 10.6095 8.71158 11.0954 8.20401C11.5812 7.69645 11.9781 7.12371 12.2779 6.50159C12.5735 5.8854 12.7244 5.21589 12.7244 4.51083C12.7244 3.60432 12.4619 2.93283 11.943 2.52006C11.4179 2.10137 10.6798 1.89004 9.7454 1.89004C8.75101 1.89004 7.84345 2.11519 7.0434 2.55956C6.22473 3.0138 5.51564 3.57469 4.93885 4.22643C4.35587 4.88014 3.89898 5.57928 3.57648 6.3041C3.25811 7.02298 3.09479 7.653 3.09479 8.17636C3.09479 8.55161 2.88806 8.82415 2.50974 8.94068C2.17897 9.04338 1.81512 9.02955 1.44093 8.89525C1.08121 8.76688 0.748374 8.51408 0.450678 8.14476C0.150915 7.77347 0 7.26985 0 6.64971C0 6.10857 0.215002 5.47066 0.655344 4.69845C1.08535 3.94796 1.72209 3.21525 2.54695 2.52401C3.36975 1.83277 4.40755 1.23435 5.63554 0.744563C6.86974 0.250821 8.2962 0 9.87357 0C10.7729 0 11.6742 0.100723 12.5528 0.29822C13.4376 0.499667 14.2418 0.803812 14.9385 1.20473C15.6435 1.6096 16.2244 2.11914 16.6606 2.71953C17.1051 3.32979 17.3304 4.04473 17.3304 4.84459C17.3304 5.70766 17.132 6.51542 16.7412 7.24616C16.3546 7.97097 15.8213 8.63456 15.1577 9.2152C14.5003 9.79189 13.7209 10.2995 12.8423 10.726C12.1166 11.0776 11.3455 11.3778 10.5455 11.6187C10.4938 11.6345 10.4772 11.6582 10.4793 11.7096C10.4958 12.0908 10.5248 12.466 10.5641 12.8294C10.6095 13.2461 10.6695 13.653 10.7418 14.0381C10.8142 14.4173 10.901 14.7846 10.9982 15.1342C11.0747 15.4047 11.1594 15.6674 11.2504 15.9163C11.3083 16.0762 11.3703 16.2303 11.4323 16.3764C11.5584 16.6707 11.6949 16.9531 11.8417 17.2138C11.9864 17.4706 12.1414 17.7135 12.3068 17.9367C12.466 18.1539 12.6376 18.3593 12.8174 18.5469C12.9911 18.7286 13.1751 18.8965 13.3653 19.0446C13.5493 19.1908 13.7436 19.3211 13.9441 19.4357C14.1385 19.5463 14.3411 19.643 14.5478 19.722C14.7525 19.799 14.9633 19.8622 15.1763 19.9077C15.3892 19.9531 15.6083 19.9827 15.8295 19.9965C16.0508 20.0104 16.2823 20.0064 16.5118 19.9867C16.7454 19.9669 16.9831 19.9294 17.2229 19.8761C17.4648 19.8208 17.7129 19.7497 17.961 19.6608C18.2132 19.57 18.4695 19.4594 18.7197 19.333C18.8168 19.2856 18.914 19.2342 19.0091 19.1809C19.3233 19.0071 19.7244 19.09 19.9353 19.3725C20.1461 19.6549 20.0986 20.0439 19.8257 20.2711C19.6913 20.3836 19.5569 20.4923 19.4246 20.5969C19.1021 20.8497 18.7776 21.0848 18.4613 21.2941C18.1594 21.4936 17.8535 21.6792 17.5537 21.8431C17.4028 21.9261 17.2436 22.0071 17.0823 22.0861C16.7723 22.2362 16.458 22.3685 16.15 22.4791C15.842 22.5897 15.5319 22.6805 15.23 22.7516C14.9282 22.8207 14.6243 22.8721 14.3287 22.9017C14.1178 22.9215 13.9049 22.9333 13.6981 22.9333C13.6154 22.9333 13.5307 22.9333 13.448 22.9274C13.1606 22.9155 12.8753 22.8839 12.6004 22.8306C12.4639 22.805 12.3254 22.7733 12.191 22.7378C12.0608 22.7042 11.9264 22.6628 11.7941 22.6154C11.5357 22.5265 11.2814 22.4159 11.0375 22.2875C10.7977 22.1611 10.562 22.0169 10.3387 21.855C10.1589 21.7246 9.98107 21.5824 9.81155 21.4304C9.60895 21.2487 9.41256 21.0453 9.22443 20.83C9.04044 20.6167 8.86471 20.3876 8.69933 20.1466C8.53601 19.9057 8.37889 19.649 8.23624 19.3843C8.0936 19.1197 7.95715 18.8372 7.83518 18.5469C7.71321 18.2605 7.59951 17.9544 7.49614 17.6384C7.39484 17.3284 7.30181 17.0005 7.21912 16.6628C7.13849 16.3251 7.06614 15.9755 7.00825 15.622C6.95657 15.3099 6.91109 14.9861 6.87594 14.6582C6.8656 14.5575 6.71676 14.5456 6.68781 14.6424Z" fill="#C1C1C1"/>
<path d="M57.331 1.43333C57.331 2.22509 56.0478 2.86667 54.4643 2.86667C52.8808 2.86667 51.5977 2.22509 51.5977 1.43333C51.5977 0.641576 52.8808 0 54.4643 0C56.0478 0 57.331 0.641576 57.331 1.43333Z" fill="#C1C1C1"/>
<path d="M57.2331 12.201C57.1088 12.0272 56.8682 11.9137 56.6217 11.9137C56.3751 11.9137 56.1759 12.013 56.0438 12.1851C55.8919 12.382 55.7045 12.6179 55.4876 12.8822C55.2489 13.1731 54.9906 13.4516 54.7223 13.7106C54.4541 13.9679 54.1938 14.1931 53.9472 14.3759C53.6908 14.5657 53.5271 14.6065 53.4324 14.6065C53.3674 14.6065 53.2451 14.6065 53.2175 14.3173C53.1879 14.014 53.2392 13.6184 53.3654 13.1448C53.4956 12.6569 53.6849 12.1159 53.9255 11.5358C54.1721 10.9451 54.4186 10.381 54.6592 9.85945C54.9097 9.31662 55.1247 8.86605 55.318 8.4811C55.5093 8.09794 55.6296 7.84781 55.675 7.7396C55.8288 7.42384 55.7716 7.11163 55.5132 6.83845C55.2746 6.58832 54.957 6.41271 54.5685 6.31691C54.1878 6.2229 53.7737 6.21757 53.3417 6.30095C52.8782 6.38964 52.5114 6.6309 52.251 7.01584C52.0203 7.35466 51.7224 7.88506 51.3615 8.59641C51.0006 9.30775 50.6515 10.0989 50.3241 10.9451C50.1249 11.4578 49.9415 11.9811 49.7778 12.5061C49.5016 13.3807 48.9356 14.1577 48.1526 14.7324C47.8725 14.9382 47.5786 15.1316 47.271 15.3125C47.1349 15.3923 46.9988 15.4668 46.8627 15.5342C46.8193 15.5555 46.7739 15.5094 46.8035 15.4739C47.0402 15.1936 47.2729 14.8921 47.4997 14.5674C47.9672 13.9022 48.3932 13.104 48.766 12.1993C49.1604 11.2396 49.407 10.365 49.4997 9.5969C49.5943 8.81992 49.5608 8.14228 49.401 7.5835C49.2373 7.0052 48.9494 6.55107 48.5451 6.23176C48.1269 5.90181 47.6102 5.73507 47.0106 5.73507C46.3025 5.73507 45.6517 5.90359 45.0758 6.23531C44.6833 6.46238 44.3184 6.71605 43.989 6.99278C43.9614 7.01584 43.9397 7.01229 43.92 6.98391C43.847 6.87925 43.7484 6.77991 43.6242 6.68766C43.3441 6.48011 43.0088 6.34175 42.6262 6.27434C42.2416 6.2087 41.8491 6.23176 41.4684 6.3453C41.0602 6.46592 40.7564 6.71427 40.5631 7.0868C40.1943 7.80169 39.8038 8.63721 39.4054 9.56675C39.007 10.4963 38.6184 11.4684 38.2496 12.4547C38.2082 12.5647 38.1688 12.6729 38.1273 12.7829C37.8157 13.6237 37.2319 14.3634 36.4489 14.9027C36.2438 15.0446 36.0288 15.1812 35.8099 15.3107C35.6738 15.3905 35.5377 15.4651 35.4016 15.5325C35.3582 15.5538 35.3128 15.5076 35.3424 15.4721C35.5791 15.1919 35.8118 14.8903 36.0387 14.5674C36.5061 13.9022 36.9321 13.1057 37.3049 12.1975C37.6993 11.2378 37.9459 10.3632 38.0386 9.59513C38.1332 8.81815 38.0997 8.14051 37.94 7.58172C37.7763 7.00342 37.4883 6.5493 37.084 6.22999C36.6658 5.90004 36.1491 5.73329 35.5495 5.73329C34.8415 5.73329 34.1906 5.90181 33.6147 6.23354C33.2222 6.4606 32.8573 6.71427 32.528 6.99101C32.5003 7.01407 32.4786 7.01052 32.4589 6.98214C32.3859 6.87747 32.2873 6.77813 32.1631 6.68589C31.885 6.47834 31.5477 6.33997 31.1631 6.27257C30.7785 6.20693 30.386 6.22999 30.0054 6.34352C29.5971 6.46415 29.2934 6.7125 29.1001 7.08502C28.7313 7.80169 28.3407 8.63544 27.9423 9.56497C27.5676 10.4377 27.2027 11.3442 26.8576 12.2631C26.5972 12.9549 26.2067 13.512 25.6249 14.0211C25.475 14.1523 25.3271 14.2712 25.187 14.3776C24.9306 14.5674 24.7669 14.6082 24.6722 14.6082C24.6072 14.6082 24.4849 14.6082 24.4573 14.3191C24.4277 14.0158 24.479 13.6219 24.6052 13.1465C24.7354 12.6587 24.9247 12.1177 25.1653 11.5376C25.4099 10.9522 25.6564 10.3898 25.901 9.86122C26.1475 9.32904 26.3684 8.86605 26.5597 8.48288C26.755 8.09261 26.8714 7.84959 26.9167 7.74138C27.0706 7.42562 27.0153 7.11341 26.755 6.84022C26.5164 6.58832 26.1929 6.41271 25.7925 6.31691C25.402 6.2229 24.9878 6.21757 24.5657 6.30095C24.1141 6.38964 23.7532 6.6309 23.4928 7.01584C23.4415 7.09212 23.3863 7.17549 23.3291 7.26951C23.3094 7.30322 23.2542 7.29612 23.2443 7.25887C23.195 7.04955 23.1141 6.85087 23.0056 6.66638C22.8419 6.39142 22.5994 6.16613 22.2838 5.99583C21.9643 5.82376 21.558 5.73507 21.0787 5.73507C19.9466 5.73507 18.7987 6.20516 17.6666 7.13115C16.5542 8.04117 15.6332 9.49402 14.9271 11.4489C14.5957 12.3908 14.4005 13.2636 14.3492 14.0388C14.2959 14.8247 14.3669 15.5023 14.5583 16.0522C14.7555 16.6199 15.0691 17.0687 15.4931 17.3844C15.931 17.7108 16.4556 17.8776 17.0532 17.8776C17.497 17.8776 17.9191 17.8084 18.3096 17.6736C18.6883 17.5423 19.0393 17.3738 19.3529 17.1716C19.5936 17.0172 19.8184 16.8416 20.0235 16.6483C20.1695 16.5099 20.4259 16.5667 20.485 16.7476C20.5521 16.9516 20.6448 17.1325 20.7651 17.2904C21.061 17.6807 21.5284 17.8776 22.1556 17.8776C22.8498 17.8776 23.552 17.6434 24.2423 17.1804C24.5638 16.9658 24.8774 16.7299 25.1831 16.478C25.2521 16.4212 25.3586 16.4815 25.333 16.5613C25.1555 17.0935 24.9957 17.5849 24.8517 18.0479C24.6091 18.8249 24.4119 19.4936 24.266 20.0365C24.0707 20.7655 24.0451 20.9625 24.0451 21.0547C24.0451 21.5017 24.1989 21.8813 24.5046 22.1865C24.7985 22.4792 25.1397 22.6885 25.5184 22.8109C25.7669 22.8907 26.0114 22.9315 26.2422 22.9315C26.3704 22.9315 26.4947 22.9191 26.6169 22.8943C26.8891 22.8393 27.2323 22.6761 27.3329 22.2148V22.206C27.3743 21.9629 27.4512 21.633 27.5617 21.2268C27.6761 20.8046 27.8161 20.3238 27.9759 19.7988C28.1336 19.2754 28.3151 18.6936 28.5281 18.0177C28.6267 17.7055 28.7332 17.3791 28.8457 17.0385C28.8693 16.9693 28.9719 16.9587 29.0133 17.0208C29.0626 17.0988 29.1198 17.1751 29.1809 17.2478C29.5261 17.6647 30.0783 17.8758 30.8199 17.8776C30.9698 17.8829 31.1177 17.8865 31.2657 17.8865C32.3564 17.8865 33.382 17.7179 34.3129 17.3862C35.2024 17.0687 36.017 16.682 36.7408 16.2332C36.8118 16.1888 36.9045 16.2509 36.8808 16.3254C36.6718 16.9427 36.4844 17.5193 36.3187 18.0497C36.0742 18.832 35.8769 19.5007 35.733 20.0382C35.5377 20.7673 35.5121 20.966 35.5121 21.0565C35.5121 21.5035 35.6659 21.8831 35.9716 22.1882C36.2655 22.4809 36.6067 22.692 36.9854 22.8127C37.2339 22.8925 37.4784 22.9333 37.7072 22.9333C37.8354 22.9333 37.9597 22.9209 38.082 22.896C38.3541 22.841 38.6973 22.6778 38.7979 22.2166V22.2077C38.8393 21.9629 38.9163 21.6348 39.0267 21.2285C39.1411 20.8063 39.2792 20.3256 39.4409 19.8005C39.6006 19.2754 39.7801 18.6936 39.9931 18.0195C40.0917 17.7073 40.1983 17.3791 40.3087 17.0403C40.3324 16.9711 40.4349 16.9605 40.4764 17.0226C40.5257 17.1006 40.5829 17.1769 40.644 17.2496C40.9891 17.6665 41.5414 17.8776 42.283 17.8794C42.4329 17.8847 42.5808 17.8882 42.7287 17.8882C43.8194 17.8882 44.845 17.7197 45.7759 17.388C46.8173 17.0172 47.7581 16.5489 48.5727 15.9972C48.7107 15.9032 48.8468 15.8092 48.977 15.7134C49.0381 15.6691 49.1269 15.7099 49.1249 15.779C49.1249 15.811 49.1249 15.8411 49.1249 15.8731C49.1249 16.4585 49.261 16.9374 49.5312 17.294C49.8271 17.6842 50.2945 17.8811 50.9217 17.8811C51.6159 17.8811 52.322 17.647 53.0222 17.1858C53.6869 16.7476 54.316 16.2296 54.89 15.6442C55.456 15.0677 55.9531 14.4947 56.3692 13.9395C56.7893 13.3771 57.0714 12.9922 57.2331 12.7634C57.3613 12.5806 57.3652 12.3784 57.2429 12.2063M21.8104 9.20309C21.7611 9.61287 21.6645 10.083 21.5244 10.5992C21.3844 11.1136 21.1892 11.6547 20.9485 12.2081C20.7079 12.7598 20.4535 13.2778 20.1892 13.7497C19.9308 14.2091 19.6685 14.6029 19.4101 14.9169C19.1596 15.222 18.923 15.4509 18.708 15.5946C18.5482 15.701 18.4614 15.7134 18.4319 15.7134C18.4181 15.7134 18.4062 15.7116 18.3924 15.7063C18.3628 15.6939 18.2642 15.6354 18.2129 15.3533C18.1636 15.0961 18.1597 14.7644 18.1991 14.367C18.2386 13.9625 18.3293 13.4995 18.4713 12.9869C18.6113 12.476 18.8046 11.9349 19.0472 11.3779C19.2898 10.8191 19.5462 10.3012 19.8066 9.83638C20.0649 9.37694 20.3273 8.97958 20.5856 8.65495C20.8361 8.34274 21.0708 8.11213 21.2858 7.96667C21.4456 7.86023 21.5323 7.84959 21.5639 7.84959C21.5777 7.84959 21.5895 7.85136 21.6014 7.85668C21.6309 7.8691 21.7355 7.93119 21.7986 8.21679C21.8558 8.46869 21.8597 8.80218 21.8104 9.20487M34.2123 9.22793C34.1314 9.63238 34.0052 10.0989 33.8336 10.6151C33.662 11.1314 33.4411 11.6742 33.1828 12.2223C32.9007 12.7793 32.6088 13.2973 32.3169 13.7656C32.027 14.2286 31.7371 14.6278 31.459 14.9488C31.1888 15.2628 30.9363 15.4952 30.7115 15.6407C30.5418 15.7489 30.4491 15.7613 30.4176 15.7613C30.4018 15.7613 30.39 15.7595 30.3781 15.7542C30.3505 15.7436 30.2559 15.685 30.2144 15.4083C30.177 15.1564 30.1967 14.8229 30.2756 14.4202C30.3545 14.0069 30.4827 13.535 30.6543 13.0224C30.8239 12.5097 31.0428 11.9686 31.3071 11.4099C31.5674 10.8546 31.8534 10.3384 32.1552 9.87541C32.4569 9.41064 32.7508 9.01506 33.0269 8.70462C33.2971 8.3995 33.5496 8.16889 33.7764 8.02343C33.946 7.91522 34.0407 7.9028 34.0723 7.9028C34.088 7.9028 34.0999 7.90458 34.1117 7.9099C34.1393 7.92054 34.234 7.97908 34.2754 8.25582C34.3129 8.50771 34.2932 8.83766 34.2162 9.23148M45.6734 9.22793C45.5925 9.63238 45.4663 10.0989 45.2947 10.6151C45.1231 11.1296 44.9042 11.6724 44.6438 12.2223C44.3618 12.7776 44.0699 13.2973 43.776 13.7656C43.4861 14.2286 43.1981 14.6278 42.92 14.9488C42.6479 15.2628 42.3974 15.4952 42.1725 15.6389C42.0029 15.7471 41.9102 15.7595 41.8767 15.7595C41.8609 15.7595 41.8491 15.7578 41.8372 15.7524C41.8096 15.7418 41.715 15.6832 41.6735 15.4065C41.6361 15.1528 41.6558 14.8211 41.7347 14.4184C41.8155 14.0033 41.9418 13.5332 42.1134 13.0206C42.283 12.5097 42.5019 11.9669 42.7662 11.4081C43.0265 10.8546 43.3125 10.3384 43.6143 9.87364C43.9161 9.40887 44.2099 9.01506 44.4861 8.70107C44.7563 8.39596 45.0067 8.16712 45.2355 8.02166C45.4051 7.91345 45.4978 7.90103 45.5314 7.90103C45.5472 7.90103 45.559 7.9028 45.5708 7.90813C45.5984 7.91877 45.6931 7.97731 45.7345 8.25404C45.772 8.50771 45.7523 8.83589 45.6754 9.2297" fill="#C1C1C1"/>
<path d="M56.5911 31.2578C53.5739 33.778 50.8986 33.9375 47.6871 31.6787C46.2105 30.6421 44.8855 29.407 43.4051 28.3741C42.2588 27.5766 41.0464 26.7829 39.7389 26.2915C37.4755 25.4366 35.1791 25.7277 33.1119 26.9257C31.7072 27.7398 30.4288 28.7542 29.1271 29.7223C28.9445 29.8558 28.8065 29.93 28.6686 29.9244C28.5307 29.93 28.3927 29.8558 28.2101 29.7223C26.9084 28.7561 25.628 27.7398 24.2253 26.9257C22.1601 25.7277 19.8617 25.4366 17.5983 26.2915C16.2907 26.7848 15.0784 27.5766 13.9321 28.3741C12.4517 29.4051 11.1267 30.6402 9.6501 31.6787C6.43664 33.9375 3.76134 33.778 0.746052 31.2578C0.497368 31.0501 0.248684 30.8424 0 30.6365C0.448797 33.0084 1.41828 35.1354 2.84627 37.0659C4.6706 39.5305 7.06223 41.2941 10.0659 42.264C17.0854 44.5283 25.9506 41.372 28.6666 35.4136C31.3827 41.372 40.2499 44.5302 47.2674 42.264C50.2711 41.2941 52.6627 39.5305 54.487 37.0659C55.917 35.1354 56.8845 33.0084 57.3333 30.6365C57.0846 30.8424 56.8359 31.0501 56.5873 31.2578" fill="#C1C1C1"/>
</svg>
