<svg width="202" height="326" viewBox="0 0 202 326" fill="none" xmlns="http://www.w3.org/2000/svg">
<path fill-rule="evenodd" clip-rule="evenodd" d="M0 10C0 4.47716 4.47715 0 10 0H192C197.523 0 202 4.47715 202 10V326H194.984C194.994 325.835 195 325.668 195 325.5C195 321.358 191.642 318 187.5 318C183.358 318 180 321.358 180 325.5C180 325.668 180.006 325.835 180.016 326H169.984C169.994 325.835 170 325.668 170 325.5C170 321.358 166.642 318 162.5 318C158.358 318 155 321.358 155 325.5C155 325.668 155.006 325.835 155.016 326H144.984C144.994 325.835 145 325.668 145 325.5C145 321.358 141.642 318 137.5 318C133.358 318 130 321.358 130 325.5C130 325.668 130.006 325.835 130.016 326H119.984C119.994 325.835 120 325.668 120 325.5C120 321.358 116.642 318 112.5 318C108.358 318 105 321.358 105 325.5C105 325.668 105.006 325.835 105.016 326H94.9836C94.9945 325.835 95 325.668 95 325.5C95 321.358 91.6421 318 87.5 318C83.3579 318 80 321.358 80 325.5C80 325.668 80.0055 325.835 80.0164 326H69.9836C69.9945 325.835 70 325.668 70 325.5C70 321.358 66.6421 318 62.5 318C58.3579 318 55 321.358 55 325.5C55 325.668 55.0055 325.835 55.0164 326H44.9836C44.9945 325.835 45 325.668 45 325.5C45 321.358 41.6421 318 37.5 318C33.3579 318 30 321.358 30 325.5C30 325.668 30.0055 325.835 30.0164 326H19.9836C19.9945 325.835 20 325.668 20 325.5C20 321.358 16.6421 318 12.5 318C8.35786 318 5 321.358 5 325.5C5 325.668 5.00552 325.835 5.0164 326H0V10Z" fill="#EEEEEE"/>
</svg>
