<svg width="17" height="20" viewBox="0 0 17 20" fill="none" xmlns="http://www.w3.org/2000/svg">
<g id="Group">
<path id="Vector" fill-rule="evenodd" clip-rule="evenodd" d="M5.34375 4.02805C5.34367 3.46315 5.52033 2.91091 5.85141 2.44116C6.18248 1.97142 6.6531 1.60525 7.20374 1.38898C7.75439 1.17271 8.36034 1.11604 8.94497 1.22613C9.5296 1.33622 10.0667 1.60814 10.4882 2.0075C10.9098 2.40685 11.197 2.91571 11.3134 3.46973C11.4298 4.02375 11.3703 4.59805 11.1423 5.12C10.9144 5.64196 10.5282 6.08814 10.0327 6.40212C9.53723 6.7161 8.95461 6.88378 8.35855 6.88396C7.55947 6.88316 6.79333 6.58206 6.22817 6.04668C5.66301 5.5113 5.34495 4.78536 5.34375 4.02805Z" fill="#00733C"/>
<path id="Vector_2" fill-rule="evenodd" clip-rule="evenodd" d="M8.35764 1.25009C8.93727 1.25036 9.50379 1.4135 9.98559 1.71889C10.4674 2.02428 10.8428 2.4582 11.0644 2.96579C11.286 3.47338 11.3439 4.03185 11.2306 4.57058C11.1173 5.10932 10.8381 5.60413 10.4281 5.99246C10.0182 6.38079 9.4959 6.6452 8.92739 6.75225C8.35888 6.85931 7.76964 6.8042 7.23417 6.5939C6.6987 6.38361 6.24105 6.02756 5.91908 5.57079C5.5971 5.11401 5.42527 4.57701 5.42529 4.02768C5.4261 3.291 5.73535 2.58472 6.28514 2.06395C6.83494 1.54317 7.58033 1.25046 8.35764 1.25009ZM8.35764 8.05552C9.19815 8.05536 10.0197 7.819 10.7185 7.37632C11.4173 6.93365 11.9619 6.30455 12.2834 5.56857C12.6049 4.83258 12.689 4.02276 12.5249 3.24151C12.3608 2.46026 11.956 1.74266 11.3616 1.17944C10.7673 0.616229 10.01 0.232698 9.18563 0.0773436C8.36125 -0.0780107 7.50679 0.00178908 6.73027 0.306653C5.95375 0.611516 5.29005 1.12775 4.82309 1.79009C4.35614 2.45242 4.10689 3.2311 4.10688 4.02768C4.10793 5.09575 4.55613 6.11978 5.3531 6.87496C6.15007 7.63013 7.23066 8.05472 8.35764 8.05552ZM1.31841 13.7031C1.31931 12.7047 1.73811 11.7475 2.48291 11.0414C3.22771 10.3354 4.23765 9.93823 5.29109 9.93713H11.4222C12.4758 9.93819 13.486 10.3353 14.2311 11.0413C14.9762 11.7473 15.3954 12.7045 15.3967 13.7031V18.3004C15.3962 18.4198 15.3458 18.5342 15.2566 18.6184C15.1673 18.7027 15.0464 18.75 14.9204 18.75H12.9176V14.4533C12.9183 14.3709 12.9017 14.2891 12.8689 14.2127C12.8361 14.1364 12.7876 14.0669 12.7264 14.0084C12.6651 13.9498 12.5922 13.9034 12.5119 13.8717C12.4315 13.8399 12.3454 13.8236 12.2584 13.8236C12.1714 13.8236 12.0852 13.8399 12.0049 13.8717C11.9246 13.9034 11.8517 13.9498 11.7904 14.0084C11.7291 14.0669 11.6807 14.1364 11.6478 14.2127C11.615 14.2891 11.5985 14.3709 11.5992 14.4533V18.75H5.11414V14.4533C5.11414 14.2876 5.04469 14.1287 4.92107 14.0116C4.79745 13.8944 4.62978 13.8286 4.45496 13.8286C4.28013 13.8286 4.11246 13.8944 3.98884 14.0116C3.86522 14.1287 3.79577 14.2876 3.79577 14.4533V18.75H1.79286C1.73054 18.75 1.66884 18.7383 1.61126 18.7157C1.55369 18.6931 1.50138 18.66 1.45733 18.6182C1.41327 18.5764 1.37833 18.5268 1.35449 18.4723C1.33066 18.4177 1.3184 18.3592 1.31841 18.3001V13.7031ZM1.79286 20H14.9205C15.3962 19.9997 15.8524 19.8205 16.1889 19.5018C16.5253 19.1831 16.7147 18.7509 16.7154 18.3001V13.7031C16.7138 12.3731 16.1556 11.0981 15.1633 10.1577C14.171 9.21726 12.8255 8.68833 11.4222 8.68693H5.29109C2.37234 8.68693 0 10.9369 0 13.7029V18.3002C0.000261889 18.7508 0.189214 19.1829 0.525364 19.5016C0.861515 19.8203 1.31738 19.9996 1.79286 20Z" fill="#222222"/>
</g>
</svg>
