<svg width="49" height="49" viewBox="0 0 49 49" fill="none" xmlns="http://www.w3.org/2000/svg">
<g id="Group 561">
<g id="Group 555">
<g id="Group">
<g id="Group_2">
<g id="Group_3">
<g id="Group_4">
<path id="Vector" d="M35.7293 48.9999C28.412 48.9999 22.4585 43.0464 22.4585 35.7291C22.4585 28.4117 28.412 22.4583 35.7293 22.4583C43.0466 22.4583 49.0001 28.4117 49.0001 35.7291C49.0001 43.0464 43.0466 48.9999 35.7293 48.9999ZM35.7293 25.5207C30.1004 25.5207 25.521 30.1002 25.521 35.7291C25.521 41.3579 30.1004 45.9374 35.7293 45.9374C41.3582 45.9374 45.9376 41.3579 45.9376 35.7291C45.9376 30.1002 41.3582 25.5207 35.7293 25.5207Z" fill="#00733C"/>
</g>
</g>
</g>
</g>
<g id="Group_5">
<g id="Group_6">
<g id="Group_7">
<g id="Group_8">
<path id="Vector_2" d="M35.7292 42.8749C35.3862 42.8749 35.0412 42.7585 34.7595 42.5278L29.1449 37.9341C28.4895 37.3992 28.3935 36.4355 28.9305 35.7801C29.4675 35.1248 30.4372 35.0329 31.0845 35.5658L35.7292 39.3653L40.374 35.5658C41.0253 35.0288 41.9951 35.1248 42.528 35.7801C43.0649 36.4335 42.969 37.3992 42.3136 37.9341L36.699 42.5278C36.4173 42.7585 36.0722 42.8749 35.7292 42.8749Z" fill="#00733C"/>
</g>
</g>
</g>
</g>
<g id="Group_9">
<g id="Group_10">
<g id="Group_11">
<g id="Group_12">
<path id="Vector_3" d="M35.729 42.8749C34.8838 42.8749 34.1978 42.1889 34.1978 41.3437V30.1145C34.1978 29.2693 34.8838 28.5833 35.729 28.5833C36.5743 28.5833 37.2603 29.2693 37.2603 30.1145V41.3437C37.2603 42.1889 36.5743 42.8749 35.729 42.8749Z" fill="#00733C"/>
</g>
</g>
</g>
</g>
</g>
<g id="Group 556">
<g id="Group_13">
<g id="Group_14">
<g id="Group_15">
<g id="Group_16">
<path id="Vector_4" d="M16.8437 42.875H5.61458C2.51737 42.875 0 40.3576 0 37.2604V5.61458C0 2.51737 2.51737 0 5.61458 0H27.0521C30.1493 0 32.6666 2.51737 32.6666 5.61458V16.8437C32.6666 17.689 31.9806 18.375 31.1354 18.375C30.2901 18.375 29.6041 17.689 29.6041 16.8437V5.61458C29.6041 4.20787 28.4588 3.0625 27.0521 3.0625H5.61458C4.20787 3.0625 3.0625 4.20787 3.0625 5.61458V37.2604C3.0625 38.6671 4.20787 39.8125 5.61458 39.8125H16.8437C17.689 39.8125 18.375 40.4985 18.375 41.3437C18.375 42.189 17.689 42.875 16.8437 42.875Z" fill="#222222"/>
</g>
</g>
</g>
</g>
<g id="Group_17">
<g id="Group_18">
<g id="Group_19">
<g id="Group_20">
<path id="Vector_5" d="M19.9062 26.5416C19.061 26.5416 18.375 25.8556 18.375 25.0103V11.7395C18.375 10.8943 19.061 10.2083 19.9062 10.2083H25.0104C25.8557 10.2083 26.5417 10.8943 26.5417 11.7395V20.927C26.5417 21.7722 25.8557 22.4582 25.0104 22.4582C24.1652 22.4582 23.4792 21.7722 23.4792 20.927V13.2708H21.4375V25.0103C21.4375 25.8556 20.7515 26.5416 19.9062 26.5416Z" fill="#222222"/>
</g>
</g>
</g>
</g>
<g id="Group_21">
<g id="Group_22">
<g id="Group_23">
<g id="Group_24">
<path id="Vector_6" d="M12.7604 30.625H7.65625C6.811 30.625 6.125 29.939 6.125 29.0937V19.9062C6.125 19.061 6.811 18.375 7.65625 18.375H12.7604C13.6057 18.375 14.2917 19.061 14.2917 19.9062V29.0937C14.2917 29.939 13.6057 30.625 12.7604 30.625ZM9.1875 27.5625H11.2292V21.4375H9.1875V27.5625Z" fill="#222222"/>
</g>
</g>
</g>
</g>
<g id="Group_25">
<g id="Group_26">
<g id="Group_27">
<g id="Group_28">
<path id="Vector_7" d="M16.8439 30.625H5.61475C4.7695 30.625 4.0835 29.939 4.0835 29.0937C4.0835 28.2485 4.7695 27.5625 5.61475 27.5625H16.8439C17.6892 27.5625 18.3752 28.2485 18.3752 29.0937C18.3752 29.939 17.6892 30.625 16.8439 30.625Z" fill="#222222"/>
</g>
</g>
</g>
</g>
</g>
</g>
</svg>
