<svg width="23" height="23" viewBox="0 0 23 23" fill="none" xmlns="http://www.w3.org/2000/svg">
<g id="Group 85">
<path id="Vector" d="M15.8582 9.18365C15.8559 7.54438 15.2036 5.97292 14.0445 4.81378C12.8853 3.65463 11.3139 3.00238 9.67458 3C9.49567 3 9.32409 3.07107 9.19758 3.19758C9.07107 3.32409 9 3.49567 9 3.67458C9 3.85349 9.07107 4.02507 9.19758 4.15158C9.32409 4.27809 9.49567 4.34916 9.67458 4.34916C10.9564 4.35035 12.1854 4.86008 13.0918 5.76646C13.9982 6.67285 14.5079 7.90183 14.5091 9.18365C14.5091 9.36256 14.5801 9.53414 14.7067 9.66065C14.8332 9.78716 15.0047 9.85823 15.1837 9.85823C15.3626 9.85823 15.5341 9.78716 15.6607 9.66065C15.7872 9.53414 15.8582 9.36256 15.8582 9.18365Z" fill="#00733C"/>
<path id="Vector_2" d="M17.0219 16.064C18.6712 14.1665 19.5193 11.7029 19.3876 9.19228C19.2559 6.68168 18.1546 4.32028 16.3159 2.60577C14.4772 0.891254 12.0447 -0.0424376 9.531 0.00148208C7.01734 0.0454018 4.6189 1.0635 2.8412 2.8412C1.0635 4.6189 0.0454018 7.01734 0.00148207 9.531C-0.0424376 12.0447 0.891253 14.4772 2.60577 16.3159C4.32028 18.1546 6.68168 19.2559 9.19228 19.3876C11.7029 19.5193 14.1665 18.6712 16.064 17.0219L21.8474 22.8008C21.9739 22.9272 22.1454 22.9981 22.3241 22.9981C22.5029 22.9981 22.6744 22.9272 22.8008 22.8008C22.8639 22.7385 22.914 22.6643 22.9482 22.5825C22.9824 22.5006 23 22.4128 23 22.3241C23 22.2355 22.9824 22.1476 22.9482 22.0658C22.914 21.984 22.8639 21.9098 22.8008 21.8474L17.0219 16.064ZM1.41215 9.73197C1.41215 8.08647 1.9001 6.47792 2.8143 5.10973C3.72849 3.74154 5.02787 2.67517 6.54812 2.04546C8.06836 1.41575 9.7412 1.25099 11.3551 1.57202C12.969 1.89304 14.4514 2.68542 15.615 3.84897C16.7785 5.01252 17.5709 6.49497 17.8919 8.10886C18.213 9.72275 18.0482 11.3956 17.4185 12.9158C16.7888 14.4361 15.7224 15.7355 14.3542 16.6497C12.986 17.5638 11.3775 18.0518 9.73197 18.0518C7.52615 18.0494 5.41135 17.1721 3.8516 15.6123C2.29185 14.0526 1.41453 11.9378 1.41215 9.73197Z" fill="#222222"/>
</g>
</svg>
