<svg width="41" height="28" viewBox="0 0 41 28" fill="none" xmlns="http://www.w3.org/2000/svg">
<g id="Icon container">
<g id="Group">
<g id="Group_2">
<path id="Vector" d="M30.4708 17.7994C27.6666 17.7994 25.3853 20.0807 25.3853 22.885C25.3853 25.6892 27.6666 27.9705 30.4708 27.9705C33.2755 27.9705 35.5564 25.6892 35.5564 22.885C35.5564 20.0807 33.2751 17.7994 30.4708 17.7994ZM30.4708 25.4278C29.0685 25.4278 27.928 24.2873 27.928 22.885C27.928 21.4827 29.0685 20.3422 30.4708 20.3422C31.8731 20.3422 33.0136 21.4827 33.0136 22.885C33.0136 24.2874 31.8731 25.4278 30.4708 25.4278Z" fill="#222222"/>
</g>
</g>
<g id="Group_3">
<g id="Group_4">
<path id="Vector_2" d="M13.0953 17.7994C10.2911 17.7994 8.00977 20.0807 8.00977 22.885C8.00977 25.6892 10.2911 27.9705 13.0953 27.9705C15.8996 27.9705 18.1809 25.6892 18.1809 22.885C18.1809 20.0807 15.8996 17.7994 13.0953 17.7994ZM13.0953 25.4278C11.693 25.4278 10.5525 24.2873 10.5525 22.885C10.5525 21.4827 11.693 20.3422 13.0953 20.3422C14.4973 20.3422 15.6381 21.4827 15.6381 22.885C15.6381 24.2874 14.4976 25.4278 13.0953 25.4278Z" fill="#222222"/>
</g>
</g>
<g id="Group_5">
<g id="Group_6">
<path id="Vector_3" d="M33.8957 3.24295C33.6795 2.81365 33.2401 2.54281 32.7595 2.54281H26.0635V5.0856H31.9754L35.4374 11.9714L37.7098 10.8288L33.8957 3.24295Z" fill="#222222"/>
</g>
</g>
<g id="Group_7">
<g id="Group_8">
<path id="Vector_4" d="M26.6568 21.656H17.0366V24.1988H26.6568V21.656Z" fill="#222222"/>
</g>
</g>
<g id="Group_9">
<g id="Group_10">
<path id="Vector_5" d="M9.28082 21.656H4.8734C4.17114 21.656 3.60205 22.2252 3.60205 22.9274C3.60205 23.6296 4.17122 24.1987 4.8734 24.1987H9.2809C9.98316 24.1987 10.5522 23.6295 10.5522 22.9274C10.5522 22.2251 9.98308 21.656 9.28082 21.656Z" fill="#222222"/>
</g>
</g>
<g id="Group_11">
<g id="Group_12">
<path id="Vector_6" d="M40.0781 13.8835L37.5773 10.6627C37.3371 10.3524 36.9662 10.171 36.5734 10.171H27.3346V1.27135C27.3346 0.56909 26.7654 0 26.0632 0H4.8734C4.17114 0 3.60205 0.569169 3.60205 1.27135C3.60205 1.97353 4.17122 2.5427 4.8734 2.5427H24.7918V11.4424C24.7918 12.1447 25.361 12.7138 26.0632 12.7138H35.9508L37.8023 15.0989V21.6558H34.2848C33.5825 21.6558 33.0134 22.225 33.0134 22.9272C33.0134 23.6295 33.5826 24.1985 34.2848 24.1985H39.0737C39.7759 24.1985 40.345 23.6294 40.3451 22.9272V14.6633C40.3451 14.3811 40.251 14.1065 40.0781 13.8835Z" fill="#222222"/>
</g>
</g>
<g id="Group_13">
<g id="Group_14">
<path id="Vector_7" d="M9.19643 15.2143H3.34801C2.64575 15.2143 2.07666 15.7835 2.07666 16.4857C2.07666 17.1879 2.64583 17.757 3.34801 17.757H9.19636C9.89862 17.757 10.4677 17.1879 10.4677 16.4857C10.4678 15.7835 9.89862 15.2143 9.19643 15.2143Z" fill="#5FB868"/>
</g>
</g>
<g id="Group_15">
<g id="Group_16">
<path id="Vector_8" d="M12.1206 10.2134H1.27135C0.569169 10.2134 0 10.7826 0 11.4849C0 12.1871 0.569169 12.7562 1.27135 12.7562H12.1206C12.8228 12.7562 13.3919 12.187 13.3919 11.4849C13.3919 10.7827 12.8228 10.2134 12.1206 10.2134Z" fill="#5FB868"/>
</g>
</g>
<g id="Group_17">
<g id="Group_18">
<path id="Vector_9" d="M14.1972 5.21272H3.34801C2.64575 5.21272 2.07666 5.78189 2.07666 6.48407C2.07666 7.18634 2.64583 7.75543 3.34801 7.75543H14.1972C14.8995 7.75543 15.4686 7.18626 15.4686 6.48407C15.4686 5.78189 14.8995 5.21272 14.1972 5.21272Z" fill="#5FB868"/>
</g>
</g>
</g>
</svg>
