<svg width="50" height="50" viewBox="0 0 50 50" fill="none" xmlns="http://www.w3.org/2000/svg">
<g id="Layer 2">
<g id="Group">
<path id="Vector" d="M23.182 19.0908H17.7274C17.3658 19.0908 17.0189 18.9471 16.7632 18.6914C16.5074 18.4357 16.3638 18.0888 16.3638 17.7272C16.3638 17.3655 16.5074 17.0187 16.7632 16.7629C17.0189 16.5072 17.3658 16.3635 17.7274 16.3635H23.182C23.5437 16.3635 23.8906 16.5072 24.1463 16.7629C24.402 17.0187 24.5457 17.3655 24.5457 17.7272C24.5457 18.0888 24.402 18.4357 24.1463 18.6914C23.8906 18.9471 23.5437 19.0908 23.182 19.0908Z" fill="#5FB868"/>
<path id="Vector_2" d="M23.182 23.6362H17.7274C17.3658 23.6362 17.0189 23.4925 16.7632 23.2368C16.5074 22.9811 16.3638 22.6342 16.3638 22.2726C16.3638 21.9109 16.5074 21.5641 16.7632 21.3083C17.0189 21.0526 17.3658 20.9089 17.7274 20.9089H23.182C23.5437 20.9089 23.8906 21.0526 24.1463 21.3083C24.402 21.5641 24.5457 21.9109 24.5457 22.2726C24.5457 22.6342 24.402 22.9811 24.1463 23.2368C23.8906 23.4925 23.5437 23.6362 23.182 23.6362Z" fill="#5FB868"/>
<path id="Vector_3" d="M38.6329 18.1117C38.118 18.1105 37.6189 17.9339 37.2178 17.6109L35.001 15.8371L32.785 17.6101C32.4507 17.8776 32.0476 18.0452 31.6222 18.0937C31.1967 18.1422 30.7663 18.0695 30.3803 17.8841C29.9944 17.6986 29.6687 17.4079 29.4407 17.0455C29.2127 16.683 29.0918 16.2635 29.0918 15.8354V2.27272C29.0924 1.67013 29.332 1.09238 29.7581 0.666282C30.1842 0.240185 30.762 0.000558429 31.3646 0H38.6374C39.24 0.000558429 39.8177 0.240185 40.2438 0.666282C40.6699 1.09238 40.9096 1.67013 40.9101 2.27272V15.8354C40.9122 16.2638 40.7923 16.6839 40.5643 17.0466C40.3363 17.4093 40.0098 17.6996 39.6228 17.8835C39.3142 18.033 38.9759 18.111 38.6329 18.1117ZM35.001 12.9794C35.5173 12.98 36.0181 13.1566 36.4205 13.4801L38.1828 14.8899V2.72727H31.8191V14.8899L33.5805 13.481C33.983 13.1569 34.4842 12.9799 35.001 12.9794Z" fill="#5FB868"/>
</g>
<path id="Vector_4" d="M30.9274 47.6751H10.612C9.7266 47.6739 8.87784 47.3217 8.25188 46.6956C7.62592 46.0694 7.27386 45.2206 7.27295 44.3352V30.5062C7.27386 29.6208 7.62592 28.772 8.25188 28.1459C8.87784 27.5198 9.7266 27.1675 10.612 27.1664H19.3975C20.1072 27.1665 20.8096 27.3088 21.4634 27.5847C22.1172 27.8607 22.7091 28.2648 23.2043 28.7731C23.6994 29.2815 24.0878 29.8839 24.3464 30.5447C24.605 31.2056 24.7287 31.9115 24.7101 32.6209L24.6568 34.6744H26.2833C27.4274 34.6738 28.5513 34.3735 29.5433 33.8035L41.5197 26.917C42.7453 26.2126 44.1902 25.9924 45.57 26.2996C46.9499 26.6069 48.1648 27.4193 48.9758 28.5771C49.7868 29.735 50.1352 31.1544 49.9524 32.5561C49.7697 33.9579 49.069 35.2405 47.9881 36.1517L36.8988 45.4947C35.2272 46.9021 33.1125 47.6742 30.9274 47.6751ZM10.612 29.8937C10.4497 29.8941 10.2942 29.9587 10.1795 30.0736C10.0648 30.1884 10.0004 30.344 10.0003 30.5063V44.3353C10.0004 44.4976 10.0648 44.6532 10.1795 44.768C10.2942 44.8829 10.4497 44.9475 10.612 44.9479H30.9274C32.4692 44.947 33.9613 44.4022 35.1409 43.4094L46.2303 34.0655C46.6017 33.7525 46.8894 33.3522 47.0678 32.9005C47.2462 32.4488 47.3096 31.9599 47.2523 31.4776C47.195 30.9954 47.0188 30.5349 46.7395 30.1376C46.4603 29.7403 46.0867 29.4186 45.6524 29.2013C45.2197 28.9841 44.7399 28.8778 44.256 28.8917C43.7721 28.9056 43.2992 29.0395 42.8798 29.2812L30.9025 36.1686C29.4968 36.9758 27.9043 37.4009 26.2833 37.4017H18.8676C18.506 37.4017 18.1591 37.2581 17.9034 37.0023C17.6477 36.7466 17.504 36.3998 17.504 36.0381C17.504 35.6764 17.6477 35.3296 17.9034 35.0739C18.1591 34.8181 18.506 34.6745 18.8676 34.6745H21.9288L21.9847 32.55C21.9938 32.2045 21.9336 31.8607 21.8077 31.5389C21.6818 31.217 21.4927 30.9237 21.2516 30.6761C21.0105 30.4285 20.7222 30.2318 20.4038 30.0974C20.0854 29.963 19.7433 29.8938 19.3977 29.8938L10.612 29.8937Z" fill="#222222"/>
<path id="Vector_5" d="M6.81827 50H3.18186C2.33829 49.999 1.52957 49.6634 0.933078 49.0669C0.336585 48.4704 0.00102487 47.6617 0 46.8182V28.6364C0.00102487 27.7928 0.336585 26.9841 0.933078 26.3877C1.52957 25.7912 2.33829 25.4556 3.18186 25.4546H6.81827C7.66184 25.4556 8.47056 25.7912 9.06706 26.3877C9.66355 26.9841 9.99911 27.7928 10.0001 28.6364V46.8182C9.99911 47.6617 9.66355 48.4704 9.06706 49.0669C8.47056 49.6634 7.66184 49.999 6.81827 50ZM3.18186 28.1819C3.06138 28.1821 2.94589 28.2301 2.8607 28.3152C2.7755 28.4004 2.72754 28.5159 2.72731 28.6364V46.8182C2.72754 46.9387 2.7755 47.0541 2.8607 47.1393C2.94589 47.2245 3.06138 47.2725 3.18186 47.2727H6.81827C6.93876 47.2725 7.05424 47.2245 7.13944 47.1393C7.22463 47.0541 7.27259 46.9387 7.27283 46.8182V28.6364C7.27259 28.5159 7.22463 28.4004 7.13944 28.3152C7.05424 28.2301 6.93876 28.1821 6.81827 28.1819H3.18186Z" fill="#5FB868"/>
<path id="Vector_6" d="M12.2728 29.8907C11.9112 29.8906 11.5644 29.7469 11.3087 29.4912C11.053 29.2355 10.9093 28.8887 10.9092 28.5271V3.12765C10.91 2.29839 11.2398 1.50334 11.8262 0.916965C12.4125 0.330594 13.2076 0.000813493 14.0369 0H43.2365C44.0658 0.000813493 44.8608 0.330594 45.4472 0.916965C46.0336 1.50334 46.3634 2.29839 46.3642 3.12765V27.5816C46.3642 27.9433 46.2205 28.2901 45.9648 28.5458C45.7091 28.8016 45.3622 28.9452 45.0005 28.9452C44.6389 28.9452 44.292 28.8016 44.0363 28.5458C43.7806 28.2901 43.6369 27.9433 43.6369 27.5816V3.12765C43.633 3.02271 43.5895 2.92314 43.5153 2.84889C43.441 2.77464 43.3414 2.7312 43.2365 2.72727H14.0369C13.9319 2.7312 13.8324 2.77464 13.7581 2.84889C13.6839 2.92314 13.6404 3.02271 13.6365 3.12765V28.5271C13.6364 28.8887 13.4927 29.2355 13.237 29.4912C12.9813 29.7469 12.6345 29.8906 12.2728 29.8907Z" fill="#222222"/>
</g>
</svg>
