<svg width="26" height="23" viewBox="0 0 26 23" fill="none" xmlns="http://www.w3.org/2000/svg">
<g id="Group 505">
<g id="Group 506">
<g id="Group 505_2">
<g id="design">
<g id="Group">
<g id="Group_2">
<path id="Vector" d="M10.4085 19.7263H4.19684C3.69319 19.7263 3.35742 19.3905 3.35742 18.8869V11.4161C3.35742 10.9124 3.69319 10.5766 4.19684 10.5766H10.4085C10.9122 10.5766 11.2479 10.9124 11.2479 11.4161V18.8869C11.2479 19.3066 10.9122 19.7263 10.4085 19.7263ZM5.03625 18.0474H9.5691V12.2555H5.03625V18.0474Z" fill="#00733C"/>
</g>
<g id="Group_3">
<path id="Vector_2" d="M20.9855 13.9343H14.438C13.9344 13.9343 13.5986 13.5986 13.5986 13.0949C13.5986 12.5913 13.9344 12.2555 14.438 12.2555H20.9855C21.4891 12.2555 21.8249 12.5913 21.8249 13.0949C21.8249 13.5986 21.4891 13.9343 20.9855 13.9343Z" fill="#00733C"/>
</g>
<g id="Group_4">
<path id="Vector_3" d="M19.1387 17.1241H14.3541C13.8504 17.1241 13.5146 16.7883 13.5146 16.2847C13.5146 15.781 13.8504 15.4453 14.3541 15.4453H19.1387C19.6424 15.4453 19.9782 15.781 19.9782 16.2847C19.9782 16.7883 19.6424 17.1241 19.1387 17.1241Z" fill="#00733C"/>
</g>
<g id="Group_5">
<path id="Vector_4" d="M21.1533 5.54015H16.3686V3.77737C16.3686 1.67883 14.6898 0 12.5912 0C10.4927 0 8.81387 1.67883 8.81387 3.77737V5.62409H4.0292C1.84672 5.54015 0 7.38686 0 9.56934V18.9708C0 21.2372 1.84672 23 4.0292 23H21.1533C23.4197 23 25.1825 21.1533 25.1825 18.9708V9.56934C25.1825 7.38686 23.3358 5.54015 21.1533 5.54015ZM10.4927 3.77737C10.4927 2.60219 11.4161 1.67883 12.5912 1.67883C13.7664 1.67883 14.6898 2.60219 14.6898 3.77737V7.30292H10.4927V3.77737ZM23.5036 18.9708C23.5036 20.3139 22.4124 21.3212 21.1533 21.3212H4.0292C2.68613 21.3212 1.67883 20.2299 1.67883 18.9708V9.56934C1.67883 8.22628 2.77007 7.21898 4.0292 7.21898H8.81387V8.14233C8.81387 8.64598 9.14963 8.98175 9.65328 8.98175H15.5292C16.0328 8.98175 16.3686 8.64598 16.3686 8.14233V7.21898H21.1533C22.4963 7.21898 23.5036 8.31022 23.5036 9.56934V18.9708Z" fill="#222222"/>
<path id="Vector_5" d="M13.179 4.28103C13.5147 3.94526 13.5147 3.44161 13.179 3.10584C12.8432 2.77008 12.3395 2.77008 12.0038 3.10584C11.668 3.44161 11.668 3.94526 12.0038 4.28103C12.3395 4.61679 12.8432 4.61679 13.179 4.28103Z" fill="#222222"/>
</g>
</g>
</g>
</g>
</g>
</g>
</svg>
