<svg width="25" height="30" viewBox="0 0 25 30" fill="none" xmlns="http://www.w3.org/2000/svg">
<g id="Group">
<g id="XMLID_1_">
<g id="XMLID_1952_">
<g id="XMLID_1953_">
<g id="XMLID_1954_">
<g id="XMLID_1961_">
<g id="XMLID_1972_">
<path id="Vector" d="M3 29.5C1.6 29.5 0.5 28.4 0.5 27V3C0.5 1.6 1.6 0.5 3 0.5H18.2C18.3 0.5 18.5 0.6 18.6 0.6L24 6C24.1 6.1 24.1 6.2 24.1 6.4V27C24.1 28.4 23 29.5 21.6 29.5H3Z" fill="white"/>
<path id="Vector_2" d="M18.2 1L23.6 6.4V8.3V27C23.6 28.1 22.7 29 21.6 29H3C1.9 29 1 28.1 1 27V3C1 1.9 1.9 1 3 1H16.2H18.2ZM18.2 0H16.2H3C1.3 0 0 1.3 0 3V27C0 28.7 1.3 30 3 30H21.6C23.3 30 24.6 28.7 24.6 27V8.3V6.4C24.6 6.1 24.5 5.9 24.3 5.7L18.9 0.3C18.7 0.0999999 18.5 0 18.2 0Z" fill="#222222"/>
</g>
<g id="XMLID_1969_">
<path id="Vector_3" d="M21.6 28H3C1.9 28 1 27.1 1 26V27C1 28.1 1.9 29 3 29H21.6C22.7 29 23.6 28.1 23.6 27V26C23.6 27.1 22.7 28 21.6 28Z" fill="#DADADA"/>
</g>
<g id="XMLID_1962_">
<g id="XMLID_1963_">
<path id="Vector_4" d="M19.4002 6.9C18.5002 6.9 17.7002 6.1 17.7002 5.2V1C17.7002 0.8 17.8002 0.6 18.0002 0.5H18.2002C18.3002 0.5 18.5002 0.6 18.6002 0.6L24.0002 6C24.1002 6.1 24.2002 6.4 24.1002 6.5C24.0002 6.6 23.8002 6.8 23.6002 6.8H19.4002V6.9Z" fill="white"/>
<path id="Vector_5" d="M18.2002 1L23.6002 6.4H19.4002C18.7002 6.4 18.2002 5.9 18.2002 5.2V1ZM18.2002 0C18.1002 0 17.9002 2.23517e-08 17.8002 0.1C17.4002 0.3 17.2002 0.6 17.2002 1V5.2C17.2002 6.4 18.2002 7.4 19.4002 7.4H23.6002C24.0002 7.4 24.4002 7.2 24.5002 6.8C24.6002 6.4 24.6002 6 24.3002 5.7L18.9002 0.3C18.7002 0.0999999 18.5002 0 18.2002 0Z" fill="#222222"/>
</g>
</g>
</g>
<g id="Group_2">
<path id="XMLID_1960_" d="M4.59961 9.7H11.5996" stroke="#DADADA" stroke-miterlimit="10" stroke-linecap="round" stroke-linejoin="round"/>
<path id="XMLID_1959_" d="M4.59961 13.9H19.8996" stroke="#DADADA" stroke-miterlimit="10" stroke-linecap="round" stroke-linejoin="round"/>
<path id="XMLID_1958_" d="M4.59961 18H19.8996" stroke="#DADADA" stroke-miterlimit="10" stroke-linecap="round" stroke-linejoin="round"/>
<path id="XMLID_1957_" d="M4.59961 22.2H19.8996" stroke="#DADADA" stroke-miterlimit="10" stroke-linecap="round" stroke-linejoin="round"/>
</g>
<g id="XMLID_1955_">
<path id="XMLID_1956_" d="M16.7002 1V5.2C16.7002 6.7 17.9002 7.9 19.4002 7.9H23.6002V7.4H19.4002C18.2002 7.4 17.2002 6.4 17.2002 5.2V1H16.7002Z" fill="#DADADA"/>
</g>
</g>
</g>
</g>
<g id="XMLID_9_">
<g id="XMLID_23_">
<g id="XMLID_1703_">
<path id="Vector_6" d="M12.5002 26C12.1002 26 11.8002 25.8 11.5002 25.5L6.80018 20.5C6.40018 20 6.50018 19.6 6.60018 19.4C6.70019 19.2 6.90019 18.9 7.60019 18.9H9.60018V13.4C9.60018 12.6 10.3002 11.9 11.1002 11.9H13.9002C14.7002 11.9 15.4002 12.6 15.4002 13.4V19H17.2002C17.8002 19 18.1002 19.4 18.2002 19.5C18.3002 19.7 18.4002 20.1 18.0002 20.6L13.8002 25.6C13.2002 25.8 12.8002 26 12.5002 26Z" fill="#5FB868"/>
<g id="Group_3">
<path id="Vector_7" d="M13.7002 12.5C14.2002 12.5 14.7002 12.9 14.7002 13.5V19C14.7002 19.3 14.9002 19.5 15.2002 19.5H17.0002C17.5002 19.5 17.7002 19.8 17.3002 20.2L13.1002 25.2C12.9002 25.4 12.7002 25.5 12.5002 25.5C12.3002 25.5 12.1002 25.4 11.9002 25.2L7.20021 20.2C6.90021 19.8 7.00021 19.5 7.50021 19.5H9.50021C9.80021 19.5 10.0002 19.3 10.0002 19V13.5C10.0002 13 10.4002 12.5 11.0002 12.5H13.7002ZM13.7002 11.5H10.9002C9.80021 11.5 8.90021 12.4 8.90021 13.5V18.5H7.50021C6.60021 18.5 6.20021 19.1 6.10021 19.3C6.00021 19.5 5.80021 20.2 6.40021 20.9L11.1002 25.9C11.5002 26.3 11.9002 26.5 12.5002 26.5C13.0002 26.5 13.5002 26.3 13.9002 25.8L18.1002 20.8C18.7002 20.1 18.5002 19.5 18.4002 19.2C18.3002 19 17.9002 18.4 17.0002 18.4H15.7002V13.4C15.7002 12.3 14.8002 11.5 13.7002 11.5Z" fill="#222222"/>
</g>
</g>
<g id="XMLID_24_">
<path id="Vector_8" d="M17.2999 19.7L13.0999 24.7C12.7999 25.1 12.1999 25.1 11.8999 24.7L7.19986 19.7L7.09987 19.6C6.99987 19.7 6.99986 20 7.19986 20.2L11.8999 25.2C12.1999 25.6 12.7999 25.6 13.0999 25.2L17.2999 20.2C17.4999 19.9 17.4999 19.7 17.3999 19.6C17.3999 19.6 17.2999 19.6 17.2999 19.7Z" fill="#00733C"/>
</g>
</g>
<path id="XMLID_22_" opacity="0.8" d="M11.2002 13.2H13.8002" stroke="white" stroke-miterlimit="10" stroke-linecap="round" stroke-dasharray="1 2 6 2 3 1 2 6"/>
</g>
</g>
</g>
</svg>
