<svg width="50" height="50" viewBox="0 0 50 50" fill="none" xmlns="http://www.w3.org/2000/svg">
<g id="Correct">
<g id="Group">
<path id="Vector" d="M14.0657 37.4952H7.81431C7.39981 37.4952 7.0023 37.3306 6.70921 37.0376C6.41612 36.7446 6.25146 36.3472 6.25146 35.9329C6.25146 35.5186 6.41612 35.1212 6.70921 34.8282C7.0023 34.5352 7.39981 34.3706 7.81431 34.3706H14.0657C14.4802 34.3706 14.8777 34.5352 15.1708 34.8282C15.4639 35.1212 15.6285 35.5186 15.6285 35.9329C15.6285 36.3472 15.4639 36.7446 15.1708 37.0376C14.8777 37.3306 14.4802 37.4952 14.0657 37.4952Z" fill="#222222"/>
<path id="Vector_2" d="M43.7596 26.684V4.68689C43.7596 3.44385 43.2656 2.25172 42.3863 1.37276C41.5071 0.493796 40.3145 0 39.071 0L4.68853 0C3.44505 0 2.25251 0.493796 1.37324 1.37276C0.493968 2.25172 0 3.44385 0 4.68689L0 39.0574C0 40.3005 0.493968 41.4926 1.37324 42.3716C2.25251 43.2505 3.44505 43.7443 4.68853 43.7443H20.3169C20.7314 43.7443 21.1289 43.5797 21.422 43.2867C21.7151 42.9938 21.8798 42.5964 21.8798 42.182C21.8798 41.7677 21.7151 41.3703 21.422 41.0773C21.1289 40.7843 20.7314 40.6197 20.3169 40.6197H4.68853C4.27403 40.6197 3.87652 40.4551 3.58343 40.1621C3.29034 39.8692 3.12568 39.4718 3.12568 39.0574V4.68689C3.12568 4.27254 3.29034 3.87517 3.58343 3.58218C3.87652 3.28919 4.27403 3.12459 4.68853 3.12459H14.0656V12.4984C14.0656 13.3271 14.3949 14.1218 14.9811 14.7078C15.5672 15.2938 16.3623 15.623 17.1913 15.623H26.5683C27.3973 15.623 28.1923 15.2938 28.7785 14.7078C29.3647 14.1218 29.694 13.3271 29.694 12.4984V3.12459H39.071C39.4855 3.12459 39.883 3.28919 40.1761 3.58218C40.4692 3.87517 40.6339 4.27254 40.6339 4.68689V25.403C37.5658 24.6081 34.3103 25.0077 31.5258 26.5209C28.7412 28.0341 26.6355 30.548 25.6345 33.5541C24.6335 36.5603 24.8119 39.8342 26.1336 42.7139C27.4554 45.5935 29.8218 47.8639 32.7543 49.0658C35.6868 50.2677 38.9665 50.3114 41.93 49.1881C44.8935 48.0648 47.3197 45.8584 48.7178 43.015C50.1159 40.1716 50.3816 36.9036 49.4611 33.8718C48.5406 30.8401 46.5027 28.271 43.7596 26.684ZM26.5683 12.4984H17.1913V3.12459H26.5683V12.4984ZM37.5082 46.8689C35.6536 46.8689 33.8406 46.3192 32.2986 45.2892C30.7565 44.2591 29.5547 42.7952 28.8449 41.0823C28.1352 39.3695 27.9495 37.4847 28.3113 35.6664C28.6731 33.8481 29.5662 32.1778 30.8776 30.8669C32.189 29.5559 33.8599 28.6632 35.6788 28.3015C37.4978 27.9398 39.3832 28.1254 41.0966 28.8349C42.8101 29.5444 44.2746 30.7458 45.3049 32.2873C46.3353 33.8288 46.8853 35.6412 46.8853 37.4951C46.8853 39.9812 45.8973 42.3655 44.1388 44.1234C42.3802 45.8813 39.9951 46.8689 37.5082 46.8689Z" fill="#222222"/>
<path id="Vector_3" d="M7.81431 28.1213C7.39982 28.1213 7.0023 28.2859 6.70921 28.5789C6.41612 28.8719 6.25146 29.2693 6.25146 29.6836C6.25146 30.098 6.41612 30.4954 6.70921 30.7883C7.0023 31.0813 7.39982 31.2459 7.81431 31.2459H17.1914C17.6058 31.2459 18.0034 31.0813 18.2965 30.7883C18.5895 30.4954 18.7542 30.098 18.7542 29.6836C18.7542 29.2693 18.5895 28.8719 18.2965 28.5789C18.0034 28.2859 17.6058 28.1213 17.1914 28.1213H7.81431Z" fill="#222222"/>
</g>
<path id="Vector_4" d="M37.5079 42.1821C36.664 42.1821 36.6171 41.9478 33.2726 38.6045C32.9783 38.3103 32.813 37.9113 32.813 37.4952C32.813 37.0792 32.9783 36.6802 33.2726 36.386C33.5669 36.0918 33.966 35.9266 34.3822 35.9266C34.7984 35.9266 35.1976 36.0918 35.4918 36.386L37.336 38.2451L40.9462 33.4333C41.0693 33.2691 41.2236 33.1309 41.4002 33.0263C41.5768 32.9218 41.7722 32.8531 41.9754 32.8241C42.1786 32.795 42.3855 32.8063 42.5843 32.8572C42.7831 32.9081 42.97 32.9977 43.1341 33.1208C43.2983 33.2439 43.4367 33.3981 43.5412 33.5747C43.6458 33.7512 43.7145 33.9466 43.7436 34.1497C43.7726 34.3528 43.7613 34.5596 43.7104 34.7584C43.6594 34.9571 43.5698 35.1439 43.4467 35.308L38.7582 41.5572C38.6126 41.7512 38.4238 41.9087 38.2068 42.0172C37.9898 42.1257 37.7505 42.1821 37.5079 42.1821Z" fill="#5FB868"/>
</g>
</svg>
