<svg width="28" height="31" viewBox="0 0 28 31" fill="none" xmlns="http://www.w3.org/2000/svg">
<path d="M25.5534 18.589C25.213 18.0585 25.0327 17.451 25.0327 16.831V12.3684C25.0327 11.8514 24.6054 11.4322 24.0784 11.4322C23.5513 11.4322 23.124 11.8514 23.124 12.3684V16.831C23.124 17.8057 23.4071 18.7585 23.9437 19.5959L24.8641 20.9961C25.0974 21.3529 25.1102 21.7888 24.9023 22.1622C24.6934 22.5367 24.3095 22.7603 23.8758 22.7603H3.43067C2.99802 22.7603 2.61308 22.5367 2.40417 22.1622C2.19633 21.7888 2.21011 21.3539 2.44129 21.0003L3.36917 19.5876C3.9015 18.7586 4.18464 17.8047 4.18464 16.831V11.1617C4.18464 6.0396 8.43273 1.87242 13.6543 1.87242C14.6225 1.87242 15.5652 2.01181 16.4538 2.28644C16.9576 2.44143 17.492 2.16889 17.6511 1.67478C17.8091 1.18171 17.5312 0.656388 17.0275 0.500353C15.9512 0.168518 14.8165 0 13.6532 0C7.37866 0 2.2748 5.00665 2.2748 11.1617V16.831C2.2748 17.451 2.09453 18.0595 1.75943 18.5817L0.834733 19.9881C0.220743 20.9295 0.181507 22.079 0.72975 23.061C1.27905 24.045 2.28859 24.6328 3.42961 24.6328H23.8748C25.0158 24.6328 26.0253 24.0461 26.5746 23.062C27.1239 22.079 27.0847 20.9306 26.4696 19.985L25.5534 18.589Z" fill="#222222"/>
<path d="M18.8592 26.5197C18.399 26.269 17.8179 26.4292 17.5602 26.8817C16.7734 28.2673 15.276 29.1276 13.6536 29.1276C12.0311 29.1276 10.5348 28.2673 9.74694 26.8827C9.48926 26.4313 8.90708 26.269 8.44791 26.5207C7.98769 26.7725 7.82226 27.3425 8.07888 27.794C9.20188 29.7715 11.3376 31 13.6525 31C15.9664 31 18.101 29.7715 19.2262 27.794C19.4838 27.3415 19.3184 26.7714 18.8592 26.5197Z" fill="#222222"/>
<path d="M22.8112 9.77612C25.3106 9.77612 27.3445 7.78199 27.3445 5.32911C27.3445 2.87623 25.3106 0.882103 22.8112 0.882103C20.3117 0.882103 18.2778 2.87623 18.2778 5.32911C18.2778 7.78199 20.3117 9.77612 22.8112 9.77612ZM22.8112 2.75453C24.2576 2.75453 25.4358 3.90919 25.4358 5.32911C25.4358 6.74903 24.2587 7.90369 22.8112 7.90369C21.3637 7.90369 20.1866 6.74903 20.1866 5.32911C20.1866 3.90919 21.3648 2.75453 22.8112 2.75453Z" fill="#5FB868"/>
</svg>
