<svg width="38" height="45" viewBox="0 0 38 45" fill="none" xmlns="http://www.w3.org/2000/svg">
<g id="Group">
<path id="Vector" fill-rule="evenodd" clip-rule="evenodd" d="M11.9043 8.99706C11.9041 7.73527 12.2971 6.50176 13.0336 5.45251C13.7701 4.40325 14.8171 3.58538 16.0421 3.1023C17.267 2.61923 18.615 2.49264 19.9156 2.73855C21.2162 2.98446 22.4109 3.59183 23.3487 4.48385C24.2866 5.37587 24.9254 6.51248 25.1844 7.74996C25.4434 8.98745 25.311 10.2702 24.8039 11.4361C24.2968 12.602 23.4378 13.5986 22.3354 14.2999C21.2331 15.0012 19.937 15.3758 18.611 15.3762C16.8334 15.3744 15.1291 14.7018 13.8718 13.506C12.6145 12.3101 11.907 10.6886 11.9043 8.99706Z" fill="#00733C"/>
<path id="Vector_2" fill-rule="evenodd" clip-rule="evenodd" d="M18.6101 2.79226C19.8995 2.79286 21.1598 3.15726 22.2316 3.8394C23.3034 4.52153 24.1386 5.49075 24.6316 6.62453C25.1246 7.75831 25.2532 9.00574 25.0013 10.2091C24.7493 11.4124 24.128 12.5177 23.216 13.3851C22.304 14.2525 21.1422 14.843 19.8775 15.0822C18.6128 15.3213 17.302 15.1982 16.1108 14.7285C14.9196 14.2587 13.9015 13.4635 13.1852 12.4432C12.4689 11.4229 12.0867 10.2234 12.0867 8.99643C12.0885 7.35093 12.7765 5.77337 13.9996 4.61013C15.2226 3.4469 16.8808 2.79309 18.6101 2.79226ZM18.6101 17.9932C20.4799 17.9928 22.3076 17.4649 23.8621 16.4761C25.4166 15.4874 26.6281 14.0822 27.3434 12.4382C28.0586 10.7943 28.2456 8.98544 27.8806 7.2404C27.5156 5.49535 26.615 3.89248 25.2928 2.63446C23.9705 1.37644 22.2859 0.519766 20.452 0.172758C18.6181 -0.174249 16.7172 0.00399618 14.9898 0.684955C13.2623 1.36591 11.7859 2.519 10.7471 3.99842C9.70827 5.47785 9.1538 7.21716 9.15377 8.99643C9.1561 11.3821 10.1532 13.6695 11.9261 15.3562C13.6991 17.043 16.103 17.9914 18.6101 17.9932ZM2.95053 30.6079C2.95252 28.3779 3.88419 26.2397 5.54108 24.6627C7.19796 23.0856 9.44469 22.1985 11.7882 22.1961H25.4275C27.7714 22.1984 30.0186 23.0854 31.6761 24.6624C33.3337 26.2393 34.2662 28.3775 34.2692 30.6079V40.8766C34.2681 41.1434 34.156 41.3988 33.9575 41.587C33.7589 41.7753 33.49 41.8809 33.2097 41.8809H28.7541V32.2837C28.7557 32.0995 28.7188 31.9168 28.6458 31.7463C28.5728 31.5757 28.4651 31.4205 28.3287 31.2898C28.1924 31.159 28.0302 31.0552 27.8515 30.9844C27.6729 30.9136 27.4812 30.8771 27.2876 30.8771C27.0941 30.8771 26.9024 30.9136 26.7238 30.9844C26.5451 31.0552 26.3829 31.159 26.2466 31.2898C26.1102 31.4205 26.0025 31.5757 25.9295 31.7463C25.8564 31.9168 25.8196 32.0995 25.8212 32.2837V41.8809H11.3945V32.2837C11.3945 31.9136 11.24 31.5587 10.965 31.297C10.69 31.0353 10.317 30.8882 9.92811 30.8882C9.53918 30.8882 9.16619 31.0353 8.89118 31.297C8.61617 31.5587 8.46168 31.9136 8.46168 32.2837V41.8809H4.006C3.86736 41.8809 3.73008 41.8549 3.60201 41.8044C3.47393 41.7539 3.35757 41.6799 3.25956 41.5865C3.16155 41.4932 3.08381 41.3825 3.03079 41.2606C2.97777 41.1387 2.95049 41.008 2.95053 40.8761V30.6079ZM4.006 44.673H33.2099C34.2681 44.6722 35.2829 44.272 36.0314 43.5602C36.78 42.8484 37.2012 41.8831 37.2027 40.876V30.6079C37.1992 27.6372 35.9575 24.7892 33.7499 22.6887C31.5424 20.5881 28.5494 19.4067 25.4275 19.4036H11.7882C5.29509 19.4036 0.0175781 24.4293 0.0175781 30.6075V40.8762C0.0181607 41.8828 0.438505 42.8479 1.18631 43.5598C1.93411 44.2717 2.94824 44.6721 4.006 44.673Z" fill="#222222"/>
</g>
</svg>
