<svg width="49" height="49" viewBox="0 0 49 49" fill="none" xmlns="http://www.w3.org/2000/svg">
<g id="Group">
<g id="Group 559">
<path id="Vector" d="M22.225 30.9757C17.9585 30.9757 14.4756 27.4928 14.4756 23.2263C14.4756 18.9597 17.9585 15.4768 22.225 15.4768C26.4915 15.4768 29.9744 18.9597 29.9744 23.2263C29.9744 27.4928 26.4915 30.9757 22.225 30.9757ZM22.225 18.7638C19.7652 18.7638 17.7408 20.7664 17.7408 23.248C17.7408 25.7296 19.7435 27.7322 22.225 27.7322C24.7066 27.7322 26.7092 25.7296 26.7092 23.248C26.7092 20.7664 24.7066 18.7638 22.225 18.7638Z" fill="#222222"/>
<path id="Vector_2" d="M33.5232 45.0598C32.6307 45.0598 31.8906 44.3196 31.8906 43.4272C31.8906 39.2477 27.5588 35.8519 22.2256 35.8519C16.8925 35.8519 12.5606 39.2477 12.5606 43.4272C12.5606 44.3196 11.8205 45.0598 10.928 45.0598C10.0355 45.0598 9.29541 44.3196 9.29541 43.4272C9.29541 37.4627 15.0857 32.5867 22.2256 32.5867C29.3655 32.5867 35.1558 37.4409 35.1558 43.4272C35.1558 44.3196 34.4157 45.0598 33.5232 45.0598Z" fill="#222222"/>
<path id="Vector_3" d="M22.3122 48.978C10.0133 48.978 0 38.9647 0 26.6658C0 14.3668 10.0133 4.35352 22.3122 4.35352C25.338 4.35352 28.2549 4.94123 30.9977 6.09494C31.7813 6.42146 32.1732 7.29214 31.9119 8.09755C31.6725 8.8159 31.5637 9.57784 31.5637 10.3397C31.5637 11.624 31.9119 12.8865 32.5868 13.9749C32.935 14.5844 33.3922 15.1286 33.9146 15.5858C35.8084 17.3054 38.6165 17.8498 40.8151 17.0661C41.6205 16.7614 42.5347 17.1749 42.8613 17.9803C44.0367 20.7449 44.6245 23.6835 44.6245 26.6875C44.6245 38.9647 34.6112 48.978 22.3122 48.978ZM22.3122 7.61872C11.82 7.61872 3.26521 16.1518 3.26521 26.6658C3.26521 37.1797 11.82 45.7128 22.3122 45.7128C32.8044 45.7128 41.3593 37.1797 41.3593 26.6658C41.3593 24.576 41.011 22.5081 40.3579 20.5271C37.354 21.0496 34.067 20.1136 31.7596 18.0021C30.9977 17.3491 30.3229 16.5436 29.8004 15.6511C28.8426 14.0838 28.3202 12.2335 28.3202 10.3397C28.3202 9.75199 28.3638 9.18606 28.4726 8.62009C26.4917 7.94529 24.4237 7.61872 22.3122 7.61872Z" fill="#222222"/>
</g>
<g id="Group 558">
<path id="Vector_4" d="M38.6386 20.6796C36.07 20.6796 33.632 19.7219 31.7382 18.0022C30.9763 17.3492 30.3015 16.5437 29.7791 15.6512C28.8213 14.0839 28.2988 12.2336 28.2988 10.3398C28.2988 9.22965 28.473 8.14127 28.8213 7.0964C29.3002 5.61618 30.1273 4.24477 31.2375 3.1346C33.1966 1.13194 35.8306 0 38.6604 0C41.6209 0 44.4289 1.26258 46.3445 3.43939C48.0424 5.33321 49.0002 7.77119 49.0002 10.3398C49.0002 11.167 48.8914 11.9942 48.6737 12.7778C48.456 13.7574 48.0424 14.7805 47.4765 15.673C46.2139 17.8063 44.2113 19.3953 41.8603 20.1354C40.8808 20.5055 39.7924 20.6796 38.6386 20.6796ZM38.6386 3.26521C36.7013 3.26521 34.8945 4.02704 33.5667 5.39843C32.8048 6.18208 32.2606 7.07455 31.9341 8.09765C31.6946 8.81599 31.5858 9.57794 31.5858 10.3398C31.5858 11.6241 31.9341 12.8866 32.6089 13.975C32.9572 14.5845 33.4143 15.1287 33.9368 15.5859C35.8306 17.3055 38.6386 17.8499 40.8372 17.0662C42.4916 16.5438 43.8412 15.4553 44.7119 13.9968C45.1038 13.3656 45.365 12.6908 45.5173 12.016C45.6697 11.45 45.735 10.9058 45.735 10.3398C45.735 8.59838 45.082 6.92228 43.9065 5.6162C42.5787 4.1142 40.6631 3.26521 38.6386 3.26521Z" fill="#00733C"/>
<path id="Vector_5" d="M41.882 11.9288H35.3733C34.4808 11.9288 33.7407 11.1887 33.7407 10.2962C33.7407 9.40369 34.4808 8.66357 35.3733 8.66357H41.882C42.7745 8.66357 43.5146 9.40369 43.5146 10.2962C43.5146 11.1887 42.7962 11.9288 41.882 11.9288Z" fill="#00733C"/>
<path id="Vector_6" d="M38.6385 15.2592C37.746 15.2592 37.0059 14.5191 37.0059 13.6266V7.11795C37.0059 6.22546 37.746 5.48535 38.6385 5.48535C39.531 5.48535 40.2711 6.22546 40.2711 7.11795V13.6266C40.2711 14.5408 39.531 15.2592 38.6385 15.2592Z" fill="#00733C"/>
</g>
</g>
</svg>
