<svg width="41" height="47" viewBox="0 0 41 47" fill="none" xmlns="http://www.w3.org/2000/svg">
<g id="Group 560">
<path id="Vector" d="M7.8125 0C5.74116 0.00215084 3.75527 0.825942 2.2906 2.2906C0.825942 3.75527 0.00215084 5.74116 0 7.8125V39.0625C0.00215084 41.1338 0.825942 43.1197 2.2906 44.5844C3.75527 46.0491 5.74116 46.8728 7.8125 46.875H25.2812C25.9111 46.8893 26.5349 46.7498 27.0988 46.4688C27.6541 46.2598 28.1575 45.9329 28.5744 45.5106L39.2619 34.8231C39.6356 34.4664 39.9298 34.0348 40.1253 33.5566C40.1419 33.5253 40.1469 33.4909 40.1625 33.4603C40.1784 33.4209 40.2056 33.3853 40.22 33.3459C40.2256 33.3303 40.22 33.3147 40.2253 33.2978C40.4845 32.7447 40.6209 32.1421 40.625 31.5312V7.8125C40.6228 5.74116 39.7991 3.75527 38.3344 2.2906C36.8697 0.825942 34.8838 0.00215084 32.8125 0H7.8125ZM28.125 41.5406V35.9375C28.1255 35.5233 28.2903 35.1261 28.5832 34.8332C28.8761 34.5403 29.2733 34.3755 29.6875 34.375H35.2906L28.125 41.5406ZM37.5 7.8125V31.25H29.6875C28.4447 31.2514 27.2533 31.7457 26.3745 32.6245C25.4957 33.5033 25.0014 34.6947 25 35.9375V43.75H7.8125C6.56973 43.7486 5.37826 43.2543 4.49949 42.3755C3.62072 41.4967 3.12641 40.3053 3.125 39.0625V7.8125C3.12641 6.56973 3.62072 5.37826 4.49949 4.49949C5.37826 3.62072 6.56973 3.12641 7.8125 3.125H32.8125C34.0553 3.12641 35.2467 3.62072 36.1255 4.49949C37.0043 5.37826 37.4986 6.56973 37.5 7.8125Z" fill="#222222"/>
<path id="Vector_2" d="M27.0202 14L17.7077 23.3125L13.6045 19.2078C13.3098 18.9232 12.9151 18.7657 12.5055 18.7692C12.0958 18.7728 11.7039 18.9371 11.4142 19.2268C11.1245 19.5165 10.9602 19.9084 10.9566 20.3181C10.953 20.7278 11.1105 21.1225 11.3952 21.4172L16.603 26.6266C16.896 26.9195 17.2933 27.084 17.7077 27.084C18.122 27.084 18.5193 26.9195 18.8123 26.6266L29.2295 16.2078C29.5142 15.9131 29.6716 15.5184 29.6681 15.1087C29.6645 14.6991 29.5002 14.3072 29.2105 14.0175C28.9208 13.7278 28.5289 13.5634 28.1192 13.5599C27.7095 13.5563 27.3148 13.7154 27.0202 14Z" fill="#00733C"/>
</g>
</svg>
