<svg width="26" height="28" viewBox="0 0 26 28" fill="none" xmlns="http://www.w3.org/2000/svg">
<path d="M25.3449 24.2118C25.3501 25.1978 24.9318 26.1387 24.1963 26.7954C23.4608 27.4522 22.4788 27.7617 21.4996 27.6454C19.7376 27.3847 18.4464 25.8513 18.4893 24.0706V3.5981C18.4468 1.81547 19.7412 0.281386 21.5055 0.023339C22.4837 -0.0911581 23.4641 0.219191 24.1983 0.875755C24.9324 1.53232 25.3499 2.4721 25.3449 3.45699V24.2118Z" fill="#5FB868"/>
<path d="M3.77298 20.8193C5.66609 20.8193 7.20076 22.3539 7.20076 24.247C7.20076 26.1401 5.66609 27.6748 3.77298 27.6748C1.87988 27.6748 0.345215 26.1401 0.345215 24.247C0.345215 22.3539 1.87988 20.8193 3.77298 20.8193ZM12.7922 10.4301C10.8901 10.5344 9.41437 12.1299 9.4585 14.0343V23.2416C9.4585 25.7404 10.558 27.2574 12.169 27.5807C13.1803 27.7857 14.2303 27.525 15.0282 26.8706C15.8262 26.2163 16.2875 25.2378 16.2847 24.2059V13.8755C16.2863 12.953 15.9174 12.0685 15.2607 11.4207C14.604 10.7728 13.7146 10.4159 12.7922 10.4301Z" fill="#222222"/>
</svg>
