<svg width="19" height="19" viewBox="0 0 19 19" fill="none" xmlns="http://www.w3.org/2000/svg">
<g id="Group 612">
<path id="Vector" d="M18.5555 14.6736H18.5067C18.4386 14.4236 18.3391 14.1831 18.2106 13.9581L18.2449 13.9237C18.3282 13.8403 18.3749 13.7273 18.3749 13.6095C18.3749 13.4916 18.3282 13.3786 18.2449 13.2952L17.7048 12.7551C17.6214 12.6718 17.5084 12.6251 17.3905 12.6251C17.2727 12.6251 17.1597 12.6718 17.0763 12.7551L17.0419 12.7894C16.8168 12.6609 16.5764 12.5614 16.3264 12.4933V12.4445C16.3262 12.3266 16.2794 12.2137 16.1961 12.1303C16.1128 12.047 15.9998 12.0001 15.882 12H15.118C15.0002 12.0001 14.8872 12.047 14.8039 12.1303C14.7206 12.2137 14.6738 12.3266 14.6736 12.4445V12.4933C14.4236 12.5614 14.1832 12.6609 13.9581 12.7894L13.9237 12.7551C13.8403 12.6718 13.7273 12.6251 13.6095 12.6251C13.4916 12.6251 13.3786 12.6718 13.2952 12.7551L12.7551 13.2952C12.6718 13.3786 12.6251 13.4916 12.6251 13.6095C12.6251 13.7273 12.6718 13.8403 12.7551 13.9237L12.7894 13.9581C12.6609 14.1831 12.5614 14.4236 12.4933 14.6736H12.4445C12.3266 14.6738 12.2137 14.7206 12.1303 14.8039C12.047 14.8872 12.0001 15.0002 12 15.118V15.882C12.0001 15.9998 12.047 16.1128 12.1303 16.1961C12.2137 16.2794 12.3266 16.3262 12.4445 16.3264H12.4933C12.5614 16.5764 12.6609 16.8168 12.7894 17.0419L12.7551 17.0763C12.6718 17.1597 12.6251 17.2727 12.6251 17.3905C12.6251 17.5084 12.6718 17.6214 12.7551 17.7048L13.2952 18.2449C13.3786 18.3282 13.4916 18.3749 13.6095 18.3749C13.7273 18.3749 13.8403 18.3282 13.9237 18.2449L13.9581 18.2106C14.1832 18.3391 14.4236 18.4386 14.6736 18.5067V18.5555C14.6738 18.6734 14.7206 18.7863 14.8039 18.8697C14.8872 18.953 15.0002 18.9999 15.118 19H15.882C15.9998 18.9999 16.1128 18.953 16.1961 18.8697C16.2794 18.7863 16.3262 18.6734 16.3264 18.5555V18.5067C16.5764 18.4386 16.8168 18.3391 17.0419 18.2106C17.1261 18.3062 17.2445 18.365 17.3715 18.3745C17.433 18.377 17.4943 18.3668 17.5517 18.3445C17.609 18.3222 17.6611 18.2883 17.7048 18.2449L18.2449 17.7048C18.3281 17.6214 18.3749 17.5084 18.3749 17.3905C18.3749 17.2727 18.3281 17.1597 18.2449 17.0763L18.2106 17.0419C18.3391 16.8168 18.4386 16.5764 18.5067 16.3264C18.5717 16.3304 18.6367 16.3215 18.6981 16.3C18.7595 16.2786 18.816 16.245 18.8642 16.2014C18.907 16.1599 18.9411 16.1103 18.9644 16.0554C18.9877 16.0005 18.9998 15.9416 19 15.882V15.118C18.9999 15.0002 18.953 14.8873 18.8697 14.8039C18.7863 14.7206 18.6734 14.6738 18.5555 14.6736ZM15.5 14.4792C15.7019 14.4792 15.8993 14.539 16.0671 14.6512C16.235 14.7634 16.3659 14.9228 16.4431 15.1093C16.5204 15.2959 16.5406 15.5011 16.5012 15.6992C16.4618 15.8972 16.3646 16.0791 16.2218 16.2218C16.0791 16.3646 15.8972 16.4618 15.6992 16.5012C15.5011 16.5406 15.2959 16.5204 15.1093 16.4431C14.9228 16.3659 14.7634 16.235 14.6512 16.0671C14.539 15.8993 14.4792 15.7019 14.4792 15.5C14.4795 15.2294 14.5871 14.9699 14.7785 14.7785C14.9699 14.5871 15.2294 14.4795 15.5 14.4792Z" fill="#5FB868"/>
<path id="Vector_2" d="M9.65957 13.7845L9.48952 13.7123C9.56097 13.2667 9.56479 12.8128 9.50087 12.366L9.6725 12.2967C9.80123 12.2445 9.90402 12.1434 9.9583 12.0156C10.0126 11.8877 10.0139 11.7435 9.96203 11.6147L9.5316 10.5492C9.47931 10.4206 9.37819 10.3179 9.25037 10.2637C9.12255 10.2094 8.97846 10.2081 8.84963 10.2599L8.67793 10.3292C8.41358 9.96343 8.09555 9.63961 7.73457 9.36871L7.80667 9.19874C7.83356 9.13541 7.84771 9.0674 7.84831 8.9986C7.84892 8.9298 7.83596 8.86155 7.81019 8.79776C7.78442 8.73396 7.74633 8.67587 7.69811 8.62679C7.64988 8.57772 7.59246 8.53862 7.52913 8.51174L6.47166 8.06286C6.40833 8.03597 6.34033 8.02182 6.27153 8.02121C6.20273 8.0206 6.13449 8.03354 6.07069 8.05931C6.0069 8.08508 5.9488 8.12315 5.89972 8.17137C5.85065 8.21959 5.81155 8.277 5.78466 8.34033L5.71242 8.51038C5.26677 8.43904 4.81292 8.43521 4.36614 8.49903L4.29684 8.32741C4.2446 8.19873 4.14348 8.096 4.01564 8.04173C3.88779 7.98746 3.74366 7.98607 3.61479 8.03787L2.54929 8.4683C2.42063 8.52055 2.31794 8.62167 2.2637 8.7495C2.20947 8.87733 2.20813 9.02144 2.25996 9.15027L2.32933 9.32196C1.96354 9.58631 1.63972 9.90434 1.36881 10.2653L1.19869 10.1931C1.07076 10.139 0.926628 10.1379 0.797877 10.19C0.669126 10.242 0.566263 10.343 0.511836 10.4708L0.0629594 11.5282C0.0360451 11.5915 0.0218729 11.6596 0.0212525 11.7284C0.0206322 11.7972 0.0335759 11.8654 0.059344 11.9292C0.0851121 11.993 0.1232 12.0511 0.17143 12.1002C0.21966 12.1493 0.277088 12.1883 0.340431 12.2152L0.510476 12.2875C0.439033 12.7331 0.435208 13.187 0.49913 13.6337L0.327504 13.703C0.198767 13.7552 0.095983 13.8563 0.0417032 13.9842C-0.0125767 14.112 -0.0139198 14.2562 0.0379685 14.3851L0.468395 15.4506C0.520684 15.5792 0.621808 15.6819 0.749627 15.7361C0.877445 15.7903 1.02154 15.7917 1.15037 15.7399L1.32207 15.6705C1.58642 16.0363 1.90445 16.3601 2.26543 16.631L2.19319 16.8011C2.13912 16.9291 2.13799 17.0732 2.19005 17.202C2.2421 17.3307 2.34309 17.4336 2.47087 17.488L3.52834 17.9369C3.59167 17.9638 3.65967 17.9779 3.72847 17.9785C3.79727 17.9791 3.86551 17.9662 3.92931 17.9404C3.9931 17.9147 4.0512 17.8766 4.10027 17.8284C4.14935 17.7802 4.18845 17.7227 4.21534 17.6594L4.28758 17.4894C4.73321 17.5608 5.18708 17.5647 5.63386 17.5007L5.70316 17.6723C5.75522 17.8012 5.85632 17.904 5.98422 17.9583C6.11213 18.0126 6.25636 18.0139 6.3852 17.9619L7.45071 17.5314C7.57937 17.4792 7.68206 17.3781 7.73629 17.2502C7.79053 17.1224 7.79187 16.9783 7.74003 16.8495L7.67067 16.6778C8.03646 16.4134 8.36028 16.0954 8.63119 15.7344L8.80116 15.8065C8.86449 15.8334 8.9325 15.8476 9.0013 15.8482C9.0701 15.8488 9.13835 15.8358 9.20215 15.81C9.26594 15.7843 9.32403 15.7462 9.37311 15.698C9.42218 15.6497 9.46128 15.5923 9.48816 15.529L9.93704 14.4715C9.96394 14.4082 9.97809 14.3402 9.9787 14.2714C9.97931 14.2026 9.96636 14.1344 9.9406 14.0706C9.91483 14.0068 9.87675 13.9487 9.82853 13.8996C9.78031 13.8505 9.7229 13.8114 9.65957 13.7845ZM5 10.7939C5.4363 10.7939 5.86281 10.9233 6.22558 11.1657C6.58835 11.4081 6.8711 11.7526 7.03806 12.1557C7.20503 12.5588 7.24872 13.0023 7.1636 13.4302C7.07848 13.8582 6.86838 14.2512 6.55987 14.5597C6.25135 14.8682 5.85829 15.0783 5.43037 15.1635C5.00245 15.2486 4.5589 15.2049 4.15581 15.0379C3.75271 14.871 3.40819 14.5882 3.16579 14.2254C2.92339 13.8627 2.79401 13.4362 2.79401 12.9999C2.79468 12.415 3.0273 11.8543 3.44086 11.4407C3.85442 11.0272 4.41514 10.7946 5 10.7939Z" fill="#00733C"/>
<path id="Vector_3" d="M18.4695 4.34831H18.241C18.1233 3.85897 17.9297 3.39108 17.6671 2.96168L17.8283 2.80041C17.9277 2.70085 17.9835 2.56594 17.9835 2.42529C17.9835 2.28464 17.9277 2.14974 17.8283 2.05018L16.9498 1.17166C16.8502 1.07234 16.7154 1.01657 16.5747 1.01657C16.4341 1.01657 16.2992 1.07234 16.1996 1.17166L16.0383 1.33286C15.6089 1.07036 15.141 0.876716 14.6517 0.758978V0.530499C14.6515 0.389851 14.5956 0.25501 14.4961 0.155556C14.3967 0.0561033 14.2618 0.000160127 14.1212 0L12.8788 0C12.7382 0.000160127 12.6033 0.0561033 12.5039 0.155556C12.4044 0.25501 12.3485 0.389851 12.3483 0.530499V0.758978C11.859 0.876716 11.3911 1.07036 10.9617 1.33286L10.8004 1.17166C10.7008 1.07231 10.5659 1.01651 10.4253 1.01651C10.2846 1.01651 10.1497 1.07231 10.0502 1.17166L9.17166 2.05017C9.07231 2.14974 9.01651 2.28464 9.01651 2.42529C9.01651 2.56594 9.07231 2.70084 9.17166 2.80041L9.33286 2.96168C9.07032 3.39108 8.87668 3.85897 8.75898 4.34832H8.5305C8.38985 4.34848 8.25501 4.40442 8.15556 4.50387C8.0561 4.60332 8.00016 4.73816 8 4.87881V6.12119C8.00016 6.26184 8.0561 6.39668 8.15556 6.49613C8.25501 6.59558 8.38985 6.65153 8.5305 6.65169H8.75898C8.87672 7.14102 9.07036 7.6089 9.33286 8.03832L9.17166 8.19959C9.07231 8.29915 9.01651 8.43406 9.01651 8.57471C9.01651 8.71536 9.07231 8.85026 9.17166 8.94982L10.0501 9.8282C10.1511 9.92475 10.2855 9.97864 10.4252 9.97866C10.565 9.97869 10.6993 9.92485 10.8004 9.82834L10.9617 9.66714C11.3911 9.92966 11.859 10.1233 12.3483 10.241V10.4695C12.3485 10.6101 12.4044 10.745 12.5039 10.8444C12.6033 10.9439 12.7382 10.9998 12.8788 11H14.1212C14.2618 10.9998 14.3967 10.9439 14.4961 10.8444C14.5956 10.745 14.6515 10.6101 14.6517 10.4695V10.241C15.141 10.1233 15.6089 9.92966 16.0383 9.66714L16.1995 9.82821C16.3005 9.92477 16.4349 9.97867 16.5747 9.97868C16.7144 9.97869 16.8488 9.92482 16.9498 9.82827L17.8283 8.94983C17.9277 8.85026 17.9835 8.71536 17.9835 8.57471C17.9835 8.43406 17.9277 8.29916 17.8283 8.19959L17.6671 8.03832C17.9296 7.6089 18.1233 7.14102 18.241 6.65168H18.4695C18.6101 6.65152 18.745 6.59558 18.8444 6.49613C18.9439 6.39668 18.9998 6.26184 19 6.12119V4.87881C18.9998 4.73816 18.9439 4.60332 18.8444 4.50387C18.745 4.40442 18.6101 4.34847 18.4695 4.34831ZM16.0385 5.5C16.0385 6.00206 15.8896 6.49285 15.6107 6.91029C15.3317 7.32774 14.9353 7.6531 14.4714 7.84523C14.0076 8.03736 13.4972 8.08763 13.0048 7.98969C12.5124 7.89174 12.06 7.64997 11.705 7.29496C11.35 6.93995 11.1083 6.48764 11.0103 5.99523C10.9124 5.50282 10.9626 4.99242 11.1548 4.52857C11.3469 4.06473 11.6723 3.66828 12.0897 3.38935C12.5072 3.11042 12.9979 2.96154 13.5 2.96154C14.173 2.9623 14.8182 3.22998 15.2941 3.70587C15.77 4.18176 16.0377 4.82699 16.0385 5.5Z" fill="#00733C"/>
<path id="Vector_4" d="M6.55545 2.29163H6.50674C6.43858 2.0773 6.33907 1.87121 6.21059 1.67828L6.24484 1.64899C6.28614 1.61362 6.31891 1.57162 6.34127 1.52539C6.36363 1.47916 6.37514 1.42961 6.37515 1.37956C6.37515 1.32952 6.36366 1.27996 6.34131 1.23373C6.31896 1.1875 6.28621 1.14549 6.24491 1.11011L5.70487 0.647277C5.6202 0.577986 5.50764 0.539318 5.39058 0.539306C5.27351 0.539295 5.16094 0.577941 5.07625 0.647216L5.04193 0.676635C4.81684 0.566509 4.57641 0.481218 4.32636 0.42279V0.380981C4.32624 0.279982 4.27938 0.18315 4.19607 0.111728C4.11275 0.0403049 3.99979 0.000124076 3.88196 0L3.11804 0C3.00019 0.00011417 2.8872 0.0402982 2.80387 0.111734C2.72054 0.183171 2.67368 0.280024 2.67356 0.381043V0.422792C2.42351 0.481221 2.18308 0.566512 1.958 0.676637L1.92382 0.64728C1.83913 0.577988 1.72656 0.53932 1.60949 0.539309C1.49241 0.539297 1.37983 0.577943 1.29513 0.647219L0.755157 1.11011C0.713853 1.14547 0.681084 1.18747 0.658725 1.23369C0.636365 1.27992 0.624853 1.32946 0.624847 1.3795C0.62484 1.42954 0.636339 1.4791 0.658686 1.52532C0.681033 1.57155 0.713791 1.61355 0.755086 1.64893L0.789407 1.67834C0.660928 1.87128 0.561421 2.07736 0.493255 2.29169H0.444478C0.326646 2.2918 0.213675 2.33196 0.130349 2.40337C0.0470223 2.47478 0.000144756 2.57161 0 2.67261L0 3.32739C0.000133198 3.42841 0.0470145 3.52526 0.130357 3.59668C0.213699 3.66811 0.326695 3.70828 0.44455 3.70837H0.493258C0.561424 3.92268 0.660931 4.12875 0.78941 4.32166L0.755089 4.35108C0.671848 4.42258 0.625099 4.51947 0.625099 4.62048C0.625099 4.7215 0.671848 4.81839 0.755089 4.88989L1.29513 5.35272C1.37977 5.42207 1.49234 5.46078 1.60942 5.46079C1.72651 5.4608 1.83909 5.42211 1.92375 5.35279L1.95807 5.32337C2.18316 5.43349 2.42359 5.51878 2.67364 5.57721V5.61902C2.67376 5.72002 2.72062 5.81685 2.80394 5.88827C2.88725 5.95969 3.00021 5.99988 3.11804 6H3.88196C3.99981 5.99989 4.1128 5.9597 4.19613 5.88827C4.27946 5.81683 4.32632 5.71998 4.32644 5.61896V5.57721C4.57649 5.51878 4.81692 5.43349 5.042 5.32336L5.07618 5.35272C5.16084 5.42207 5.27342 5.46077 5.39051 5.46078C5.50761 5.46079 5.6202 5.42211 5.70487 5.35278L6.24484 4.88989C6.28614 4.85453 6.31891 4.81253 6.34127 4.76631C6.36363 4.72008 6.37514 4.67053 6.37515 4.62049C6.37516 4.57045 6.36366 4.5209 6.34131 4.47467C6.31896 4.42845 6.28621 4.38644 6.24491 4.35107L6.21059 4.32165C6.33907 4.12872 6.43858 3.92264 6.50674 3.70831H6.55552C6.67335 3.7082 6.78632 3.66804 6.86965 3.59663C6.95298 3.52522 6.99985 3.42839 7 3.32739V2.67261C6.99987 2.57159 6.95299 2.47474 6.86964 2.40332C6.7863 2.33189 6.6733 2.29172 6.55545 2.29163ZM3.5 2.125C3.7019 2.125 3.89927 2.17632 4.06714 2.27246C4.23502 2.36861 4.36586 2.50527 4.44313 2.66515C4.52039 2.82504 4.54061 3.00097 4.50122 3.1707C4.46183 3.34044 4.3646 3.49635 4.22184 3.61872C4.07907 3.74109 3.89718 3.82443 3.69915 3.85819C3.50113 3.89195 3.29588 3.87462 3.10934 3.80839C2.92281 3.74217 2.76338 3.63002 2.65121 3.48612C2.53904 3.34223 2.47917 3.17306 2.47917 3C2.47947 2.76802 2.58712 2.54561 2.7785 2.38157C2.96987 2.21753 3.22935 2.12526 3.5 2.125Z" fill="#5FB868"/>
</g>
</svg>
