<svg width="18" height="20" viewBox="0 0 18 20" fill="none" xmlns="http://www.w3.org/2000/svg">
<g id="Group">
<g id="Group_2">
<g id="Group_3">
<path id="Vector" d="M5.98347 13.3861C5.98431 13.0028 6.20369 12.7612 6.55131 12.7594C7.05644 12.7569 7.56156 12.7566 8.06669 12.7594C8.41741 12.7615 8.63481 13 8.6351 13.3849C8.6365 15.2776 8.6365 17.1702 8.6351 19.0629C8.63481 19.4548 8.41431 19.6896 8.05122 19.6906C7.56269 19.6921 7.07416 19.6918 6.58591 19.6906C6.19272 19.6896 5.98347 19.4597 5.98319 19.0278C5.98235 18.0996 5.98291 17.1712 5.98291 16.243C5.98291 15.2907 5.9815 14.3384 5.98347 13.3861Z" fill="white"/>
</g>
<g id="Group_4">
<path id="Vector_2" d="M10.3712 10.5035C10.372 10.1202 10.5914 9.87866 10.939 9.87683C11.4441 9.87438 11.9492 9.87408 12.4544 9.87683C12.8051 9.87896 13.0225 10.1175 13.0228 10.5023C13.0242 12.395 13.0574 17.1703 13.0562 19.0629C13.056 19.4548 12.8355 19.6897 12.4724 19.6906C11.9838 19.6921 11.4953 19.6918 11.0071 19.6906C10.6139 19.6897 10.4046 19.4597 10.4043 19.0278C10.4035 18.0996 10.4041 17.1712 10.4041 16.243C10.4041 15.2907 10.3695 11.4558 10.3712 10.5035Z" fill="white"/>
</g>
<g id="Group_5">
<path id="Vector_3" d="M14.7589 7.57517C14.7597 7.19187 14.9791 6.95028 15.3267 6.94845C15.8318 6.94601 16.337 6.9457 16.8421 6.94845C17.1928 6.95059 17.4102 7.18912 17.4105 7.57395C17.4119 9.46664 17.4451 17.1699 17.444 19.0626C17.4437 19.4545 17.2232 19.6893 16.8601 19.6903C16.3716 19.6918 15.883 19.6915 15.3948 19.6903C15.0016 19.6893 14.7923 19.4594 14.7921 19.0275C14.7912 18.0993 14.7918 17.1709 14.7918 16.2427C14.7915 15.2907 14.7569 8.52778 14.7589 7.57517Z" fill="white"/>
</g>
<g id="Group_6">
<path id="Vector_4" d="M1.56105 17.6626C1.56105 17.2045 1.55992 16.7463 1.56161 16.2882C1.56302 15.8933 1.77873 15.6548 2.13845 15.6529C2.63795 15.6505 3.13745 15.6508 3.63695 15.6529C3.99808 15.6545 4.21295 15.8909 4.21352 16.2876C4.21492 17.2097 4.2152 18.132 4.21352 19.0541C4.21267 19.4576 3.99611 19.6894 3.62064 19.6906C3.13211 19.6924 2.64386 19.6924 2.15533 19.6906C1.77339 19.6891 1.56217 19.4563 1.56105 19.0367C1.55992 18.5789 1.56105 18.1207 1.56105 17.6626Z" fill="white"/>
</g>
<g id="Group_7">
<path id="Vector_5" d="M13.7092 2.95753L13.6343 7.62496C13.6332 7.69734 13.6149 7.76179 13.584 7.81615C13.584 7.81615 13.5834 7.81646 13.5837 7.81707C13.5848 7.84181 13.5863 7.86716 13.5877 7.89251C13.5753 7.88304 13.5632 7.87388 13.5508 7.86441C13.4304 8.01529 13.204 8.05102 13.0488 7.89098L12.29 6.906C12.2135 6.84858 12.1378 6.79055 12.0619 6.73283C10.5201 10.3408 3.28126 13.2166 0.661974 12.1177C0.476912 12.0401 0.55088 11.7243 0.750005 11.7246C5.66485 11.7307 9.54104 7.83203 10.4706 5.64798L9.16079 5.34072C8.87475 5.23535 8.84044 4.81143 9.10538 4.65383L9.24713 4.56923L11.1723 3.42299L12.8741 2.41022C13.2533 2.18421 13.7168 2.4878 13.7092 2.95753Z" fill="#5FB868"/>
</g>
<path id="Vector_6" d="M3.57818 8.93918C3.69602 8.91291 3.79277 8.89062 3.88277 8.85947C4.6278 8.60475 5.05165 8.09805 5.14277 7.35313C5.25246 6.46864 4.99061 5.7903 4.38593 5.39173C4.16965 5.24757 3.93593 5.12998 3.7098 5.01637L3.6558 4.98949C3.55033 4.93757 3.44627 4.88595 3.34052 4.8264C3.27021 4.79219 3.19371 4.75493 3.11552 4.71247L3.05168 4.6801C2.86324 4.58481 2.68971 4.49715 2.52405 4.3759C2.24702 4.18746 2.14802 3.76934 2.28021 3.33656C2.34855 3.11055 2.49283 2.84972 3.0064 2.83933C3.3948 2.83933 3.65861 3.03266 3.77111 3.39856C3.80711 3.5192 3.8268 3.64747 3.84227 3.7675L3.86899 3.91533L5.12955 3.90617C5.16921 3.53019 5.07752 3.07023 4.89583 2.73274C4.62527 2.2343 4.20283 1.92918 3.56665 1.77342L3.43558 1.74074V0.729797H2.70827V1.70042L2.4079 1.79785C2.19696 1.86718 2.0178 1.92582 1.8499 2.0147C1.30961 2.30882 0.95552 2.89003 0.90377 3.56929C0.85427 4.23052 1.11358 4.85052 1.59818 5.22741C1.8499 5.42532 2.13677 5.56734 2.40874 5.69562L2.51786 5.75182C2.60168 5.79427 2.6869 5.83795 2.76874 5.88162C2.8534 5.92499 2.94058 5.96958 3.02524 6.01142C3.21902 6.1058 3.37905 6.18979 3.52811 6.2918C3.81949 6.49735 3.93368 6.91608 3.8133 7.3345C3.75705 7.52906 3.58718 7.85769 3.08121 7.87113L2.93524 7.87418C2.89446 7.87418 2.85508 7.87296 2.81936 7.87082C2.35868 7.82989 2.05436 7.50829 2.0043 7.01076C1.9984 6.97686 1.99165 6.92982 1.98518 6.88279L1.96802 6.75848H0.716177L0.71477 6.77253C0.61127 7.90014 1.19683 8.61788 2.50521 8.96545L2.63346 8.99965V9.91316H3.36302V8.95201H3.53121L3.57818 8.93918Z" fill="white"/>
</g>
</g>
</svg>
