<svg width="18" height="20" viewBox="0 0 18 20" fill="none" xmlns="http://www.w3.org/2000/svg">
<g id="Group">
<g id="Group_2">
<g id="Group_3">
<path id="Vector" d="M5.98298 13.3861C5.98383 13.0028 6.2032 12.7612 6.55083 12.7594C7.05595 12.7569 7.56108 12.7566 8.0662 12.7594C8.41692 12.7615 8.63433 13 8.63461 13.3849C8.63601 15.2776 8.63601 17.1702 8.63461 19.0629C8.63433 19.4548 8.41383 19.6896 8.05073 19.6906C7.5622 19.6921 7.07367 19.6918 6.58542 19.6906C6.19223 19.6896 5.98298 19.4597 5.9827 19.0278C5.98186 18.0996 5.98242 17.1712 5.98242 16.243C5.98242 15.2907 5.98101 14.3384 5.98298 13.3861Z" fill="#00733C"/>
</g>
<g id="Group_4">
<path id="Vector_2" d="M10.3707 10.5035C10.3715 10.1202 10.5909 9.87866 10.9385 9.87683C11.4436 9.87438 11.9488 9.87408 12.4539 9.87683C12.8046 9.87896 13.022 10.1175 13.0223 10.5023C13.0237 12.395 13.0569 17.1703 13.0558 19.0629C13.0555 19.4548 12.835 19.6897 12.4719 19.6906C11.9834 19.6921 11.4948 19.6918 11.0066 19.6906C10.6134 19.6897 10.4041 19.4597 10.4039 19.0278C10.403 18.0996 10.4036 17.1712 10.4036 16.243C10.4036 15.2907 10.369 11.4558 10.3707 10.5035Z" fill="#00733C"/>
</g>
<g id="Group_5">
<path id="Vector_3" d="M14.7594 7.57517C14.7602 7.19187 14.9796 6.95028 15.3272 6.94845C15.8323 6.94601 16.3375 6.9457 16.8426 6.94845C17.1933 6.95059 17.4107 7.18912 17.411 7.57395C17.4124 9.46664 17.4456 17.1699 17.4445 19.0626C17.4442 19.4545 17.2237 19.6893 16.8606 19.6903C16.372 19.6918 15.8835 19.6915 15.3953 19.6903C15.0021 19.6893 14.7928 19.4594 14.7925 19.0275C14.7917 18.0993 14.7923 17.1709 14.7923 16.2427C14.792 15.2907 14.7574 8.52778 14.7594 7.57517Z" fill="#00733C"/>
</g>
<g id="Group_6">
<path id="Vector_4" d="M1.56154 17.6626C1.56154 17.2045 1.56041 16.7463 1.5621 16.2882C1.5635 15.8933 1.77922 15.6548 2.13894 15.6529C2.63844 15.6505 3.13794 15.6508 3.63744 15.6529C3.99857 15.6545 4.21344 15.8909 4.214 16.2876C4.21541 17.2097 4.21569 18.132 4.214 19.0541C4.21316 19.4576 3.9966 19.6894 3.62113 19.6906C3.1326 19.6924 2.64435 19.6924 2.15582 19.6906C1.77388 19.6891 1.56266 19.4563 1.56154 19.0367C1.56041 18.5789 1.56154 18.1207 1.56154 17.6626Z" fill="#00733C"/>
</g>
<g id="Group_7">
<path id="Vector_5" d="M13.7092 2.95753L13.6343 7.62496C13.6332 7.69734 13.6149 7.76179 13.584 7.81615C13.584 7.81615 13.5834 7.81646 13.5837 7.81707C13.5848 7.84181 13.5863 7.86716 13.5877 7.89251C13.5753 7.88304 13.5632 7.87388 13.5508 7.86441C13.4304 8.01529 13.204 8.05102 13.0488 7.89098L12.29 6.906C12.2135 6.84858 12.1378 6.79055 12.0619 6.73283C10.5201 10.3408 3.28126 13.2166 0.661974 12.1177C0.476912 12.0401 0.55088 11.7243 0.750005 11.7246C5.66485 11.7307 9.54104 7.83203 10.4706 5.64798L9.16079 5.34072C8.87475 5.23535 8.84044 4.81143 9.10538 4.65383L9.24713 4.56923L11.1723 3.42299L12.8741 2.41022C13.2533 2.18421 13.7168 2.4878 13.7092 2.95753Z" fill="#5FB868"/>
</g>
<path id="Vector_6" d="M3.57769 8.93918C3.69553 8.91291 3.79228 8.89062 3.88228 8.85947C4.62731 8.60475 5.05116 8.09805 5.14228 7.35313C5.25197 6.46864 4.99013 5.7903 4.38544 5.39173C4.16916 5.24757 3.93544 5.12998 3.70931 5.01637L3.65531 4.98949C3.54984 4.93757 3.44578 4.88595 3.34003 4.8264C3.26972 4.79219 3.19322 4.75493 3.11503 4.71247L3.05119 4.6801C2.86275 4.58481 2.68922 4.49715 2.52356 4.3759C2.24653 4.18746 2.14753 3.76934 2.27972 3.33656C2.34806 3.11055 2.49234 2.84972 3.00591 2.83933C3.39431 2.83933 3.65813 3.03266 3.77063 3.39856C3.80663 3.5192 3.82631 3.64747 3.84178 3.7675L3.8685 3.91533L5.12906 3.90617C5.16872 3.53019 5.07703 3.07023 4.89534 2.73274C4.62478 2.2343 4.20234 1.92918 3.56616 1.77342L3.43509 1.74074V0.729797H2.70778V1.70042L2.40741 1.79785C2.19647 1.86718 2.01731 1.92582 1.84941 2.0147C1.30913 2.30882 0.955032 2.89003 0.903282 3.56929C0.853782 4.23052 1.11309 4.85052 1.59769 5.22741C1.84941 5.42532 2.13628 5.56734 2.40825 5.69562L2.51738 5.75182C2.60119 5.79427 2.68641 5.83795 2.76825 5.88162C2.85291 5.92499 2.94009 5.96958 3.02475 6.01142C3.21853 6.1058 3.37856 6.18979 3.52763 6.2918C3.819 6.49735 3.93319 6.91608 3.81281 7.3345C3.75656 7.52906 3.58669 7.85769 3.08072 7.87113L2.93475 7.87418C2.89397 7.87418 2.85459 7.87296 2.81888 7.87082C2.35819 7.82989 2.05388 7.50829 2.00381 7.01076C1.99791 6.97686 1.99116 6.92982 1.98469 6.88279L1.96753 6.75848H0.715688L0.714282 6.77253C0.610782 7.90014 1.19634 8.61788 2.50472 8.96545L2.63297 8.99965V9.91316H3.36253V8.95201H3.53072L3.57769 8.93918Z" fill="#00733C"/>
</g>
</g>
</svg>
