<svg width="18" height="21" viewBox="0 0 18 21" fill="none" xmlns="http://www.w3.org/2000/svg">
<g id="Group 471">
<path id="Vector" d="M10.5299 14.6203L13.202 11.7186H5.92059C5.14422 11.7186 4.51514 11.0355 4.51514 10.1924C4.51514 9.34929 5.14422 8.66615 5.92059 8.66615H13.2014L10.5294 5.76447C9.98067 5.16862 9.98067 4.20221 10.5294 3.60576C11.0781 3.00991 11.968 3.00991 12.5172 3.60576L17.5887 9.11303C18.1374 9.70887 18.1374 10.6753 17.5887 11.2717L12.5172 16.779C11.9686 17.3749 11.0786 17.3749 10.5294 16.779C9.98067 16.1832 9.98067 15.2168 10.5294 14.6203H10.5299Z" fill="#CD001A"/>
<path id="Vector_2" d="M8.15164 1.6455C8.15164 0.802406 7.52256 0.119263 6.74619 0.119263H2.81091C1.25873 0.119263 0 1.48616 0 3.17174V17.2131C0 18.8987 1.25873 20.2656 2.81091 20.2656H6.74619C7.52256 20.2656 8.15164 19.5825 8.15164 18.7394C8.15164 17.8963 7.52256 17.2131 6.74619 17.2131H3.51364C3.12573 17.2131 2.81091 16.8712 2.81091 16.45V3.93486C2.81091 3.51361 3.12573 3.17174 3.51364 3.17174H6.74619C7.52256 3.17174 8.15164 2.48859 8.15164 1.6455Z" fill="#CD001A"/>
</g>
</svg>
