<svg width="18" height="20" viewBox="0 0 18 20" fill="none" xmlns="http://www.w3.org/2000/svg">
<g id="Group 688">
<path id="Vector" d="M10.8974 13.3621V14.1404C10.8974 14.7847 10.3742 15.3079 9.72981 15.3079H5.05956C4.41521 15.3079 3.892 14.7847 3.892 14.1404V13.3621C3.892 12.7178 4.41521 12.1945 5.05956 12.1945H9.72981C10.3742 12.1945 10.8974 12.7178 10.8974 13.3621ZM6.61607 8.30255H5.05919C4.41375 8.30255 3.89163 8.82467 3.89163 9.47011C3.89163 10.1156 4.41375 10.6377 5.05919 10.6377H6.61607C7.26151 10.6377 7.78363 10.1156 7.78363 9.47011C7.78363 8.82467 7.26151 8.30255 6.61607 8.30255ZM6.61607 4.41092H5.05919C4.41375 4.41092 3.89163 4.93304 3.89163 5.57848C3.89163 6.22392 4.41375 6.74604 5.05919 6.74604H6.61607C7.26151 6.74604 7.78363 6.22392 7.78363 5.57848C7.78363 4.93304 7.26151 4.41092 6.61607 4.41092ZM9.72981 16.8648H4.28094C3.20824 16.8648 2.33512 15.9913 2.33512 14.919V4.79986C2.33512 3.72716 3.20861 2.85405 4.28094 2.85405H8.56188V5.96742C8.56188 6.82741 9.2584 7.52429 10.1188 7.52429C10.1188 7.52429 14.4986 7.53269 14.5486 7.52429C15.1838 7.41921 15.6143 6.80114 15.5081 6.16518C15.3618 5.27856 14.9477 4.4755 14.3125 3.841L12.2452 1.77296C11.449 0.97573 10.3453 0.518921 9.21827 0.518921H4.28094C1.92028 0.518921 0 2.4392 0 4.79986V14.9186C0 17.2793 1.92028 19.1996 4.28094 19.1996H9.72944C10.3738 19.1996 10.897 18.6774 10.897 18.032C10.897 17.3865 10.3738 16.8644 9.72944 16.8644L9.72981 16.8648Z" fill="white"/>
<path id="Vector_2" d="M17.9988 15.4713C17.9988 14.3224 17.3099 13.3052 16.2434 12.8786L14.3939 12.1391C14.2188 12.069 14.1068 11.9023 14.1068 11.7147C14.1068 11.4626 14.3122 11.2579 14.5636 11.2579H15.4827C15.6235 11.2579 15.7497 11.3312 15.8205 11.4531C16.1434 12.0114 16.8582 12.2011 17.4161 11.8789C17.9743 11.556 18.1648 10.8412 17.8426 10.2841C17.4449 9.59669 16.7677 9.12273 16.0033 8.97313C15.8577 8.4937 15.4126 8.14417 14.8857 8.14417C14.3589 8.14417 13.8707 8.528 13.7492 9.04392C12.6057 9.39346 11.772 10.4581 11.772 11.7144C11.772 12.8633 12.4609 13.8805 13.5274 14.3071L15.3769 15.0466C15.552 15.1167 15.664 15.2834 15.664 15.471C15.664 15.7231 15.4586 15.9278 15.2072 15.9278H14.2881C14.1473 15.9278 14.021 15.8545 13.9502 15.7333C13.6266 15.1751 12.9118 14.9846 12.3547 15.3075C11.7964 15.6304 11.606 16.3452 11.9282 16.9023C12.3259 17.5897 13.0031 18.063 13.7674 18.2122C13.9123 18.6916 14.3582 19.0412 14.885 19.0412C15.4119 19.0412 15.9001 18.6573 16.0216 18.1414C17.165 17.7919 17.9988 16.7272 17.9988 15.471V15.4713Z" fill="#5FB868"/>
</g>
</svg>
