<svg width="17" height="19" viewBox="0 0 17 19" fill="none" xmlns="http://www.w3.org/2000/svg">
<g id="Group">
<path id="Vector" d="M6.55208 0.171875H1.23958C0.556042 0.171875 0 0.775702 0 1.51799V4.97941C0 5.72169 0.556042 6.32552 1.23958 6.32552H6.55208C7.23563 6.32552 7.79167 5.72169 7.79167 4.97941V1.51799C7.79167 0.775702 7.23563 0.171875 6.55208 0.171875Z" fill="#5FB868"/>
<path id="Vector_2" d="M6.55208 7.86394H1.23958C0.556042 7.86394 0 8.46776 0 9.21005V17.2867C0 18.029 0.556042 18.6328 1.23958 18.6328H6.55208C7.23563 18.6328 7.79167 18.029 7.79167 17.2867V9.21005C7.79167 8.46776 7.23563 7.86394 6.55208 7.86394Z" fill="#00733C"/>
<path id="Vector_3" d="M15.7606 12.4792H10.4481C9.76454 12.4792 9.2085 13.083 9.2085 13.8253V17.2867C9.2085 18.029 9.76454 18.6328 10.4481 18.6328H15.7606C16.4441 18.6328 17.0002 18.029 17.0002 17.2867V13.8253C17.0002 13.083 16.4441 12.4792 15.7606 12.4792Z" fill="#5FB868"/>
<path id="Vector_4" d="M15.7606 0.171875H10.4481C9.76454 0.171875 9.2085 0.775702 9.2085 1.51799V9.59465C9.2085 10.3369 9.76454 10.9408 10.4481 10.9408H15.7606C16.4441 10.9408 17.0002 10.3369 17.0002 9.59465V1.51799C17.0002 0.775702 16.4441 0.171875 15.7606 0.171875Z" fill="#00733C"/>
</g>
</svg>
