<svg width="18" height="18" viewBox="0 0 18 18" fill="none" xmlns="http://www.w3.org/2000/svg">
<g id="Group 708">
<path id="Vector" d="M13.5 18C11.0182 18 9 15.9818 9 13.5C9 11.0182 11.0182 9 13.5 9C14.9513 9 16.3147 9.70275 17.1465 10.8802C17.3257 11.1337 17.2657 11.4848 17.0115 11.664C16.7587 11.844 16.4077 11.7825 16.2277 11.5298C15.6067 10.65 14.586 10.125 13.5 10.125C11.6393 10.125 10.125 11.6393 10.125 13.5C10.125 15.3608 11.6393 16.875 13.5 16.875C15.3608 16.875 16.875 15.3608 16.875 13.5C16.875 13.1895 17.127 12.9375 17.4375 12.9375C17.748 12.9375 18 13.1895 18 13.5C18 15.9818 15.9818 18 13.5 18Z" fill="#5FB868"/>
<path id="Vector_2" d="M16.6875 12H14.8125C14.502 12 14.25 11.748 14.25 11.4375C14.25 11.127 14.502 10.875 14.8125 10.875H16.125V9.5625C16.125 9.252 16.377 9 16.6875 9C16.998 9 17.25 9.252 17.25 9.5625V11.4375C17.25 11.748 16.998 12 16.6875 12Z" fill="#5FB868"/>
<path id="Vector_3" d="M6.9375 15.75H1.3125C0.58875 15.75 0 15.1613 0 14.4375V1.3125C0 0.58875 0.58875 0 1.3125 0H14.4375C15.1613 0 15.75 0.58875 15.75 1.3125V6.9375C15.75 7.248 15.498 7.5 15.1875 7.5C14.877 7.5 14.625 7.248 14.625 6.9375V1.3125C14.625 1.209 14.541 1.125 14.4375 1.125H1.3125C1.209 1.125 1.125 1.209 1.125 1.3125V14.4375C1.125 14.541 1.209 14.625 1.3125 14.625H6.9375C7.248 14.625 7.5 14.877 7.5 15.1875C7.5 15.498 7.248 15.75 6.9375 15.75Z" fill="#00733C"/>
<g id="Union">
<path d="M10.6875 6.75C10.5472 6.75 10.41 6.69825 10.3035 6.5985L7.875 4.332L5.4465 6.5985C5.283 6.75075 5.043 6.792 4.83825 6.7035C4.63275 6.61425 4.5 6.41175 4.5 6.1875V0.5625C4.5 0.252 4.752 0 5.0625 0H10.6875C10.998 0 11.25 0.252 11.25 0.5625V6.1875C11.25 6.41175 11.1172 6.61425 10.9117 6.7035C10.8397 6.73425 10.7632 6.75 10.6875 6.75ZM7.875 3C8.013 3 8.15025 3.05025 8.259 3.1515L10.125 4.893V1.125H5.625V4.893L7.491 3.1515C7.59975 3.05025 7.737 3 7.875 3Z" fill="#5FB868"/>
<path d="M8.03571 3.85714L5.46429 6.10714H5.14286V0.642857H10.9286V5.46429C10.9286 5.72143 10.5 6 10.2857 6.10714L8.03571 3.85714Z" fill="#5FB868"/>
</g>
</g>
</svg>
