<svg width="19" height="20" viewBox="0 0 19 20" fill="none" xmlns="http://www.w3.org/2000/svg">
<g id="Group 474">
<path id="Vector" d="M19 8.38974V19.4376H15.8333V10.7305C15.8333 9.41893 14.77 8.35578 13.4583 8.35578H5.54172C4.23001 8.35578 3.16672 9.41893 3.16672 10.7305V19.4376H8.25688e-06V8.38974C-0.00192149 7.65885 0.334497 6.96835 0.911233 6.5193L8.03623 0.945025C8.89523 0.268162 10.1063 0.268162 10.9655 0.945025L18.0905 6.51994C18.6667 6.96887 19.0026 7.65924 19.0001 8.38961L19 8.38974Z" fill="#00733C"/>
<path id="Vector_2" d="M14.25 10.7291V19.4362H4.75V10.7291C4.75 10.2919 5.10443 9.93747 5.54171 9.93747H13.4584C13.8957 9.93747 14.2501 10.2919 14.2501 10.7291H14.25ZM11.0833 16.2699H7.91658V17.853H11.0833V16.2699Z" fill="#5FB868"/>
</g>
</svg>
