<svg width="15" height="17" viewBox="0 0 15 17" fill="none" xmlns="http://www.w3.org/2000/svg">
<g id="Group 608">
<path id="Vector" d="M10.2273 9.41461C9.90973 9.83801 9.49796 10.1817 9.02459 10.4183C8.55122 10.655 8.02924 10.7782 7.5 10.7782C6.97076 10.7782 6.44878 10.655 5.97541 10.4183C5.50204 10.1817 5.09027 9.83801 4.77273 9.41461C4.50548 9.77486 4.16917 10.0783 3.78343 10.3072C3.39769 10.5361 2.97023 10.686 2.52598 10.748C2.08173 10.81 1.62958 10.7829 1.19589 10.6684C0.762213 10.5538 0.355679 10.3541 0 10.0807V13.5055C0.00108263 14.4093 0.360601 15.2758 0.999695 15.9149C1.63879 16.554 2.50528 16.9135 3.40909 16.9146H11.5909C12.4947 16.9135 13.3612 16.554 14.0003 15.9149C14.6394 15.2758 14.9989 14.4093 15 13.5055V10.0787C14.6444 10.3521 14.238 10.552 13.8044 10.6667C13.3708 10.7814 12.9187 10.8087 12.4745 10.7469C12.0302 10.6851 11.6027 10.5354 11.2169 10.3067C10.8311 10.078 10.4947 9.77471 10.2273 9.41461Z" fill="#00733C"/>
<path id="Vector_2" d="M14.1136 2.60841C13.9817 1.99461 13.6449 1.44531 13.1598 1.05258C12.6747 0.659842 12.0707 0.447549 11.4491 0.451281H10.9091V2.51816C10.9091 2.70088 10.8373 2.87612 10.7094 3.00533C10.5815 3.13453 10.4081 3.20712 10.2273 3.20712C10.0464 3.20712 9.87302 3.13453 9.74515 3.00533C9.61729 2.87612 9.54545 2.70088 9.54545 2.51816V0.451281H5.45455V2.51816C5.45455 2.70088 5.38271 2.87612 5.25485 3.00533C5.12698 3.13453 4.95356 3.20712 4.77273 3.20712C4.5919 3.20712 4.41847 3.13453 4.29061 3.00533C4.16274 2.87612 4.09091 2.70088 4.09091 2.51816V0.451281H3.55091C2.92922 0.447583 2.32517 0.659974 1.84004 1.05284C1.35491 1.44571 1.0182 1.99517 0.886364 2.6091L0.015 6.58301L0 7.35465C0.000895376 7.62608 0.0546892 7.89466 0.15831 8.14508C0.261931 8.3955 0.41335 8.62285 0.603921 8.81413C0.988797 9.20046 1.50978 9.41646 2.05227 9.41464C2.32089 9.41373 2.58669 9.35937 2.83452 9.25467C3.08234 9.14996 3.30733 8.99696 3.49663 8.80439C3.68594 8.61182 3.83585 8.38346 3.93782 8.13235C4.03978 7.88124 4.0918 7.6123 4.09091 7.34087C4.09091 7.15815 4.16274 6.98291 4.29061 6.8537C4.41847 6.7245 4.5919 6.65191 4.77273 6.65191C4.95356 6.65191 5.12698 6.7245 5.25485 6.8537C5.38271 6.98291 5.45455 7.15815 5.45455 7.34087C5.45455 7.88904 5.67005 8.41476 6.05365 8.80237C6.43724 9.18999 6.95751 9.40775 7.5 9.40775C8.04249 9.40775 8.56276 9.18999 8.94635 8.80237C9.32995 8.41476 9.54545 7.88904 9.54545 7.34087C9.54545 7.15815 9.61729 6.98291 9.74515 6.8537C9.87302 6.7245 10.0464 6.65191 10.2273 6.65191C10.4081 6.65191 10.5815 6.7245 10.7094 6.8537C10.8373 6.98291 10.9091 7.15815 10.9091 7.34087C10.9091 7.88904 11.1246 8.41476 11.5082 8.80237C11.8918 9.18999 12.4121 9.40775 12.9545 9.40775C13.497 9.40775 14.0173 9.18999 14.4009 8.80237C14.7845 8.41476 15 7.88904 15 7.34087V6.72563L14.1136 2.60841Z" fill="#5FB868"/>
</g>
</svg>
