<svg width="19" height="18" viewBox="0 0 19 18" fill="none" xmlns="http://www.w3.org/2000/svg">
<g id="Group 688">
<path id="Vector" d="M16.5062 12.422H16.4035L15.2792 9.678C15.4698 9.76542 15.6752 9.81196 15.8834 9.81487C15.966 9.81487 16.0452 9.78054 16.1036 9.71942C16.162 9.65831 16.1948 9.57541 16.1948 9.48898V6.88181C16.1948 6.79538 16.162 6.71249 16.1036 6.65137C16.0452 6.59025 15.966 6.55592 15.8834 6.55592C15.559 6.55776 15.2433 6.66552 14.9804 6.86416C14.7174 7.06281 14.5203 7.34242 14.4165 7.66396C14.3248 7.53007 14.2079 7.41731 14.0729 7.33266C13.9379 7.24801 13.7877 7.19328 13.6317 7.17186C13.4338 7.14512 13.233 7.15839 13.0399 7.21097H12.769C12.2426 7.21097 12.0091 6.88507 11.6416 6.35386L11.4578 6.08337C11.6463 6.07331 11.8289 6.01149 11.9873 5.90412C12.1074 5.81285 12.2092 5.69762 12.2867 5.56508C12.3642 5.43253 12.4159 5.28527 12.4388 5.13175C12.5401 5.07073 12.6286 4.98911 12.6992 4.89173C12.7698 4.79433 12.8211 4.68314 12.8499 4.56469C12.8631 4.47127 12.8544 4.3759 12.8246 4.28678C12.7947 4.19765 12.7446 4.11744 12.6787 4.05304C12.5515 3.82521 12.4818 3.56726 12.4762 3.30347C12.5566 3.29844 12.632 3.261 12.6866 3.19901C12.7412 3.13703 12.7707 3.05533 12.769 2.97106C12.769 2.62565 12.7034 2.28367 12.5761 1.96499C12.4487 1.64632 12.2622 1.3573 12.0272 1.11472C11.7922 0.872152 11.5134 0.680863 11.2072 0.551968C10.9009 0.423074 10.5733 0.359144 10.2432 0.363894C9.5955 0.377237 8.97787 0.652426 8.51978 1.13178C8.06169 1.61113 7.79871 2.25744 7.78596 2.93521C7.78013 3.28076 7.84052 3.62402 7.96355 3.94475C8.08657 4.26547 8.26975 4.55716 8.50227 4.8026C8.57118 4.87426 8.64396 4.94173 8.72027 5.00465C7.51812 5.31099 6.8859 6.49074 6.56201 7.51405C6.46984 7.41687 6.36019 7.33976 6.23938 7.28718C6.11857 7.2346 5.989 7.20759 5.85816 7.20771H2.55068C2.38459 7.20742 2.22109 7.25084 2.07524 7.33399C1.92939 7.41714 1.80586 7.53733 1.71603 7.68352C1.67101 7.75612 1.6554 7.84446 1.67263 7.92911C1.68986 8.01376 1.73852 8.08778 1.8079 8.13488C1.87728 8.18199 1.96171 8.19832 2.0426 8.18029C2.12349 8.16226 2.19423 8.11135 2.23924 8.03874C2.2728 7.98435 2.31894 7.9397 2.37338 7.90893C2.42782 7.87817 2.48881 7.86229 2.55068 7.86276H3.11438V8.84045C3.11438 8.92688 3.1472 9.00977 3.2056 9.07089C3.26401 9.13201 3.34322 9.16634 3.42582 9.16634H4.98301C5.06561 9.16634 5.14483 9.13201 5.20323 9.07089C5.26164 9.00977 5.29445 8.92688 5.29445 8.84045V7.8595H5.85816C5.90682 7.8595 5.95502 7.86953 5.99998 7.88902C6.04495 7.90851 6.0858 7.93708 6.12022 7.97309C6.15463 8.0091 6.18193 8.05185 6.20056 8.0989C6.21918 8.14596 6.22877 8.19639 6.22877 8.24732V10.7339C6.22795 10.8362 6.18854 10.934 6.11912 11.006C6.04971 11.078 5.95591 11.1185 5.85816 11.1185H2.55068C2.46149 11.121 2.37449 11.0893 2.30618 11.0292C2.23787 10.9692 2.193 10.8849 2.18007 10.7926H2.80295C2.88554 10.7926 2.96476 10.7582 3.02317 10.6971C3.08157 10.636 3.11438 10.5531 3.11438 10.4667C3.11438 10.3802 3.08157 10.2973 3.02317 10.2362C2.96476 10.1751 2.88554 10.1408 2.80295 10.1408H2.18007V9.48898H2.49151C2.57411 9.48898 2.65332 9.45464 2.71173 9.39353C2.77013 9.33241 2.80295 9.24952 2.80295 9.16308C2.80295 9.07665 2.77013 8.99376 2.71173 8.93264C2.65332 8.87152 2.57411 8.83719 2.49151 8.83719H0.934315C0.851716 8.83719 0.772501 8.87152 0.714095 8.93264C0.655689 8.99376 0.622877 9.07665 0.622877 9.16308C0.622877 9.24952 0.655689 9.33241 0.714095 9.39353C0.772501 9.45464 0.851716 9.48898 0.934315 9.48898H1.55719V10.1408H0.311438C0.22884 10.1408 0.149624 10.1751 0.0912182 10.2362C0.0328121 10.2973 0 10.3802 0 10.4667C0 10.5531 0.0328121 10.636 0.0912182 10.6971C0.149624 10.7582 0.22884 10.7926 0.311438 10.7926H1.55719C1.57149 11.0566 1.6817 11.3049 1.86523 11.4866C2.04877 11.6684 2.29176 11.7698 2.54445 11.7702H4.10164C3.95753 11.9181 3.83477 12.0872 3.73726 12.2721C3.32136 13.1256 3.10773 14.0712 3.11438 15.0292C3.11438 15.1156 3.1472 15.1985 3.2056 15.2597C3.26401 15.3208 3.34322 15.3551 3.42582 15.3551H4.38194C4.46164 15.9814 4.756 16.5562 5.21027 16.9724C5.66454 17.3887 6.24782 17.6181 6.85164 17.6181C7.45547 17.6181 8.03874 17.3887 8.49302 16.9724C8.94729 16.5562 9.24165 15.9814 9.32135 15.3551H14.0365C14.0965 15.853 14.2925 16.3222 14.601 16.7064C14.9095 17.0907 15.3175 17.3735 15.7758 17.5211C16.2342 17.6687 16.7235 17.6747 17.1851 17.5384C17.6467 17.4021 18.0608 17.1293 18.3779 16.7528C18.6949 16.3763 18.9014 15.912 18.9725 15.4157C19.0436 14.9194 18.9763 14.4122 18.7786 13.9549C18.581 13.4976 18.2615 13.1098 17.8584 12.8379C17.4553 12.566 16.9858 12.4216 16.5062 12.422ZM4.67158 8.51129H3.73726V7.8595H4.67158V8.51129ZM15.5719 7.26311V9.10768C15.3894 9.0405 15.2313 8.91569 15.1195 8.75049C15.0077 8.58529 14.9477 8.38784 14.9477 8.1854C14.9477 7.98295 15.0077 7.7855 15.1195 7.6203C15.2313 7.4551 15.3894 7.33029 15.5719 7.26311ZM13.5413 7.81387C13.6634 7.833 13.7769 7.89119 13.8661 7.98047C13.9553 8.06974 14.0159 8.18572 14.0396 8.31249L14.1206 8.51129C13.687 8.74454 13.2032 8.85679 12.716 8.83719C12.6731 8.64359 12.6956 8.44042 12.7796 8.2622C12.8636 8.08398 13.004 7.94168 13.177 7.8595C13.2944 7.81964 13.4184 7.80522 13.5413 7.81713V7.81387ZM12.0059 4.63313C11.9541 4.66046 11.9106 4.7024 11.8803 4.75423C11.8501 4.80606 11.8343 4.8657 11.8347 4.92644C11.8324 5.00848 11.8137 5.08912 11.7799 5.16319C11.7461 5.23726 11.698 5.30314 11.6385 5.35662C11.4609 5.48046 11.1308 5.45113 10.7041 5.27514C10.6814 5.27251 10.6584 5.27251 10.6356 5.27514L10.5889 5.23278V3.9846C10.5889 3.80222 10.6581 3.62732 10.7814 3.49836C10.9046 3.3694 11.0718 3.29696 11.246 3.29696H11.8347C11.8445 3.71882 11.971 4.12864 12.199 4.4767C12.1427 4.53977 12.0776 4.5936 12.0059 4.63639V4.63313ZM8.40884 2.94173C8.42441 2.43608 8.62333 1.9556 8.96519 1.59787C9.30705 1.24014 9.76622 1.03198 10.2494 1.01569H10.2775C10.7193 1.01538 11.1469 1.1789 11.4844 1.47721C11.8219 1.77551 12.0475 2.18932 12.1212 2.64516H11.246C10.9068 2.64603 10.5817 2.78742 10.3418 3.03843C10.102 3.28943 9.96685 3.62962 9.96603 3.9846V4.90036C9.52614 4.82261 9.12736 4.58273 8.84176 4.22411C8.55617 3.86548 8.4026 3.41177 8.40884 2.94499V2.94173ZM9.34315 5.57823C10.3616 5.57823 10.7353 6.13551 11.1308 6.72212C11.4173 7.15231 11.7537 7.6216 12.3143 7.7878C12.1379 8.08596 12.0582 8.43569 12.0869 8.78504C11.7004 8.69668 11.3358 8.5246 11.0166 8.27988C10.6975 8.03515 10.4308 7.72322 10.2339 7.36414C10.2169 7.32106 10.1913 7.2823 10.1588 7.25045C10.1263 7.21861 10.0877 7.19442 10.0455 7.17953C10.0033 7.16464 9.95853 7.15939 9.91424 7.16413C9.86995 7.16887 9.82714 7.18349 9.78871 7.20701C9.75028 7.23053 9.71711 7.2624 9.69144 7.30047C9.66578 7.33854 9.64821 7.38192 9.63993 7.4277C9.63164 7.47348 9.63284 7.52058 9.64342 7.56583C9.65401 7.61109 9.67375 7.65344 9.70131 7.69003C9.8142 7.88828 9.94342 8.07584 10.0875 8.25057L10.0595 8.27013C9.76914 8.61956 9.56493 9.03801 9.46461 9.48898H6.85164V9.16308C6.87344 8.96429 7.22848 5.57823 9.34315 5.57823ZM6.85164 10.7306V10.1408H9.65459C9.71688 10.1408 11.2118 10.1603 11.2118 11.7702V13.3997H9.96603V12.7479C9.9739 12.5317 9.939 12.3162 9.86353 12.1147C9.78806 11.9133 9.67364 11.7304 9.52744 11.5774C9.38125 11.4244 9.20642 11.3047 9.01393 11.2257C8.82144 11.1467 8.61544 11.1102 8.40884 11.1185H6.78001C6.82758 10.9952 6.8519 10.8635 6.85164 10.7306ZM6.85164 16.9846C6.41037 16.9841 5.9835 16.8203 5.64662 16.522C5.30974 16.2238 5.08459 15.8104 5.01104 15.3551H5.64949C5.72121 15.6313 5.87778 15.875 6.09503 16.0489C6.31229 16.2227 6.57817 16.3168 6.85164 16.3168C7.12512 16.3168 7.391 16.2227 7.60825 16.0489C7.82551 15.875 7.98208 15.6313 8.0538 15.3551H8.69224C8.6187 15.8104 8.39355 16.2238 8.05667 16.522C7.71979 16.8203 7.29291 16.9841 6.85164 16.9846ZM6.31597 15.3551H7.38732C7.33217 15.4524 7.25378 15.5329 7.15986 15.5889C7.06594 15.6449 6.95972 15.6743 6.85164 15.6743C6.74357 15.6743 6.63735 15.6449 6.54343 15.5889C6.44951 15.5329 6.37112 15.4524 6.31597 15.3551ZM3.73726 14.7033C3.777 13.9532 3.9703 13.2208 4.30408 12.5557C4.42804 12.3145 4.61304 12.1136 4.8388 11.9751C5.06457 11.8365 5.32241 11.7657 5.58409 11.7702H8.40884C8.5333 11.7632 8.6578 11.7836 8.77421 11.8303C8.89062 11.8769 8.99634 11.9487 9.08448 12.0409C9.17262 12.1332 9.24121 12.2438 9.28578 12.3656C9.33035 12.4874 9.34989 12.6177 9.34315 12.7479V13.7256C9.34315 14.0782 9.45243 14.4213 9.65459 14.7033H3.73726ZM10.9003 14.7033C10.7076 14.7027 10.5197 14.6398 10.3625 14.5231C10.2052 14.4064 10.0863 14.2417 10.0221 14.0515H11.5232C11.6045 14.046 11.686 14.0584 11.7625 14.0877C11.839 14.1171 11.9088 14.1629 11.9674 14.2221C12.026 14.2813 12.0722 14.3526 12.103 14.4316C12.1337 14.5105 12.1484 14.5953 12.1461 14.6805C12.0428 14.6949 11.9388 14.7025 11.8347 14.7033H10.9003ZM12.8967 14.322C12.8517 14.3753 12.8004 14.4224 12.7441 14.4621C12.7099 14.2158 12.6044 13.9862 12.4418 13.8045C12.2792 13.6227 12.0673 13.4974 11.8347 13.4454V11.7702C11.8628 11.2385 11.7002 10.7149 11.3787 10.302C11.0573 9.88911 10.6002 9.61661 10.0968 9.53786C10.1767 9.24556 10.3135 8.97371 10.4986 8.73942C10.5066 8.72801 10.5139 8.71603 10.5204 8.70357C11.0038 9.11389 11.5855 9.37765 12.2022 9.46617L13.0804 13.4616C13.1297 13.7626 13.0637 14.0717 12.8967 14.322ZM13.7033 13.328L12.8468 9.48898C13.3738 9.49406 13.8945 9.36901 14.3667 9.12397L15.8366 12.7088L14.4788 14.7033H13.3918C13.5285 14.5073 13.6265 14.2846 13.68 14.0485C13.7334 13.8124 13.7414 13.5674 13.7033 13.328ZM16.5062 14.7033H15.9706C16.0391 14.5791 16.1449 14.4819 16.2716 14.427C16.3983 14.3721 16.5388 14.3625 16.6712 14.3996C16.8036 14.4368 16.9207 14.5186 17.0041 14.6324C17.0876 14.7463 17.1329 14.8857 17.1329 15.0292C17.1329 15.1727 17.0876 15.3122 17.0041 15.426C16.9207 15.5398 16.8036 15.6217 16.6712 15.6588C16.5388 15.6959 16.3983 15.6863 16.2716 15.6314C16.1449 15.5765 16.0391 15.4794 15.9706 15.3551H16.5062C16.5888 15.3551 16.668 15.3208 16.7265 15.2597C16.7849 15.1985 16.8177 15.1156 16.8177 15.0292C16.8177 14.9428 16.7849 14.8599 16.7265 14.7988C16.668 14.7376 16.5888 14.7033 16.5062 14.7033ZM15.2418 14.7033L15.3508 14.5436C15.332 14.5958 15.3164 14.6491 15.3041 14.7033H15.2418ZM16.5062 16.9846C16.065 16.9841 15.6381 16.8203 15.3012 16.522C14.9643 16.2238 14.7392 15.8104 14.6656 15.3551H15.3041C15.3723 15.63 15.5244 15.8741 15.7373 16.0502C15.9503 16.2263 16.2123 16.3248 16.4837 16.3308C16.755 16.3368 17.0208 16.2498 17.2406 16.0832C17.4604 15.9166 17.6222 15.6795 17.7014 15.4078C17.7806 15.1362 17.7728 14.8449 17.6793 14.5783C17.5858 14.3116 17.4116 14.0843 17.1832 13.9308C16.9549 13.7773 16.6849 13.706 16.4143 13.7278C16.1436 13.7496 15.8872 13.8632 15.684 14.0515L16.3474 13.0738C16.4003 13.0738 16.4533 13.0738 16.5062 13.0738C17.0018 13.0738 17.4771 13.2798 17.8276 13.6465C18.178 14.0133 18.3749 14.5106 18.3749 15.0292C18.3749 15.5478 18.178 16.0452 17.8276 16.4119C17.4771 16.7786 17.0018 16.9846 16.5062 16.9846Z" fill="white"/>
</g>
</svg>
