<svg width="18" height="20" viewBox="0 0 18 20" fill="none" xmlns="http://www.w3.org/2000/svg">
<g id="Group 610">
<path id="Vector" d="M8.97544 9.83723C10.5091 9.83723 11.6221 9.0163 12.194 7.4632C12.6329 6.27122 12.6921 4.86514 12.6921 3.6469C12.6921 1.4202 11.3027 0.0908203 8.97544 0.0908203C6.6482 0.0908203 5.25879 1.42016 5.25879 3.6469C5.25879 4.86514 5.31799 6.27122 5.75688 7.4632C6.3288 9.0163 7.44175 9.83723 8.97544 9.83723Z" fill="white"/>
<path id="Vector_2" d="M10.3548 10.8894H7.57483C4.91277 10.8894 2.74707 13.2413 2.74707 16.1321V16.4903C2.74707 18.2203 4.04307 19.6277 5.63614 19.6277H12.2936C13.8866 19.6277 15.1826 18.2203 15.1826 16.4903V16.1321C15.1826 13.2412 13.0169 10.8894 10.3548 10.8894Z" fill="white"/>
<path id="Vector_3" d="M13.8172 3.64707C13.8172 5.67842 13.6308 7.90554 12.3887 9.45883C12.6984 9.59081 13.0456 9.65842 13.4275 9.65842C14.5892 9.65842 15.4321 9.03678 15.8652 7.86061C16.1873 6.98596 16.2307 5.96609 16.2307 5.08377C16.2307 3.53597 15.3259 2.48613 13.687 2.38855C13.7731 2.78403 13.8172 3.20467 13.8172 3.64707Z" fill="#5FB868"/>
<path id="Vector_4" d="M4.58747 9.65839C4.94965 9.65839 5.28078 9.59795 5.57824 9.47914C4.32007 7.92383 4.1336 5.67621 4.1336 3.64704C4.1336 3.20632 4.17734 2.78717 4.26284 2.39294C2.75168 2.50732 1.78418 3.46882 1.78418 5.08369C1.78418 5.96598 1.8276 6.98589 2.14966 7.86057C2.58279 9.03674 3.42573 9.65839 4.58747 9.65839Z" fill="#5FB868"/>
<path id="Vector_5" d="M1.62207 16.1321C1.62207 13.7773 2.78761 11.7129 4.525 10.5828H3.59262C1.61167 10.5828 0 12.3329 0 14.4842V14.7387C0 15.8559 0.704988 16.7976 1.65723 17.0669C1.61546 16.7253 1.62207 16.5167 1.62207 16.1321Z" fill="#5FB868"/>
<path id="Vector_6" d="M14.4074 10.5828H13.4053C15.1424 11.713 16.3077 13.7776 16.3077 16.1321C16.3077 16.5131 16.3148 16.7317 16.2701 17.0855C17.2589 16.8445 18.0001 15.8841 18.0001 14.7387V14.4842C18.0001 12.3329 16.3884 10.5828 14.4074 10.5828Z" fill="#5FB868"/>
</g>
</svg>
