<svg width="49" height="34" viewBox="0 0 49 34" fill="none" xmlns="http://www.w3.org/2000/svg">
<g id="Icon container">
<g id="Group">
<g id="Group_2">
<path id="Vector" d="M37.007 21.6177C33.6013 21.6177 30.8306 24.3884 30.8306 27.7942C30.8306 31.1999 33.6013 33.9706 37.007 33.9706C40.4134 33.9706 43.1835 31.1999 43.1835 27.7942C43.1835 24.3884 40.4128 21.6177 37.007 21.6177ZM37.007 30.8824C35.3039 30.8824 33.9188 29.4973 33.9188 27.7942C33.9188 26.091 35.3039 24.7059 37.007 24.7059C38.7102 24.7059 40.0953 26.091 40.0953 27.7942C40.0953 29.4974 38.7102 30.8824 37.007 30.8824Z" fill="#222222"/>
</g>
</g>
<g id="Group_3">
<g id="Group_4">
<path id="Vector_2" d="M15.9045 21.6177C12.4987 21.6177 9.72803 24.3884 9.72803 27.7942C9.72803 31.1999 12.4987 33.9706 15.9045 33.9706C19.3103 33.9706 22.081 31.1999 22.081 27.7942C22.081 24.3884 19.3103 21.6177 15.9045 21.6177ZM15.9045 30.8824C14.2014 30.8824 12.8163 29.4973 12.8163 27.7942C12.8163 26.091 14.2014 24.7059 15.9045 24.7059C17.6072 24.7059 18.9927 26.091 18.9927 27.7942C18.9927 29.4974 17.6076 30.8824 15.9045 30.8824Z" fill="#222222"/>
</g>
</g>
<g id="Group_5">
<g id="Group_6">
<path id="Vector_3" d="M41.1666 3.9387C40.9041 3.41731 40.3703 3.08838 39.7867 3.08838H31.6543V6.17662H38.8344L43.039 14.5395L45.7989 13.1518L41.1666 3.9387Z" fill="#222222"/>
</g>
</g>
<g id="Group_7">
<g id="Group_8">
<path id="Vector_4" d="M32.3747 26.3015H20.6909V29.3898H32.3747V26.3015Z" fill="#222222"/>
</g>
</g>
<g id="Group_9">
<g id="Group_10">
<path id="Vector_5" d="M11.2719 26.3015H5.91907C5.06617 26.3015 4.375 26.9928 4.375 27.8456C4.375 28.6985 5.06626 29.3897 5.91907 29.3897H11.272C12.1249 29.3897 12.8161 28.6984 12.8161 27.8456C12.8161 26.9927 12.1248 26.3015 11.2719 26.3015Z" fill="#222222"/>
</g>
</g>
<g id="Group_11">
<g id="Group_12">
<path id="Vector_6" d="M48.6756 16.8617L45.6384 12.9499C45.3466 12.5732 44.8962 12.3529 44.419 12.3529H33.1984V1.54407C33.1984 0.691166 32.5072 0 31.6544 0H5.91907C5.06617 0 4.375 0.691262 4.375 1.54407C4.375 2.39688 5.06626 3.08814 5.91907 3.08814H30.1102V13.8969C30.1102 14.7498 30.8015 15.441 31.6543 15.441H43.6629L45.9116 18.3377V26.3013H41.6395C40.7866 26.3013 40.0955 26.9925 40.0955 27.8453C40.0955 28.6982 40.7867 29.3894 41.6395 29.3894H47.4557C48.3086 29.3894 48.9997 28.6982 48.9998 27.8453V17.8088C48.9998 17.466 48.8856 17.1325 48.6756 16.8617Z" fill="#222222"/>
</g>
</g>
<g id="Group_13">
<g id="Group_14">
<path id="Vector_7" d="M11.169 18.478H4.06604C3.21314 18.478 2.52197 19.1693 2.52197 20.0221C2.52197 20.875 3.21323 21.5662 4.06604 21.5662H11.1689C12.0218 21.5662 12.713 20.8749 12.713 20.0221C12.7131 19.1693 12.0218 18.478 11.169 18.478Z" fill="#5FB868"/>
</g>
</g>
<g id="Group_15">
<g id="Group_16">
<path id="Vector_8" d="M14.7205 12.4043H1.54407C0.691262 12.4043 0 13.0956 0 13.9485C0 14.8014 0.691262 15.4925 1.54407 15.4925H14.7205C15.5735 15.4925 16.2646 14.8013 16.2646 13.9485C16.2646 13.0957 15.5735 12.4043 14.7205 12.4043Z" fill="#5FB868"/>
</g>
</g>
<g id="Group_17">
<g id="Group_18">
<path id="Vector_9" d="M17.2425 6.33081H4.06604C3.21314 6.33081 2.52197 7.02207 2.52197 7.87488C2.52197 8.72779 3.21323 9.41895 4.06604 9.41895H17.2425C18.0954 9.41895 18.7866 8.72769 18.7866 7.87488C18.7867 7.02207 18.0954 6.33081 17.2425 6.33081Z" fill="#5FB868"/>
</g>
</g>
</g>
</svg>
