<svg width="33" height="33" viewBox="0 0 33 33" fill="none" xmlns="http://www.w3.org/2000/svg">
<path id="Vector" d="M24.75 16.5C20.1933 16.5 16.5 20.1933 16.5 24.75C16.5 29.3067 20.1933 33 24.75 33C29.3067 33 33 29.3067 33 24.75C33 20.1933 29.3067 16.5 24.75 16.5ZM28.1875 26.125H26.125V28.1875C26.125 28.9479 25.5104 29.5625 24.75 29.5625C23.9896 29.5625 23.375 28.9479 23.375 28.1875V26.125H21.3125C20.5521 26.125 19.9375 25.5104 19.9375 24.75C19.9375 23.9896 20.5521 23.375 21.3125 23.375H23.375V21.3125C23.375 20.5521 23.9896 19.9375 24.75 19.9375C25.5104 19.9375 26.125 20.5521 26.125 21.3125V23.375H28.1875C28.9479 23.375 29.5625 23.9896 29.5625 24.75C29.5625 25.5104 28.9479 26.125 28.1875 26.125ZM4.125 22H5.5V0.1375C2.299 0.790625 0 3.608 0 6.875V23.4094C0.961125 22.6847 2.09687 22.2269 3.29312 22.0839C3.56675 22.0275 3.84588 22 4.125 22ZM14.1116 22H8.25V0H20.625C24.4214 0 27.5 3.07863 27.5 6.875V14.1116C26.6186 13.8834 25.7015 13.75 24.75 13.75C19.6364 13.75 15.3381 17.2631 14.1116 22ZM17.4982 33H4.125C1.84663 33 0 31.1534 0 28.875C0 26.5966 1.84663 24.75 4.125 24.75H13.75C13.75 28.0363 15.2061 30.9829 17.4982 33Z" fill="#5FB868"/>
</svg>
