<svg width="18" height="18" viewBox="0 0 18 18" fill="none" xmlns="http://www.w3.org/2000/svg">
<g id="Group 511">
<g id="Group">
<path id="Vector" d="M7.95046 14.5371H7.49044H5.22202H4.63721C4.49132 14.5371 4.37305 14.6553 4.37305 14.8013C4.37305 14.9472 4.49132 15.0654 4.63721 15.0654H4.95786V17.7087C4.95786 17.7969 5.00189 17.8793 5.07525 17.9283C5.14862 17.9773 5.24157 17.9865 5.32307 17.9527L6.35625 17.5251L7.38943 17.9527C7.42193 17.9662 7.45624 17.9728 7.49044 17.9728C7.54197 17.9728 7.59318 17.9577 7.63724 17.9282C7.71061 17.8792 7.75463 17.7969 7.75463 17.7086V15.0654H7.9505C8.09638 15.0654 8.21466 14.9472 8.21466 14.8012C8.21466 14.6553 8.09635 14.5371 7.95046 14.5371ZM7.22632 17.3135L6.4573 16.9952C6.42496 16.9818 6.39062 16.9751 6.35628 16.9751C6.32194 16.9751 6.2876 16.9818 6.25527 16.9952L5.48625 17.3135V15.0654H7.22635V17.3135H7.22632Z" fill="#5FB868"/>
<path id="Vector_2" d="M5.67871 10.2913C5.53282 10.2913 5.41455 10.4095 5.41455 10.5554C5.41455 10.7013 5.53282 10.8196 5.67871 10.8196H9.43297C9.57889 10.8196 9.69713 10.7013 9.69713 10.5554C9.69713 10.4095 9.57889 10.2913 9.43297 10.2913H5.67871Z" fill="#222222"/>
<path id="Vector_3" d="M10.343 12.1135C10.4163 12.1625 10.5092 12.1717 10.5908 12.1379L11.624 11.7103L12.6572 12.1379C12.6897 12.1514 12.724 12.158 12.7582 12.158C12.8097 12.158 12.8609 12.1429 12.905 12.1135C12.9783 12.0644 13.0224 11.9821 13.0224 11.8939V9.25061H13.343C13.4889 9.25061 13.6072 9.13237 13.6072 8.98645C13.6072 8.84053 13.4889 8.72229 13.343 8.72229H12.7582H10.4898H10.0298C9.88386 8.72229 9.76562 8.84053 9.76562 8.98645C9.76562 9.13237 9.88386 9.25061 10.0298 9.25061H10.2256V11.8939C10.2256 11.9821 10.2697 12.0645 10.343 12.1135ZM12.494 9.25064V11.4987L11.725 11.1804C11.6927 11.167 11.6583 11.1603 11.624 11.1603C11.5897 11.1603 11.5553 11.167 11.523 11.1804L10.754 11.4987V9.25064H12.494Z" fill="#5FB868"/>
<path id="Vector_4" d="M17.4737 1.86669C17.7639 1.86669 18 1.6306 18 1.34041V0.52624C18 0.236088 17.7639 0 17.4737 0H3.19822C1.44942 0 0.0266624 1.42276 0.0266624 3.17156C0.0266624 4.2737 0.591892 5.2462 1.44756 5.81481H0.532897C0.242709 5.81481 0.00662158 6.0509 0.00662158 6.34108V7.15526C0.00662158 7.44541 0.242709 7.68149 0.532897 7.68149H1.04635V10.2912H0.532897C0.242709 10.2912 0.00662158 10.5273 0.00662158 10.8175V11.6316C0.00662158 11.9218 0.242709 12.1579 0.532897 12.1579H1.42089C0.56523 12.7265 0 13.699 0 14.8012C0 16.55 1.42276 17.9728 3.17156 17.9728H4.16515C4.31104 17.9728 4.42931 17.8545 4.42931 17.7086C4.42931 17.5627 4.31104 17.4445 4.16515 17.4445H3.17156C1.71407 17.4445 0.528318 16.2587 0.528318 14.8012C0.528318 13.3437 1.71407 12.1579 3.17156 12.1579H8.78917H9.43312C9.57904 12.1579 9.69727 12.0397 9.69727 11.8938C9.69727 11.7479 9.57904 11.6296 9.43312 11.6296L8.79205 11.6298C8.79107 11.6298 8.79015 11.6296 8.78917 11.6296H3.17156C3.1406 11.6296 3.10978 11.6302 3.07904 11.6311L0.534904 11.6317L0.532861 10.8195H4.55308C4.69896 10.8195 4.81724 10.7013 4.81724 10.5554C4.81724 10.4094 4.69896 10.2912 4.55308 10.2912H1.57467V7.68149H14.7806C15.1375 7.68149 15.4868 7.82861 15.7389 8.08509C15.9861 8.33654 16.119 8.66469 16.1131 9.00909C16.1009 9.71605 15.5157 10.2912 14.8084 10.2912H13.8148C13.6689 10.2912 13.5506 10.4094 13.5506 10.5553C13.5506 10.7013 13.6689 10.8195 13.8148 10.8195H14.8084C15.8021 10.8195 16.6243 10.0114 16.6413 9.0181C16.6496 8.53089 16.463 8.06798 16.1157 7.71471C15.7649 7.35781 15.2782 7.15314 14.7806 7.15314L1.34136 7.15508C1.33122 7.15392 1.32097 7.15314 1.31055 7.15314C1.30008 7.15314 1.2898 7.15392 1.27966 7.15511L0.534975 7.15522L0.532897 6.34309H3.19819H3.26895H4.19181C4.3377 6.34309 4.45597 6.22485 4.45597 6.07893C4.45597 5.93301 4.3377 5.81477 4.19181 5.81477H3.26898H3.19822C1.74074 5.81477 0.55498 4.62901 0.55498 3.17153C0.55498 1.71404 1.74074 0.528283 3.19822 0.528283L17.4717 0.526205L17.4737 1.33837H15.4893C15.3433 1.33837 15.2251 1.45661 15.2251 1.60253C15.2251 1.74845 15.3433 1.86669 15.4893 1.86669H16.4732V4.47637H8.57351C8.42762 4.47637 8.30935 4.5946 8.30935 4.74053C8.30935 4.88645 8.42762 5.00468 8.57351 5.00468L16.7071 5.00282C16.717 5.00394 16.7271 5.00468 16.7373 5.00468C16.7476 5.00468 16.7576 5.00394 16.7676 5.00282L17.4717 5.00264L17.4737 5.81477H14.8084H9.90709H8.57351C8.42762 5.81477 8.30935 5.93301 8.30935 6.07893C8.30935 6.22485 8.42762 6.34309 8.57351 6.34309H9.90709H14.8084C16.2659 6.34309 17.4517 7.52885 17.4517 8.98637C17.4517 10.4439 16.2659 11.6296 14.8084 11.6296H14.5452H13.8148C13.6689 11.6296 13.5506 11.7479 13.5506 11.8938C13.5506 12.0397 13.6689 12.1579 13.8148 12.1579H14.8084C14.8136 12.1579 14.8186 12.1578 14.8238 12.1577L17.4451 12.1559L17.4471 12.968H3.19942C2.70175 12.968 2.21513 13.1727 1.86429 13.5296C1.51701 13.8829 1.33034 14.3458 1.33869 14.833C1.3557 15.8263 2.17794 16.6344 3.1716 16.6344H4.16519C4.31107 16.6344 4.42935 16.5161 4.42935 16.3702C4.42935 16.2243 4.31107 16.1061 4.16519 16.1061H3.1716C2.46432 16.1061 1.87905 15.5309 1.86693 14.824C1.86102 14.4796 1.99387 14.1514 2.24105 13.9C2.4932 13.6435 2.84253 13.4964 3.19942 13.4964H16.4053V16.1061H8.54688C8.40099 16.1061 8.28272 16.2243 8.28272 16.3702C8.28272 16.5162 8.40099 16.6344 8.54688 16.6344L17.4451 16.6324L17.4471 17.4445H8.54688C8.40099 17.4445 8.28272 17.5627 8.28272 17.7087C8.28272 17.8546 8.40099 17.9728 8.54688 17.9728H17.4471C17.7373 17.9728 17.9734 17.7367 17.9734 17.4465V16.6324C17.9734 16.3422 17.7373 16.1061 17.4471 16.1061H16.9336V13.4964H17.4471C17.7373 13.4964 17.9734 13.2603 17.9734 12.9701V12.156C17.9734 11.8658 17.7373 11.6297 17.4471 11.6297H16.5591C17.4148 11.0611 17.98 10.0887 17.98 8.98648C17.98 7.8843 17.4148 6.91181 16.5591 6.3432H17.4737C17.7639 6.3432 18 6.10711 18 5.81692V5.00278C18 4.71259 17.7639 4.47651 17.4737 4.47651H17.0015V1.86669H17.4737Z" fill="#222222"/>
<path id="Vector_5" d="M14.6279 1.60266C14.6279 1.45674 14.5096 1.3385 14.3637 1.3385H3.22624C2.72856 1.3385 2.24191 1.54321 1.89111 1.90007C1.54383 2.25334 1.35716 2.71625 1.3655 3.2035C1.38251 4.19674 2.20475 5.00482 3.19841 5.00482H4.192C4.33789 5.00482 4.45616 4.88658 4.45616 4.74066C4.45616 4.59473 4.33789 4.4765 4.192 4.4765H3.19841C2.49114 4.4765 1.90587 3.90137 1.89375 3.19445C1.88783 2.85005 2.02069 2.5219 2.26787 2.27049C2.52002 2.01397 2.86934 1.86685 3.22624 1.86685H14.3637C14.5096 1.86682 14.6279 1.74858 14.6279 1.60266Z" fill="#222222"/>
<path id="Vector_6" d="M5.10162 6.29855C5.17498 6.34761 5.26793 6.35674 5.34943 6.32299L6.38261 5.89537L7.41579 6.32299C7.4483 6.33645 7.48261 6.34307 7.51681 6.34307C7.56834 6.34307 7.61955 6.328 7.66361 6.29852C7.73697 6.24949 7.781 6.16714 7.781 6.07891V3.43567H7.97687C8.12275 3.43567 8.24102 3.31743 8.24102 3.17151C8.24102 3.02559 8.12275 2.90735 7.97687 2.90735H7.51684H5.24842H4.66357C4.51769 2.90735 4.39941 3.02559 4.39941 3.17151C4.39941 3.31743 4.51769 3.43567 4.66357 3.43567H4.98423V6.07891C4.98423 6.16714 5.02825 6.24952 5.10162 6.29855ZM7.25265 3.43567V5.68369L6.48363 5.3654C6.45129 5.35202 6.41695 5.34532 6.38261 5.34532C6.34827 5.34532 6.31393 5.35202 6.2816 5.3654L5.51258 5.68369V3.43567H7.25265Z" fill="#5FB868"/>
</g>
</g>
</svg>
