<svg width="19" height="21" viewBox="0 0 19 21" fill="none" xmlns="http://www.w3.org/2000/svg">
<g id="Frame" clip-path="url(#clip0_282_2053)">
<path id="Vector" fill-rule="evenodd" clip-rule="evenodd" d="M5.46781 19.0206C6.44178 19.1135 7.698 19.1149 9.5 19.1149C11.302 19.1149 12.5582 19.1135 13.5322 19.0206C14.4866 18.9295 15.0292 18.7602 15.4375 18.512C16.0874 18.1171 16.6271 17.549 17.0022 16.8649C17.238 16.4351 17.3989 15.864 17.4853 14.8593C17.5737 13.8341 17.575 12.5118 17.575 10.6149C17.575 8.71809 17.5737 7.39575 17.4853 6.37051C17.3989 5.3659 17.238 4.79473 17.0022 4.36493C16.6271 3.68084 16.0874 3.11277 15.4375 2.71781C15.0292 2.46967 14.4866 2.30034 13.5322 2.20929C12.5582 2.11637 11.302 2.11493 9.5 2.11493C7.698 2.11493 6.44178 2.11637 5.46781 2.20929C4.51342 2.30034 3.97081 2.46967 3.5625 2.71781C2.91261 3.11277 2.37295 3.68084 1.99775 4.36493C1.762 4.79473 1.60114 5.3659 1.51464 6.37051C1.42637 7.39575 1.425 8.71809 1.425 10.6149C1.425 12.5118 1.42637 13.8341 1.51464 14.8593C1.60114 15.864 1.762 16.4351 1.99775 16.8649C2.37295 17.549 2.91261 18.1171 3.5625 18.512C3.97081 18.7602 4.51342 18.9295 5.46781 19.0206ZM0.763655 3.61493C0 5.00723 0 6.87647 0 10.6149C0 14.3534 0 16.2226 0.763655 17.6149C1.26394 18.527 1.98349 19.2845 2.85 19.8111C4.17269 20.6149 5.94846 20.6149 9.5 20.6149C13.0516 20.6149 14.8273 20.6149 16.15 19.8111C17.0165 19.2845 17.736 18.527 18.2364 17.6149C19 16.2226 19 14.3534 19 10.6149C19 6.87647 19 5.00723 18.2364 3.61493C17.736 2.70281 17.0165 1.94539 16.15 1.41878C14.8273 0.614929 13.0516 0.614929 9.5 0.614929C5.94846 0.614929 4.17269 0.614929 2.85 1.41878C1.98349 1.94539 1.26394 2.70281 0.763655 3.61493Z" fill="#222222"/>
<path id="Vector_2" d="M6.6708 6.10519C6.30378 5.71884 5.70871 5.71884 5.34168 6.10519C4.97465 6.49153 4.97465 7.11793 5.34168 7.50427L8.48732 10.8155L5.43031 14.0334C5.06328 14.4197 5.06328 15.0462 5.43031 15.4325C5.79735 15.8187 6.39241 15.8187 6.75944 15.4325L9.8165 12.2145L12.8734 15.4324C13.2404 15.8187 13.8355 15.8187 14.2025 15.4324C14.5696 15.046 14.5696 14.4197 14.2025 14.0334L11.1456 10.8155L14.2911 7.50432C14.6582 7.11798 14.6582 6.49158 14.2911 6.10524C13.9241 5.7189 13.3291 5.7189 12.9621 6.10524L9.8165 9.41639L6.6708 6.10519Z" fill="#00733C"/>
</g>
<defs>
<clipPath id="clip0_282_2053">
<rect width="19" height="21" fill="white"/>
</clipPath>
</defs>
</svg>
