<svg width="17" height="20" viewBox="0 0 17 20" fill="none" xmlns="http://www.w3.org/2000/svg">
<g id="Coins">
<path id="Vector" d="M15.1786 14.5821H14.4379C15.647 13.4016 16.4768 11.8875 16.8214 10.2332C17.166 8.5789 17.0096 6.85941 16.3723 5.29436C15.7351 3.72931 14.6457 2.38973 13.2435 1.44671C11.8413 0.503677 10.1898 0 8.5 0C6.81017 0 5.15869 0.503677 3.75648 1.44671C2.35426 2.38973 1.26494 3.72931 0.627653 5.29436C-0.0096378 6.85941 -0.165981 8.5789 0.178589 10.2332C0.52316 11.8875 1.35301 13.4016 2.56215 14.5821H1.82143C1.33836 14.5821 0.875071 14.774 0.533487 15.1156C0.191903 15.4572 3.46256e-06 15.9204 3.46256e-06 16.4035V17.6178C3.46256e-06 18.1009 0.191903 18.5642 0.533487 18.9057C0.875071 19.2473 1.33836 19.4392 1.82143 19.4392H2.42857C2.5896 19.4392 2.74403 19.3753 2.85789 19.2614C2.97175 19.1475 3.03572 18.9931 3.03572 18.8321C3.03572 18.6711 2.97175 18.5166 2.85789 18.4028C2.74403 18.2889 2.5896 18.2249 2.42857 18.2249H1.82143C1.66041 18.2249 1.50598 18.161 1.39212 18.0471C1.27826 17.9333 1.21429 17.7788 1.21429 17.6178V16.4035C1.21429 16.2425 1.27826 16.0881 1.39212 15.9742C1.50598 15.8603 1.66041 15.7964 1.82143 15.7964H4.14679C5.46007 16.5902 6.96543 17.0099 8.5 17.0099C10.0346 17.0099 11.5399 16.5902 12.8532 15.7964H15.1786C15.3396 15.7964 15.494 15.8603 15.6079 15.9742C15.7217 16.0881 15.7857 16.2425 15.7857 16.4035V17.6178C15.7857 17.7788 15.7217 17.9333 15.6079 18.0471C15.494 18.161 15.3396 18.2249 15.1786 18.2249H4.85714C4.69612 18.2249 4.54169 18.2889 4.42783 18.4028C4.31397 18.5166 4.25 18.6711 4.25 18.8321C4.25 18.9931 4.31397 19.1475 4.42783 19.2614C4.54169 19.3753 4.69612 19.4392 4.85714 19.4392H15.1786C15.6616 19.4392 16.1249 19.2473 16.4665 18.9057C16.8081 18.5642 17 18.1009 17 17.6178V16.4035C17 15.9204 16.8081 15.4572 16.4665 15.1156C16.1249 14.774 15.6616 14.5821 15.1786 14.5821ZM1.21429 8.51066C1.21429 7.06968 1.64159 5.66107 2.44215 4.46294C3.24272 3.26481 4.38059 2.33098 5.71188 1.77954C7.04317 1.2281 8.50808 1.08382 9.92137 1.36494C11.3347 1.64606 12.6329 2.33996 13.6518 3.35888C14.6707 4.37781 15.3646 5.676 15.6457 7.08929C15.9268 8.50258 15.7826 9.96749 15.2311 11.2988C14.6797 12.6301 13.7459 13.7679 12.5477 14.5685C11.3496 15.3691 9.94098 15.7964 8.5 15.7964C6.56771 15.7964 4.71456 15.0288 3.34822 13.6624C1.98189 12.2961 1.21429 10.443 1.21429 8.51066Z" fill="#222222"/>
<path id="Vector_2" d="M8.50014 2.43921C7.29933 2.43921 6.12548 2.79529 5.12704 3.46243C4.1286 4.12957 3.35041 5.07779 2.89087 6.1872C2.43134 7.29661 2.31111 8.51737 2.54537 9.69511C2.77964 10.8729 3.35789 11.9547 4.20699 12.8038C5.0561 13.6529 6.13792 14.2311 7.31566 14.4654C8.49341 14.6997 9.71417 14.5794 10.8236 14.1199C11.933 13.6604 12.8812 12.8822 13.5483 11.8837C14.2155 10.8853 14.5716 9.71145 14.5716 8.51064C14.5716 6.90039 13.9319 5.3561 12.7933 4.21749C11.6547 3.07888 10.1104 2.43921 8.50014 2.43921ZM8.50014 13.3678C7.53949 13.3678 6.60041 13.0829 5.80166 12.5492C5.0029 12.0155 4.38035 11.2569 4.01273 10.3694C3.6451 9.48186 3.54891 8.50525 3.73633 7.56305C3.92374 6.62086 4.38634 5.7554 5.06562 5.07612C5.74491 4.39683 6.61037 3.93424 7.55256 3.74682C8.49475 3.55941 9.47136 3.6556 10.3589 4.02322C11.2464 4.39085 12.005 5.0134 12.5387 5.81215C13.0724 6.61091 13.3573 7.54998 13.3573 8.51064C13.3573 9.79883 12.8455 11.0343 11.9347 11.9452C11.0238 12.856 9.78833 13.3678 8.50014 13.3678Z" fill="#222222"/>
<path id="Vector_3" d="M8.50014 7.90363C8.33911 7.90363 8.18469 7.83967 8.07082 7.72581C7.95696 7.61194 7.893 7.45751 7.893 7.29649C7.893 7.13547 7.95696 6.98104 8.07082 6.86718C8.18469 6.75331 8.33911 6.68935 8.50014 6.68935H9.71442C9.87545 6.68935 10.0299 6.62538 10.1437 6.51152C10.2576 6.39766 10.3216 6.24323 10.3216 6.08221C10.3216 5.92118 10.2576 5.76675 10.1437 5.65289C10.0299 5.53903 9.87545 5.47506 9.71442 5.47506H9.10728C9.10728 5.31404 9.04332 5.15961 8.92945 5.04575C8.81559 4.93189 8.66116 4.86792 8.50014 4.86792C8.33911 4.86792 8.18469 4.93189 8.07082 5.04575C7.95696 5.15961 7.893 5.31404 7.893 5.47506V5.58435C7.49145 5.73005 7.15389 6.01225 6.93931 6.38161C6.72474 6.75097 6.64681 7.18399 6.71915 7.60499C6.79148 8.02598 7.00948 8.40816 7.33504 8.68471C7.66059 8.96127 8.07299 9.1146 8.50014 9.11792C8.66116 9.11792 8.81559 9.18189 8.92945 9.29575C9.04332 9.40961 9.10728 9.56404 9.10728 9.72506C9.10728 9.88609 9.04332 10.0405 8.92945 10.1544C8.81559 10.2682 8.66116 10.3322 8.50014 10.3322H7.28585C7.12483 10.3322 6.9704 10.3962 6.85654 10.51C6.74268 10.6239 6.67871 10.7783 6.67871 10.9393C6.67871 11.1004 6.74268 11.2548 6.85654 11.3687C6.9704 11.4825 7.12483 11.5465 7.28585 11.5465H7.893C7.893 11.7075 7.95696 11.8619 8.07082 11.9758C8.18469 12.0897 8.33911 12.1536 8.50014 12.1536C8.66116 12.1536 8.81559 12.0897 8.92945 11.9758C9.04332 11.8619 9.10728 11.7075 9.10728 11.5465V11.4372C9.50883 11.2915 9.84639 11.0093 10.061 10.6399C10.2755 10.2706 10.3535 9.83756 10.2811 9.41657C10.2088 8.99557 9.9908 8.61339 9.66524 8.33684C9.33969 8.06028 8.92729 7.90695 8.50014 7.90363Z" fill="#5FB868"/>
</g>
</svg>
