<svg width="110" height="110" viewBox="0 0 110 110" fill="none" xmlns="http://www.w3.org/2000/svg">
<g id="Frame">
<g id="Group">
<path id="Vector" fill-rule="evenodd" clip-rule="evenodd" d="M53.7314 38.8745C53.7314 36.9903 55.2554 35.4629 57.1352 35.4629H84.3648C86.2446 35.4629 87.7685 36.9903 87.7685 38.8745C87.7685 40.7586 86.2446 42.2861 84.3648 42.2861H57.1352C55.2554 42.2861 53.7314 40.7586 53.7314 38.8745Z" fill="#5FB868"/>
<path id="Vector_2" fill-rule="evenodd" clip-rule="evenodd" d="M70.7499 55.9325C68.8701 55.9325 67.3462 54.405 67.3462 52.5209V25.2281C67.3462 23.344 68.8701 21.8165 70.7499 21.8165C72.6297 21.8165 74.1536 23.344 74.1536 25.2281V52.5209C74.1536 54.405 72.6297 55.9325 70.7499 55.9325Z" fill="#5FB868"/>
<path id="Vector_3" fill-rule="evenodd" clip-rule="evenodd" d="M18.5598 12.7189C15.4268 12.7189 12.887 15.2646 12.887 18.4049V91.1856C12.887 94.326 15.4268 96.8716 18.5598 96.8716H91.1723C94.3055 96.8716 96.8451 94.326 96.8451 91.1856V70.716C96.8451 68.8319 98.369 67.3044 100.249 67.3044C102.129 67.3044 103.653 68.8319 103.653 70.716V91.1856C103.653 98.0943 98.065 103.695 91.1723 103.695H18.5598C11.6672 103.695 6.07959 98.0943 6.07959 91.1856V18.4049C6.07959 11.4963 11.6672 5.89575 18.5598 5.89575H38.9821C40.8619 5.89575 42.3858 7.42319 42.3858 9.30734C42.3858 11.1915 40.8619 12.7189 38.9821 12.7189H18.5598Z" fill="#222222"/>
<path id="Vector_4" fill-rule="evenodd" clip-rule="evenodd" d="M36.1911 74.2582C34.0015 71.5571 29.9265 71.4434 27.5908 74.0189L12.0019 91.2065C10.7374 92.6007 8.58467 92.7031 7.19373 91.4358C5.8028 90.1685 5.70028 88.0106 6.96478 86.6164L22.5537 69.4292C27.6923 63.7637 36.6574 64.013 41.4745 69.9555L64.3152 98.1321C65.5006 99.5945 65.2787 101.743 63.8196 102.931C62.361 104.119 60.2171 103.897 59.0317 102.435L36.1911 74.2582Z" fill="#222222"/>
<path id="Vector_5" fill-rule="evenodd" clip-rule="evenodd" d="M78.8858 85.9699C76.7741 83.8534 73.3863 83.7401 71.1389 85.7115L59.3766 96.0277C57.9621 97.2682 55.8114 97.1245 54.5738 95.7066C53.3357 94.2887 53.4791 92.1335 54.8937 90.8926L66.656 80.5764C71.6009 76.24 79.0532 76.4884 83.6991 81.1455L98.1172 95.5965C99.4464 96.9289 99.4464 99.0891 98.1172 100.421C96.7884 101.753 94.6331 101.754 93.3039 100.421L78.8858 85.9699Z" fill="#222222"/>
<path id="Vector_6" fill-rule="evenodd" clip-rule="evenodd" d="M70.7502 65.03C85.1619 65.03 96.8452 53.3196 96.8452 38.8745C96.8452 24.4292 85.1619 12.7189 70.7502 12.7189C56.3384 12.7189 44.6551 24.4292 44.6551 38.8745C44.6551 42.4456 45.3672 45.8414 46.6537 48.9332C47.3771 50.6722 46.5571 52.6701 44.8222 53.3951C43.0872 54.1202 41.0942 53.2987 40.3707 51.5597C38.7441 47.65 37.8477 43.363 37.8477 38.8745C37.8477 20.6609 52.5784 5.89575 70.7502 5.89575C88.9219 5.89575 103.653 20.6609 103.653 38.8745C103.653 57.0883 88.9219 71.8532 70.7502 71.8532C66.2722 71.8532 61.9949 70.9548 58.0943 69.3245C56.3593 68.599 55.5397 66.6016 56.2631 64.8626C56.9865 63.1236 58.9797 62.3017 60.7147 63.0267C63.7993 64.3163 67.1872 65.03 70.7502 65.03Z" fill="#5FB868"/>
</g>
</g>
</svg>
