<svg width="28" height="28" viewBox="0 0 28 28" fill="none" xmlns="http://www.w3.org/2000/svg">
<g id="Frame">
<g id="Barcode">
<g id="Group">
<path id="Vector" d="M5.25 20.125C5.01794 20.125 4.79538 20.0328 4.63128 19.8687C4.46719 19.7046 4.375 19.4821 4.375 19.25V8.75C4.375 8.51794 4.46719 8.29538 4.63128 8.13128C4.79538 7.96719 5.01794 7.875 5.25 7.875C5.48206 7.875 5.70462 7.96719 5.86872 8.13128C6.03281 8.29538 6.125 8.51794 6.125 8.75V19.25C6.125 19.4821 6.03281 19.7046 5.86872 19.8687C5.70462 20.0328 5.48206 20.125 5.25 20.125Z" fill="#5FB868"/>
<path id="Vector_2" d="M8.75 16.625C8.51794 16.625 8.29538 16.5328 8.13128 16.3687C7.96719 16.2046 7.875 15.9821 7.875 15.75V8.75C7.875 8.51794 7.96719 8.29538 8.13128 8.13128C8.29538 7.96719 8.51794 7.875 8.75 7.875C8.98206 7.875 9.20462 7.96719 9.36872 8.13128C9.53281 8.29538 9.625 8.51794 9.625 8.75V15.75C9.625 15.9821 9.53281 16.2046 9.36872 16.3687C9.20462 16.5328 8.98206 16.625 8.75 16.625Z" fill="#5FB868"/>
<path id="Vector_3" d="M12.25 16.625C12.0179 16.625 11.7954 16.5328 11.6313 16.3687C11.4672 16.2046 11.375 15.9821 11.375 15.75V8.75C11.375 8.51794 11.4672 8.29538 11.6313 8.13128C11.7954 7.96719 12.0179 7.875 12.25 7.875C12.4821 7.875 12.7046 7.96719 12.8687 8.13128C13.0328 8.29538 13.125 8.51794 13.125 8.75V15.75C13.125 15.9821 13.0328 16.2046 12.8687 16.3687C12.7046 16.5328 12.4821 16.625 12.25 16.625Z" fill="#5FB868"/>
<path id="Vector_4" d="M15.75 20.125C15.5179 20.125 15.2954 20.0328 15.1313 19.8687C14.9672 19.7046 14.875 19.4821 14.875 19.25V8.75C14.875 8.51794 14.9672 8.29538 15.1313 8.13128C15.2954 7.96719 15.5179 7.875 15.75 7.875C15.9821 7.875 16.2046 7.96719 16.3687 8.13128C16.5328 8.29538 16.625 8.51794 16.625 8.75V19.25C16.625 19.4821 16.5328 19.7046 16.3687 19.8687C16.2046 20.0328 15.9821 20.125 15.75 20.125Z" fill="#5FB868"/>
<path id="Vector_5" d="M19.25 16.625C19.0179 16.625 18.7954 16.5328 18.6313 16.3687C18.4672 16.2046 18.375 15.9821 18.375 15.75V8.75C18.375 8.51794 18.4672 8.29538 18.6313 8.13128C18.7954 7.96719 19.0179 7.875 19.25 7.875C19.4821 7.875 19.7046 7.96719 19.8687 8.13128C20.0328 8.29538 20.125 8.51794 20.125 8.75V15.75C20.125 15.9821 20.0328 16.2046 19.8687 16.3687C19.7046 16.5328 19.4821 16.625 19.25 16.625Z" fill="#5FB868"/>
<path id="Vector_6" d="M22.75 20.125C22.5179 20.125 22.2954 20.0328 22.1313 19.8687C21.9672 19.7046 21.875 19.4821 21.875 19.25V8.75C21.875 8.51794 21.9672 8.29538 22.1313 8.13128C22.2954 7.96719 22.5179 7.875 22.75 7.875C22.9821 7.875 23.2046 7.96719 23.3687 8.13128C23.5328 8.29538 23.625 8.51794 23.625 8.75V19.25C23.625 19.4821 23.5328 19.7046 23.3687 19.8687C23.2046 20.0328 22.9821 20.125 22.75 20.125Z" fill="#5FB868"/>
<path id="Vector_7" d="M8.75 20.125C8.57694 20.125 8.40777 20.0737 8.26388 19.9775C8.11998 19.8814 8.00783 19.7447 7.94161 19.5848C7.87538 19.425 7.85805 19.249 7.89181 19.0793C7.92558 18.9096 8.00891 18.7537 8.13128 18.6313C8.25365 18.5089 8.40956 18.4256 8.5793 18.3918C8.74903 18.3581 8.92496 18.3754 9.08485 18.4416C9.24473 18.5078 9.38139 18.62 9.47754 18.7639C9.57368 18.9078 9.625 19.0769 9.625 19.25C9.625 19.4821 9.53281 19.7046 9.36872 19.8687C9.20462 20.0328 8.98206 20.125 8.75 20.125Z" fill="#5FB868"/>
<path id="Vector_8" d="M12.25 20.125C12.0769 20.125 11.9078 20.0737 11.7639 19.9775C11.62 19.8814 11.5078 19.7447 11.4416 19.5848C11.3754 19.425 11.3581 19.249 11.3918 19.0793C11.4256 18.9096 11.5089 18.7537 11.6313 18.6313C11.7537 18.5089 11.9096 18.4256 12.0793 18.3918C12.249 18.3581 12.425 18.3754 12.5848 18.4416C12.7447 18.5078 12.8814 18.62 12.9775 18.7639C13.0737 18.9078 13.125 19.0769 13.125 19.25C13.125 19.4821 13.0328 19.7046 12.8687 19.8687C12.7046 20.0328 12.4821 20.125 12.25 20.125Z" fill="#5FB868"/>
<path id="Vector_9" d="M19.25 20.125C19.0769 20.125 18.9078 20.0737 18.7639 19.9775C18.62 19.8814 18.5078 19.7447 18.4416 19.5848C18.3754 19.425 18.3581 19.249 18.3918 19.0793C18.4256 18.9096 18.5089 18.7537 18.6313 18.6313C18.7537 18.5089 18.9096 18.4256 19.0793 18.3918C19.249 18.3581 19.425 18.3754 19.5848 18.4416C19.7447 18.5078 19.8814 18.62 19.9775 18.7639C20.0737 18.9078 20.125 19.0769 20.125 19.25C20.125 19.4821 20.0328 19.7046 19.8687 19.8687C19.7046 20.0328 19.4821 20.125 19.25 20.125Z" fill="#5FB868"/>
</g>
<path id="Vector_10" d="M25.375 23.625H2.625C1.92881 23.625 1.26113 23.3484 0.768845 22.8562C0.276562 22.3639 0 21.6962 0 21L0 7C0 6.30381 0.276562 5.63613 0.768845 5.14384C1.26113 4.65156 1.92881 4.375 2.625 4.375H25.375C26.0712 4.375 26.7389 4.65156 27.2312 5.14384C27.7234 5.63613 28 6.30381 28 7V15.75C28 15.9821 27.9078 16.2046 27.7437 16.3687C27.5796 16.5328 27.3571 16.625 27.125 16.625C26.8929 16.625 26.6704 16.5328 26.5063 16.3687C26.3422 16.2046 26.25 15.9821 26.25 15.75V7C26.25 6.76794 26.1578 6.54538 25.9937 6.38128C25.8296 6.21719 25.6071 6.125 25.375 6.125H2.625C2.39294 6.125 2.17038 6.21719 2.00628 6.38128C1.84219 6.54538 1.75 6.76794 1.75 7V21C1.75 21.2321 1.84219 21.4546 2.00628 21.6187C2.17038 21.7828 2.39294 21.875 2.625 21.875H25.375C25.6071 21.875 25.8296 21.7828 25.9937 21.6187C26.1578 21.4546 26.25 21.2321 26.25 21V19.25C26.25 19.0179 26.3422 18.7954 26.5063 18.6313C26.6704 18.4672 26.8929 18.375 27.125 18.375C27.3571 18.375 27.5796 18.4672 27.7437 18.6313C27.9078 18.7954 28 19.0179 28 19.25V21C28 21.6962 27.7234 22.3639 27.2312 22.8562C26.7389 23.3484 26.0712 23.625 25.375 23.625Z" fill="#222222"/>
</g>
</g>
</svg>
