<svg width="17" height="21" viewBox="0 0 17 21" fill="none" xmlns="http://www.w3.org/2000/svg">
<g id="Group">
<path id="Vector" d="M15.0385 21H2.28846C1.02719 21 0.000653846 20.0194 0 18.8138V18.8125V2.875C0 1.84125 0.880077 1 1.96154 1H15.0385C16.1199 1 17 1.84125 17 2.875V19.125C17 20.1588 16.1199 21 15.0385 21ZM1.30769 18.8125C1.30769 19.3294 1.74773 19.75 2.28846 19.75H15.0385C15.3987 19.75 15.6923 19.47 15.6923 19.125V17.875H2.28846C1.74773 17.875 1.30769 18.2956 1.30769 18.8125ZM1.96154 2.25C1.60127 2.25 1.30769 2.53 1.30769 2.875V16.8362C1.60519 16.7006 1.93735 16.625 2.28846 16.625H15.6923V2.875C15.6923 2.53 15.3987 2.25 15.0385 2.25H1.96154Z" fill="#222222"/>
<g id="Group_2">
<path id="Vector_2" d="M12.4232 9.03845C12.2846 9.03845 12.1466 8.99464 12.0309 8.90768L9.80781 7.24038L7.58473 8.90768C7.38596 9.05676 7.12115 9.07964 6.90015 8.9698C6.6785 8.85864 6.53857 8.63241 6.53857 8.38461V0.538452H13.077V8.38461C13.077 8.63241 12.9371 8.85864 12.7155 8.9698C12.6233 9.01557 12.5226 9.03845 12.4232 9.03845Z" fill="#5FB868"/>
</g>
</g>
</svg>
