<svg width="20" height="20" viewBox="0 0 20 20" fill="none" xmlns="http://www.w3.org/2000/svg">
<g id="Group 743">
<g id="Group 742">
<path id="Vector" d="M4.75 4H9.25C9.6625 4 10 3.775 10 3.5C10 3.225 9.6625 3 9.25 3H4.75C4.3375 3 4 3.225 4 3.5C4 3.775 4.3375 4 4.75 4Z" fill="#5FB868"/>
<path id="Vector_2" d="M20 8.66667C20 5.95333 17.96 3.70667 15.3333 3.38V0.666667C15.3333 0.3 15.0333 0 14.6667 0H2.66667C2.3 0 2 0.3 2 0.666667V15.3333H0.666667C0.3 15.3333 0 15.6333 0 16V17.6667C0 18.9533 1.04667 20 2.33333 20H13C14.2867 20 15.3333 18.9533 15.3333 17.6667V13.9533C17.96 13.6267 20 11.38 20 8.66667ZM2.33333 18.6667C1.78 18.6667 1.33333 18.22 1.33333 17.6667V16.6667H10.6667V17.6667C10.6667 18.0267 10.7467 18.36 10.8933 18.6667H2.33333ZM13 18.6667C12.4467 18.6667 12 18.22 12 17.6667V16C12 15.6333 11.7 15.3333 11.3333 15.3333H3.33333V1.33333H14V3.38C12.5 3.56667 11.1933 4.38 10.3467 5.55333H5C4.63333 5.55333 4.33333 5.85333 4.33333 6.22C4.33333 6.58667 4.63333 6.88667 5 6.88667H9.64667C9.47333 7.38 9.36667 7.9 9.34667 8.44667H5C4.63333 8.44667 4.33333 8.74667 4.33333 9.11333C4.33333 9.48 4.63333 9.78 5 9.78H9.45333C9.57333 10.3333 9.78 10.8533 10.0533 11.3333H5C4.63333 11.3333 4.33333 11.6333 4.33333 12C4.33333 12.3667 4.63333 12.6667 5 12.6667H11.1533C11.9333 13.3533 12.92 13.82 14 13.9533V17.6667C14 18.22 13.5533 18.6667 13 18.6667ZM14.6667 12.6667C13.58 12.6667 12.6 12.2333 11.88 11.5333C11.2333 10.9067 10.8 10.06 10.7 9.12C10.6867 8.97333 10.6733 8.82667 10.6733 8.68C10.6733 6.47333 12.4667 4.68 14.6733 4.68C16.88 4.68 18.6733 6.47333 18.6733 8.68C18.6733 10.8867 16.88 12.68 14.6733 12.68L14.6667 12.6667Z" fill="#222222"/>
<path id="Vector_3" d="M14.5484 7.28846H16.3548C16.7097 7.28846 17 6.98558 17 6.61538C17 6.24519 16.7097 5.94231 16.3548 5.94231H15.6452V5.67308C15.6452 5.30288 15.3548 5 15 5C14.6452 5 14.3548 5.30288 14.3548 5.67308V5.9625C13.5935 6.06346 13 6.73654 13 7.55769C13 8.44615 13.6968 9.17308 14.5484 9.17308H15.4516C15.5935 9.17308 15.7097 9.29423 15.7097 9.44231C15.7097 9.59038 15.5935 9.71154 15.4516 9.71154H13.6452C13.2903 9.71154 13 10.0144 13 10.3846C13 10.7548 13.2903 11.0577 13.6452 11.0577H14.3548V11.3269C14.3548 11.6971 14.6452 12 15 12C15.3548 12 15.6452 11.6971 15.6452 11.3269V11.0375C16.4065 10.9365 17 10.2635 17 9.44231C17 8.55385 16.3032 7.82692 15.4516 7.82692H14.5484C14.4065 7.82692 14.2903 7.70577 14.2903 7.55769C14.2903 7.40962 14.4065 7.28846 14.5484 7.28846Z" fill="#5FB868"/>
</g>
</g>
</svg>
