<svg width="20" height="21" viewBox="0 0 20 21" fill="none" xmlns="http://www.w3.org/2000/svg">
<g id="Group 509">
<path id="Vector" d="M14.6666 2.7002C13.5666 2.7002 12.6665 3.60024 12.6665 4.70031C12.6665 5.80037 13.5666 6.70042 14.6666 6.70042C15.7667 6.70042 16.6667 5.80037 16.6667 4.70031C16.6667 3.60024 15.7667 2.7002 14.6666 2.7002ZM14.6666 5.36701C14.2999 5.36701 13.9999 5.06699 13.9999 4.70031C13.9999 4.33362 14.2999 4.0336 14.6666 4.0336C15.0333 4.0336 15.3333 4.33362 15.3333 4.70031C15.3333 5.06699 15.0333 5.36701 14.6666 5.36701Z" fill="#222222"/>
<path id="Vector_2" d="M1.54098 11.5322C1.26297 11.2535 1.26297 10.8004 1.54098 10.5217L9.80511 2.24195C9.93698 2.10981 10.1196 2.0336 10.3067 2.0336H16.6225C17.0144 2.0336 17.3331 2.35395 17.3331 2.74717V8.41282C17.3331 8.78131 17.6317 9.07952 17.9998 9.07952C18.368 9.07952 18.6665 8.78131 18.6665 8.41282V2.74717C18.6665 1.61818 17.7495 0.700195 16.6225 0.700195H10.3067C9.76764 0.700195 9.24061 0.918941 8.86072 1.30049L0.596933 9.58022C-0.198978 10.3778 -0.198978 11.6761 0.596933 12.4736L6.87888 18.7675C7.00942 18.8984 7.18003 18.9635 7.3509 18.9635C7.52118 18.9635 7.69172 18.8983 7.82193 18.7688C8.08235 18.5084 8.08301 18.0865 7.82293 17.826L1.54098 11.5322Z" fill="#222222"/>
<path id="Vector_3" d="M13.9998 8.70056C10.693 8.70056 7.99951 11.394 7.99951 14.7009C7.99951 18.0077 10.693 20.7012 13.9998 20.7012C17.3067 20.7012 20.0002 18.0077 20.0002 14.7009C20.0002 11.394 17.3067 8.70056 13.9998 8.70056ZM13.9998 14.0342C15.0999 14.0342 16 14.9342 16 16.0343C16 16.901 15.4399 17.6344 14.6665 17.9144V18.0344C14.6665 18.4011 14.3665 18.7011 13.9998 18.7011C13.6332 18.7011 13.3331 18.4011 13.3331 18.0344V17.9144C12.5598 17.6344 11.9997 16.901 11.9997 16.0343C11.9997 15.6676 12.2997 15.3676 12.6664 15.3676C13.0331 15.3676 13.3331 15.6676 13.3331 16.0343C13.3331 16.401 13.6332 16.701 13.9998 16.701C14.3665 16.701 14.6665 16.401 14.6665 16.0343C14.6665 15.6676 14.3665 15.3676 13.9998 15.3676C12.8998 15.3676 11.9997 14.4675 11.9997 13.3675C11.9997 12.5008 12.5598 11.7674 13.3331 11.4874V11.3674C13.3331 11.0007 13.6332 10.7007 13.9998 10.7007C14.3665 10.7007 14.6665 11.0007 14.6665 11.3674V11.4874C15.4399 11.7674 16 12.5008 16 13.3675C16 13.7342 15.6999 14.0342 15.3332 14.0342C14.9666 14.0342 14.6665 13.7342 14.6665 13.3675C14.6665 13.0008 14.3665 12.7008 13.9998 12.7008C13.6332 12.7008 13.3331 13.0008 13.3331 13.3675C13.3331 13.7342 13.6332 14.0342 13.9998 14.0342Z" fill="#5FB868"/>
</g>
</svg>
