<svg width="17" height="18" viewBox="0 0 17 18" fill="none" xmlns="http://www.w3.org/2000/svg">
<g id="Group">
<path id="Vector" d="M12.2904 9.11216C12.2904 4.14123 12.3334 4.41604 12.1668 4.21251C12.1639 4.20893 8.1949 0.224496 8.11902 0.177758C7.93969 0.0534847 8.34766 0.0913741 1.05346 0.0913741C0.472653 0.0913741 0 0.564027 0 1.14483V16.9467C0 17.5275 0.472653 18.0002 1.05346 18.0002H11.7636C14.2228 18.0002 16.2233 15.9997 16.2233 13.5406C16.2233 11.2598 14.5019 9.37377 12.2904 9.11216ZM8.35745 1.88963L10.4921 4.02429H8.35745V1.88963ZM1.05346 16.9467V1.14483H7.30399V4.02429C7.30399 4.6051 7.77665 5.07775 8.35745 5.07775H11.2369V9.11216C9.02535 9.37377 7.30399 11.2598 7.30399 13.5406C7.30399 14.9051 7.92027 16.1282 8.8884 16.9467H1.05346ZM11.7636 16.9467C9.88532 16.9467 8.35745 15.4189 8.35745 13.5406C8.35745 11.6622 9.88532 10.1344 11.7636 10.1344C13.642 10.1344 15.1698 11.6622 15.1698 13.5406C15.1698 15.4189 13.642 16.9467 11.7636 16.9467Z" fill="#222222"/>
<path id="Vector_2" d="M3.67513 8.41417C3.94109 8.53216 4.25228 8.41206 4.37017 8.14621L6.13043 4.17691C6.24834 3.91098 6.12839 3.59979 5.86246 3.48187C5.5965 3.36395 5.28534 3.48394 5.16742 3.74983L3.40716 7.71913C3.28924 7.9851 3.40923 8.29625 3.67513 8.41417Z" fill="#5FB868"/>
<path id="Vector_3" d="M3.35599 5.42364C3.81249 5.42364 4.18366 5.03912 4.18366 4.56612C4.18366 4.09312 3.81249 3.70825 3.35599 3.70825C2.89949 3.70825 2.52832 4.09312 2.52832 4.56612C2.52832 5.03912 2.89949 5.42364 3.35599 5.42364Z" fill="#5FB868"/>
<path id="Vector_4" d="M6.12992 6.4823C5.67342 6.4823 5.30225 6.86716 5.30225 7.34017C5.30225 7.81317 5.67342 8.19768 6.12992 8.19768C6.58641 8.19768 6.95758 7.81317 6.95758 7.34017C6.95758 6.86716 6.58641 6.4823 6.12992 6.4823Z" fill="#5FB868"/>
<path id="Vector_5" d="M5.86444 9.92358H2.77429C2.48339 9.92358 2.24756 10.1594 2.24756 10.4503C2.24756 10.7412 2.48339 10.977 2.77429 10.977H5.86444C6.15533 10.977 6.39117 10.7412 6.39117 10.4503C6.39117 10.1594 6.15537 9.92358 5.86444 9.92358Z" fill="#5FB868"/>
<path id="Vector_6" d="M2.77429 13.2247H5.30259C5.59349 13.2247 5.82932 12.9889 5.82932 12.698C5.82932 12.4071 5.59349 12.1713 5.30259 12.1713H2.77429C2.48339 12.1713 2.24756 12.4071 2.24756 12.698C2.24756 12.9889 2.48339 13.2247 2.77429 13.2247Z" fill="#5FB868"/>
<path id="Vector_7" d="M5.86444 14.4185H2.77429C2.48339 14.4185 2.24756 14.6543 2.24756 14.9452C2.24756 15.2361 2.48339 15.4719 2.77429 15.4719H5.86444C6.15533 15.4719 6.39117 15.2361 6.39117 14.9452C6.39117 14.6543 6.15537 14.4185 5.86444 14.4185Z" fill="#5FB868"/>
<path id="Vector_8" d="M12.2384 13.0476C11.6747 12.8378 11.8106 12.8884 11.5586 12.7944C11.6335 12.7261 11.9411 12.7183 12.0596 12.8105C12.0597 12.8127 12.0614 12.8133 12.0638 12.8136C12.4081 13.0769 12.9179 12.8339 12.9179 12.3899C12.9179 12.1652 12.7789 11.9734 12.5822 11.8951C12.5053 11.8509 12.3972 11.7986 12.2613 11.7571C12.2144 11.5086 11.9965 11.3284 11.744 11.3284C11.4761 11.3284 11.2552 11.5289 11.2222 11.7877C10.3847 12.111 10.2352 13.1793 10.9097 13.6319C11.4493 13.9933 12.0987 14.0281 12.079 14.1646C12.0666 14.2488 11.9471 14.3634 11.7408 14.3634C11.4518 14.3651 11.3841 14.356 11.1779 14.2408C10.9244 14.099 10.6035 14.1896 10.4612 14.4435C10.319 14.6973 10.41 15.0183 10.6639 15.1602C10.8756 15.2788 11.0477 15.3445 11.2271 15.3796C11.2781 15.6424 11.5191 15.8195 11.7619 15.8056C12.0288 15.7968 12.2451 15.5889 12.2683 15.3263C13.3808 14.9202 13.4661 13.419 12.2384 13.0476Z" fill="#5FB868"/>
</g>
</svg>
