<svg width="13" height="16" viewBox="0 0 13 16" fill="none" xmlns="http://www.w3.org/2000/svg">
<g id="Group">
<path id="Vector" d="M1.68274 0.229675C0.758883 0.229675 0 0.988559 0 1.91242V14.0875C0 15.0114 0.758883 15.7703 1.68274 15.7703H11.3173C12.2411 15.7703 13 15.0114 13 14.0875V4.65099L8.54569 0.229675H1.68274ZM10.0635 3.13323L11.2843 4.35404H9.50254C9.13959 4.35404 8.80964 4.05709 8.80964 3.66115V1.91242L10.0635 3.13323ZM11.3173 14.7474H1.68274C1.3198 14.7474 0.989848 14.4505 0.989848 14.0545V1.91242C0.989848 1.54947 1.2868 1.21952 1.68274 1.21952H7.85279V3.69414C7.85279 4.618 8.61168 5.37688 9.53553 5.37688H12.0102V14.0875C12.0102 14.4505 11.6802 14.7474 11.3173 14.7474Z" fill="white"/>
<path id="Vector_2" d="M4.71846 10.92C4.58648 10.854 4.4215 10.7881 4.15754 10.7221C3.89358 10.6561 3.72861 10.5901 3.66262 10.5571C3.59663 10.5241 3.59663 10.4581 3.59663 10.3921C3.59663 10.3261 3.62962 10.2601 3.69561 10.2271C3.7946 10.1611 3.89358 10.1282 4.05856 10.1282C4.22353 10.1282 4.32252 10.1611 4.38851 10.2271C4.4545 10.2931 4.52049 10.3921 4.52049 10.5241L5.04841 10.4911C5.04841 10.2601 4.94942 10.0622 4.78445 9.93018C4.61947 9.7982 4.35551 9.69922 4.05856 9.69922C3.86059 9.69922 3.69561 9.73221 3.53064 9.7982C3.39866 9.86419 3.26668 9.96318 3.20069 10.0622C3.1347 10.1941 3.10171 10.2931 3.10171 10.4251C3.10171 10.6231 3.1677 10.821 3.33267 10.953C3.43166 11.052 3.62963 11.151 3.92658 11.217C4.15754 11.283 4.28952 11.316 4.35551 11.316C4.4545 11.349 4.52049 11.382 4.55348 11.415C4.58648 11.4479 4.61947 11.5139 4.61947 11.5799C4.61947 11.6789 4.58648 11.7449 4.48749 11.8439C4.38851 11.9429 4.28952 11.9429 4.09155 11.9429C3.92658 11.9429 3.7946 11.9099 3.69561 11.8109C3.59663 11.7449 3.53064 11.6129 3.49765 11.415L2.96973 11.4809C3.00272 11.7779 3.10171 12.0089 3.29968 12.1408C3.46465 12.3058 3.72861 12.3718 4.05856 12.3718C4.28952 12.3718 4.48749 12.3388 4.61947 12.2728C4.75145 12.2068 4.88343 12.1078 4.98242 11.9759C5.0814 11.8439 5.1144 11.7119 5.1144 11.5469C5.1144 11.382 5.0814 11.25 5.01541 11.118C4.91643 11.085 4.85044 10.986 4.71846 10.92Z" fill="white"/>
<path id="Vector_3" d="M6.50011 11.7119L5.84021 9.7652H5.2793L6.20316 12.3718H6.76407L7.72092 9.7652H7.16001L6.50011 11.7119Z" fill="white"/>
<path id="Vector_4" d="M9.20575 11.415H9.79966V11.7449C9.73367 11.8109 9.63468 11.8439 9.5027 11.9099C9.40372 11.9429 9.27174 11.9759 9.17275 11.9759C8.94179 11.9759 8.77681 11.9099 8.64483 11.7449C8.51285 11.5799 8.44686 11.349 8.44686 11.052C8.44686 10.7551 8.51285 10.5571 8.64483 10.3921C8.77681 10.2601 8.97478 10.1611 9.20575 10.1611C9.37072 10.1611 9.46971 10.1941 9.60169 10.2601C9.70067 10.3261 9.76666 10.4251 9.79966 10.5571L10.3276 10.4581C10.2616 10.2271 10.1626 10.0292 9.96463 9.89719C9.76666 9.76521 9.5357 9.69922 9.20575 9.69922C8.94179 9.69922 8.74382 9.73221 8.57884 9.8312C8.34788 9.93018 8.1829 10.0952 8.08392 10.3261C7.98494 10.5241 7.91895 10.7881 7.91895 11.052C7.91895 11.316 7.98494 11.5469 8.08392 11.7449C8.1829 11.9429 8.34788 12.1078 8.54585 12.2398C8.74382 12.3388 8.97478 12.4048 9.27174 12.4048C9.5027 12.4048 9.70067 12.3718 9.89864 12.2728C10.0966 12.2068 10.2616 12.1078 10.3936 11.9759V10.92H9.27174V11.415H9.20575Z" fill="white"/>
</g>
</svg>
