<svg width="17" height="15" viewBox="0 0 17 15" fill="none" xmlns="http://www.w3.org/2000/svg">
<g id="Group 161">
<path id="Vector" d="M14.6506 2.58224H12.3769L12.1122 1.78964C11.9846 1.40478 11.7385 1.06992 11.4091 0.832731C11.0797 0.595544 10.6836 0.468128 10.2774 0.468629H7.00615C6.60004 0.46832 6.20417 0.595818 5.87487 0.832986C5.54556 1.07015 5.29959 1.40491 5.17194 1.78964L4.90666 2.58224H2.63297C2.12028 2.5828 1.62875 2.78629 1.26622 3.14807C0.903693 3.50984 0.699779 4.00035 0.699219 4.51197V12.2795C0.70034 12.7908 0.904501 13.2807 1.26697 13.642C1.62943 14.0034 2.12064 14.2066 2.63297 14.2071H14.6527C15.165 14.206 15.656 14.0023 16.0181 13.6406C16.3802 13.2788 16.5838 12.7887 16.5844 12.2774V4.50986C16.5832 3.9986 16.3791 3.50864 16.0166 3.14732C15.6541 2.786 15.1629 2.5828 14.6506 2.58224ZM15.5253 12.2774C15.5251 12.5088 15.4328 12.7307 15.2688 12.8943C15.1048 13.058 14.8825 13.15 14.6506 13.1503H2.63297C2.40106 13.15 2.17873 13.058 2.01474 12.8943C1.85076 12.7307 1.75851 12.5088 1.75823 12.2774V4.50986C1.75907 4.2788 1.85156 4.05747 2.01549 3.89428C2.17941 3.7311 2.40143 3.63933 2.63297 3.63905H5.28843C5.39952 3.63897 5.50777 3.60402 5.59785 3.53916C5.68794 3.47429 5.7553 3.3828 5.7904 3.27762L6.17641 2.122C6.23438 1.94819 6.34573 1.797 6.49467 1.68992C6.64362 1.58283 6.82257 1.52528 7.00615 1.52544H10.2774C10.4611 1.52524 10.6401 1.58283 10.7891 1.69003C10.9381 1.79723 11.0494 1.94857 11.1072 2.12253L11.4932 3.27762C11.5283 3.3828 11.5956 3.47429 11.6857 3.53916C11.7758 3.60402 11.8841 3.63897 11.9951 3.63905H14.6506C14.8825 3.63933 15.1048 3.73139 15.2688 3.89503C15.4328 4.05868 15.5251 4.28055 15.5253 4.51197V12.2774Z" fill="white"/>
<path id="Vector_2" d="M8.74863 4.1178C7.96318 4.1178 7.19538 4.35071 6.5423 4.78708C5.88923 5.22345 5.38022 5.84368 5.07964 6.56934C4.77906 7.29499 4.70042 8.09349 4.85365 8.86384C5.00689 9.63419 5.38511 10.3418 5.94051 10.8972C6.4959 11.4526 7.20352 11.8308 7.97387 11.9841C8.74422 12.1373 9.54272 12.0586 10.2684 11.7581C10.994 11.4575 11.6143 10.9485 12.0506 10.2954C12.487 9.64233 12.7199 8.87453 12.7199 8.08908C12.7188 7.03618 12.3 6.02672 11.5555 5.2822C10.811 4.53768 9.80153 4.11892 8.74863 4.1178ZM8.74863 11.0014C8.17263 11.0014 7.60958 10.8306 7.13066 10.5105C6.65173 10.1905 6.27846 9.73571 6.05804 9.20356C5.83762 8.67141 5.77994 8.08585 5.89231 7.52092C6.00468 6.956 6.28205 6.43708 6.68934 6.02979C7.09663 5.6225 7.61555 5.34514 8.18047 5.23277C8.7454 5.12039 9.33096 5.17807 9.86311 5.39849C10.3953 5.61891 10.8501 5.99219 11.1701 6.47111C11.4901 6.95003 11.6609 7.51309 11.6609 8.08908C11.6601 8.86121 11.353 9.60147 10.807 10.1474C10.261 10.6934 9.52075 11.0005 8.74863 11.0014Z" fill="#222222"/>
<path id="Vector_3" d="M13.9019 5.83516C14.1983 5.83516 14.4386 5.59489 14.4386 5.2985C14.4386 5.00211 14.1983 4.76184 13.9019 4.76184C13.6055 4.76184 13.3652 5.00211 13.3652 5.2985C13.3652 5.59489 13.6055 5.83516 13.9019 5.83516Z" fill="#222222"/>
</g>
</svg>
