<svg width="15" height="15" viewBox="0 0 15 15" fill="none" xmlns="http://www.w3.org/2000/svg">
<g clip-path="url(#clip0_287_1342)">
<path fill-rule="evenodd" clip-rule="evenodd" d="M12.7596 15H2.24111C1.95991 15 1.72266 14.7715 1.72266 14.4903V7.31986C1.72266 7.03866 1.95991 6.81019 2.24111 6.81019H3.11984V4.14763C3.11984 1.86292 4.98276 0 7.26747 0H7.72441C10.0179 0 11.872 1.86292 11.872 4.14763V6.81019H12.7596C13.0408 6.81019 13.2692 7.03866 13.2692 7.31986V14.4903C13.2692 14.7715 13.0408 15 12.7596 15ZM3.53285 6.81019H4.20069V4.14763C4.20069 2.45167 5.5803 1.07206 7.26747 1.07206H7.72441C9.42037 1.07206 10.8 2.45167 10.8 4.14763V6.81019H11.4678V4.14763C11.4678 2.0826 9.78944 0.413005 7.72441 0.413005H7.26747C5.21123 0.413005 3.53285 2.0826 3.53285 4.14763V6.81019ZM4.60491 6.81019H10.387V4.14763C10.387 2.68014 9.1919 1.48506 7.72441 1.48506H7.26747C5.79999 1.48506 4.60491 2.68014 4.60491 4.14763V6.81019ZM9.06009 13.181H5.9318C5.78241 13.181 5.68575 13.0316 5.74726 12.891L6.57327 11.0545C5.62424 10.2109 6.22178 8.62039 7.49594 8.62039C8.7789 8.62039 9.37644 10.2109 8.4274 11.0545C8.53285 11.283 9.27099 12.8735 9.27099 12.9789C9.27099 13.0931 9.17433 13.181 9.06009 13.181ZM6.24814 12.768H8.74375L7.98803 11.0808C7.95289 10.993 7.97925 10.8875 8.05833 10.826C8.84919 10.2812 8.46255 9.03339 7.49594 9.03339C6.53812 9.03339 6.15148 10.2812 6.94234 10.826C7.02143 10.8875 7.04779 10.993 7.01264 11.0808L6.24814 12.768ZM2.24111 7.2232C2.1796 7.2232 2.13566 7.26714 2.13566 7.31986V14.4903C2.13566 14.5431 2.1796 14.587 2.24111 14.587H12.7596C12.8123 14.587 12.865 14.5431 12.865 14.4903V7.31986C12.865 7.26714 12.8123 7.2232 12.7596 7.2232H2.24111Z" fill="#222222"/>
<path fill-rule="evenodd" clip-rule="evenodd" d="M10.8003 4.14762V6.81018H11.4682V4.14762C11.4682 2.08259 9.78979 0.412994 7.72477 0.412994H7.26783C5.21159 0.412994 3.5332 2.08259 3.5332 4.14762V6.81018H4.20104V4.14762C4.20104 2.45166 5.58065 1.07205 7.26783 1.07205H7.72477C9.42073 1.07205 10.8003 2.45166 10.8003 4.14762Z" fill="#9E9E9E"/>
<path fill-rule="evenodd" clip-rule="evenodd" d="M12.7587 7.22321H2.24021C2.1787 7.22321 2.13477 7.26714 2.13477 7.31987V14.4903C2.13477 14.5431 2.1787 14.587 2.24021 14.587H12.7587C12.8114 14.587 12.8641 14.5431 12.8641 14.4903V7.31987C12.8641 7.26714 12.8114 7.22321 12.7587 7.22321ZM8.42651 11.0545C8.53195 11.283 9.27009 12.8735 9.27009 12.9789C9.27009 13.0932 9.17343 13.181 9.05919 13.181H5.9309C5.78151 13.181 5.68485 13.0316 5.74636 12.891L6.57238 11.0545C5.62334 10.2109 6.22088 8.62039 7.49505 8.62039C8.778 8.62039 9.37554 10.2109 8.42651 11.0545Z" fill="#00733C"/>
<path fill-rule="evenodd" clip-rule="evenodd" d="M8.05824 10.826C8.8491 10.2812 8.46246 9.03339 7.49585 9.03339C6.53803 9.03339 6.15139 10.2812 6.94225 10.826C7.02133 10.8875 7.0477 10.993 7.01255 11.0808L6.24805 12.768H8.74365L7.98794 11.0808C7.95279 10.993 7.97915 10.8875 8.05824 10.826Z" fill="white"/>
</g>
<defs>
<clipPath id="clip0_287_1342">
<rect width="15" height="15" fill="white"/>
</clipPath>
</defs>
</svg>
