<svg width="16" height="16" viewBox="0 0 16 16" fill="none" xmlns="http://www.w3.org/2000/svg">
<path fill-rule="evenodd" clip-rule="evenodd" d="M4.16184 0.312469C5.20409 0.0808437 6.47503 0 8 0C9.52494 0 10.7959 0.0808437 11.8382 0.312469C12.888 0.545781 13.7463 0.940875 14.4027 1.59731C15.0591 2.25375 15.4542 3.112 15.6875 4.16184C15.9191 5.20409 16 6.47503 16 8C16 9.52494 15.9191 10.7959 15.6875 11.8382C15.4542 12.888 15.0591 13.7463 14.4027 14.4027C13.7463 15.0591 12.888 15.4542 11.8382 15.6875C10.7959 15.9191 9.52494 16 8 16C6.47503 16 5.20409 15.9191 4.16184 15.6875C3.112 15.4542 2.25375 15.0591 1.59731 14.4027C0.940875 13.7463 0.545812 12.888 0.312469 11.8382C0.0808437 10.7959 0 9.52494 0 8C0 6.47503 0.0808437 5.20409 0.312469 4.16184C0.545781 3.112 0.940875 2.25375 1.59731 1.59731C2.25375 0.940875 3.112 0.545781 4.16184 0.312469ZM1.61406 4.45109C1.41428 5.34997 1.33334 6.50547 1.33334 8C1.33334 9.49453 1.41431 10.65 1.61406 11.5489C1.81216 12.4402 2.11809 13.0379 2.54012 13.4599C2.96216 13.8819 3.55978 14.1879 4.45109 14.3859C5.34997 14.5858 6.50547 14.6667 8 14.6667C9.49453 14.6667 10.65 14.5857 11.5489 14.3859C12.4402 14.1879 13.0379 13.8819 13.4599 13.4599C13.8819 13.0379 14.1879 12.4402 14.3859 11.5489C14.5858 10.65 14.6667 9.49453 14.6667 8C14.6667 6.50547 14.5857 5.34997 14.3859 4.45109C14.1879 3.55978 13.8819 2.96216 13.4599 2.54012C13.0379 2.11809 12.4402 1.81216 11.5489 1.61406C10.65 1.41428 9.49453 1.33334 8 1.33334C6.50547 1.33334 5.34997 1.41431 4.45109 1.61406C3.55978 1.81216 2.96216 2.11809 2.54012 2.54012C2.11809 2.96216 1.81213 3.55978 1.61406 4.45109Z" fill="#00733C"/>
<path fill-rule="evenodd" clip-rule="evenodd" d="M8.07243 4.37932C8.53215 3.89717 9.29778 3.87189 9.78931 4.31979L11.6052 5.9747C12.1048 6.42989 12.1335 7.20198 11.6662 7.69204L7.92568 11.6145C7.69434 11.857 7.37397 11.9925 7.04134 11.9937L5.33822 12C4.70543 12.0024 4.15859 11.5208 4.11459 10.8729L4.00178 9.21158C3.97884 8.87398 4.10006 8.54486 4.3319 8.3017L8.07243 4.37932ZM8.96109 5.23082L8.4065 5.81239L10.2056 7.44017L10.7545 6.86457L8.96178 5.23082H8.96109ZM9.35597 8.33117L7.55678 6.70336L5.23072 9.14264L5.34118 10.7692L7.03678 10.7629L9.35597 8.33117Z" fill="#00733C"/>
</svg>
