<svg width="11" height="14" viewBox="0 0 11 14" fill="none" xmlns="http://www.w3.org/2000/svg">
<g id="Icon container">
<path id="Vector" d="M10.312 2.45793C10.0005 2.1353 9.56547 1.95 9.11882 1.95H2.1352C1.68855 1.95 1.25353 2.13506 0.942036 2.45793C0.642897 2.76797 0.486182 3.16908 0.500957 3.58885C0.512099 3.88411 0.734939 4.12003 1.021 4.15394L1.36059 11.5852C1.40249 12.4911 2.11994 13.2008 2.9941 13.2008H8.25992C9.13408 13.2008 9.85153 12.4911 9.89319 11.5847L10.2328 4.1537C10.5188 4.11979 10.7417 3.88387 10.7528 3.58788C10.7678 3.16908 10.6111 2.76773 10.312 2.45793ZM1.49962 2.99614C1.66602 2.82392 1.89758 2.7251 2.1352 2.7251H9.11882C9.35644 2.7251 9.588 2.82392 9.7544 2.99614C9.86219 3.1078 9.93364 3.24126 9.96319 3.38296H1.29083C1.32062 3.24102 1.39208 3.1078 1.49962 2.99614ZM9.11882 11.5491C9.0963 12.0405 8.71892 12.4257 8.25992 12.4257H2.9941C2.5351 12.4257 2.15773 12.0408 2.13496 11.5493L1.79731 4.15806H9.45672L9.11882 11.5491ZM4.06761 5.4033V11.1812C4.06761 11.3953 3.89419 11.5687 3.68006 11.5687C3.46594 11.5687 3.29252 11.3953 3.29252 11.1812V5.4033C3.29252 5.18918 3.46594 5.01575 3.68006 5.01575C3.89419 5.01575 4.06761 5.18918 4.06761 5.4033ZM6.0148 5.4033V11.1812C6.0148 11.3953 5.84137 11.5687 5.62725 11.5687C5.41313 11.5687 5.2397 11.3953 5.2397 11.1812V5.4033C5.2397 5.18918 5.41313 5.01575 5.62725 5.01575C5.84137 5.01575 6.0148 5.18918 6.0148 5.4033ZM7.96151 5.4033V11.1812C7.96151 11.3953 7.78808 11.5687 7.57396 11.5687C7.35984 11.5687 7.18641 11.3953 7.18641 11.1812V5.4033C7.18641 5.18918 7.35984 5.01575 7.57396 5.01575C7.78784 5.01575 7.96151 5.18918 7.96151 5.4033ZM4.3108 1.18677C4.3108 0.972653 4.48423 0.799225 4.69835 0.799225H6.55567C6.76979 0.799225 6.94322 0.972653 6.94322 1.18677C6.94322 1.40089 6.76979 1.57432 6.55567 1.57432H4.69835C4.48423 1.57432 4.3108 1.40089 4.3108 1.18677Z" fill="white"/>
</g>
</svg>
