<svg width="14" height="16" viewBox="0 0 14 16" fill="none" xmlns="http://www.w3.org/2000/svg">
<path d="M12.659 2.14C12.2572 1.72375 11.6959 1.48469 11.1197 1.48469H2.10967C1.53342 1.48469 0.972172 1.72344 0.570297 2.14C0.18436 2.54 -0.0178277 3.0575 0.00123481 3.59906C0.0156098 3.98 0.30311 4.28438 0.672172 4.32812L1.1103 13.9156C1.16436 15.0844 2.08998 16 3.2178 16H10.0115C11.1394 16 12.065 15.0844 12.1187 13.915L12.5569 4.32781C12.9259 4.28406 13.2134 3.97969 13.2278 3.59781C13.2472 3.0575 13.045 2.53969 12.659 2.14ZM1.28967 2.83437C1.50436 2.61219 1.80311 2.48469 2.10967 2.48469H11.1197C11.4262 2.48469 11.725 2.61219 11.9397 2.83437C12.0787 2.97844 12.1709 3.15062 12.209 3.33344H1.0203C1.05873 3.15031 1.15092 2.97844 1.28967 2.83437ZM11.1197 13.8691C11.0906 14.5031 10.6037 15 10.0115 15H3.2178C2.62561 15 2.13874 14.5034 2.10936 13.8694L1.67373 4.33344H11.5556L11.1197 13.8691ZM4.6028 5.94V13.3944C4.6028 13.6706 4.37905 13.8944 4.1028 13.8944C3.82655 13.8944 3.6028 13.6706 3.6028 13.3944V5.94C3.6028 5.66375 3.82655 5.44 4.1028 5.44C4.37905 5.44 4.6028 5.66375 4.6028 5.94ZM7.11498 5.94V13.3944C7.11498 13.6706 6.89123 13.8944 6.61498 13.8944C6.33874 13.8944 6.11498 13.6706 6.11498 13.3944V5.94C6.11498 5.66375 6.33874 5.44 6.61498 5.44C6.89123 5.44 7.11498 5.66375 7.11498 5.94ZM9.62655 5.94V13.3944C9.62655 13.6706 9.4028 13.8944 9.12655 13.8944C8.8503 13.8944 8.62655 13.6706 8.62655 13.3944V5.94C8.62655 5.66375 8.8503 5.44 9.12655 5.44C9.40248 5.44 9.62655 5.66375 9.62655 5.94ZM4.91655 0.5C4.91655 0.22375 5.1403 0 5.41655 0H7.8128C8.08905 0 8.3128 0.22375 8.3128 0.5C8.3128 0.77625 8.08905 1 7.8128 1H5.41655C5.1403 1 4.91655 0.77625 4.91655 0.5Z" fill="#00733C"/>
</svg>
