<svg width="21" height="20" viewBox="0 0 21 20" fill="none" xmlns="http://www.w3.org/2000/svg">
<g id="Group">
<path id="Vector" d="M15.8203 8.98438C16.2518 8.98438 16.6016 8.6346 16.6016 8.20312C16.6016 7.77165 16.2518 7.42188 15.8203 7.42188C15.3888 7.42188 15.0391 7.77165 15.0391 8.20312C15.0391 8.6346 15.3888 8.98438 15.8203 8.98438Z" fill="white"/>
<path id="Vector_2" d="M17.6172 1.5625H16.6016V0.78125C16.6016 0.349766 16.2518 0 15.8203 0C15.3888 0 15.0391 0.349766 15.0391 0.78125V1.5625H11.4844V0.78125C11.4844 0.349766 11.1346 0 10.7031 0C10.2716 0 9.92188 0.349766 9.92188 0.78125V1.5625H6.40625V0.78125C6.40625 0.349766 6.05648 0 5.625 0C5.19352 0 4.84375 0.349766 4.84375 0.78125V1.5625H3.86719C2.14406 1.5625 0.742188 2.96438 0.742188 4.6875V16.875C0.742188 18.5981 2.14406 20 3.86719 20H9.84375C10.2752 20 10.625 19.6502 10.625 19.2188C10.625 18.7873 10.2752 18.4375 9.84375 18.4375H3.86719C3.00563 18.4375 2.30469 17.7366 2.30469 16.875V4.6875C2.30469 3.82594 3.00563 3.125 3.86719 3.125H4.84375V3.90625C4.84375 4.33773 5.19352 4.6875 5.625 4.6875C6.05648 4.6875 6.40625 4.33773 6.40625 3.90625V3.125H9.92188V3.90625C9.92188 4.33773 10.2716 4.6875 10.7031 4.6875C11.1346 4.6875 11.4844 4.33773 11.4844 3.90625V3.125H15.0391V3.90625C15.0391 4.33773 15.3888 4.6875 15.8203 4.6875C16.2518 4.6875 16.6016 4.33773 16.6016 3.90625V3.125H17.6172C18.4788 3.125 19.1797 3.82594 19.1797 4.6875V9.14062C19.1797 9.57211 19.5295 9.92188 19.9609 9.92188C20.3924 9.92188 20.7422 9.57211 20.7422 9.14062V4.6875C20.7422 2.96438 19.3403 1.5625 17.6172 1.5625Z" fill="white"/>
<path id="Vector_3" d="M16.0156 10.5469C13.4094 10.5469 11.2891 12.6672 11.2891 15.2734C11.2891 17.8797 13.4094 20 16.0156 20C18.6219 20 20.7422 17.8797 20.7422 15.2734C20.7422 12.6672 18.6219 10.5469 16.0156 10.5469ZM16.0156 18.4375C14.271 18.4375 12.8516 17.0181 12.8516 15.2734C12.8516 13.5287 14.271 12.1094 16.0156 12.1094C17.7603 12.1094 19.1797 13.5287 19.1797 15.2734C19.1797 17.0181 17.7603 18.4375 16.0156 18.4375Z" fill="#5FB868"/>
<path id="Vector_4" d="M17.1484 14.4922H16.7969V13.6719C16.7969 13.2404 16.4471 12.8906 16.0156 12.8906C15.5841 12.8906 15.2344 13.2404 15.2344 13.6719V15.2734C15.2344 15.7049 15.5841 16.0547 16.0156 16.0547H17.1484C17.5799 16.0547 17.9297 15.7049 17.9297 15.2734C17.9297 14.842 17.5799 14.4922 17.1484 14.4922Z" fill="#5FB868"/>
<path id="Vector_5" d="M12.4219 8.98438C12.8533 8.98438 13.2031 8.6346 13.2031 8.20312C13.2031 7.77165 12.8533 7.42188 12.4219 7.42188C11.9904 7.42188 11.6406 7.77165 11.6406 8.20312C11.6406 8.6346 11.9904 8.98438 12.4219 8.98438Z" fill="white"/>
<path id="Vector_6" d="M9.02344 12.3828C9.45491 12.3828 9.80469 12.033 9.80469 11.6016C9.80469 11.1701 9.45491 10.8203 9.02344 10.8203C8.59197 10.8203 8.24219 11.1701 8.24219 11.6016C8.24219 12.033 8.59197 12.3828 9.02344 12.3828Z" fill="white"/>
<path id="Vector_7" d="M5.625 8.98438C6.05647 8.98438 6.40625 8.6346 6.40625 8.20312C6.40625 7.77165 6.05647 7.42188 5.625 7.42188C5.19353 7.42188 4.84375 7.77165 4.84375 8.20312C4.84375 8.6346 5.19353 8.98438 5.625 8.98438Z" fill="white"/>
<path id="Vector_8" d="M5.625 12.3828C6.05647 12.3828 6.40625 12.033 6.40625 11.6016C6.40625 11.1701 6.05647 10.8203 5.625 10.8203C5.19353 10.8203 4.84375 11.1701 4.84375 11.6016C4.84375 12.033 5.19353 12.3828 5.625 12.3828Z" fill="white"/>
<path id="Vector_9" d="M5.625 15.7812C6.05647 15.7812 6.40625 15.4315 6.40625 15C6.40625 14.5685 6.05647 14.2188 5.625 14.2188C5.19353 14.2188 4.84375 14.5685 4.84375 15C4.84375 15.4315 5.19353 15.7812 5.625 15.7812Z" fill="white"/>
<path id="Vector_10" d="M9.02344 15.7812C9.45491 15.7812 9.80469 15.4315 9.80469 15C9.80469 14.5685 9.45491 14.2188 9.02344 14.2188C8.59197 14.2188 8.24219 14.5685 8.24219 15C8.24219 15.4315 8.59197 15.7812 9.02344 15.7812Z" fill="white"/>
<path id="Vector_11" d="M9.02344 8.98438C9.45491 8.98438 9.80469 8.6346 9.80469 8.20312C9.80469 7.77165 9.45491 7.42188 9.02344 7.42188C8.59197 7.42188 8.24219 7.77165 8.24219 8.20312C8.24219 8.6346 8.59197 8.98438 9.02344 8.98438Z" fill="white"/>
</g>
</svg>
