<svg width="26" height="26" viewBox="0 0 26 26" fill="none" xmlns="http://www.w3.org/2000/svg">
<path d="M17.9688 1H8.03125C4.14813 1 1 4.14813 1 8.03125V17.9688C1 21.8519 4.14813 25 8.03125 25H17.9688C21.8519 25 25 21.8519 25 17.9688V8.03125C25 4.14813 21.8519 1 17.9688 1ZM23.8281 17.9688C23.8281 21.1994 21.1994 23.8281 17.9688 23.8281H8.03125C4.80063 23.8281 2.17188 21.1994 2.17188 17.9688V8.03125C2.17188 4.80063 4.80063 2.17188 8.03125 2.17188H17.9688C21.1994 2.17188 23.8281 4.80063 23.8281 8.03125V17.9688ZM11.5131 19.1172C11.4147 19.2016 11.2914 19.2438 11.1437 19.2438C10.9961 19.2438 10.7711 19.1767 10.4688 19.0431C10.1664 18.9095 9.92031 18.7164 9.73047 18.4628C9.54062 18.2097 9.44547 18.0231 9.44547 17.9041C9.44547 17.785 9.48766 17.6828 9.57203 17.598L13.833 12.873L9.50875 8.42219C9.42437 8.33781 9.38219 8.23563 9.38219 8.11656C9.38219 7.9975 9.47734 7.80719 9.66719 7.54703C9.85703 7.28688 10.1027 7.09 10.4055 6.95641C10.7078 6.82281 10.9328 6.75578 11.0805 6.75578C11.2281 6.75578 11.3509 6.805 11.4498 6.90344L16.3225 12.3034C16.5194 12.5003 16.6178 12.6761 16.6178 12.8308C16.6178 12.9855 16.5475 13.1331 16.4069 13.2738L11.5131 19.1172Z" fill="white" stroke="white"/>
</svg>
