<svg width="24" height="23" viewBox="0 0 24 23" fill="none" xmlns="http://www.w3.org/2000/svg">
<g id="icon">
<path id="Vector" d="M21.4286 3.42857H14.5714V2.57143C14.5714 1.88944 14.3005 1.23539 13.8183 0.753154C13.336 0.270918 12.682 0 12 0C11.318 0 10.664 0.270918 10.1817 0.753154C9.69949 1.23539 9.42857 1.88944 9.42857 2.57143V3.42857H2.57143C1.88944 3.42857 1.23539 3.69949 0.753154 4.18173C0.270918 4.66396 0 5.31801 0 6V19.7143C0 20.3963 0.270918 21.0503 0.753154 21.5326C1.23539 22.0148 1.88944 22.2857 2.57143 22.2857H21.4286C22.1106 22.2857 22.7646 22.0148 23.2468 21.5326C23.7291 21.0503 24 20.3963 24 19.7143V6C24 5.31801 23.7291 4.66396 23.2468 4.18173C22.7646 3.69949 22.1106 3.42857 21.4286 3.42857ZM11.1429 2.57143C11.1429 2.3441 11.2332 2.12608 11.3939 1.96534C11.5547 1.80459 11.7727 1.71429 12 1.71429C12.2273 1.71429 12.4453 1.80459 12.6061 1.96534C12.7668 2.12608 12.8571 2.3441 12.8571 2.57143V3.42857H11.1429V2.57143ZM22.2857 19.7143C22.2857 19.9416 22.1954 20.1596 22.0347 20.3204C21.8739 20.4811 21.6559 20.5714 21.4286 20.5714H2.57143C2.3441 20.5714 2.12608 20.4811 1.96534 20.3204C1.80459 20.1596 1.71429 19.9416 1.71429 19.7143V6C1.71429 5.77267 1.80459 5.55465 1.96534 5.39391C2.12608 5.23316 2.3441 5.14286 2.57143 5.14286H21.4286C21.6559 5.14286 21.8739 5.23316 22.0347 5.39391C22.1954 5.55465 22.2857 5.77267 22.2857 6V19.7143ZM9.42857 6.85714H5.14286C4.6882 6.85714 4.25216 7.03776 3.93067 7.35925C3.60918 7.68074 3.42857 8.11677 3.42857 8.57143V17.1429C3.42857 17.5975 3.60918 18.0335 3.93067 18.355C4.25216 18.6765 4.6882 18.8571 5.14286 18.8571H9.42857C9.88323 18.8571 10.3193 18.6765 10.6408 18.355C10.9622 18.0335 11.1429 17.5975 11.1429 17.1429V8.57143C11.1429 8.11677 10.9622 7.68074 10.6408 7.35925C10.3193 7.03776 9.88323 6.85714 9.42857 6.85714ZM5.14286 17.1429V8.57143H9.42857V17.1429H5.14286Z" fill="#222222"/>
<path id="Vector_2" d="M12.8574 9.42857C12.8574 9.20124 12.9477 8.98322 13.1085 8.82248C13.2692 8.66173 13.4872 8.57143 13.7146 8.57143H19.7146C19.9419 8.57143 20.1599 8.66173 20.3207 8.82248C20.4814 8.98322 20.5717 9.20124 20.5717 9.42857C20.5717 9.6559 20.4814 9.87392 20.3207 10.0347C20.1599 10.1954 19.9419 10.2857 19.7146 10.2857H13.7146C13.4872 10.2857 13.2692 10.1954 13.1085 10.0347C12.9477 9.87392 12.8574 9.6559 12.8574 9.42857ZM19.7146 12H13.7146C13.4872 12 13.2692 12.0903 13.1085 12.251C12.9477 12.4118 12.8574 12.6298 12.8574 12.8571C12.8574 13.0845 12.9477 13.3025 13.1085 13.4632C13.2692 13.624 13.4872 13.7143 13.7146 13.7143H19.7146C19.9419 13.7143 20.1599 13.624 20.3207 13.4632C20.4814 13.3025 20.5717 13.0845 20.5717 12.8571C20.5717 12.6298 20.4814 12.4118 20.3207 12.251C20.1599 12.0903 19.9419 12 19.7146 12ZM17.1431 15.4286H13.7146C13.4872 15.4286 13.2692 15.5189 13.1085 15.6796C12.9477 15.8404 12.8574 16.0584 12.8574 16.2857C12.8574 16.513 12.9477 16.7311 13.1085 16.8918C13.2692 17.0526 13.4872 17.1429 13.7146 17.1429H17.1431C17.3705 17.1429 17.5885 17.0526 17.7492 16.8918C17.91 16.7311 18.0003 16.513 18.0003 16.2857C18.0003 16.0584 17.91 15.8404 17.7492 15.6796C17.5885 15.5189 17.3705 15.4286 17.1431 15.4286Z" fill="#5FB868"/>
</g>
</svg>
