<svg width="25" height="25" viewBox="0 0 25 25" fill="none" xmlns="http://www.w3.org/2000/svg">
<path d="M18.3311 2.5C16.9561 2.5 15.8311 3.62501 15.8311 5.00001C15.8311 6.37502 16.9561 7.50003 18.3311 7.50003C19.7061 7.50003 20.8311 6.37502 20.8311 5.00001C20.8311 3.62501 19.7061 2.5 18.3311 2.5ZM18.3311 5.83335C17.8727 5.83335 17.4977 5.45835 17.4977 5.00001C17.4977 4.54168 17.8727 4.16668 18.3311 4.16668C18.7894 4.16668 19.1644 4.54168 19.1644 5.00001C19.1644 5.45835 18.7894 5.83335 18.3311 5.83335Z" fill="white"/>
<path d="M1.92614 13.5393C1.57863 13.191 1.57863 12.6246 1.92614 12.2763L12.2558 1.92709C12.4206 1.76193 12.6489 1.66668 12.8828 1.66668H20.7771C21.267 1.66668 21.6653 2.06709 21.6653 2.5586V9.6403C21.6653 10.1009 22.0385 10.4736 22.4987 10.4736C22.9588 10.4736 23.332 10.1009 23.332 9.6403V2.5586C23.332 1.14742 22.1857 0 20.7771 0H12.8828C12.2089 0 11.5502 0.273418 11.0754 0.750337L0.746129 11.0995C-0.24871 12.0964 -0.24871 13.7192 0.746129 14.716L8.59817 22.583C8.76134 22.7466 8.97459 22.828 9.18818 22.828C9.40101 22.828 9.61418 22.7465 9.77693 22.5846C10.1024 22.2591 10.1033 21.7318 9.77818 21.4062L1.92614 13.5393Z" fill="white"/>
<path d="M17.4971 10C13.3638 10 9.99707 13.3667 9.99707 17.5C9.99707 21.6334 13.3638 25.0001 17.4971 25.0001C21.6305 25.0001 24.9972 21.6334 24.9972 17.5C24.9972 13.3667 21.6305 10 17.4971 10ZM17.4971 16.6667C18.8721 16.6667 19.9971 17.7917 19.9971 19.1667C19.9971 20.2501 19.2971 21.1667 18.3304 21.5167V21.6667C18.3304 22.1251 17.9554 22.5001 17.4971 22.5001C17.0388 22.5001 16.6638 22.1251 16.6638 21.6667V21.5167C15.6971 21.1667 14.9971 20.2501 14.9971 19.1667C14.9971 18.7084 15.3721 18.3334 15.8304 18.3334C16.2888 18.3334 16.6638 18.7084 16.6638 19.1667C16.6638 19.6251 17.0388 20.0001 17.4971 20.0001C17.9554 20.0001 18.3304 19.6251 18.3304 19.1667C18.3304 18.7084 17.9554 18.3334 17.4971 18.3334C16.1221 18.3334 14.9971 17.2084 14.9971 15.8334C14.9971 14.75 15.6971 13.8334 16.6638 13.4834V13.3334C16.6638 12.875 17.0388 12.5 17.4971 12.5C17.9554 12.5 18.3304 12.875 18.3304 13.3334V13.4834C19.2971 13.8334 19.9971 14.75 19.9971 15.8334C19.9971 16.2917 19.6221 16.6667 19.1638 16.6667C18.7055 16.6667 18.3304 16.2917 18.3304 15.8334C18.3304 15.375 17.9554 15 17.4971 15C17.0388 15 16.6638 15.375 16.6638 15.8334C16.6638 16.2917 17.0388 16.6667 17.4971 16.6667Z" fill="#E8BC33"/>
</svg>
