<svg width="24" height="24" viewBox="0 0 24 24" fill="none" xmlns="http://www.w3.org/2000/svg">
<path fill-rule="evenodd" clip-rule="evenodd" d="M15.75 24H18.375C19.8675 24 21.2962 23.4075 22.3537 22.3526C23.4075 21.2978 24 19.8668 24 18.375C24 14.6415 24 9.3585 24 5.625C24 4.13325 23.4075 2.70225 22.3537 1.64737C21.2962 0.5925 19.8675 0 18.375 0H5.625C4.1325 0 2.70376 0.5925 1.64626 1.64737C0.592506 2.70225 0 4.13325 0 5.625V18.375C0 19.8668 0.592506 21.2978 1.64626 22.3526C2.70376 23.4075 4.1325 24 5.625 24H12.375C12.9975 24 13.5 23.496 13.5 22.875C13.5 22.254 12.9975 21.75 12.375 21.75H5.625C4.72875 21.75 3.87001 21.3945 3.24001 20.7615C2.60626 20.1285 2.25 19.2701 2.25 18.375V5.625C2.25 4.72988 2.60626 3.8715 3.24001 3.2385C3.87001 2.6055 4.72875 2.25 5.625 2.25H18.375C19.2712 2.25 20.13 2.6055 20.76 3.2385C21.3937 3.8715 21.75 4.72988 21.75 5.625V18.375C21.75 19.2701 21.3937 20.1285 20.76 20.7615C20.13 21.3945 19.2712 21.75 18.375 21.75H15.75C15.1275 21.75 14.625 22.254 14.625 22.875C14.625 23.496 15.1275 24 15.75 24ZM10.875 10.875H5.625C5.0025 10.875 4.5 11.379 4.5 12C4.5 12.621 5.0025 13.125 5.625 13.125H10.875V18.375C10.875 18.996 11.3775 19.5 12 19.5C12.6225 19.5 13.125 18.996 13.125 18.375V13.125H18.375C18.9975 13.125 19.5 12.621 19.5 12C19.5 11.379 18.9975 10.875 18.375 10.875H13.125V5.625C13.125 5.004 12.6225 4.5 12 4.5C11.3775 4.5 10.875 5.004 10.875 5.625V10.875Z" fill="white"/>
</svg>
