<svg width="19" height="19" viewBox="0 0 19 19" fill="none" xmlns="http://www.w3.org/2000/svg">
<g id="surface1">
<path id="Vector" d="M11.5178 9.53893C11.3323 9.38802 11.1061 9.26249 10.8391 9.16189C10.572 9.06143 10.2751 8.96721 9.94836 8.87907C9.697 8.81631 9.4755 8.75658 9.28387 8.70005C9.09209 8.64337 8.9335 8.58075 8.80797 8.51146C8.68214 8.44246 8.58647 8.3623 8.52037 8.27112C8.45441 8.18008 8.42151 8.06542 8.42151 7.92713C8.42151 7.68839 8.50935 7.50298 8.68533 7.37093C8.86117 7.23901 9.12833 7.17306 9.48652 7.17306C9.68758 7.17306 9.88559 7.19814 10.0804 7.24844C10.2751 7.29874 10.4559 7.36005 10.6223 7.43224C10.7887 7.50458 10.9302 7.57836 11.0466 7.65374C11.1627 7.72912 11.2428 7.78899 11.2869 7.83276L11.8618 6.77718C11.5664 6.57612 11.2209 6.40173 10.8251 6.25402C10.5821 6.16342 10.3248 6.10094 10.0535 6.06586V4.86865H8.94017V6.08167C8.81406 6.10355 8.69128 6.13255 8.57227 6.16922C8.27684 6.2604 8.01765 6.39391 7.79471 6.56974C7.57147 6.74572 7.39709 6.96562 7.27155 7.22959C7.14573 7.49356 7.08296 7.79522 7.08296 8.13442C7.08296 8.39216 7.12225 8.61366 7.20081 8.79906C7.27938 8.98446 7.39709 9.14783 7.55422 9.28916C7.71136 9.4305 7.90778 9.55313 8.14333 9.65678C8.37904 9.76042 8.65707 9.85624 8.97757 9.94423C9.24139 10.0196 9.48029 10.0889 9.69395 10.1517C9.90748 10.2144 10.0898 10.2836 10.2406 10.359C10.3913 10.4343 10.5076 10.5225 10.5894 10.6229C10.671 10.7235 10.7119 10.846 10.7119 10.9905C10.7119 11.4492 10.3537 11.6785 9.63728 11.6785C9.37968 11.6785 9.12833 11.6472 8.88335 11.5843C8.63822 11.5217 8.41513 11.4445 8.21407 11.3534C8.01287 11.2623 7.83849 11.1712 7.69092 11.08C7.54321 10.9889 7.44115 10.9152 7.38462 10.8585L6.80957 11.9802C7.19922 12.2568 7.63917 12.4703 8.12927 12.6212C8.39759 12.7037 8.66794 12.7629 8.94017 12.8002V14.1221H10.0535V12.8247C10.2252 12.8069 10.3929 12.7785 10.5565 12.739C10.8548 12.6668 11.1188 12.552 11.3482 12.3949C11.5775 12.2379 11.7596 12.0321 11.8949 11.7775C12.03 11.5231 12.0975 11.2167 12.0975 10.8585C12.0975 10.5507 12.0472 10.2915 11.9468 10.0809C11.846 9.87045 11.7031 9.68968 11.5178 9.53893Z" fill="#5FB868"/>
<path id="Vector_2" d="M16.2175 2.78248C14.4232 0.988182 12.0375 0 9.5 0C6.9625 0 4.57677 0.988182 2.78248 2.78248C0.988182 4.57677 0 6.9625 0 9.5C0 12.0375 0.988182 14.4232 2.78248 16.2175C4.57677 18.0118 6.9625 19 9.5 19C12.0375 19 14.4232 18.0118 16.2175 16.2175C18.0118 14.4232 19 12.0375 19 9.5C19 6.9625 18.0118 4.57677 16.2175 2.78248ZM9.5 17.8867C4.87553 17.8867 1.11328 14.1245 1.11328 9.5C1.11328 4.87553 4.87553 1.11328 9.5 1.11328C14.1245 1.11328 17.8867 4.87553 17.8867 9.5C17.8867 14.1245 14.1245 17.8867 9.5 17.8867Z" fill="#222222"/>
<path id="Vector_3" d="M9.50038 2.27612C5.51706 2.27612 2.27637 5.51682 2.27637 9.50013C2.27637 13.4834 5.51706 16.7241 9.50038 16.7241C13.4837 16.7241 16.7244 13.4834 16.7244 9.50013C16.7244 5.51682 13.4837 2.27612 9.50038 2.27612ZM9.50038 15.6109C6.13096 15.6109 3.38965 12.8695 3.38965 9.50013C3.38965 6.13072 6.13096 3.3894 9.50038 3.3894C12.8698 3.3894 15.6111 6.13072 15.6111 9.50013C15.6111 12.8695 12.8698 15.6109 9.50038 15.6109Z" fill="#5FB868"/>
</g>
</svg>
