<svg width="21" height="21" viewBox="0 0 21 21" fill="none" xmlns="http://www.w3.org/2000/svg">
<g clip-path="url(#clip0_112_470)">
<path fill-rule="evenodd" clip-rule="evenodd" d="M4.10156 0H16.8984C17.9856 0.00209217 19.0276 0.434892 19.7964 1.20363C20.5651 1.97237 20.9979 3.0144 21 4.10156V16.8984C20.9979 17.9856 20.5651 19.0276 19.7964 19.7964C19.0276 20.5651 17.9856 20.9979 16.8984 21H4.10156C3.0144 20.9979 1.97237 20.5651 1.20363 19.7964C0.434892 19.0276 0.00209217 17.9856 0 16.8984L0 4.10156C0.00209217 3.0144 0.434892 1.97237 1.20363 1.20363C1.97237 0.434892 3.0144 0.00209217 4.10156 0ZM4.34729 10.5006C4.3473 10.7044 4.42827 10.8999 4.57239 11.044C4.71651 11.1881 4.91197 11.2691 5.1158 11.2691H14.0263L11.0232 14.2722C10.8817 14.417 10.803 14.6116 10.8041 14.814C10.8052 15.0164 10.886 15.2101 11.029 15.3533C11.1721 15.4965 11.3657 15.5776 11.5681 15.5789C11.7705 15.5802 11.9652 15.5018 12.1101 15.3605L16.4272 11.0435C16.5712 10.8993 16.652 10.7039 16.652 10.5001C16.652 10.2963 16.5712 10.1008 16.4272 9.95662L12.1103 5.63965C11.9655 5.49797 11.7706 5.41915 11.568 5.42032C11.3654 5.42149 11.1714 5.50256 11.0283 5.64591C10.8851 5.78926 10.8043 5.98331 10.8034 6.1859C10.8024 6.3885 10.8815 6.58327 11.0234 6.72792L14.0265 9.73104H5.1158C5.0148 9.73108 4.9148 9.75101 4.82151 9.78971C4.72822 9.82841 4.64347 9.88511 4.5721 9.95658C4.50073 10.028 4.44414 10.1129 4.40557 10.2062C4.36699 10.2995 4.34719 10.3996 4.34729 10.5006Z" fill="#222222"/>
</g>
<defs>
<clipPath id="clip0_112_470">
<rect width="21" height="21" fill="white"/>
</clipPath>
</defs>
</svg>
