<svg width="21" height="25" viewBox="0 0 21 25" fill="none" xmlns="http://www.w3.org/2000/svg">
<g id="Group">
<path id="Vector" fill-rule="evenodd" clip-rule="evenodd" d="M6.68848 5.03473C6.68838 4.3286 6.90831 3.63831 7.32048 3.05112C7.73265 2.46394 8.31853 2.00624 9.00406 1.73589C9.68958 1.46555 10.4439 1.39471 11.1718 1.53233C11.8996 1.66995 12.5682 2.00984 13.093 2.50904C13.6179 3.00823 13.9754 3.6443 14.1203 4.33683C14.2653 5.02935 14.1912 5.74723 13.9074 6.39967C13.6236 7.05212 13.1429 7.60984 12.526 8.00232C11.9091 8.39479 11.1838 8.60439 10.4417 8.60462C9.44691 8.60362 8.49312 8.22724 7.78953 7.55802C7.08593 6.8888 6.68997 5.98136 6.68848 5.03473Z" fill="#5FB868"/>
<path id="Vector_2" fill-rule="evenodd" clip-rule="evenodd" d="M10.4409 1.56261C11.1625 1.56295 11.8678 1.76688 12.4676 2.14861C13.0674 2.53035 13.5348 3.07275 13.8107 3.70724C14.0866 4.34172 14.1586 5.03981 14.0176 5.71323C13.8766 6.38665 13.5289 7.00517 13.0185 7.49058C12.5081 7.97599 11.8579 8.30649 11.1502 8.44031C10.4424 8.57413 9.70886 8.50525 9.04224 8.24238C8.37561 7.97951 7.80586 7.53445 7.40503 6.96348C7.00419 6.39251 6.79026 5.72126 6.79029 5.0346C6.7913 4.11374 7.1763 3.2309 7.86076 2.57993C8.54521 1.92896 9.47318 1.56307 10.4409 1.56261ZM10.4409 10.0694C11.4873 10.0692 12.5101 9.77374 13.38 9.22041C14.25 8.66707 14.9279 7.88069 15.3282 6.96071C15.7285 6.04072 15.8332 5.02845 15.6289 4.05189C15.4246 3.07532 14.9207 2.17832 14.1807 1.4743C13.4407 0.770287 12.498 0.290872 11.4717 0.0966795C10.4454 -0.0975134 9.38163 0.00223635 8.41491 0.383316C7.44819 0.764395 6.62193 1.40969 6.04059 2.23761C5.45926 3.06552 5.14897 4.03888 5.14895 5.0346C5.15025 6.36969 5.70824 7.64973 6.70042 8.5937C7.6926 9.53766 9.03787 10.0684 10.4409 10.0694ZM1.67748 17.1289C1.67859 15.8809 2.19998 14.6843 3.12721 13.8018C4.05443 12.9192 5.31175 12.4228 6.62322 12.4214H14.2561C15.5678 12.4227 16.8254 12.9191 17.753 13.8016C18.6806 14.6841 19.2024 15.8807 19.2041 17.1289V22.8755C19.2035 23.0247 19.1408 23.1677 19.0296 23.273C18.9185 23.3784 18.768 23.4375 18.6112 23.4375H16.1177V18.0667C16.1186 17.9636 16.098 17.8614 16.0571 17.7659C16.0163 17.6704 15.956 17.5836 15.8797 17.5104C15.8034 17.4373 15.7126 17.3792 15.6126 17.3396C15.5126 17.2999 15.4054 17.2795 15.2971 17.2795C15.1887 17.2795 15.0815 17.2999 14.9815 17.3396C14.8815 17.3792 14.7907 17.4373 14.7145 17.5104C14.6382 17.5836 14.5778 17.6704 14.537 17.7659C14.4961 17.8614 14.4755 17.9636 14.4764 18.0667V23.4375H6.40293V18.0667C6.40293 17.8595 6.31647 17.6609 6.16257 17.5145C6.00867 17.368 5.79993 17.2857 5.58228 17.2857C5.36463 17.2857 5.1559 17.368 5.002 17.5145C4.8481 17.6609 4.76164 17.8595 4.76164 18.0667V23.4375H2.26814C2.19055 23.4375 2.11373 23.4229 2.04206 23.3947C1.97039 23.3664 1.90527 23.325 1.85042 23.2728C1.79557 23.2205 1.75207 23.1586 1.72239 23.0903C1.69272 23.0221 1.67746 22.949 1.67748 22.8752V17.1289ZM2.26814 25H18.6113C19.2035 24.9996 19.7714 24.7756 20.1903 24.3773C20.6092 23.9789 20.8449 23.4387 20.8458 22.8751V17.1289C20.8438 15.4664 20.1489 13.8726 18.9135 12.6971C17.6781 11.5216 16.0032 10.8604 14.2561 10.8587H6.62322C2.98955 10.8587 0.0361328 13.6712 0.0361328 17.1286V22.8752C0.0364588 23.4385 0.271693 23.9787 0.690179 24.377C1.10867 24.7754 1.67619 24.9995 2.26814 25Z" fill="#222222"/>
</g>
</svg>
