<svg width="25" height="24" viewBox="0 0 25 24" fill="none" xmlns="http://www.w3.org/2000/svg">
<g id="Group 511">
<g id="Group">
<path id="Vector" d="M10.6366 19.3872H10.0232H6.99866H6.21891C6.0244 19.3872 5.8667 19.5449 5.8667 19.7394C5.8667 19.934 6.0244 20.0916 6.21891 20.0916H6.64645V23.616C6.64645 23.7336 6.70515 23.8434 6.80297 23.9088C6.90079 23.9741 7.02473 23.9863 7.13339 23.9414L8.51097 23.3712L9.88854 23.9414C9.93188 23.9593 9.97762 23.9681 10.0232 23.9681C10.0919 23.9681 10.1602 23.948 10.219 23.9087C10.3168 23.8433 10.3755 23.7335 10.3755 23.6159V20.0916H10.6366C10.8311 20.0916 10.9888 19.9339 10.9888 19.7394C10.9888 19.5448 10.8311 19.3872 10.6366 19.3872ZM9.67106 23.089L8.6457 22.6646C8.60259 22.6468 8.5568 22.6378 8.51101 22.6378C8.46522 22.6378 8.41944 22.6468 8.37633 22.6646L7.35097 23.089V20.0916H9.6711V23.089H9.67106Z" fill="#5FB868"/>
<path id="Vector_2" d="M7.60758 13.7266C7.41307 13.7266 7.25537 13.8842 7.25537 14.0788C7.25537 14.2733 7.41307 14.431 7.60758 14.431H12.6133C12.8078 14.431 12.9655 14.2733 12.9655 14.0788C12.9655 13.8842 12.8078 13.7266 12.6133 13.7266H7.60758Z" fill="#222222"/>
<path id="Vector_3" d="M13.827 16.1559C13.9247 16.2213 14.0486 16.2335 14.1574 16.1885L15.535 15.6183L16.9125 16.1885C16.9559 16.2064 17.0016 16.2152 17.0472 16.2152C17.1159 16.2152 17.1842 16.1951 17.243 16.1558C17.3407 16.0905 17.3994 15.9807 17.3994 15.863V12.3387H17.827C18.0215 12.3387 18.1792 12.1811 18.1792 11.9865C18.1792 11.7919 18.0215 11.6343 17.827 11.6343H17.0472H14.0227H13.4093C13.2148 11.6343 13.0571 11.7919 13.0571 11.9865C13.0571 12.1811 13.2148 12.3387 13.4093 12.3387H13.6705V15.863C13.6705 15.9807 13.7292 16.0906 13.827 16.1559ZM16.695 12.3387V15.3361L15.6696 14.9117C15.6265 14.8939 15.5807 14.885 15.535 14.885C15.4892 14.885 15.4434 14.8939 15.4003 14.9117L14.3749 15.3361V12.3387H16.695Z" fill="#5FB868"/>
<path id="Vector_4" d="M23.3344 2.49331C23.7214 2.49331 24.0361 2.17853 24.0361 1.79161V0.706048C24.0361 0.319178 23.7214 0.00439453 23.3344 0.00439453H4.30043C1.9687 0.00439453 0.0716827 1.90141 0.0716827 4.23314C0.0716827 5.70267 0.825322 6.99932 1.96621 7.75747H0.746662C0.359745 7.75747 0.0449616 8.07225 0.0449616 8.45917V9.54473C0.0449616 9.9316 0.359745 10.2464 0.746662 10.2464H1.43127V13.726H0.746662C0.359745 13.726 0.0449616 14.0408 0.0449616 14.4277V15.5132C0.0449616 15.9001 0.359745 16.2149 0.746662 16.2149H1.93066C0.789772 16.9731 0.0361328 18.2698 0.0361328 19.7393C0.0361328 22.0711 1.93315 23.9681 4.26488 23.9681H5.58967C5.78418 23.9681 5.94188 23.8104 5.94188 23.6159C5.94188 23.4213 5.78418 23.2637 5.58967 23.2637H4.26488C2.32157 23.2637 0.740557 21.6827 0.740557 19.7393C0.740557 17.796 2.32157 16.215 4.26488 16.215H11.755H12.6136C12.8082 16.215 12.9658 16.0573 12.9658 15.8628C12.9658 15.6682 12.8082 15.5105 12.6136 15.5105L11.7589 15.5107C11.7576 15.5107 11.7563 15.5105 11.755 15.5105H4.26488C4.2236 15.5105 4.18251 15.5113 4.14151 15.5125L0.749338 15.5133L0.746615 14.4304H6.1069C6.30142 14.4304 6.45912 14.2728 6.45912 14.0782C6.45912 13.8837 6.30142 13.726 6.1069 13.726H2.13569V10.2464H19.7436C20.2194 10.2464 20.6852 10.4425 21.0214 10.7845C21.351 11.1198 21.5281 11.5573 21.5202 12.0165C21.5041 12.9591 20.7237 13.726 19.7807 13.726H18.4559C18.2613 13.726 18.1037 13.8836 18.1037 14.0782C18.1037 14.2727 18.2613 14.4304 18.4559 14.4304H19.7807C21.1055 14.4304 22.2019 13.3529 22.2245 12.0285C22.2356 11.3789 21.9868 10.7617 21.5237 10.2907C21.056 9.81481 20.4071 9.54192 19.7436 9.54192L1.82462 9.5445C1.81109 9.54295 1.79743 9.54192 1.78353 9.54192C1.76958 9.54192 1.75587 9.54295 1.74234 9.54455L0.749432 9.54469L0.746662 8.46185H4.30039H4.39473H5.62522C5.81973 8.46185 5.97743 8.3042 5.97743 8.10964C5.97743 7.91507 5.81973 7.75742 5.62522 7.75742H4.39478H4.30043C2.35712 7.75742 0.776107 6.17641 0.776107 4.2331C0.776107 2.28978 2.35712 0.708771 4.30043 0.708771L23.3317 0.706001L23.3344 1.78889H20.6885C20.4939 1.78889 20.3363 1.94654 20.3363 2.1411C20.3363 2.33566 20.4939 2.49331 20.6885 2.49331H22.0003V5.97288H11.4675C11.273 5.97288 11.1153 6.13053 11.1153 6.3251C11.1153 6.51966 11.273 6.67731 11.4675 6.67731L22.3122 6.67482C22.3255 6.67632 22.3389 6.67731 22.3525 6.67731C22.3662 6.67731 22.3797 6.67632 22.3929 6.67482L23.3317 6.67458L23.3344 7.75742H19.7807H13.2456H11.4675C11.273 7.75742 11.1153 7.91507 11.1153 8.10964C11.1153 8.3042 11.273 8.46185 11.4675 8.46185H13.2456H19.7807C21.724 8.46185 23.305 10.0429 23.305 11.9862C23.305 13.9295 21.724 15.5105 19.7807 15.5105H19.4298H18.4559C18.2613 15.5105 18.1037 15.6682 18.1037 15.8628C18.1037 16.0573 18.2613 16.215 18.4559 16.215H19.7807C19.7876 16.215 19.7943 16.2147 19.8012 16.2147L23.2963 16.2122L23.299 17.2951H4.30203C3.63846 17.2951 2.98964 17.568 2.52186 18.0438C2.05882 18.5149 1.80992 19.1321 1.82105 19.7817C1.84373 21.1061 2.94005 22.1836 4.26493 22.1836H5.58972C5.78423 22.1836 5.94193 22.0259 5.94193 21.8313C5.94193 21.6368 5.78423 21.4791 5.58972 21.4791H4.26493C3.32189 21.4791 2.54153 20.7123 2.52538 19.7697C2.51749 19.3105 2.69463 18.8729 3.0242 18.5377C3.3604 18.1957 3.82617 17.9996 4.30203 17.9996H21.9099V21.4792H11.432C11.2375 21.4792 11.0798 21.6368 11.0798 21.8314C11.0798 22.0259 11.2375 22.1836 11.432 22.1836L23.2963 22.1809L23.299 23.2637H11.432C11.2375 23.2637 11.0798 23.4214 11.0798 23.6159C11.0798 23.8105 11.2375 23.9681 11.432 23.9681H23.2989C23.6858 23.9681 24.0006 23.6534 24.0006 23.2664V22.1809C24.0006 21.794 23.6858 21.4792 23.2989 21.4792H22.6143V17.9996H23.2989C23.6858 17.9996 24.0006 17.6848 24.0006 17.2979V16.2124C24.0006 15.8255 23.6858 15.5107 23.2989 15.5107H22.1149C23.2558 14.7525 24.0095 13.4559 24.0095 11.9864C24.0095 10.5168 23.2558 9.22014 22.1149 8.46199H23.3344C23.7214 8.46199 24.0361 8.1472 24.0361 7.76029V6.67477C24.0361 6.28785 23.7214 5.97307 23.3344 5.97307H22.7048V2.49331H23.3344Z" fill="#222222"/>
<path id="Vector_5" d="M19.54 2.14127C19.54 1.94671 19.3823 1.78906 19.1877 1.78906H4.33778C3.67422 1.78906 3.02535 2.062 2.55761 2.53782C2.09457 3.00884 1.84567 3.62606 1.8568 4.27573C1.87949 5.60004 2.9758 6.67748 4.30068 6.67748H5.62547C5.81999 6.67748 5.97768 6.51983 5.97768 6.32527C5.97768 6.13071 5.81999 5.97306 5.62547 5.97306H4.30068C3.35765 5.97306 2.57729 5.20622 2.56113 4.26366C2.55324 3.80447 2.73038 3.36692 3.05996 3.03171C3.39616 2.68969 3.86192 2.49353 4.33778 2.49353H19.1877C19.3823 2.49349 19.54 2.33584 19.54 2.14127Z" fill="#222222"/>
<path id="Vector_6" d="M6.83813 8.40246C6.93595 8.46788 7.05988 8.48004 7.16855 8.43505L8.54612 7.86489L9.92369 8.43505C9.96704 8.45299 10.0128 8.46182 10.0584 8.46182C10.1271 8.46182 10.1954 8.44172 10.2541 8.40241C10.3519 8.33704 10.4106 8.22725 10.4106 8.10961V4.58528H10.6718C10.8663 4.58528 11.024 4.42763 11.024 4.23307C11.024 4.03851 10.8663 3.88086 10.6718 3.88086H10.0584H7.03386H6.25407C6.05955 3.88086 5.90186 4.03851 5.90186 4.23307C5.90186 4.42763 6.05955 4.58528 6.25407 4.58528H6.68161V8.10961C6.68161 8.22725 6.74031 8.33709 6.83813 8.40246ZM9.70617 4.58528V7.58265L8.68081 7.15826C8.6377 7.14042 8.59191 7.13149 8.54612 7.13149C8.50033 7.13149 8.45455 7.14042 8.41144 7.15826L7.38608 7.58265V4.58528H9.70617Z" fill="#5FB868"/>
</g>
</g>
</svg>
