<svg width="26" height="24" viewBox="0 0 26 24" fill="none" xmlns="http://www.w3.org/2000/svg">
<g id="Group 504">
<path id="Vector" fill-rule="evenodd" clip-rule="evenodd" d="M21.2023 10.303C21.5548 10.303 21.8993 10.4025 22.1924 10.5891C22.4855 10.7756 22.7139 11.0407 22.8488 11.3508C22.9837 11.661 23.019 12.0023 22.9502 12.3316C22.8815 12.6608 22.7117 12.9633 22.4625 13.2007C22.2132 13.4381 21.8957 13.5997 21.55 13.6652C21.2043 13.7307 20.8459 13.6971 20.5203 13.5686C20.1946 13.4402 19.9163 13.2226 19.7204 12.9435C19.5246 12.6643 19.4201 12.3361 19.4201 12.0004C19.4206 11.5504 19.6085 11.1189 19.9426 10.8007C20.2767 10.4824 20.7298 10.3034 21.2023 10.303ZM21.2023 18.5576C21.5548 18.5576 21.8993 18.6571 22.1924 18.8436C22.4855 19.0302 22.7139 19.2953 22.8488 19.6054C22.9837 19.9156 23.019 20.2569 22.9502 20.5861C22.8815 20.9154 22.7117 21.2179 22.4625 21.4553C22.2132 21.6926 21.8957 21.8543 21.55 21.9198C21.2043 21.9853 20.8459 21.9517 20.5203 21.8232C20.1946 21.6947 19.9163 21.4772 19.7204 21.198C19.5246 20.9189 19.4201 20.5907 19.4201 20.255C19.4206 19.8049 19.6085 19.3735 19.9426 19.0552C20.2767 18.737 20.7298 18.558 21.2023 18.5576ZM21.2023 2.04842C21.5548 2.04842 21.8993 2.14797 22.1924 2.33448C22.4855 2.521 22.7139 2.78609 22.8488 3.09625C22.9837 3.40641 23.019 3.74771 22.9502 4.07697C22.8815 4.40624 22.7117 4.70869 22.4625 4.94608C22.2133 5.18347 21.8957 5.34514 21.55 5.41064C21.2043 5.47614 20.846 5.44253 20.5203 5.31406C20.1946 5.1856 19.9163 4.96804 19.7205 4.68891C19.5246 4.40978 19.4201 4.0816 19.4201 3.74589C19.4206 3.29584 19.6085 2.86435 19.9426 2.54612C20.2767 2.22789 20.7298 2.04886 21.2023 2.04842ZM17.51 4.72244C17.7579 5.5731 18.3212 6.30936 19.0953 6.79486C19.8695 7.28036 20.8022 7.48222 21.7206 7.36304C22.6391 7.24386 23.4811 6.81173 24.0906 6.14667C24.7002 5.48161 25.0361 4.62868 25.0361 3.74584C25.0361 2.863 24.7002 2.01007 24.0906 1.34501C23.4811 0.679951 22.6391 0.247817 21.7206 0.12864C20.8022 0.0094624 19.8695 0.211317 19.0953 0.69682C18.3212 1.18232 17.7579 1.91858 17.51 2.76924H14.1834C13.9114 2.76924 13.6506 2.87213 13.4583 3.05528C13.266 3.23843 13.158 3.48683 13.158 3.74584V11.0238H10.8764C10.6212 9.75034 9.87648 8.61329 8.78785 7.83496C7.69923 7.05662 6.34497 6.69295 4.9898 6.81504C3.63463 6.93713 2.37597 7.53619 1.45988 8.49513C0.543797 9.45407 0.0361328 10.7039 0.0361328 12.0004C0.0361328 13.2969 0.543797 14.5468 1.45988 15.5057C2.37597 16.4646 3.63463 17.0637 4.9898 17.1858C6.34497 17.3079 7.69923 16.9442 8.78785 16.1659C9.87648 15.3875 10.6212 14.2505 10.8764 12.977H13.158V20.2546C13.158 20.5136 13.266 20.762 13.4583 20.9451C13.6506 21.1283 13.9114 21.2312 14.1833 21.2312H17.5099C17.7578 22.0817 18.321 22.8178 19.0951 23.3033C19.8692 23.7887 20.8017 23.9905 21.72 23.8713C22.6383 23.7521 23.4802 23.32 24.0897 22.6551C24.6992 21.9901 25.035 21.1373 25.035 20.2546C25.035 19.3719 24.6992 18.5191 24.0897 17.8541C23.4802 17.1891 22.6383 16.757 21.72 16.6378C20.8017 16.5187 19.8692 16.7205 19.0951 17.2059C18.321 17.6913 17.7578 18.4274 17.5099 19.278H15.2088V12.9771H17.5099C17.7579 13.8277 18.3211 14.564 19.0953 15.0495C19.8695 15.535 20.8021 15.7368 21.7206 15.6177C22.639 15.4985 23.481 15.0664 24.0906 14.4013C24.7002 13.7362 25.0361 12.8833 25.0361 12.0005C25.0361 11.1176 24.7002 10.2647 24.0906 9.59964C23.481 8.93458 22.639 8.50244 21.7206 8.38326C20.8021 8.26409 19.8695 8.46594 19.0953 8.95145C18.3211 9.43695 17.7579 10.1732 17.5099 11.0239H15.2088V4.72248L17.51 4.72244Z" fill="#222222"/>
<circle id="Ellipse 1" cx="5.98851" cy="12.0002" r="5.95238" fill="#5FB868"/>
</g>
</svg>
