<svg width="26" height="25" viewBox="0 0 26 25" fill="none" xmlns="http://www.w3.org/2000/svg">
<g id="Group 258">
<path id="Vector" d="M22.1473 2.97872L12.4256 0.102527C11.1916 -0.283625 9.88295 0.699153 9.90162 1.98916V6.31151C9.90162 6.66287 10.1868 6.94803 10.5381 6.94803C10.8895 6.94803 11.1746 6.66287 11.1746 6.31151V1.98916C11.167 1.53341 11.6304 1.188 12.0649 1.32379L21.7866 4.19744C22.9553 4.54879 23.7581 5.62238 23.7632 6.84279V20.5771C23.7615 22.0996 22.5275 23.3336 21.005 23.3353H13.1546V12.6173C13.1521 10.392 11.3486 8.58854 9.12337 8.58599H4.03126C1.806 8.58854 0.00254606 10.392 0 12.6173V20.5771C0.00254606 22.8023 1.806 24.6058 4.03126 24.6083H21.005C23.2302 24.6058 25.0337 22.8023 25.0362 20.5771V6.84279C25.0277 5.05885 23.8549 3.49133 22.1473 2.97872ZM11.8816 23.3353H9.38477V20.3462C9.29056 16.6434 3.86322 16.6443 3.76986 20.3462V21.1482C3.77411 21.9808 5.03865 21.9808 5.04289 21.1482V20.3462C5.07684 18.3298 8.07779 18.3298 8.11174 20.3462V23.3353H4.03126C2.50872 23.3336 1.27473 22.0996 1.27303 20.5771V12.6173C1.27473 11.0947 2.50872 9.86072 4.03126 9.85902H9.12337C10.6459 9.86072 11.8799 11.0947 11.8816 12.6173V23.3353Z" fill="#222222"/>
<g id="Group 225">
<path id="Vector_2" d="M3.94048 11.5645H3.42618C2.59362 11.5678 2.59362 12.8341 3.42618 12.8375H3.94048C4.77304 12.8332 4.77304 11.5678 3.94048 11.5645Z" fill="#5FB868"/>
<path id="Vector_3" d="M6.83225 11.5645C6.32898 11.5365 5.71114 11.5416 5.68652 12.201C5.71114 12.8605 6.32813 12.8656 6.83225 12.8376C7.66481 12.8333 7.66481 11.5679 6.83225 11.5645Z" fill="#5FB868"/>
<path id="Vector_4" d="M9.72906 11.564H9.21475C8.38219 11.5674 8.38219 12.8336 9.21475 12.837H9.72906C10.5616 12.8328 10.5616 11.5674 9.72906 11.564Z" fill="#5FB868"/>
<path id="Vector_5" d="M3.94048 14.5601H3.42618C2.59362 14.5635 2.59362 15.8297 3.42618 15.8331H3.94048C4.77304 15.8288 4.77304 14.5635 3.94048 14.5601Z" fill="#5FB868"/>
<path id="Vector_6" d="M6.83225 14.5601C6.32898 14.5321 5.71114 14.5372 5.68652 15.1966C5.71114 15.8561 6.32898 15.8612 6.83225 15.8332C7.66481 15.8289 7.66481 14.5635 6.83225 14.5601Z" fill="#5FB868"/>
<path id="Vector_7" d="M9.72906 14.5601H9.21475C8.38219 14.5635 8.38219 15.8297 9.21475 15.8331H9.72906C10.5616 15.8288 10.5616 14.5635 9.72906 14.5601Z" fill="#5FB868"/>
<path id="Vector_8" d="M15.8228 8.41024C16.6554 8.40684 16.6554 7.1406 15.8228 7.13721H15.3085C14.4759 7.1406 14.4759 8.40684 15.3085 8.41024H15.8228Z" fill="#5FB868"/>
<path id="Vector_9" d="M19.3502 7.7733C19.3256 7.11387 18.7078 7.10878 18.2045 7.13679C17.3719 7.14018 17.3719 8.40642 18.2045 8.40982C18.7078 8.43782 19.3256 8.43273 19.3502 7.7733Z" fill="#5FB868"/>
<path id="Vector_10" d="M21.6109 8.41024C22.4435 8.40684 22.4435 7.1406 21.6109 7.13721H21.0966C20.264 7.1406 20.264 8.40684 21.0966 8.41024H21.6109Z" fill="#5FB868"/>
<path id="Vector_11" d="M15.3085 12.3492H15.8228C16.6554 12.3458 16.6554 11.0796 15.8228 11.0762H15.3085C14.4759 11.0796 14.4759 12.345 15.3085 12.3492Z" fill="#5FB868"/>
<path id="Vector_12" d="M18.2045 12.3493C18.7078 12.3773 19.3256 12.3722 19.3502 11.7128C19.3256 11.0533 18.7078 11.0482 18.2045 11.0762C17.3719 11.0796 17.3719 12.345 18.2045 12.3493Z" fill="#5FB868"/>
<path id="Vector_13" d="M21.0966 12.3492H21.6109C22.4435 12.3458 22.4435 11.0796 21.6109 11.0762H21.0966C20.264 11.0796 20.264 12.345 21.0966 12.3492Z" fill="#5FB868"/>
<path id="Vector_14" d="M15.3085 16.2911H15.8228C16.6554 16.2877 16.6554 15.0215 15.8228 15.0181H15.3085C14.4759 15.0215 14.4759 16.2869 15.3085 16.2911Z" fill="#5FB868"/>
<path id="Vector_15" d="M18.2045 16.2912C18.7078 16.3192 19.3256 16.3141 19.3502 15.6546C19.3256 14.9952 18.7086 14.9901 18.2045 15.0181C17.3719 15.0215 17.3719 16.2869 18.2045 16.2912Z" fill="#5FB868"/>
<path id="Vector_16" d="M21.0966 16.2911H21.6109C22.4435 16.2877 22.4435 15.0215 21.6109 15.0181H21.0966C20.264 15.0215 20.264 16.2869 21.0966 16.2911Z" fill="#5FB868"/>
<path id="Vector_17" d="M15.3085 20.2349H15.8228C16.6554 20.2315 16.6554 18.9653 15.8228 18.9619H15.3085C14.4759 18.9653 14.4759 20.2307 15.3085 20.2349Z" fill="#5FB868"/>
<path id="Vector_18" d="M18.2045 20.235C18.7078 20.263 19.3256 20.2579 19.3502 19.5985C19.3256 18.9391 18.7078 18.934 18.2045 18.962C17.3719 18.9654 17.3719 20.2308 18.2045 20.235Z" fill="#5FB868"/>
<path id="Vector_19" d="M21.0966 20.2349H21.6109C22.4435 20.2315 22.4435 18.9653 21.6109 18.9619H21.0966C20.264 18.9653 20.264 20.2307 21.0966 20.2349Z" fill="#5FB868"/>
</g>
</g>
</svg>
