<svg width="17" height="20" viewBox="0 0 17 20" fill="none" xmlns="http://www.w3.org/2000/svg">
<g id="Group">
<path id="Vector" d="M14.7355 19.9997H2.27299C1.04016 19.9997 0.0367719 19.0412 0.0361328 17.8627V17.8615V2.2834C0.0361328 1.27296 0.896363 0.450684 1.95344 0.450684H14.7355C15.7925 0.450684 16.6528 1.27296 16.6528 2.2834V18.1669C16.6528 19.1774 15.7925 19.9997 14.7355 19.9997ZM1.31434 17.8615C1.31434 18.3667 1.74445 18.7779 2.27299 18.7779H14.7355C15.0876 18.7779 15.3746 18.5042 15.3746 18.1669V16.9451H2.27299C1.74445 16.9451 1.31434 17.3563 1.31434 17.8615ZM1.95344 1.67249C1.60129 1.67249 1.31434 1.94618 1.31434 2.2834V15.9298C1.60513 15.7972 1.92979 15.7233 2.27299 15.7233H15.3746V2.2834C15.3746 1.94618 15.0876 1.67249 14.7355 1.67249H1.95344Z" fill="#222222"/>
<g id="Group_2">
<path id="Vector_2" d="M12.1792 8.30832C12.0437 8.30832 11.9088 8.2655 11.7957 8.1805L9.62275 6.55079L7.44981 8.1805C7.25552 8.32621 6.99669 8.34858 6.78067 8.24121C6.56401 8.13256 6.42725 7.91143 6.42725 7.66922V0H12.8183V7.66922C12.8183 7.91143 12.6815 8.13256 12.4648 8.24121C12.3747 8.28595 12.2763 8.30832 12.1792 8.30832Z" fill="#5FB868"/>
</g>
</g>
</svg>
