<svg width="26" height="24" viewBox="0 0 26 24" fill="none" xmlns="http://www.w3.org/2000/svg">
<g id="Group 607">
<g id="icon">
<path id="Vector" d="M22.3576 3.57143H15.2147V2.67857C15.2147 1.96817 14.9325 1.28687 14.4302 0.784535C13.9278 0.282206 13.2465 0 12.5361 0C11.8257 0 11.1444 0.282206 10.6421 0.784535C10.1398 1.28687 9.85756 1.96817 9.85756 2.67857V3.57143H2.7147C2.0043 3.57143 1.323 3.85363 0.820668 4.35596C0.318339 4.85829 0.0361328 5.5396 0.0361328 6.25V20.5357C0.0361328 21.2461 0.318339 21.9274 0.820668 22.4298C1.323 22.9321 2.0043 23.2143 2.7147 23.2143H22.3576C23.068 23.2143 23.7493 22.9321 24.2516 22.4298C24.7539 21.9274 25.0361 21.2461 25.0361 20.5357V6.25C25.0361 5.5396 24.7539 4.85829 24.2516 4.35596C23.7493 3.85363 23.068 3.57143 22.3576 3.57143ZM11.6433 2.67857C11.6433 2.44177 11.7373 2.21467 11.9048 2.04723C12.0722 1.87978 12.2993 1.78571 12.5361 1.78571C12.7729 1.78571 13 1.87978 13.1675 2.04723C13.3349 2.21467 13.429 2.44177 13.429 2.67857V3.57143H11.6433V2.67857ZM23.2504 20.5357C23.2504 20.7725 23.1564 20.9996 22.9889 21.1671C22.8215 21.3345 22.5944 21.4286 22.3576 21.4286H2.7147C2.4779 21.4286 2.2508 21.3345 2.08336 21.1671C1.91592 20.9996 1.82185 20.7725 1.82185 20.5357V6.25C1.82185 6.0132 1.91592 5.7861 2.08336 5.61865C2.2508 5.45121 2.4779 5.35714 2.7147 5.35714H22.3576C22.5944 5.35714 22.8215 5.45121 22.9889 5.61865C23.1564 5.7861 23.2504 6.0132 23.2504 6.25V20.5357ZM9.85756 7.14286H5.39328C4.91967 7.14286 4.46547 7.33099 4.13058 7.66588C3.7957 8.00077 3.60756 8.45497 3.60756 8.92857V17.8571C3.60756 18.3307 3.7957 18.7849 4.13058 19.1198C4.46547 19.4547 4.91967 19.6429 5.39328 19.6429H9.85756C10.3312 19.6429 10.7854 19.4547 11.1203 19.1198C11.4551 18.7849 11.6433 18.3307 11.6433 17.8571V8.92857C11.6433 8.45497 11.4551 8.00077 11.1203 7.66588C10.7854 7.33099 10.3312 7.14286 9.85756 7.14286ZM5.39328 17.8571V8.92857H9.85756V17.8571H5.39328Z" fill="#222222"/>
<path id="Vector_2" d="M13.4292 9.82108C13.4292 9.58428 13.5233 9.35718 13.6907 9.18973C13.8582 9.02229 14.0853 8.92822 14.3221 8.92822H20.5721C20.8089 8.92822 21.036 9.02229 21.2034 9.18973C21.3708 9.35718 21.4649 9.58428 21.4649 9.82108C21.4649 10.0579 21.3708 10.285 21.2034 10.4524C21.036 10.6199 20.8089 10.7139 20.5721 10.7139H14.3221C14.0853 10.7139 13.8582 10.6199 13.6907 10.4524C13.5233 10.285 13.4292 10.0579 13.4292 9.82108ZM20.5721 12.4997H14.3221C14.0853 12.4997 13.8582 12.5937 13.6907 12.7612C13.5233 12.9286 13.4292 13.1557 13.4292 13.3925C13.4292 13.6293 13.5233 13.8564 13.6907 14.0239C13.8582 14.1913 14.0853 14.2854 14.3221 14.2854H20.5721C20.8089 14.2854 21.036 14.1913 21.2034 14.0239C21.3708 13.8564 21.4649 13.6293 21.4649 13.3925C21.4649 13.1557 21.3708 12.9286 21.2034 12.7612C21.036 12.5937 20.8089 12.4997 20.5721 12.4997ZM17.8935 16.0711H14.3221C14.0853 16.0711 13.8582 16.1651 13.6907 16.3326C13.5233 16.5 13.4292 16.7271 13.4292 16.9639C13.4292 17.2007 13.5233 17.4278 13.6907 17.5953C13.8582 17.7627 14.0853 17.8568 14.3221 17.8568H17.8935C18.1303 17.8568 18.3574 17.7627 18.5248 17.5953C18.6923 17.4278 18.7863 17.2007 18.7863 16.9639C18.7863 16.7271 18.6923 16.5 18.5248 16.3326C18.3574 16.1651 18.1303 16.0711 17.8935 16.0711Z" fill="#5FB868"/>
</g>
</g>
</svg>
