<svg width="26" height="18" viewBox="0 0 26 18" fill="none" xmlns="http://www.w3.org/2000/svg">
<g id="Barcode">
<g id="Group">
<path id="Vector" d="M4.72363 14.0938C4.51643 14.0938 4.31772 14.0114 4.17121 13.8649C4.02469 13.7184 3.94238 13.5197 3.94238 13.3125V3.9375C3.94238 3.7303 4.02469 3.53159 4.17121 3.38507C4.31772 3.23856 4.51643 3.15625 4.72363 3.15625C4.93083 3.15625 5.12955 3.23856 5.27606 3.38507C5.42257 3.53159 5.50488 3.7303 5.50488 3.9375V13.3125C5.50488 13.5197 5.42257 13.7184 5.27606 13.8649C5.12955 14.0114 4.93083 14.0938 4.72363 14.0938Z" fill="#5FB868"/>
<path id="Vector_2" d="M7.84863 10.9688C7.64143 10.9688 7.44272 10.8864 7.29621 10.7399C7.14969 10.5934 7.06738 10.3947 7.06738 10.1875V3.9375C7.06738 3.7303 7.14969 3.53159 7.29621 3.38507C7.44272 3.23856 7.64143 3.15625 7.84863 3.15625C8.05583 3.15625 8.25455 3.23856 8.40106 3.38507C8.54757 3.53159 8.62988 3.7303 8.62988 3.9375V10.1875C8.62988 10.3947 8.54757 10.5934 8.40106 10.7399C8.25455 10.8864 8.05583 10.9688 7.84863 10.9688Z" fill="#5FB868"/>
<path id="Vector_3" d="M10.9736 10.9688C10.7664 10.9688 10.5677 10.8864 10.4212 10.7399C10.2747 10.5934 10.1924 10.3947 10.1924 10.1875V3.9375C10.1924 3.7303 10.2747 3.53159 10.4212 3.38507C10.5677 3.23856 10.7664 3.15625 10.9736 3.15625C11.1808 3.15625 11.3795 3.23856 11.5261 3.38507C11.6726 3.53159 11.7549 3.7303 11.7549 3.9375V10.1875C11.7549 10.3947 11.6726 10.5934 11.5261 10.7399C11.3795 10.8864 11.1808 10.9688 10.9736 10.9688Z" fill="#5FB868"/>
<path id="Vector_4" d="M14.0986 14.0938C13.8914 14.0938 13.6927 14.0114 13.5462 13.8649C13.3997 13.7184 13.3174 13.5197 13.3174 13.3125V3.9375C13.3174 3.7303 13.3997 3.53159 13.5462 3.38507C13.6927 3.23856 13.8914 3.15625 14.0986 3.15625C14.3058 3.15625 14.5045 3.23856 14.6511 3.38507C14.7976 3.53159 14.8799 3.7303 14.8799 3.9375V13.3125C14.8799 13.5197 14.7976 13.7184 14.6511 13.8649C14.5045 14.0114 14.3058 14.0938 14.0986 14.0938Z" fill="#5FB868"/>
<path id="Vector_5" d="M17.2236 10.9688C17.0164 10.9688 16.8177 10.8864 16.6712 10.7399C16.5247 10.5934 16.4424 10.3947 16.4424 10.1875V3.9375C16.4424 3.7303 16.5247 3.53159 16.6712 3.38507C16.8177 3.23856 17.0164 3.15625 17.2236 3.15625C17.4308 3.15625 17.6295 3.23856 17.7761 3.38507C17.9226 3.53159 18.0049 3.7303 18.0049 3.9375V10.1875C18.0049 10.3947 17.9226 10.5934 17.7761 10.7399C17.6295 10.8864 17.4308 10.9688 17.2236 10.9688Z" fill="#5FB868"/>
<path id="Vector_6" d="M20.3486 14.0938C20.1414 14.0938 19.9427 14.0114 19.7962 13.8649C19.6497 13.7184 19.5674 13.5197 19.5674 13.3125V3.9375C19.5674 3.7303 19.6497 3.53159 19.7962 3.38507C19.9427 3.23856 20.1414 3.15625 20.3486 3.15625C20.5558 3.15625 20.7545 3.23856 20.9011 3.38507C21.0476 3.53159 21.1299 3.7303 21.1299 3.9375V13.3125C21.1299 13.5197 21.0476 13.7184 20.9011 13.8649C20.7545 14.0114 20.5558 14.0938 20.3486 14.0938Z" fill="#5FB868"/>
<path id="Vector_7" d="M7.84863 14.0938C7.69412 14.0938 7.54307 14.0479 7.41459 13.9621C7.28612 13.8762 7.18598 13.7542 7.12685 13.6115C7.06772 13.4687 7.05225 13.3116 7.08239 13.1601C7.11254 13.0085 7.18695 12.8693 7.29621 12.7601C7.40547 12.6508 7.54467 12.5764 7.69622 12.5463C7.84777 12.5161 8.00485 12.5316 8.1476 12.5907C8.29036 12.6499 8.41237 12.75 8.49822 12.8785C8.58406 13.0069 8.62988 13.158 8.62988 13.3125C8.62988 13.5197 8.54757 13.7184 8.40106 13.8649C8.25455 14.0114 8.05583 14.0938 7.84863 14.0938Z" fill="#5FB868"/>
<path id="Vector_8" d="M10.9736 14.0938C10.8191 14.0938 10.6681 14.0479 10.5396 13.9621C10.4111 13.8762 10.311 13.7542 10.2519 13.6115C10.1927 13.4687 10.1772 13.3116 10.2074 13.1601C10.2375 13.0085 10.3119 12.8693 10.4212 12.7601C10.5305 12.6508 10.6697 12.5764 10.8212 12.5463C10.9728 12.5161 11.1299 12.5316 11.2726 12.5907C11.4154 12.6499 11.5374 12.75 11.6232 12.8785C11.7091 13.0069 11.7549 13.158 11.7549 13.3125C11.7549 13.5197 11.6726 13.7184 11.5261 13.8649C11.3795 14.0114 11.1808 14.0938 10.9736 14.0938Z" fill="#5FB868"/>
<path id="Vector_9" d="M17.2236 14.0938C17.0691 14.0938 16.9181 14.0479 16.7896 13.9621C16.6611 13.8762 16.561 13.7542 16.5019 13.6115C16.4427 13.4687 16.4272 13.3116 16.4574 13.1601C16.4875 13.0085 16.5619 12.8693 16.6712 12.7601C16.7805 12.6508 16.9197 12.5764 17.0712 12.5463C17.2228 12.5161 17.3798 12.5316 17.5226 12.5907C17.6654 12.6499 17.7874 12.75 17.8732 12.8785C17.9591 13.0069 18.0049 13.158 18.0049 13.3125C18.0049 13.5197 17.9226 13.7184 17.7761 13.8649C17.6295 14.0114 17.4308 14.0938 17.2236 14.0938Z" fill="#5FB868"/>
</g>
<path id="Vector_10" d="M22.6924 17.2188H2.37988C1.75828 17.2188 1.16214 16.9718 0.722601 16.5323C0.283063 16.0927 0.0361328 15.4966 0.0361328 14.875L0.0361328 2.375C0.0361328 1.7534 0.283063 1.15726 0.722601 0.717719C1.16214 0.27818 1.75828 0.03125 2.37988 0.03125H22.6924C23.314 0.03125 23.9101 0.27818 24.3497 0.717719C24.7892 1.15726 25.0361 1.7534 25.0361 2.375V10.1875C25.0361 10.3947 24.9538 10.5934 24.8073 10.7399C24.6608 10.8864 24.4621 10.9688 24.2549 10.9688C24.0477 10.9688 23.849 10.8864 23.7025 10.7399C23.5559 10.5934 23.4736 10.3947 23.4736 10.1875V2.375C23.4736 2.1678 23.3913 1.96909 23.2448 1.82257C23.0983 1.67606 22.8996 1.59375 22.6924 1.59375H2.37988C2.17268 1.59375 1.97397 1.67606 1.82746 1.82257C1.68094 1.96909 1.59863 2.1678 1.59863 2.375V14.875C1.59863 15.0822 1.68094 15.2809 1.82746 15.4274C1.97397 15.5739 2.17268 15.6562 2.37988 15.6562H22.6924C22.8996 15.6562 23.0983 15.5739 23.2448 15.4274C23.3913 15.2809 23.4736 15.0822 23.4736 14.875V13.3125C23.4736 13.1053 23.5559 12.9066 23.7025 12.7601C23.849 12.6136 24.0477 12.5312 24.2549 12.5312C24.4621 12.5312 24.6608 12.6136 24.8073 12.7601C24.9538 12.9066 25.0361 13.1053 25.0361 13.3125V14.875C25.0361 15.4966 24.7892 16.0927 24.3497 16.5323C23.9101 16.9718 23.314 17.2188 22.6924 17.2188Z" fill="#222222"/>
</g>
</svg>
