<svg width="26" height="25" viewBox="0 0 26 25" fill="none" xmlns="http://www.w3.org/2000/svg">
<g id="Group 603">
<g id="Group 601">
<g id="Group 599">
<g id="Group">
<g id="Group_2">
<g id="Group_3">
<g id="Group_4">
<path id="Vector" d="M12.5362 12.4996C12.4934 12.4996 12.4507 12.4942 12.4089 12.4832L2.90893 9.98319C2.69784 9.92763 2.54716 9.74159 2.53671 9.52357C2.52626 9.30556 2.65849 9.10595 2.86332 9.03051L9.33684 6.6455C9.59597 6.55005 9.88342 6.68271 9.97888 6.94179C10.0743 7.20087 9.94167 7.48832 9.68254 7.58378L4.69842 9.42011L12.5111 11.4761L20.3739 8.57924L15.6449 7.33471C15.3778 7.26445 15.2183 6.99096 15.2886 6.72392C15.3589 6.45683 15.6327 6.29746 15.8994 6.36762L22.1634 8.01616C22.3745 8.07172 22.5251 8.25781 22.5355 8.47582C22.546 8.69384 22.4138 8.89345 22.209 8.96889L12.709 12.4689C12.6533 12.4893 12.5948 12.4996 12.5362 12.4996Z" fill="#222222"/>
</g>
</g>
</g>
<g id="Group_5">
<g id="Group_6">
<g id="Group_7">
<path id="Vector_2" d="M10.1362 17.5001C10.0867 17.5001 10.0365 17.4927 9.987 17.4772L0.387016 14.4772C0.243461 14.4324 0.127739 14.3253 0.0718797 14.1856C0.0160204 14.046 0.0260302 13.8886 0.0990769 13.7572L2.59907 9.25717C2.71011 9.05742 2.94253 8.95844 3.16343 9.01645L12.6634 11.5164C12.8076 11.5544 12.9274 11.6548 12.99 11.7902C13.0526 11.9256 13.0515 12.0819 12.9869 12.2163L10.5869 17.2163C10.5019 17.3935 10.3241 17.5001 10.1362 17.5001ZM1.27154 13.7059L9.87254 16.3937L11.8234 12.3294L3.28462 10.0824L1.27154 13.7059Z" fill="#222222"/>
</g>
</g>
</g>
<g id="Group_8">
<g id="Group_9">
<g id="Group_10">
<path id="Vector_3" d="M15.5364 17.5001C15.3654 17.5001 15.2003 17.4122 15.1074 17.2572L12.1074 12.2573C12.0307 12.1296 12.0151 11.9744 12.0645 11.8339C12.114 11.6935 12.2236 11.5824 12.3633 11.5309L21.8632 8.0309C22.0944 7.9457 22.3534 8.04169 22.4732 8.25722L24.9731 12.7572C25.0413 12.8799 25.0548 13.0255 25.0103 13.1586C24.9658 13.2917 24.8674 13.3999 24.7392 13.4569L15.7392 17.4569C15.6735 17.4862 15.6044 17.5001 15.5364 17.5001ZM13.2755 12.2605L15.7373 16.3635L23.8336 12.7651L21.807 9.11728L13.2755 12.2605Z" fill="#222222"/>
</g>
</g>
</g>
<g id="Group_11">
<g id="Group_12">
<g id="Group_13">
<path id="Vector_4" d="M12.5361 24.9995C12.488 24.9995 12.4396 24.9925 12.3925 24.9784L2.39248 21.9784C2.18096 21.915 2.03613 21.7203 2.03613 21.4995V14.6245C2.03613 14.3484 2.25996 14.1245 2.53613 14.1245C2.8123 14.1245 3.03613 14.3484 3.03613 14.6245V21.1275L12.0361 23.8275V11.9995C12.0361 11.7233 12.26 11.4995 12.5361 11.4995C12.8122 11.4995 13.0361 11.7234 13.0361 11.9995V24.4995C13.0361 24.6575 12.9614 24.8063 12.8346 24.9006C12.7473 24.9656 12.6424 24.9995 12.5361 24.9995Z" fill="#222222"/>
</g>
</g>
</g>
<g id="Group_14">
<g id="Group_15">
<g id="Group_16">
<path id="Vector_5" d="M12.5362 24.9995C12.4376 24.9995 12.3397 24.9703 12.2558 24.9135C12.1185 24.8205 12.0361 24.6654 12.0361 24.4995V11.9995C12.0361 11.7233 12.26 11.4995 12.5361 11.4995C12.8123 11.4995 13.0361 11.7234 13.0361 11.9995V23.761L22.0361 20.161V13.8885C22.0361 13.6124 22.26 13.3885 22.5361 13.3885C22.8122 13.3885 23.0361 13.6124 23.0361 13.8885V20.4995C23.0361 20.7039 22.9116 20.8878 22.7218 20.9637L12.7218 24.9637C12.6619 24.9877 12.5989 24.9995 12.5362 24.9995Z" fill="#222222"/>
</g>
</g>
</g>
<g id="Group_17">
<g id="Group_18">
<g id="Group_19">
<path id="Vector_6" d="M12.5361 8.99998C10.0548 8.99998 8.03613 6.98128 8.03613 4.49999C8.03613 2.0187 10.0548 0 12.5361 0C15.0174 0 17.0361 2.0187 17.0361 4.49999C17.0361 6.98128 15.0174 8.99998 12.5361 8.99998ZM12.5361 0.999998C10.6062 0.999998 9.03613 2.57011 9.03613 4.49999C9.03613 6.42987 10.6062 7.99998 12.5361 7.99998C14.466 7.99998 16.0361 6.42987 16.0361 4.49999C16.0361 2.57011 14.466 0.999998 12.5361 0.999998Z" fill="#5FB868"/>
</g>
</g>
</g>
<g id="Group_20">
<g id="Group_21">
<g id="Group_22">
<path id="Vector_7" d="M11.5362 6.49958C11.4078 6.49958 11.2797 6.45031 11.1826 6.35314L10.1826 5.35314C9.98732 5.15788 9.98732 4.84128 10.1826 4.64602C10.3778 4.45075 10.6944 4.45075 10.8897 4.64602L11.5668 5.32316L14.216 3.11545C14.4283 2.9386 14.7435 2.96731 14.9203 3.17947C15.097 3.39157 15.0684 3.70686 14.8563 3.88366L11.8562 6.38366C11.7631 6.46129 11.6495 6.49958 11.5362 6.49958Z" fill="#5FB868"/>
</g>
</g>
</g>
</g>
</g>
</g>
</g>
</svg>
