<svg xmlns="http://www.w3.org/2000/svg" width="38" height="38" viewBox="0 0 38 38" fill="none">
  <path d="M28.5 5.9375H21.375V2.375C21.375 1.72188 20.8406 1.1875 20.1875 1.1875H4.75C2.79062 1.1875 1.1875 2.79062 1.1875 4.75V24.9375C1.1875 26.8969 2.79062 28.5 4.75 28.5H16.625C17.2781 28.5 17.8125 27.9656 17.8125 27.3125C17.8125 26.6594 17.2781 26.125 16.625 26.125H4.75C4.09687 26.125 3.5625 25.5906 3.5625 24.9375V8.11062C3.93062 8.24125 4.33437 8.3125 4.75 8.3125H27.3125V16.625C27.3125 17.2781 27.8469 17.8125 28.5 17.8125C29.1531 17.8125 29.6875 17.2781 29.6875 16.625V7.125C29.6875 6.47188 29.1531 5.9375 28.5 5.9375ZM3.5625 4.75C3.5625 4.09687 4.09687 3.5625 4.75 3.5625H19V5.9375H4.75C4.09687 5.9375 3.5625 5.40312 3.5625 4.75Z" fill="white"/>
  <path d="M7.125 17.8125C6.47188 17.8125 5.9375 18.3469 5.9375 19V22.5625C5.9375 23.2156 6.47188 23.75 7.125 23.75C7.77813 23.75 8.3125 23.2156 8.3125 22.5625V19C8.3125 18.3469 7.77813 17.8125 7.125 17.8125Z" fill="white"/>
  <path d="M8.3125 14.25C8.3125 13.5969 7.77813 13.0625 7.125 13.0625C6.47188 13.0625 5.9375 13.5969 5.9375 14.25V15.4375C5.9375 16.0906 6.47188 16.625 7.125 16.625C7.77813 16.625 8.3125 16.0906 8.3125 15.4375V14.25Z" fill="white"/>
  <path d="M28.5 20.1875C23.9163 20.1875 20.1875 23.9163 20.1875 28.5C20.1875 33.0837 23.9163 36.8125 28.5 36.8125C33.0837 36.8125 36.8125 33.0837 36.8125 28.5C36.8125 23.9163 33.0837 20.1875 28.5 20.1875ZM32.0625 29.6875H29.6875V32.0625C29.6875 32.7156 29.1531 33.25 28.5 33.25C27.8469 33.25 27.3125 32.7156 27.3125 32.0625V29.6875H24.9375C24.2844 29.6875 23.75 29.1531 23.75 28.5C23.75 27.8469 24.2844 27.3125 24.9375 27.3125H27.3125V24.9375C27.3125 24.2844 27.8469 23.75 28.5 23.75C29.1531 23.75 29.6875 24.2844 29.6875 24.9375V27.3125H32.0625C32.7156 27.3125 33.25 27.8469 33.25 28.5C33.25 29.1531 32.7156 29.6875 32.0625 29.6875Z" fill="#D9D9D9"/>
</svg>