<svg xmlns="http://www.w3.org/2000/svg" width="40" height="37" viewBox="0 0 40 37" fill="none">
  <path fill-rule="evenodd" clip-rule="evenodd" d="M0 18.5C0 33.7347 3.50199 37 19.8413 37C36.1806 37 39.6826 33.7347 39.6826 18.5C39.6826 3.26525 36.1806 0 19.8413 0C3.50199 0 0 3.26525 0 18.5ZM3.30691 18.5C3.30691 22.2384 3.52609 25.0319 4.03065 27.1489C4.52691 29.2308 5.25414 30.4646 6.13173 31.2827C7.00932 32.101 8.33249 32.7792 10.5654 33.2418C12.8358 33.7123 15.8319 33.9166 19.8413 33.9166C23.8507 33.9166 26.8467 33.7123 29.1172 33.2418C31.3501 32.7792 32.6733 32.101 33.5508 31.2827C34.4284 30.4645 35.1557 29.2307 35.6519 27.1489C36.1566 25.0319 36.3757 22.2384 36.3757 18.5C36.3757 14.7617 36.1566 11.9681 35.6519 9.85118C35.1557 7.76928 34.4283 6.53556 33.5508 5.71722C32.6732 4.89896 31.35 4.22082 29.1172 3.75817C26.8467 3.28772 23.8507 3.08336 19.8413 3.08336C15.8319 3.08336 12.8358 3.28772 10.5654 3.75817C8.33256 4.22089 7.0094 4.89896 6.13173 5.71722C5.25407 6.53549 4.52684 7.76921 4.03065 9.85118C3.52601 11.9681 3.30691 14.7617 3.30691 18.5Z" fill="#222222"/>
  <path d="M21.4946 10.7916C21.4946 9.94021 20.7543 9.25 19.8412 9.25C18.928 9.25 18.1877 9.94021 18.1877 10.7916V26.2083C18.1877 27.0597 18.928 27.7499 19.8412 27.7499C20.7543 27.7499 21.4946 27.0597 21.4946 26.2083V10.7916Z" fill="#3D51FE"/>
  <path d="M13.2276 20.0416C13.2276 19.1902 12.4873 18.5 11.5741 18.5C10.6609 18.5 9.92065 19.1902 9.92065 20.0416V26.2083C9.92065 27.0597 10.6609 27.7499 11.5741 27.7499C12.4873 27.7499 13.2275 27.0597 13.2275 26.2083V20.0416H13.2276Z" fill="#3D51FE"/>
  <path d="M28.1085 15.4167C29.0217 15.4167 29.7619 16.107 29.7619 16.9584V26.2084C29.7619 27.0598 29.0217 27.75 28.1085 27.75C27.1953 27.75 26.4551 27.0598 26.4551 26.2084V16.9584C26.455 16.107 27.1952 15.4167 28.1085 15.4167Z" fill="#3D51FE"/>
</svg>