<svg xmlns="http://www.w3.org/2000/svg" width="32" height="40" viewBox="0 0 32 40" fill="none">
  <path fill-rule="evenodd" clip-rule="evenodd" d="M7.6858 3.8482C7.07012 4.08618 6.69198 4.322 6.49319 4.50994C6.12904 4.85423 5.84172 5.25692 5.64298 5.69448C5.39559 6.23915 5.35853 6.79092 5.74579 7.97253C6.02735 8.83161 6.47142 9.85189 7.08047 11.2512C7.37382 11.9252 7.70544 12.6872 8.07563 13.5614C8.36933 14.2551 8.04513 15.0554 7.35151 15.3491C6.65789 15.6428 5.8575 15.3186 5.5638 14.625C5.23933 13.8587 4.93186 13.152 4.64801 12.4996C4.00082 11.012 3.47651 9.80688 3.15375 8.82205C2.6595 7.31406 2.51473 5.98589 3.15942 4.56646C3.50715 3.80088 4.00382 3.10969 4.61924 2.52783C5.18025 1.99744 5.9242 1.60472 6.70237 1.30392C7.49581 0.997236 8.41094 0.753633 9.38675 0.563838C11.3386 0.18423 13.6378 0 15.912 0C18.1861 0 20.4853 0.18423 22.437 0.563838C23.4128 0.753633 24.3281 0.997236 25.1215 1.30392C25.8996 1.60472 26.6435 1.99744 27.2045 2.52783C27.8199 3.10969 28.3167 3.80088 28.6644 4.56646C29.3091 5.98573 29.1645 7.31375 28.6706 8.82187C28.3476 9.80759 27.8228 11.0138 27.1751 12.5031C26.8916 13.1545 26.5848 13.8601 26.2607 14.625C25.9671 15.3186 25.1667 15.6428 24.4732 15.3491C23.7794 15.0554 23.4554 14.2551 23.7491 13.5614C24.1184 12.6888 24.4495 11.9281 24.7425 11.255C25.3522 9.85378 25.7967 8.83245 26.0784 7.97271C26.4653 6.79121 26.4282 6.23933 26.1807 5.69448C25.9822 5.25692 25.6948 4.85423 25.3306 4.50994C25.1318 4.322 24.7536 4.08618 24.138 3.8482C23.5376 3.61614 22.7871 3.41078 21.9162 3.24139C20.1747 2.90268 18.0558 2.72772 15.912 2.72772C13.7681 2.72772 11.6491 2.90268 9.90751 3.24139C9.03662 3.41078 8.28619 3.61614 7.6858 3.8482Z" fill="#222222"/>
  <path fill-rule="evenodd" clip-rule="evenodd" d="M15.9118 13.6389C8.63052 13.6389 2.72784 19.5415 2.72784 26.8228C2.72784 29.8657 3.75698 32.6642 5.48699 34.8949C6.03388 35.6001 6.48095 35.9198 6.92879 36.0973C7.41332 36.2893 8.03233 36.3699 9.03999 36.3699H22.7837C23.7913 36.3699 24.4103 36.2893 24.8949 36.0973C25.3426 35.9198 25.7898 35.6001 26.3366 34.8949C28.0667 32.6642 29.0958 29.8657 29.0958 26.8228C29.0958 19.5415 23.1932 13.6389 15.9118 13.6389ZM0.00012207 26.8228C0.00012207 18.035 7.12404 10.9111 15.9118 10.9111C24.6996 10.9111 31.8235 18.035 31.8235 26.8228C31.8235 30.492 30.5799 33.8745 28.4921 36.5666C27.7301 37.5491 26.9142 38.2309 25.9002 38.633C24.9228 39.0205 23.8808 39.0976 22.7837 39.0976H9.03999C7.94283 39.0976 6.90093 39.0205 5.92355 38.633C4.90946 38.2309 4.09358 37.5491 3.33154 36.5666C1.24369 33.8745 0.00012207 30.492 0.00012207 26.8228Z" fill="#222222"/>
  <path fill-rule="evenodd" clip-rule="evenodd" d="M6.36475 26.8226C6.36475 26.0694 6.97537 25.4587 7.72861 25.4587H10.4563C11.2096 25.4587 11.8202 26.0694 11.8202 26.8226C11.8202 27.5758 11.2096 28.1865 10.4563 28.1865H7.72861C6.97537 28.1865 6.36475 27.5758 6.36475 26.8226ZM20.0033 26.8226C20.0033 26.0694 20.614 25.4587 21.3672 25.4587H24.0949C24.8481 25.4587 25.4588 26.0694 25.4588 26.8226C25.4588 27.5758 24.8481 28.1865 24.0949 28.1865H21.3672C20.614 28.1865 20.0033 27.5758 20.0033 26.8226Z" fill="#3D51FE"/>
  <path fill-rule="evenodd" clip-rule="evenodd" d="M15.912 22.7311C13.6523 22.7311 11.8204 24.5631 11.8204 26.8227C11.8204 29.0824 13.6523 30.9143 15.912 30.9143C18.1716 30.9143 20.0035 29.0824 20.0035 26.8227C20.0035 24.5631 18.1716 22.7311 15.912 22.7311ZM9.09265 26.8227C9.09265 23.0565 12.1458 20.0034 15.912 20.0034C19.6782 20.0034 22.7313 23.0565 22.7313 26.8227C22.7313 30.589 19.6782 33.642 15.912 33.642C12.1458 33.642 9.09265 30.589 9.09265 26.8227Z" fill="#3D51FE"/>
</svg>