<svg xmlns="http://www.w3.org/2000/svg" width="32" height="40" viewBox="0 0 32 40" fill="none">
  <path d="M15.9955 15.9974C20.0733 15.9974 23.379 12.6917 23.379 8.61394C23.379 4.53616 20.0733 1.23047 15.9955 1.23047C11.9178 1.23047 8.61206 4.53616 8.61206 8.61394C8.61206 12.6917 11.9178 15.9974 15.9955 15.9974Z" fill="#3D51FE"/>
  <path d="M15.9959 17.2281C17.6996 17.2281 19.365 16.7229 20.7816 15.7764C22.1982 14.8299 23.3023 13.4845 23.9542 11.9105C24.6062 10.3365 24.7768 8.6045 24.4444 6.93354C24.112 5.26258 23.2916 3.7277 22.0869 2.523C20.8822 1.3183 19.3474 0.497896 17.6764 0.16552C16.0054 -0.166855 14.2734 0.0037324 12.6994 0.65571C11.1254 1.30769 9.78009 2.41177 8.83356 3.82835C7.88704 5.24492 7.38184 6.91036 7.38184 8.61406C7.3845 10.8978 8.29291 13.0873 9.90778 14.7022C11.5226 16.317 13.7121 17.2254 15.9959 17.2281ZM15.9959 2.46116C17.2128 2.46116 18.4024 2.82202 19.4143 3.49811C20.4261 4.1742 21.2147 5.13515 21.6804 6.25945C22.1461 7.38374 22.268 8.62088 22.0306 9.81443C21.7931 11.008 21.2071 12.1043 20.3466 12.9648C19.4861 13.8253 18.3898 14.4113 17.1963 14.6487C16.0027 14.8861 14.7656 14.7643 13.6413 14.2986C12.517 13.8329 11.556 13.0443 10.8799 12.0324C10.2039 11.0206 9.84299 9.83098 9.84299 8.61406C9.84491 6.9828 10.4938 5.41889 11.6472 4.26542C12.8007 3.11194 14.3646 2.46308 15.9959 2.46116Z" fill="#222222"/>
  <path d="M31.933 32.92C31.2815 29.1808 29.3198 25.7958 26.3994 23.3714C23.479 20.947 19.7908 19.6418 15.9955 19.6895C12.2003 19.6418 8.51206 20.947 5.59168 23.3714C2.6713 25.7958 0.709613 29.1808 0.058109 32.92C-0.056838 33.706 -0.00082029 34.5076 0.222337 35.27C0.445495 36.0324 0.830537 36.7376 1.35118 37.3376C1.91189 37.9825 2.60525 38.4988 3.38385 38.851C4.16245 39.2033 5.00793 39.3833 5.8625 39.3788H26.1286C26.9832 39.3833 27.8286 39.2033 28.6072 38.851C29.3858 38.4988 30.0792 37.9825 30.6399 37.3376C31.1605 36.7376 31.5456 36.0324 31.7687 35.27C31.9919 34.5076 32.0479 33.706 31.933 32.92ZM28.776 35.7309C28.4461 36.1075 28.0387 36.4084 27.5818 36.6132C27.125 36.818 26.6293 36.9219 26.1286 36.9176H5.8625C5.36183 36.9219 4.86613 36.818 4.40925 36.6132C3.95236 36.4084 3.54503 36.1075 3.21507 35.7309C2.92353 35.4004 2.70781 35.0101 2.58304 34.5875C2.45827 34.1648 2.42748 33.72 2.49282 33.2841C3.05427 30.127 4.72134 27.2728 7.19549 25.2327C9.66963 23.1927 12.7892 22.1001 15.9955 22.1507C19.2019 22.1001 22.3215 23.1927 24.7956 25.2327C27.2697 27.2728 28.9368 30.127 29.4983 33.2841C29.5636 33.72 29.5328 34.1648 29.408 34.5875C29.2833 35.0101 29.0676 35.4004 28.776 35.7309Z" fill="#222222"/>
</svg>