<svg width="28" height="33" viewBox="0 0 28 33" fill="none" xmlns="http://www.w3.org/2000/svg">
<g id="Group">
<path id="Vector" d="M24.2538 33H3.69079C1.65664 33 0.00105451 31.4185 0 29.4741V29.4721V3.76835C0 2.10114 1.41937 0.744385 3.16353 0.744385H24.2538C25.9979 0.744385 27.4173 2.10114 27.4173 3.76835V29.9761C27.4173 31.6433 25.9979 33 24.2538 33ZM2.10902 29.4721C2.10902 30.3057 2.81871 30.984 3.69079 30.984H24.2538C24.8348 30.984 25.3083 30.5325 25.3083 29.9761V27.9601H3.69079C2.81871 27.9601 2.10902 28.6385 2.10902 29.4721ZM3.16353 2.76036C2.5825 2.76036 2.10902 3.21194 2.10902 3.76835V26.2848C2.58882 26.0661 3.12452 25.9441 3.69079 25.9441H25.3083V3.76835C25.3083 3.21194 24.8348 2.76036 24.2538 2.76036H3.16353Z" fill="#222222"/>
<g id="Group_2">
<path id="Vector_2" d="M20.0375 13.7086C19.8139 13.7086 19.5914 13.638 19.4048 13.4977L15.8194 10.8087L12.2341 13.4977C11.9135 13.7382 11.4864 13.7751 11.13 13.5979C10.7725 13.4187 10.5469 13.0538 10.5469 12.6541V0H21.092V12.6541C21.092 13.0538 20.8663 13.4187 20.5088 13.5979C20.3602 13.6717 20.1978 13.7086 20.0375 13.7086Z" fill="#00733C"/>
</g>
</g>
</svg>
