<svg width="14" height="16" viewBox="0 0 14 16" fill="none" xmlns="http://www.w3.org/2000/svg">
<g id="Group">
<path id="Vector" d="M11.7594 16H1.78947C0.803218 16 0.000511278 15.2332 0 14.2904V14.2895V1.82707C0 1.01872 0.68818 0.360901 1.53383 0.360901H11.7594C12.6051 0.360901 13.2932 1.01872 13.2932 1.82707V14.5338C13.2932 15.3422 12.6051 16 11.7594 16ZM1.02256 14.2895C1.02256 14.6936 1.36665 15.0226 1.78947 15.0226H11.7594C12.0411 15.0226 12.2707 14.8036 12.2707 14.5338V13.5564H1.78947C1.36665 13.5564 1.02256 13.8853 1.02256 14.2895ZM1.53383 1.33834C1.25212 1.33834 1.02256 1.55729 1.02256 1.82707V12.7441C1.25519 12.6381 1.51492 12.5789 1.78947 12.5789H12.2707V1.82707C12.2707 1.55729 12.0411 1.33834 11.7594 1.33834H1.53383Z" fill="white"/>
<g id="Group_2">
<path id="Vector_2" d="M9.71478 6.64662C9.60639 6.64662 9.49851 6.61236 9.40802 6.54436L7.66967 5.2406L5.93133 6.54436C5.7759 6.66093 5.56883 6.67883 5.39602 6.59293C5.2227 6.50601 5.11328 6.32911 5.11328 6.13534V0H10.2261V6.13534C10.2261 6.32911 10.1166 6.50601 9.94333 6.59293C9.87124 6.62872 9.7925 6.64662 9.71478 6.64662Z" fill="#E8BC33"/>
</g>
</g>
</svg>
