<svg width="16" height="16" viewBox="0 0 16 16" fill="none" xmlns="http://www.w3.org/2000/svg">
<g id="Frame" clip-path="url(#clip0_251_690)">
<g id="27.Pin">
<path id="Vector" d="M8.91701 16H7.08234L6.89434 15.8347C6.66634 15.6367 1.33301 10.92 1.33301 6.66667C1.33301 4.89856 2.03539 3.20286 3.28563 1.95262C4.53587 0.702379 6.23156 0 7.99967 0C9.76778 0 11.4635 0.702379 12.7137 1.95262C13.964 3.20286 14.6663 4.89856 14.6663 6.66667C14.6663 10.92 9.33301 15.6367 9.10501 15.8347L8.91701 16ZM7.59034 14.6667H8.40834C9.31901 13.8233 13.333 9.918 13.333 6.66667C13.333 5.25218 12.7711 3.89562 11.7709 2.89543C10.7707 1.89524 9.41416 1.33333 7.99967 1.33333C6.58519 1.33333 5.22863 1.89524 4.22844 2.89543C3.22824 3.89562 2.66634 5.25218 2.66634 6.66667C2.66634 9.924 6.68034 13.8247 7.59034 14.6667Z" fill="white"/>
<path id="Vector_2" d="M8.00033 9.99998C7.34106 9.99998 6.69659 9.80448 6.14843 9.43821C5.60026 9.07194 5.17302 8.55135 4.92073 7.94226C4.66844 7.33317 4.60243 6.66295 4.73104 6.01635C4.85966 5.36974 5.17713 4.7758 5.6433 4.30963C6.10948 3.84345 6.70342 3.52598 7.35003 3.39736C7.99663 3.26875 8.66685 3.33476 9.27594 3.58705C9.88503 3.83934 10.4056 4.26658 10.7719 4.81475C11.1382 5.36291 11.3337 6.00738 11.3337 6.66665C11.3326 7.55038 10.9811 8.39761 10.3562 9.0225C9.73129 9.64739 8.88406 9.99892 8.00033 9.99998ZM8.00033 4.66665C7.60476 4.66665 7.21808 4.78395 6.88919 5.00371C6.56029 5.22347 6.30394 5.53583 6.15257 5.90128C6.00119 6.26673 5.96159 6.66887 6.03876 7.05683C6.11593 7.44479 6.30641 7.80116 6.58611 8.08086C6.86582 8.36057 7.22218 8.55105 7.61015 8.62822C7.99811 8.70539 8.40024 8.66578 8.76569 8.51441C9.13115 8.36303 9.4435 8.10669 9.66327 7.77779C9.88303 7.44889 10.0003 7.06221 10.0003 6.66665C10.0003 6.13621 9.78961 5.62751 9.41454 5.25243C9.03947 4.87736 8.53076 4.66665 8.00033 4.66665Z" fill="#E8BC33"/>
<path id="Vector_3" d="M3.828 15.4927C1.39533 14.8433 0 13.692 0 12.3333C0 11.1133 1.108 10.0667 3.12 9.388L3.54667 10.6507C2.2 11.1047 1.33333 11.7653 1.33333 12.3333C1.33333 12.8873 2.21067 13.6807 4.172 14.204L3.828 15.4927Z" fill="white"/>
<path id="Vector_4" d="M11.4669 15.6587L11.2002 14.3534C13.4782 13.8774 14.6669 12.9767 14.6669 12.3334C14.6669 11.756 13.7769 11.0887 12.4002 10.6327L12.8195 9.36603C14.8702 10.046 16.0002 11.0994 16.0002 12.3334C16.0002 13.8227 14.3069 15.0667 11.4669 15.6587Z" fill="white"/>
</g>
</g>
<defs>
<clipPath id="clip0_251_690">
<rect width="16" height="16" fill="white"/>
</clipPath>
</defs>
</svg>
