<svg width="33" height="33" viewBox="0 0 33 33" fill="none" xmlns="http://www.w3.org/2000/svg">
<g id="Frame" clip-path="url(#clip0_282_1256)">
<g id="27.Pin">
<path id="Vector" d="M18.392 33H14.608L14.2203 32.659C13.75 32.2506 2.75 22.5225 2.75 13.75C2.75 10.1033 4.19866 6.60591 6.77728 4.02728C9.35591 1.44866 12.8533 0 16.5 0C20.1467 0 23.6441 1.44866 26.2227 4.02728C28.8013 6.60591 30.25 10.1033 30.25 13.75C30.25 22.5225 19.25 32.2506 18.7798 32.659L18.392 33ZM15.6557 30.25H17.3429C19.2211 28.5106 27.5 20.4559 27.5 13.75C27.5 10.8326 26.3411 8.03473 24.2782 5.97183C22.2153 3.90893 19.4174 2.75 16.5 2.75C13.5826 2.75 10.7847 3.90893 8.72183 5.97183C6.65893 8.03473 5.5 10.8326 5.5 13.75C5.5 20.4683 13.7789 28.5134 15.6557 30.25Z" fill="#222222"/>
<path id="Vector_2" d="M16.5 20.625C15.1403 20.625 13.811 20.2218 12.6805 19.4664C11.5499 18.7109 10.6687 17.6372 10.1483 16.381C9.62798 15.1247 9.49183 13.7424 9.7571 12.4088C10.0224 11.0751 10.6772 9.85013 11.6386 8.88864C12.6001 7.92716 13.8251 7.27238 15.1588 7.0071C16.4924 6.74183 17.8747 6.87798 19.131 7.39833C20.3872 7.91868 21.4609 8.79987 22.2164 9.93046C22.9718 11.061 23.375 12.3903 23.375 13.75C23.3728 15.5727 22.6478 17.3201 21.3589 18.6089C20.0701 19.8978 18.3227 20.6228 16.5 20.625ZM16.5 9.625C15.6842 9.625 14.8866 9.86693 14.2083 10.3202C13.5299 10.7735 13.0012 11.4177 12.689 12.1714C12.3768 12.9252 12.2951 13.7546 12.4543 14.5547C12.6134 15.3549 13.0063 16.0899 13.5832 16.6668C14.1601 17.2437 14.8951 17.6366 15.6953 17.7957C16.4954 17.9549 17.3248 17.8732 18.0786 17.561C18.8323 17.2488 19.4766 16.7201 19.9298 16.0417C20.3831 15.3634 20.625 14.5659 20.625 13.75C20.625 12.656 20.1904 11.6068 19.4168 10.8332C18.6432 10.0596 17.594 9.625 16.5 9.625Z" fill="#00733C"/>
<path id="Vector_3" d="M7.89525 31.9537C2.87788 30.6144 0 28.2398 0 25.4375C0 22.9213 2.28525 20.7625 6.435 19.3628L7.315 21.967C4.5375 22.9034 2.75 24.266 2.75 25.4375C2.75 26.5802 4.5595 28.2164 8.60475 29.2958L7.89525 31.9537Z" fill="#222222"/>
<path id="Vector_4" d="M23.6496 32.296L23.0996 29.6038C27.798 28.622 30.2496 26.7644 30.2496 25.4375C30.2496 24.2468 28.414 22.8704 25.5746 21.9299L26.4395 19.3174C30.669 20.7199 32.9996 22.8924 32.9996 25.4375C32.9996 28.5093 29.5071 31.075 23.6496 32.296Z" fill="#222222"/>
</g>
</g>
<defs>
<clipPath id="clip0_282_1256">
<rect width="33" height="33" fill="white"/>
</clipPath>
</defs>
</svg>
