<svg width="16" height="16" viewBox="0 0 16 16" fill="none" xmlns="http://www.w3.org/2000/svg">
<g id="Icon container">
<path id="Vector" d="M11.3654 1.54999C10.5129 1.54999 9.81543 2.24748 9.81543 3.09998C9.81543 3.95248 10.5129 4.64997 11.3654 4.64997C12.2179 4.64997 12.9154 3.95248 12.9154 3.09998C12.9154 2.24748 12.2179 1.54999 11.3654 1.54999ZM11.3654 3.61665C11.0813 3.61665 10.8488 3.38415 10.8488 3.09998C10.8488 2.81582 11.0813 2.58332 11.3654 2.58332C11.6496 2.58332 11.8821 2.81582 11.8821 3.09998C11.8821 3.38415 11.6496 3.61665 11.3654 3.61665Z" fill="white"/>
<path id="Vector_2" d="M1.19419 8.3943C0.978743 8.17833 0.978743 7.82716 1.19419 7.61124L7.59851 1.19479C7.7007 1.09238 7.84222 1.03333 7.98725 1.03333H12.8817C13.1854 1.03333 13.4324 1.28159 13.4324 1.58631V5.97693C13.4324 6.26249 13.6637 6.49359 13.949 6.49359C14.2343 6.49359 14.4657 6.26249 14.4657 5.97693V1.58631C14.4657 0.711395 13.755 0 12.8817 0H7.98725C7.56947 0 7.16105 0.169518 6.86665 0.465205L0.462596 6.88161C-0.154199 7.49969 -0.154199 8.50579 0.462596 9.12383L5.33082 14.0013C5.43198 14.1028 5.56419 14.1532 5.69661 14.1532C5.82857 14.1532 5.96073 14.1027 6.06164 14.0023C6.26345 13.8005 6.26396 13.4736 6.06241 13.2717L1.19419 8.3943Z" fill="white"/>
<path id="Vector_3" d="M10.8482 6.19989C8.28557 6.19989 6.19824 8.28721 6.19824 10.8499C6.19824 13.4125 8.28557 15.4999 10.8482 15.4999C13.4109 15.4999 15.4982 13.4125 15.4982 10.8499C15.4982 8.28721 13.4109 6.19989 10.8482 6.19989ZM10.8482 10.3332C11.7007 10.3332 12.3982 11.0307 12.3982 11.8832C12.3982 12.5549 11.9642 13.1232 11.3649 13.3402V13.4332C11.3649 13.7174 11.1324 13.9499 10.8482 13.9499C10.5641 13.9499 10.3316 13.7174 10.3316 13.4332V13.3402C9.73223 13.1232 9.29823 12.5549 9.29823 11.8832C9.29823 11.599 9.53073 11.3665 9.81489 11.3665C10.0991 11.3665 10.3316 11.599 10.3316 11.8832C10.3316 12.1674 10.5641 12.3999 10.8482 12.3999C11.1324 12.3999 11.3649 12.1674 11.3649 11.8832C11.3649 11.599 11.1324 11.3665 10.8482 11.3665C9.99573 11.3665 9.29823 10.669 9.29823 9.81654C9.29823 9.14488 9.73223 8.57655 10.3316 8.35955V8.26655C10.3316 7.98238 10.5641 7.74988 10.8482 7.74988C11.1324 7.74988 11.3649 7.98238 11.3649 8.26655V8.35955C11.9642 8.57655 12.3982 9.14488 12.3982 9.81654C12.3982 10.1007 12.1657 10.3332 11.8816 10.3332C11.5974 10.3332 11.3649 10.1007 11.3649 9.81654C11.3649 9.53238 11.1324 9.29988 10.8482 9.29988C10.5641 9.29988 10.3316 9.53238 10.3316 9.81654C10.3316 10.1007 10.5641 10.3332 10.8482 10.3332Z" fill="#E8BC33"/>
</g>
</svg>
