<svg width="33" height="33" viewBox="0 0 33 33" fill="none" xmlns="http://www.w3.org/2000/svg">
<g id="Icon container">
<path id="Vector" d="M24.1975 3.30002C22.3825 3.30002 20.8975 4.78503 20.8975 6.60004C20.8975 8.41505 22.3825 9.90005 24.1975 9.90005C26.0125 9.90005 27.4975 8.41505 27.4975 6.60004C27.4975 4.78503 26.0125 3.30002 24.1975 3.30002ZM24.1975 7.70004C23.5925 7.70004 23.0975 7.20504 23.0975 6.60004C23.0975 5.99503 23.5925 5.50003 24.1975 5.50003C24.8025 5.50003 25.2975 5.99503 25.2975 6.60004C25.2975 7.20504 24.8025 7.70004 24.1975 7.70004Z" fill="#222222"/>
<path id="Vector_2" d="M2.5425 17.8719C2.0838 17.4121 2.0838 16.6644 2.5425 16.2047L16.1776 2.54376C16.3952 2.32574 16.6965 2.20001 17.0053 2.20001H27.4257C28.0724 2.20001 28.5982 2.72856 28.5982 3.37735V12.7252C28.5982 13.3332 29.0908 13.8252 29.6982 13.8252C30.3057 13.8252 30.7982 13.3332 30.7982 12.7252V3.37735C30.7982 1.5146 29.2852 0 27.4257 0H17.0053C16.1158 0 15.2462 0.360912 14.6195 0.990445L0.98489 14.6513C-0.328297 15.9672 -0.328297 18.1093 0.98489 19.4251L11.3496 29.8096C11.565 30.0255 11.8465 30.1329 12.1284 30.1329C12.4093 30.1329 12.6907 30.0254 12.9055 29.8117C13.3352 29.382 13.3363 28.686 12.9072 28.2562L2.5425 17.8719Z" fill="#222222"/>
<path id="Vector_3" d="M23.0963 13.1999C17.6403 13.1999 13.1963 17.6439 13.1963 23.0999C13.1963 28.556 17.6403 33 23.0963 33C28.5524 33 32.9964 28.556 32.9964 23.0999C32.9964 17.6439 28.5524 13.1999 23.0963 13.1999ZM23.0963 21.9999C24.9114 21.9999 26.3964 23.4849 26.3964 25.3C26.3964 26.73 25.4724 27.94 24.1963 28.402V28.6C24.1963 29.205 23.7013 29.7 23.0963 29.7C22.4913 29.7 21.9963 29.205 21.9963 28.6V28.402C20.7203 27.94 19.7963 26.73 19.7963 25.3C19.7963 24.695 20.2913 24.2 20.8963 24.2C21.5013 24.2 21.9963 24.695 21.9963 25.3C21.9963 25.905 22.4913 26.4 23.0963 26.4C23.7013 26.4 24.1963 25.905 24.1963 25.3C24.1963 24.695 23.7013 24.2 23.0963 24.2C21.2813 24.2 19.7963 22.7149 19.7963 20.8999C19.7963 19.4699 20.7203 18.2599 21.9963 17.7979V17.5999C21.9963 16.9949 22.4913 16.4999 23.0963 16.4999C23.7013 16.4999 24.1963 16.9949 24.1963 17.5999V17.7979C25.4724 18.2599 26.3964 19.4699 26.3964 20.8999C26.3964 21.5049 25.9014 21.9999 25.2964 21.9999C24.6913 21.9999 24.1963 21.5049 24.1963 20.8999C24.1963 20.2949 23.7013 19.7999 23.0963 19.7999C22.4913 19.7999 21.9963 20.2949 21.9963 20.8999C21.9963 21.5049 22.4913 21.9999 23.0963 21.9999Z" fill="#00733C"/>
</g>
</svg>
