<svg width="13" height="13" viewBox="0 0 13 13" fill="none" xmlns="http://www.w3.org/2000/svg">
<g id="Group">
<path id="Vector" fill-rule="evenodd" clip-rule="evenodd" d="M3.22583 0.242193C4.03368 0.0626617 5.01877 0 6.20077 0C7.38275 0 8.36785 0.0626617 9.17574 0.242193C9.98945 0.423033 10.6547 0.729269 11.1635 1.23807C11.6723 1.74687 11.9785 2.4121 12.1594 3.22583C12.3389 4.03368 12.4015 5.01877 12.4015 6.20077C12.4015 7.38275 12.3389 8.36785 12.1594 9.17574C11.9785 9.98945 11.6723 10.6547 11.1635 11.1635C10.6547 11.6723 9.98945 11.9785 9.17574 12.1594C8.36785 12.3389 7.38275 12.4015 6.20077 12.4015C5.01877 12.4015 4.03368 12.3389 3.22583 12.1594C2.4121 11.9785 1.74687 11.6723 1.23807 11.1635C0.729269 10.6547 0.423057 9.98945 0.242193 9.17574C0.0626617 8.36785 0 7.38275 0 6.20077C0 5.01877 0.0626617 4.03368 0.242193 3.22583C0.423033 2.4121 0.729269 1.74687 1.23807 1.23807C1.74687 0.729269 2.4121 0.423033 3.22583 0.242193ZM1.25105 3.45003C1.0962 4.14674 1.03347 5.04237 1.03347 6.20077C1.03347 7.35918 1.09623 8.25478 1.25105 8.95154C1.4046 9.64237 1.64173 10.1056 1.96884 10.4327C2.29596 10.7598 2.75917 10.997 3.45003 11.1505C4.14674 11.3054 5.04237 11.3681 6.20077 11.3681C7.35918 11.3681 8.25478 11.3053 8.95154 11.1505C9.64237 10.997 10.1056 10.7598 10.4327 10.4327C10.7598 10.1056 10.997 9.64237 11.1505 8.95154C11.3054 8.25478 11.3681 7.35918 11.3681 6.20077C11.3681 5.04237 11.3053 4.14674 11.1505 3.45003C10.997 2.75917 10.7598 2.29596 10.4327 1.96884C10.1056 1.64173 9.64237 1.4046 8.95154 1.25105C8.25478 1.0962 7.35918 1.03347 6.20077 1.03347C5.04237 1.03347 4.14674 1.09623 3.45003 1.25105C2.75917 1.4046 2.29596 1.64173 1.96884 1.96884C1.64173 2.29596 1.40457 2.75917 1.25105 3.45003Z" fill="#6B6B6B"/>
<path id="Vector_2" fill-rule="evenodd" clip-rule="evenodd" d="M6.25787 3.39431C6.6142 3.02059 7.20763 3.00099 7.58862 3.34817L8.99614 4.63088C9.38333 4.98369 9.40561 5.58214 9.04338 5.96199L6.14413 9.00223C5.96481 9.19021 5.71649 9.29522 5.45868 9.29621L4.13859 9.3011C3.64812 9.30292 3.22427 8.92961 3.19016 8.42742L3.10272 7.13977C3.08494 6.8781 3.1789 6.623 3.3586 6.43453L6.25787 3.39431ZM6.94667 4.0543L6.5168 4.50507L7.9113 5.76676L8.33673 5.32062L6.9472 4.0543H6.94667ZM7.25273 6.45737L5.85819 5.19566L4.05527 7.08634L4.14089 8.3471L5.45514 8.34223L7.25273 6.45737Z" fill="#6B6B6B"/>
</g>
</svg>
