<svg width="23" height="24" viewBox="0 0 23 24" fill="none" xmlns="http://www.w3.org/2000/svg">
<g id="Group 709">
<g id="Group">
<g id="Group_2">
<path id="Vector" d="M11.9852 11.5366C11.9814 11.5327 11.9804 11.5274 11.9765 11.5236L8.13099 7.678V5.26168C8.13099 5.08267 8.05992 4.9116 7.9336 4.78524L3.89061 0.697368C3.69848 0.505281 3.40828 0.446703 3.15622 0.551326C2.90421 0.655276 2.74033 0.901405 2.74033 1.17381V3.19531H0.673914C0.401551 3.19526 0.155423 3.3591 0.0514729 3.61115C-0.0531508 3.86317 0.00475388 4.15273 0.19756 4.34554L4.28547 8.43341C4.41184 8.55978 4.5829 8.63084 4.76187 8.63084H7.17819L11.0237 12.4764C11.0276 12.4802 11.0328 12.4813 11.0368 12.4851C11.2991 12.7355 11.6976 12.7388 11.9635 12.4851C12.2434 12.2179 12.2371 11.8005 11.9852 11.5366Z" fill="#5FB868"/>
</g>
</g>
<g id="Group_3">
<g id="Group_4">
<path id="Vector_2" d="M11.5 0.5C9.77582 0.5 8.14564 0.938665 6.67768 1.62386L8.74472 3.69091C9.61226 3.40242 10.5369 3.24025 11.5 3.24025C16.33 3.24021 20.2597 7.16999 20.2597 12C20.2597 16.83 16.33 20.7597 11.5 20.7597C6.66995 20.7597 2.74021 16.83 2.74021 12C2.74021 11.0368 2.90242 10.1122 3.19086 9.24468L1.12382 7.17763C0.43871 8.64564 0 10.2758 0 12C0 18.3164 5.18352 23.5 11.5 23.5C17.8164 23.5 23 18.3164 23 12C23 5.68352 17.8165 0.5 11.5 0.5Z" fill="#222222"/>
</g>
</g>
<g id="Group_5">
<g id="Group_6">
<path id="Vector_3" d="M11.5 5.93555C10.7878 5.93555 10.1139 6.08154 9.47849 6.30809V7.12001L11.0363 8.67777C11.1893 8.65639 11.3412 8.63088 11.5 8.63088C13.3577 8.63088 14.8692 10.1424 14.8692 12C14.8692 13.8577 13.3577 15.3692 11.5 15.3692C9.64233 15.3692 8.13083 13.8577 8.13083 12C8.13083 11.8412 8.15635 11.6893 8.17773 11.5363L6.62001 9.97849H5.80809C5.58154 10.6139 5.43555 11.2877 5.43555 12C5.43555 15.3441 8.1559 18.0644 11.5 18.0644C14.8441 18.0644 17.5645 15.3441 17.5645 12C17.5645 8.65585 14.8441 5.93555 11.5 5.93555Z" fill="#222222"/>
</g>
</g>
</g>
</svg>
