<svg width="25" height="25" viewBox="0 0 25 25" fill="none" xmlns="http://www.w3.org/2000/svg">
<g id="Icon container">
<path id="Vector" d="M18.3311 2.50024C16.9561 2.50024 15.8311 3.62525 15.8311 5.00026C15.8311 6.37526 16.9561 7.50027 18.3311 7.50027C19.7061 7.50027 20.8311 6.37526 20.8311 5.00026C20.8311 3.62525 19.7061 2.50024 18.3311 2.50024ZM18.3311 5.8336C17.8727 5.8336 17.4977 5.45859 17.4977 5.00026C17.4977 4.54192 17.8727 4.16692 18.3311 4.16692C18.7894 4.16692 19.1644 4.54192 19.1644 5.00026C19.1644 5.45859 18.7894 5.8336 18.3311 5.8336Z" fill="#222222"/>
<path id="Vector_2" d="M1.92614 13.5393C1.57863 13.191 1.57863 12.6246 1.92614 12.2763L12.2558 1.92709C12.4206 1.76193 12.6489 1.66668 12.8828 1.66668H20.7771C21.267 1.66668 21.6653 2.06709 21.6653 2.5586V9.6403C21.6653 10.1009 22.0385 10.4736 22.4987 10.4736C22.9588 10.4736 23.332 10.1009 23.332 9.6403V2.5586C23.332 1.14742 22.1857 0 20.7771 0H12.8828C12.2089 0 11.5502 0.273418 11.0754 0.750337L0.746129 11.0995C-0.24871 12.0964 -0.24871 13.7192 0.746129 14.716L8.59817 22.583C8.76134 22.7466 8.97459 22.828 9.18818 22.828C9.40101 22.828 9.61418 22.7465 9.77693 22.5846C10.1024 22.2591 10.1033 21.7318 9.77818 21.4062L1.92614 13.5393Z" fill="#222222"/>
<path id="Vector_3" d="M17.4971 9.99976C13.3638 9.99976 9.99707 13.3664 9.99707 17.4998C9.99707 21.6332 13.3638 24.9998 17.4971 24.9998C21.6305 24.9998 24.9972 21.6332 24.9972 17.4998C24.9972 13.3664 21.6305 9.99976 17.4971 9.99976ZM17.4971 16.6665C18.8721 16.6665 19.9971 17.7915 19.9971 19.1665C19.9971 20.2498 19.2971 21.1665 18.3304 21.5165V21.6665C18.3304 22.1248 17.9554 22.4998 17.4971 22.4998C17.0388 22.4998 16.6638 22.1248 16.6638 21.6665V21.5165C15.6971 21.1665 14.9971 20.2498 14.9971 19.1665C14.9971 18.7081 15.3721 18.3331 15.8304 18.3331C16.2888 18.3331 16.6638 18.7081 16.6638 19.1665C16.6638 19.6248 17.0388 19.9998 17.4971 19.9998C17.9554 19.9998 18.3304 19.6248 18.3304 19.1665C18.3304 18.7081 17.9554 18.3331 17.4971 18.3331C16.1221 18.3331 14.9971 17.2081 14.9971 15.8331C14.9971 14.7498 15.6971 13.8331 16.6638 13.4831V13.3331C16.6638 12.8748 17.0388 12.4998 17.4971 12.4998C17.9554 12.4998 18.3304 12.8748 18.3304 13.3331V13.4831C19.2971 13.8331 19.9971 14.7498 19.9971 15.8331C19.9971 16.2915 19.6221 16.6665 19.1638 16.6665C18.7055 16.6665 18.3304 16.2915 18.3304 15.8331C18.3304 15.3748 17.9554 14.9998 17.4971 14.9998C17.0388 14.9998 16.6638 15.3748 16.6638 15.8331C16.6638 16.2915 17.0388 16.6665 17.4971 16.6665Z" fill="#00733C"/>
</g>
</svg>
