<svg xmlns="http://www.w3.org/2000/svg" width="29" height="29" viewBox="0 0 29 29" fill="none">
  <path d="M8.33133 21.8892H16.6593V25.0392H8.33133V21.8892Z" fill="#3D51FE"/>
  <path d="M24.429 10.4737C24.1162 10.4737 23.8626 10.7273 23.8626 11.0401V23.1125C23.8626 23.2476 23.8425 23.3781 23.8057 23.5014L15.5377 16.7537L22.2979 10.2568C22.5234 10.04 22.5306 9.68146 22.3138 9.45591C22.097 9.23043 21.7385 9.22318 21.513 9.44L14.1911 16.4767C13.7248 16.8938 13.1237 17.1234 12.4977 17.1234C11.8718 17.1234 11.2707 16.8938 10.8043 16.4767L1.66133 7.68986C1.89151 7.51138 2.1801 7.40479 2.49326 7.40479H22.5021C22.815 7.40479 23.0685 7.15121 23.0685 6.83838C23.0685 6.52555 22.815 6.27197 22.5021 6.27197H2.49326C1.11848 6.27192 0 7.39029 0 8.7649V23.1125C0 24.4871 1.11848 25.6055 2.49326 25.6055H22.5021C23.8769 25.6055 24.9954 24.4871 24.9954 23.1125V11.0401C24.9954 10.7273 24.7418 10.4737 24.429 10.4737ZM1.18968 23.5011C1.15286 23.378 1.13281 23.2476 1.13281 23.1125V8.7649C1.13281 8.76099 1.1331 8.75719 1.1331 8.75329L9.45468 16.7508L1.18968 23.5011ZM2.49326 24.4727C2.29519 24.4727 2.10703 24.4298 1.93711 24.3534L10.2979 17.5247C10.9309 17.9985 11.7003 18.2562 12.4977 18.2562C13.2937 18.2562 14.0617 17.9995 14.694 17.5274L23.0581 24.3535C22.8882 24.4298 22.7002 24.4727 22.5022 24.4727H2.49326Z" fill="#222222"/>
  <path d="M16.023 9.72705C16.023 9.41422 15.7694 9.16064 15.4565 9.16064H9.53885C9.22602 9.16064 8.97244 9.41422 8.97244 9.72705C8.97244 10.0399 9.22602 10.2935 9.53885 10.2935H15.4566C15.7694 10.2935 16.023 10.0399 16.023 9.72705Z" fill="#222222"/>
  <path d="M10.6601 11.3682C10.3473 11.3682 10.0937 11.6217 10.0937 11.9346C10.0937 12.2474 10.3473 12.501 10.6601 12.501H14.3305C14.6434 12.501 14.8969 12.2474 14.8969 11.9346C14.8969 11.6217 14.6434 11.3682 14.3305 11.3682H10.6601Z" fill="#222222"/>
  <path d="M24.429 12.5346C26.9535 12.5346 29 10.4884 29 7.96432C29 5.44023 26.9535 3.39404 24.429 3.39404C21.9045 3.39404 19.858 5.44023 19.858 7.96432C19.858 10.4884 21.9045 12.5346 24.429 12.5346Z" fill="#3D51FE"/>
  <path d="M24.7269 9.92398C24.414 9.92398 24.1605 9.6704 24.1605 9.35758V7.13721H24.1311C23.8183 7.13721 23.5647 6.88363 23.5647 6.5708C23.5647 6.25797 23.8183 6.00439 24.1311 6.00439H24.7269C25.0397 6.00439 25.2933 6.25797 25.2933 6.5708V9.35758C25.2933 9.6704 25.0397 9.92398 24.7269 9.92398Z" fill="white"/>
</svg>