<svg width="25" height="25" viewBox="0 0 25 25" fill="none" xmlns="http://www.w3.org/2000/svg">
<g id="Group 636">
<path id="Vector" d="M7.20019 14.1641C6.53715 14.1641 5.90127 14.4275 5.43243 14.8963C4.96359 15.3651 4.7002 16.001 4.7002 16.6641V18.3281C4.7002 18.9912 4.96359 19.627 5.43243 20.0959C5.90127 20.5647 6.53715 20.8281 7.20019 20.8281H17.2002C17.8632 20.8281 18.4991 20.5647 18.968 20.0959C19.4368 19.627 19.7002 18.9912 19.7002 18.3281V16.6641C19.7002 16.001 19.4368 15.3651 18.968 14.8963C18.4991 14.4275 17.8632 14.1641 17.2002 14.1641H7.20019ZM18.0361 16.6641V18.3281C18.0361 18.5498 17.9481 18.7624 17.7913 18.9192C17.6345 19.076 17.4219 19.1641 17.2002 19.1641H7.20019C6.97849 19.1641 6.76587 19.076 6.6091 18.9192C6.45233 18.7624 6.36426 18.5498 6.36426 18.3281V16.6641C6.36632 16.4437 6.4553 16.2331 6.61184 16.078C6.76839 15.9229 6.97984 15.8359 7.20019 15.8359H17.2002C17.4205 15.8359 17.632 15.9229 17.7885 16.078C17.9451 16.2331 18.0341 16.4437 18.0361 16.6641Z" fill="#00733C"/>
<path id="Vector_2" d="M24.3643 8.75783L23.4893 3.4844C23.3312 2.50952 22.8305 1.62303 22.0772 0.984316C21.3239 0.345607 20.3675 -0.00340982 19.3799 2.51144e-05H5.02054C4.03293 -0.00340982 3.0765 0.345607 2.32322 0.984316C1.56995 1.62303 1.06925 2.50952 0.911165 3.4844L0.0361656 8.75783C-0.0545582 9.28203 0.0264789 9.82152 0.267207 10.2959C0.507935 10.7704 0.895474 11.1543 1.3721 11.3906V20.8359C1.3721 21.9403 1.81081 22.9995 2.59173 23.7804C3.37264 24.5613 4.43178 25 5.53616 25H18.8643C19.9687 25 21.0278 24.5613 21.8087 23.7804C22.5896 22.9995 23.0283 21.9403 23.0283 20.8359V11.3828C23.505 11.1465 23.8925 10.7625 24.1332 10.2881C24.374 9.81371 24.455 9.27422 24.3643 8.75002V8.75783ZM21.8408 3.75783L22.7236 9.03127C22.7428 9.15033 22.736 9.27212 22.7036 9.38829C22.6713 9.50446 22.6142 9.61226 22.5363 9.70429C22.4583 9.79632 22.3614 9.8704 22.2522 9.92144C22.1429 9.97249 22.0239 9.99929 21.9033 10H19.5596L18.1846 1.66409H19.3799C19.9719 1.66389 20.5447 1.87448 20.9956 2.25812C21.4466 2.64176 21.7462 3.17341 21.8408 3.75783ZM6.51272 10.0078L7.90335 1.66409H11.3643V10L6.51272 10.0078ZM13.0362 1.66409H16.4971L17.8799 10H13.0362V1.66409ZM2.5596 3.75783C2.65425 3.17341 2.95387 2.64176 3.4048 2.25812C3.85572 1.87448 4.42849 1.66389 5.02054 1.66409H6.21585L4.82522 10H2.48148C2.36089 9.99929 2.24188 9.97249 2.13263 9.92144C2.02338 9.8704 1.92646 9.79632 1.84853 9.70429C1.77061 9.61226 1.71351 9.50446 1.68117 9.38829C1.64883 9.27212 1.642 9.15033 1.66116 9.03127L2.5596 3.75783ZM21.3643 20.8359C21.3643 21.499 21.1009 22.1349 20.632 22.6037C20.1632 23.0725 19.5273 23.3359 18.8643 23.3359H5.53616C4.87312 23.3359 4.23724 23.0725 3.7684 22.6037C3.29955 22.1349 3.03616 21.499 3.03616 20.8359V11.6641H21.3643V20.8359Z" fill="#222222"/>
</g>
</svg>
