<svg width="29" height="25" viewBox="0 0 29 25" fill="none" xmlns="http://www.w3.org/2000/svg">
<g id="Group 637">
<path id="Vector" d="M27.2755 24.1379H6.58583C6.0113 22.9258 5.71668 21.6 5.72376 20.2586C5.72069 18.9177 6.01512 17.5927 6.58583 16.3793H27.2755C26.701 17.5914 26.4063 18.9172 26.4134 20.2586C26.4103 21.5996 26.7048 22.9245 27.2755 24.1379Z" fill="#5FB868"/>
<path id="Vector_2" d="M9.60331 18.5345L7.44814 17.2892L5.29297 18.5345V12.931H9.60331V18.5345Z" fill="white"/>
<path id="Vector_3" d="M12.6209 9.91377L10.4657 8.66851L8.31055 9.91377V5.17239H12.6209V9.91377Z" fill="#5FB868"/>
<path id="Vector_4" opacity="0.1" d="M14.3455 4.31034H7.01795C6.78952 4.311 6.57064 4.40204 6.40911 4.56357C6.24759 4.72509 6.15655 4.94398 6.15588 5.17241C6.15537 5.32313 6.19503 5.47128 6.27079 5.60159C6.34655 5.73189 6.45567 5.83966 6.58691 5.91378V7.75861H4.94036C5.04101 8.05271 5.15904 8.34057 5.29381 8.62068H2.27657C1.84044 9.53462 1.56765 10.5178 1.47053 11.5259C1.55364 10.8262 1.72452 10.1397 1.97916 9.48275H6.58691V9.91378C6.58853 10.0645 6.62939 10.2121 6.70547 10.3422C6.78154 10.4723 6.8902 10.5802 7.02074 10.6555C7.15127 10.7308 7.29917 10.7708 7.44985 10.7714C7.60053 10.7721 7.7488 10.7335 7.88002 10.6595L9.60415 9.66378L11.3283 10.6595C11.4595 10.7335 11.6078 10.7721 11.7585 10.7714C11.9091 10.7708 12.057 10.7308 12.1876 10.6555C12.3181 10.5803 12.4268 10.4723 12.5028 10.3422C12.5789 10.2121 12.6198 10.0645 12.6214 9.91378V6.03447H14.3455C14.5742 6.03447 14.7934 5.94365 14.9551 5.78198C15.1168 5.62031 15.2076 5.40104 15.2076 5.17241C15.2076 4.94377 15.1168 4.7245 14.9551 4.56283C14.7934 4.40116 14.5742 4.31034 14.3455 4.31034ZM10.8973 8.4181L10.0352 7.9224C9.90433 7.84618 9.7556 7.80601 9.60415 7.80601C9.45271 7.80601 9.30398 7.84618 9.17312 7.9224L8.31105 8.4181V6.03447H10.8973V8.4181ZM26.449 21.0388C26.4404 20.9569 26.4361 20.8793 26.4317 20.806C26.4282 20.789 26.4267 20.7717 26.4274 20.7543V20.7327C26.4231 20.6896 26.4231 20.6422 26.4231 20.5991C26.4195 20.559 26.4181 20.5187 26.4188 20.4784C26.4145 20.3965 26.4145 20.3276 26.4145 20.2586C26.4145 20.1379 26.4188 20.0172 26.4231 19.9009C26.4274 19.7327 26.4404 19.569 26.4533 19.4095C26.4526 19.402 26.4541 19.3945 26.4576 19.3879C26.5508 18.4749 26.7986 17.5843 27.1904 16.7543C27.2498 16.6384 27.2795 16.5095 27.2766 16.3793H22.9662C22.5077 15.4133 22.2288 14.3719 22.1429 13.306C22.1343 13.2198 22.1257 13.1336 22.1214 13.0517C22.1171 12.9612 22.1128 12.8707 22.1085 12.7888C22.1042 12.681 22.1042 12.5862 22.1042 12.5C22.1042 12.3319 22.1085 12.1638 22.1214 12.0043C22.13 11.875 22.1386 11.75 22.1516 11.625C22.2407 10.5828 22.5166 9.56513 22.9662 8.62068H25.9835C25.9885 8.49025 25.9587 8.36083 25.8973 8.24568C25.4927 7.38798 25.2418 6.46596 25.1559 5.52154C25.1473 5.43965 25.1429 5.36206 25.1386 5.28878C25.1351 5.27179 25.1336 5.25441 25.1343 5.23706V5.21551C25.13 5.17241 25.13 5.12499 25.13 5.08189C25.1264 5.04176 25.125 5.00148 25.1257 4.9612C25.1214 4.8793 25.1214 4.81034 25.1214 4.74137C25.1214 4.62068 25.1257 4.49999 25.13 4.38361C25.1343 4.21551 25.1473 4.05172 25.1602 3.89223C25.1595 3.88478 25.161 3.8773 25.1645 3.87068C25.2577 2.95761 25.5055 2.06704 25.8973 1.23706C25.9587 1.12191 25.9885 0.992492 25.9835 0.862061H5.29381C4.88513 1.71504 4.62007 2.62963 4.50933 3.56896C4.61114 2.9396 4.77427 2.32172 4.9964 1.72413H23.8585C23.5972 2.56288 23.4479 3.43247 23.4145 4.31034H18.2248C17.9962 4.31034 17.7769 4.40116 17.6153 4.56283C17.4536 4.7245 17.3628 4.94377 17.3628 5.17241C17.3628 5.40104 17.4536 5.62031 17.6153 5.78198C17.7769 5.94365 17.9962 6.03447 18.2248 6.03447H23.4792C23.5547 6.61884 23.6802 7.19565 23.8542 7.75861H14.3929C13.2421 7.69827 13.2076 9.48706 14.3455 9.48275H20.8412C20.5799 10.3215 20.4307 11.1911 20.3973 12.069H15.2076C14.979 12.069 14.7597 12.1598 14.598 12.3215C14.4364 12.4831 14.3455 12.7024 14.3455 12.931C14.3455 13.1597 14.4364 13.3789 14.598 13.5406C14.7597 13.7023 14.979 13.7931 15.2076 13.7931H20.4619C20.5375 14.3775 20.6629 14.9543 20.8369 15.5172H9.60415V13.7931H11.3283C11.5569 13.7931 11.7762 13.7023 11.9379 13.5406C12.0995 13.3789 12.1904 13.1597 12.1904 12.931C12.1904 12.7024 12.0995 12.4831 11.9379 12.3215C11.7762 12.1598 11.5569 12.069 11.3283 12.069H4.00071C3.77228 12.0696 3.55339 12.1607 3.39187 12.3222C3.23034 12.4837 3.13931 12.7026 3.13864 12.931C3.13813 13.0818 3.17779 13.2299 3.25355 13.3602C3.32931 13.4905 3.43843 13.5983 3.56967 13.6724V15.5172H1.97916C1.70723 14.8309 1.53311 14.1098 1.46191 13.375C1.55101 14.4172 1.82696 15.4349 2.27657 16.3793H5.29381V13.7931H7.88002V17.0388L7.01795 16.5431C6.88709 16.4669 6.73836 16.4267 6.58691 16.4267C6.43547 16.4267 6.28674 16.4669 6.15588 16.5431L5.29381 17.0388V18.5345L5.96622 18.1465C5.92312 18.3405 5.88433 18.5302 5.85416 18.7069L6.58691 18.2845L8.31105 19.2802C8.44227 19.3542 8.59053 19.3928 8.74122 19.3921C8.8919 19.3914 9.0398 19.3515 9.17034 19.2762C9.30087 19.2009 9.40953 19.0929 9.48561 18.9629C9.56168 18.8328 9.60254 18.6852 9.60415 18.5345V17.2414H25.1473C24.8897 18.0808 24.7419 18.9501 24.7076 19.8276H16.5007C16.2721 19.8276 16.0528 19.9184 15.8911 20.0801C15.7295 20.2417 15.6386 20.461 15.6386 20.6896C15.6386 20.9183 15.7295 21.1376 15.8911 21.2992C16.0528 21.4609 16.2721 21.5517 16.5007 21.5517H24.7723C24.8437 22.1368 24.9692 22.714 25.1473 23.2759H6.28519C6.00613 22.5584 5.82912 21.8054 5.75933 21.0388C5.84413 22.1136 6.1246 23.1639 6.58691 24.1379H27.2766C27.2799 24.0076 27.2503 23.8786 27.1904 23.7629C26.7858 22.9052 26.5349 21.9832 26.449 21.0388ZM4.50933 5.90085C4.47485 5.5431 4.44898 5.21982 4.43605 4.90516C4.44011 5.27147 4.46747 5.63715 4.51795 5.99999C4.51704 5.9668 4.51416 5.9337 4.50933 5.90085Z" fill="black"/>
<path id="Vector_5" opacity="0.1" d="M13.0515 21.5517C13.5276 21.5517 13.9136 21.1658 13.9136 20.6897C13.9136 20.2136 13.5276 19.8276 13.0515 19.8276C12.5754 19.8276 12.1895 20.2136 12.1895 20.6897C12.1895 21.1658 12.5754 21.5517 13.0515 21.5517Z" fill="black"/>
<path id="Vector_6" d="M28.05 23.7631C27.5379 22.6658 27.2729 21.4695 27.2738 20.2586C27.2675 19.0467 27.5331 17.8487 28.0508 16.7529C28.1123 16.6213 28.1398 16.4764 28.1307 16.3315C28.1217 16.1865 28.0765 16.0461 27.9992 15.9232C27.9219 15.8003 27.815 15.6987 27.6882 15.6278C27.5615 15.5568 27.419 15.5188 27.2738 15.5172H23.5301C23.1589 14.5545 22.9675 13.5318 22.9656 12.5C22.9622 11.4675 23.1542 10.4438 23.5317 9.48276H25.9828C26.1281 9.48118 26.2708 9.44313 26.3976 9.37209C26.5244 9.30106 26.6313 9.19932 26.7086 9.0762C26.7858 8.95309 26.8309 8.81254 26.8397 8.66746C26.8485 8.52238 26.8208 8.37741 26.759 8.24585C26.2469 7.14857 25.9819 5.95226 25.9828 4.74138C25.9766 3.52942 26.2421 2.33147 26.7598 1.23565C26.8213 1.10407 26.8488 0.959174 26.8398 0.814224C26.8308 0.669275 26.7855 0.528903 26.7082 0.405962C26.6309 0.283021 26.524 0.181438 26.3973 0.110515C26.2705 0.0395913 26.128 0.00159343 25.9828 0H5.29314C5.13003 0.000666379 4.97041 0.0473056 4.8326 0.134566C4.69479 0.221826 4.58437 0.346171 4.51402 0.493332C3.66664 2.25766 3.37307 4.23715 3.67192 6.17147C3.70323 6.37433 3.80643 6.55917 3.96268 6.69228C4.11894 6.82538 4.31783 6.89788 4.52309 6.89655C4.64739 6.89567 4.77004 6.86804 4.8827 6.81554C4.99536 6.76303 5.0954 6.68689 5.17601 6.59227C5.25662 6.49766 5.31591 6.38679 5.34985 6.26722C5.3838 6.14765 5.39159 6.02217 5.37272 5.89931C5.16361 4.4893 5.33036 3.04907 5.85613 1.72414H24.7187C24.4592 2.56323 24.3105 3.43268 24.2766 4.31034H19.0862C18.8576 4.31034 18.6383 4.40117 18.4767 4.56284C18.315 4.72451 18.2242 4.94378 18.2242 5.17241C18.2242 5.40105 18.315 5.62032 18.4767 5.78199C18.6383 5.94366 18.8576 6.03448 19.0862 6.03448H24.3419C24.4152 6.61923 24.5407 7.19624 24.7168 7.75862H15.2532C14.1027 7.69629 14.0691 9.48793 15.2069 9.48276H21.7015C21.4419 10.3218 21.2933 11.1913 21.2594 12.069H16.069C15.8404 12.069 15.6211 12.1598 15.4594 12.3215C15.2978 12.4831 15.2069 12.7024 15.2069 12.931C15.2069 13.1597 15.2978 13.3789 15.4594 13.5406C15.6211 13.7023 15.8404 13.7931 16.069 13.7931H21.3247C21.398 14.3778 21.5235 14.9549 21.6996 15.5172H10.4656V13.7931H12.1897C12.4183 13.7931 12.6376 13.7023 12.7993 13.5406C12.9609 13.3789 13.0518 13.1597 13.0518 12.931C13.0518 12.7024 12.9609 12.4831 12.7993 12.3215C12.6376 12.1598 12.4183 12.069 12.1897 12.069H4.8621C4.67256 12.0684 4.48814 12.1305 4.33756 12.2456C4.18697 12.3607 4.07867 12.5224 4.02949 12.7055C3.98031 12.8885 3.99303 13.0827 4.06566 13.2578C4.13829 13.4329 4.26676 13.579 4.43107 13.6735V15.5172H2.83952C2.46375 14.5558 2.27254 13.5322 2.2759 12.5C2.27715 11.4683 2.46799 10.4455 2.83889 9.48276H7.44831V9.91379C7.4501 10.0644 7.49105 10.212 7.56716 10.342C7.64327 10.4721 7.7519 10.58 7.88238 10.6554C8.01286 10.7307 8.16069 10.7707 8.31135 10.7716C8.462 10.7725 8.61029 10.7341 8.74163 10.6603L10.4656 9.66418L12.1895 10.6603C12.3208 10.7341 12.4691 10.7725 12.6198 10.7716C12.7704 10.7707 12.9182 10.7307 13.0487 10.6553C13.1792 10.58 13.2878 10.4721 13.3639 10.342C13.44 10.212 13.481 10.0644 13.4828 9.91379V6.03448H15.2069C15.4356 6.03448 15.6548 5.94366 15.8165 5.78199C15.9782 5.62032 16.069 5.40105 16.069 5.17241C16.069 4.94378 15.9782 4.72451 15.8165 4.56284C15.6548 4.40117 15.4356 4.31034 15.2069 4.31034H7.87935C7.6898 4.30978 7.50539 4.37189 7.3548 4.487C7.20422 4.60212 7.09591 4.76379 7.04673 4.94684C6.99756 5.1299 7.01027 5.32408 7.0829 5.49916C7.15553 5.67423 7.284 5.82039 7.44831 5.91489V7.75862H2.2759C2.11378 7.75858 1.95495 7.80429 1.81764 7.89047C1.68034 7.97666 1.57014 8.09984 1.4997 8.24585C0.875536 9.57696 0.551904 11.0291 0.551758 12.4993C0.551612 13.9695 0.874955 15.4217 1.49885 16.7529C1.56923 16.8992 1.6795 17.0227 1.81697 17.1091C1.95444 17.1955 2.11352 17.2414 2.2759 17.2414H4.43107V18.5345C4.43285 18.6851 4.4738 18.8327 4.5499 18.9627C4.62601 19.0928 4.73464 19.2008 4.86512 19.2761C4.99561 19.3514 5.14344 19.3914 5.2941 19.3923C5.44476 19.3932 5.59305 19.3548 5.72439 19.281L7.44831 18.2849L9.17224 19.281C9.30358 19.3548 9.45186 19.3931 9.60252 19.3923C9.75317 19.3914 9.901 19.3514 10.0315 19.276C10.162 19.2007 10.2706 19.0928 10.3467 18.9627C10.4228 18.8327 10.4638 18.6851 10.4656 18.5345V17.2414H26.0097C25.7501 18.0805 25.6015 18.9499 25.5676 19.8276H17.3621C17.1335 19.8276 16.9142 19.9184 16.7525 20.0801C16.5909 20.2417 16.5 20.461 16.5 20.6897C16.5 20.9183 16.5909 21.1376 16.7525 21.2992C16.9142 21.4609 17.1335 21.5517 17.3621 21.5517H25.6329C25.7062 22.1365 25.8317 22.7135 26.0078 23.2759H7.14795C6.86822 22.5593 6.69054 21.8069 6.6201 21.0409C6.59894 20.8133 6.48823 20.6034 6.31231 20.4574C6.13639 20.3114 5.90968 20.2413 5.68205 20.2624C5.45442 20.2836 5.24452 20.3943 5.09852 20.5702C4.95252 20.7461 4.88238 20.9728 4.90354 21.2005C5.00781 22.3487 5.31367 23.4695 5.80707 24.5115C5.87747 24.6578 5.98774 24.7813 6.12521 24.8677C6.26267 24.9541 6.42174 25 6.58411 25H27.2738C27.4191 24.9984 27.5617 24.9604 27.6885 24.8893C27.8153 24.8183 27.9223 24.7166 27.9995 24.5934C28.0768 24.4703 28.1219 24.3298 28.1307 24.1847C28.1395 24.0396 28.1118 23.8946 28.05 23.7631ZM11.7587 6.03448V8.42012L10.8968 7.92216C10.7657 7.84646 10.6169 7.8066 10.4655 7.8066C10.3141 7.8066 10.1654 7.84646 10.0343 7.92216L9.17245 8.42012V6.03448H11.7587ZM7.87955 16.5428C7.74844 16.4671 7.5997 16.4273 7.4483 16.4273C7.2969 16.4273 7.14817 16.4671 7.01705 16.5428L6.15521 17.0408V13.7931H8.74142V17.0408L7.87955 16.5428Z" fill="#222222"/>
<path id="Vector_7" d="M13.9138 21.5517C14.3899 21.5517 14.7759 21.1658 14.7759 20.6897C14.7759 20.2136 14.3899 19.8276 13.9138 19.8276C13.4377 19.8276 13.0518 20.2136 13.0518 20.6897C13.0518 21.1658 13.4377 21.5517 13.9138 21.5517Z" fill="white"/>
</g>
</svg>
