<svg width="45" height="37" viewBox="0 0 45 37" fill="none" xmlns="http://www.w3.org/2000/svg">
<path d="M30.4708 26.7994C27.6666 26.7994 25.3853 29.0807 25.3853 31.885C25.3853 34.6892 27.6666 36.9705 30.4708 36.9705C33.2755 36.9705 35.5564 34.6892 35.5564 31.885C35.5564 29.0807 33.2751 26.7994 30.4708 26.7994ZM30.4708 34.4278C29.0685 34.4278 27.928 33.2873 27.928 31.885C27.928 30.4827 29.0685 29.3422 30.4708 29.3422C31.8731 29.3422 33.0136 30.4827 33.0136 31.885C33.0136 33.2874 31.8731 34.4278 30.4708 34.4278Z" fill="#222222"/>
<path d="M13.0953 26.7994C10.2911 26.7994 8.00977 29.0807 8.00977 31.885C8.00977 34.6892 10.2911 36.9705 13.0953 36.9705C15.8996 36.9705 18.1809 34.6892 18.1809 31.885C18.1809 29.0807 15.8996 26.7994 13.0953 26.7994ZM13.0953 34.4278C11.693 34.4278 10.5525 33.2873 10.5525 31.885C10.5525 30.4827 11.693 29.3422 13.0953 29.3422C14.4973 29.3422 15.6381 30.4827 15.6381 31.885C15.6381 33.2874 14.4976 34.4278 13.0953 34.4278Z" fill="#222222"/>
<path d="M33.8957 12.2429C33.6795 11.8136 33.2401 11.5428 32.7595 11.5428H26.0635V14.0856H31.9754L35.4374 20.9714L37.7098 19.8288L33.8957 12.2429Z" fill="#222222"/>
<path d="M26.6568 30.656H17.0366V33.1988H26.6568V30.656Z" fill="#222222"/>
<path d="M9.28082 30.656H4.8734C4.17114 30.656 3.60205 31.2252 3.60205 31.9274C3.60205 32.6296 4.17122 33.1987 4.8734 33.1987H9.2809C9.98316 33.1987 10.5522 32.6295 10.5522 31.9274C10.5522 31.2251 9.98308 30.656 9.28082 30.656Z" fill="#222222"/>
<path d="M40.0781 22.8835L37.5773 19.6627C37.3371 19.3524 36.9662 19.171 36.5734 19.171H27.3346V10.2714C27.3346 9.56909 26.7654 9 26.0632 9H4.8734C4.17114 9 3.60205 9.56917 3.60205 10.2714C3.60205 10.9735 4.17122 11.5427 4.8734 11.5427H24.7918V20.4424C24.7918 21.1447 25.361 21.7138 26.0632 21.7138H35.9508L37.8023 24.0989V30.6558H34.2848C33.5825 30.6558 33.0134 31.225 33.0134 31.9272C33.0134 32.6295 33.5826 33.1985 34.2848 33.1985H39.0737C39.7759 33.1985 40.345 32.6294 40.3451 31.9272V23.6633C40.3451 23.3811 40.251 23.1065 40.0781 22.8835Z" fill="#222222"/>
<path d="M9.19643 24.2143H3.34801C2.64575 24.2143 2.07666 24.7835 2.07666 25.4857C2.07666 26.1879 2.64583 26.757 3.34801 26.757H9.19636C9.89862 26.757 10.4677 26.1879 10.4677 25.4857C10.4678 24.7835 9.89862 24.2143 9.19643 24.2143Z" fill="#5FB868"/>
<path d="M12.1206 19.2134H1.27135C0.569169 19.2134 0 19.7826 0 20.4849C0 21.1871 0.569169 21.7562 1.27135 21.7562H12.1206C12.8228 21.7562 13.3919 21.187 13.3919 20.4849C13.3919 19.7827 12.8228 19.2134 12.1206 19.2134Z" fill="#5FB868"/>
<path d="M14.1972 14.2127H3.34801C2.64575 14.2127 2.07666 14.7819 2.07666 15.4841C2.07666 16.1863 2.64583 16.7554 3.34801 16.7554H14.1972C14.8995 16.7554 15.4686 16.1863 15.4686 15.4841C15.4686 14.7819 14.8995 14.2127 14.1972 14.2127Z" fill="#5FB868"/>
<rect x="29" width="16" height="16" rx="8" fill="#5FB868"/>
<path d="M33.9556 13L38.0222 7.03333C38.1926 6.77407 38.3074 6.56296 38.3667 6.4C38.4259 6.22963 38.4556 6.07407 38.4556 5.93333C38.4556 5.55556 38.3222 5.23704 38.0556 4.97778C37.7889 4.71111 37.4593 4.57778 37.0667 4.57778C36.6741 4.57778 36.3444 4.71111 36.0778 4.97778C35.8185 5.23704 35.6889 5.55556 35.6889 5.93333C35.6889 6.43704 35.9074 6.87407 36.3444 7.24444H34.1667C33.937 6.82963 33.8222 6.38889 33.8222 5.92222C33.8222 5.35926 33.963 4.84074 34.2444 4.36667C34.5333 3.89259 34.9222 3.51111 35.4111 3.22222C35.9074 2.92593 36.463 2.77778 37.0778 2.77778C37.6778 2.77778 38.2296 2.92222 38.7333 3.21111C39.237 3.49259 39.637 3.87037 39.9333 4.34444C40.237 4.81852 40.3889 5.34815 40.3889 5.93333C40.3889 6.28889 40.3222 6.62963 40.1889 6.95556C40.063 7.27407 39.8593 7.62963 39.5778 8.02222L37.3222 11.2H40.5111V13H33.9556Z" fill="white"/>
</svg>
