<svg width="74" height="88" viewBox="0 0 74 88" fill="none" xmlns="http://www.w3.org/2000/svg">
<path d="M70.4949 11.77C68.2846 9.48063 65.1977 8.16578 62.0283 8.16578H12.4733C9.30394 8.16578 6.21707 9.47891 4.00675 11.77C1.8841 13.97 0.772065 16.8162 0.876909 19.7948C0.955971 21.89 2.53722 23.5641 4.56706 23.8047L6.97675 76.5359C7.2741 82.9641 12.365 88 18.568 88H55.9336C62.1366 88 67.2275 82.9641 67.5232 76.5325L69.9329 23.803C71.9627 23.5623 73.5439 21.8883 73.623 19.788C73.7296 16.8162 72.6175 13.9683 70.4949 11.77ZM7.96332 15.5891C9.1441 14.367 10.7872 13.6658 12.4733 13.6658H62.0283C63.7144 13.6658 65.3575 14.367 66.5383 15.5891C67.3032 16.3814 67.8102 17.3284 68.0199 18.3339H6.48175C6.69316 17.3267 7.20019 16.3814 7.96332 15.5891ZM62.0283 76.2798C61.8685 79.7672 59.1907 82.5 55.9336 82.5H18.568C15.311 82.5 12.6332 79.7689 12.4716 76.2816L10.0757 23.8339H64.426L62.0283 76.2798ZM26.1855 32.67V73.6691C26.1855 75.1884 24.9549 76.4191 23.4355 76.4191C21.9161 76.4191 20.6855 75.1884 20.6855 73.6691V32.67C20.6855 31.1506 21.9161 29.92 23.4355 29.92C24.9549 29.92 26.1855 31.1506 26.1855 32.67ZM40.0025 32.67V73.6691C40.0025 75.1884 38.7719 76.4191 37.2525 76.4191C35.7332 76.4191 34.5025 75.1884 34.5025 73.6691V32.67C34.5025 31.1506 35.7332 29.92 37.2525 29.92C38.7719 29.92 40.0025 31.1506 40.0025 32.67ZM53.8161 32.67V73.6691C53.8161 75.1884 52.5855 76.4191 51.0661 76.4191C49.5468 76.4191 48.3161 75.1884 48.3161 73.6691V32.67C48.3161 31.1506 49.5468 29.92 51.0661 29.92C52.5838 29.92 53.8161 31.1506 53.8161 32.67ZM27.9111 2.75C27.9111 1.23062 29.1418 0 30.6611 0H43.8405C45.3599 0 46.5905 1.23062 46.5905 2.75C46.5905 4.26937 45.3599 5.5 43.8405 5.5H30.6611C29.1418 5.5 27.9111 4.26937 27.9111 2.75Z" fill="#00733C"/>
</svg>
